<svg width="130" height="135" viewBox="0 0 130 135" fill="none" xmlns="http://www.w3.org/2000/svg">
<path d="M101.667 71.5237L106.902 67.9224L113.838 68.4071L114.27 77.1922L109.179 80.8255L102.904 80.3673L101.667 71.5237Z" stroke="#263238" stroke-width="0.7" stroke-linecap="round" stroke-linejoin="round"/>
<path d="M102.903 80.3669L107.968 76.7229L114.269 77.1917" stroke="#263238" stroke-width="0.7" stroke-linecap="round" stroke-linejoin="round"/>
<path d="M107.969 76.7233L106.902 67.9224" stroke="#263238" stroke-width="0.7" stroke-linecap="round" stroke-linejoin="round"/>
<path d="M101.667 71.5235L108.587 72.3227L113.838 68.407" stroke="#263238" stroke-width="0.7" stroke-linecap="round" stroke-linejoin="round"/>
<path d="M108.586 72.3228L109.178 80.8254" stroke="#263238" stroke-width="0.7" stroke-linecap="round" stroke-linejoin="round"/>
<path d="M102.62 5.58032L102.396 17.2901L112.664 12.6286L102.62 5.58032Z" stroke="#263238" stroke-width="0.7" stroke-linecap="round" stroke-linejoin="round"/>
<path d="M102.622 5.58032L107.511 14.8981" stroke="#263238" stroke-width="0.7" stroke-linecap="round" stroke-linejoin="round"/>
<path d="M106.727 13.4011L107.921 12.8257L108.715 14.4186" stroke="#263238" stroke-width="0.7" stroke-linecap="round" stroke-linejoin="round"/>
<path d="M13.1484 4.47168L17.3867 9.01601" stroke="#263238" stroke-width="0.7" stroke-linecap="round" stroke-linejoin="round"/>
<path d="M17.425 3.85938L13.8584 8.73934" stroke="#263238" stroke-width="0.7" stroke-linecap="round" stroke-linejoin="round"/>
<path d="M19.1567 1.47778C19.2762 1.42267 19.4069 1.39597 19.5386 1.39977C19.6702 1.40357 19.7991 1.43778 19.9153 1.4997C20.0315 1.56162 20.1317 1.64958 20.2082 1.75669C20.2847 1.86379 20.3354 1.98714 20.3562 2.11707C20.5641 3.13995 18.8848 4.47181 18.8848 4.47181H21.2785" stroke="#263238" stroke-width="0.7" stroke-linecap="round" stroke-linejoin="round"/>
<path d="M4.34668 105.225C4.34656 103.824 4.6901 102.445 5.3472 101.208C6.0043 99.971 6.95493 98.9137 8.11582 98.1289" stroke="#263238" stroke-width="0.7" stroke-linecap="round" stroke-linejoin="round"/>
<path d="M19.1392 111.133C18.123 112.203 16.8475 112.993 15.4363 113.426C14.0251 113.859 12.5259 113.92 11.084 113.604C9.64208 113.288 8.30631 112.605 7.20603 111.621C6.10576 110.638 5.27827 109.387 4.80371 107.99" stroke="#263238" stroke-width="0.7" stroke-linecap="round" stroke-linejoin="round"/>
<path d="M12.9238 96.6533C15.1984 96.6547 17.3794 97.5583 18.9877 99.1655C20.5961 100.773 21.5003 102.952 21.5017 105.225" stroke="#263238" stroke-width="0.7" stroke-linecap="round" stroke-linejoin="round"/>
<path d="M12.9233 112.785C10.917 112.785 8.99282 111.988 7.57412 110.571C6.15542 109.153 5.3584 107.23 5.3584 105.225" stroke="#263238" stroke-width="0.7" stroke-linecap="round" stroke-linejoin="round"/>
<path d="M7.03418 100.478C7.73582 99.6158 8.61921 98.9185 9.62138 98.436C10.6236 97.9536 11.7199 97.698 12.8322 97.6874C13.9445 97.6767 15.0455 97.9114 16.0567 98.3746C17.068 98.8378 17.9645 99.5182 18.6825 100.367C19.4005 101.216 19.9223 102.213 20.2107 103.287C20.4991 104.36 20.547 105.484 20.3511 106.578C20.1551 107.673 19.72 108.71 19.0769 109.617C18.4338 110.524 17.5984 111.278 16.6303 111.826" stroke="#263238" stroke-width="0.7" stroke-linecap="round" stroke-linejoin="round"/>
<path d="M11.7514 110.366L12.9242 105.225L11.2822 101.027" stroke="#263238" stroke-width="0.7" stroke-linecap="round" stroke-linejoin="round"/>
<path d="M1 131.285L129 131.285" stroke="#263238" stroke-width="0.7" stroke-linecap="round" stroke-linejoin="round"/>
<path d="M36.8516 51.9185L58.3255 131.074H61.5349L40.0609 51.9185H36.8516Z" fill="#757575" stroke="#263238" stroke-width="0.7" stroke-linecap="round" stroke-linejoin="round"/>
<path d="M85.2093 108.635H44.5059V111.948H85.2093V108.635Z" fill="#999999" stroke="#263238" stroke-width="0.7" stroke-linecap="round" stroke-linejoin="round"/>
<path d="M106.923 34.1353L80.6294 131.095H77.4307L103.724 34.1353C104.694 30.5606 102.471 27.6571 98.7661 27.6571H76.0926C72.3928 27.6571 68.5863 30.5606 67.616 34.1353L41.3227 131.095H38.124L64.4173 34.1353C65.8514 28.8452 71.4598 24.5459 76.9456 24.5459H99.6031C105.078 24.5566 108.362 28.8452 106.923 34.1353Z" fill="#757575" stroke="#263238" stroke-width="0.7" stroke-linecap="round" stroke-linejoin="round"/>
<path d="M107.372 34.1672L100.846 58.2367C100.529 59.2475 99.9074 60.1357 99.0657 60.7794C98.2239 61.4232 97.2035 61.7911 96.1443 61.8328H58.8848C58.4362 61.8666 57.9863 61.788 57.5758 61.6041C57.1653 61.4203 56.8073 61.1369 56.5341 60.7798C56.2609 60.4226 56.0812 60.003 56.0113 59.559C55.9414 59.1149 55.9836 58.6604 56.1339 58.2367L62.6646 34.1672C62.9823 33.1568 63.6044 32.2691 64.446 31.6255C65.2877 30.9818 66.3077 30.6136 67.3667 30.5712H104.594C105.045 30.534 105.497 30.61 105.91 30.7923C106.324 30.9746 106.685 31.2573 106.961 31.6148C107.237 31.9722 107.419 32.393 107.491 32.8388C107.563 33.2847 107.522 33.7413 107.372 34.1672V34.1672Z" fill="#0D7377"/>
<path opacity="0.2" d="M107.372 34.1672L100.846 58.2366C100.529 59.2474 99.9075 60.1356 99.0657 60.7794C98.2239 61.4231 97.2035 61.791 96.1443 61.8327H58.8848C58.4362 61.8665 57.9863 61.7879 57.5758 61.604C57.1653 61.4202 56.8073 61.1368 56.5341 60.7797C56.2609 60.4226 56.0812 60.0029 56.0113 59.5589C55.9414 59.1148 55.9836 58.6603 56.1339 58.2366L62.6646 34.1672C62.9823 33.1568 63.6044 32.269 64.446 31.6254C65.2877 30.9817 66.3077 30.6135 67.3667 30.5711H86.6175C94.9395 39.0951 93.8786 54.8058 93.3348 59.5472C94.2036 59.3384 95.0036 58.9089 95.6574 58.3004C96.3112 57.6918 96.7966 56.9248 97.0666 56.0737L103.597 32.0042C103.731 31.5385 103.758 31.0488 103.677 30.5711H104.61C105.059 30.5368 105.51 30.6149 105.921 30.7984C106.332 30.9819 106.691 31.2649 106.965 31.622C107.24 31.979 107.42 32.3987 107.491 32.8431C107.562 33.2875 107.521 33.7426 107.372 34.1672V34.1672Z" fill="black" fill-opacity="0.7"/>
<path d="M107.372 34.1672L100.846 58.2367C100.529 59.2475 99.9074 60.1357 99.0657 60.7794C98.2239 61.4232 97.2035 61.7911 96.1443 61.8328H58.8848C58.4362 61.8666 57.9863 61.788 57.5758 61.6041C57.1653 61.4203 56.8073 61.1369 56.5341 60.7798C56.2609 60.4226 56.0812 60.003 56.0113 59.559C55.9414 59.1149 55.9836 58.6604 56.1339 58.2367L62.6646 34.1672C62.9823 33.1568 63.6044 32.2691 64.446 31.6255C65.2877 30.9818 66.3077 30.6136 67.3667 30.5712H104.594C105.045 30.534 105.497 30.61 105.91 30.7923C106.324 30.9746 106.685 31.2573 106.961 31.6148C107.237 31.9722 107.419 32.393 107.491 32.8388C107.563 33.2847 107.522 33.7413 107.372 34.1672V34.1672Z" stroke="#263238" stroke-width="0.7" stroke-linecap="round" stroke-linejoin="round"/>
<path d="M85.4551 86.1956L97.6261 131.074H100.841L88.6644 86.1956H85.4551Z" fill="#757575" stroke="#263238" stroke-width="0.7" stroke-linecap="round" stroke-linejoin="round"/>
<path d="M88.68 81.0434V85.4332H40.7314V81.0434C40.7314 80.1871 41.0718 79.366 41.6777 78.7605C42.2836 78.1551 43.1053 77.8149 43.9621 77.8149H85.4333C86.1433 77.8144 86.8338 78.0472 87.3984 78.4776C87.9629 78.9079 88.3702 79.5119 88.5573 80.1963C88.6365 80.4718 88.6777 80.7568 88.68 81.0434V81.0434Z" fill="#0D7377"/>
<path opacity="0.2" d="M88.568 80.1963C87.0167 82.0183 84.2338 83.8723 79.4464 85.4332H40.7314V81.0434C40.7314 80.1872 41.0718 79.366 41.6777 78.7606C42.2836 78.1551 43.1053 77.815 43.9621 77.815H85.4333C86.1452 77.8121 86.8381 78.0438 87.4048 78.4744C87.9715 78.9049 88.3804 79.5101 88.568 80.1963V80.1963Z" fill="black" fill-opacity="0.7"/>
<path d="M88.68 81.0434V85.4332H40.7314V81.0434C40.7314 80.1871 41.0718 79.366 41.6777 78.7605C42.2836 78.1551 43.1053 77.8149 43.9621 77.8149H85.4333C86.1433 77.8144 86.8338 78.0472 87.3984 78.4776C87.9629 78.9079 88.3702 79.5119 88.5573 80.1963C88.6365 80.4718 88.6777 80.7568 88.68 81.0434V81.0434Z" stroke="#263238" stroke-width="0.7" stroke-linecap="round" stroke-linejoin="round"/>
<path d="M90.3058 84.0908H39.5318C39.0283 84.0908 38.6201 84.4987 38.6201 85.0018V87.298C38.6201 87.8011 39.0283 88.2089 39.5318 88.2089H90.3058C90.8093 88.2089 91.2174 87.8011 91.2174 87.298V85.0018C91.2174 84.4987 90.8093 84.0908 90.3058 84.0908Z" fill="#999999" stroke="#263238" stroke-width="0.7" stroke-linecap="round" stroke-linejoin="round"/>
<path d="M39.1863 84.2405C36.8886 86.5792 48.0254 123.328 48.0254 123.328C46.8099 124.394 45.0186 124.884 43.3233 125.107C41.7649 125.301 40.19 125.324 38.6265 125.177C38.6265 125.177 22.665 86.4887 27.0579 76.8886C31.4508 67.2885 58.709 62.8933 58.709 62.8933L59.8712 60.0165L73.9722 58.0347L76.3019 75.2903C76.3019 75.2903 73.9882 75.5141 70.5069 75.9616C61.172 77.1603 43.3979 79.9465 39.1863 84.2405Z" fill="#263238"/>
<path opacity="0.3" d="M48.024 123.328C46.8085 124.393 45.0172 124.884 43.3219 125.107C40.2245 113.6 32.3397 82.8924 35.3252 79.1366C39.009 74.5017 57.2416 70.2876 57.2416 70.2876C57.3163 67.9222 63.7083 65.7913 63.7083 65.7913L70.5056 75.972C61.1707 77.1707 43.4072 79.957 39.185 84.2509C36.8872 86.579 48.024 123.328 48.024 123.328Z" fill="black"/>
<path d="M39.1863 84.2405C36.8886 86.5792 48.0254 123.328 48.0254 123.328C46.8099 124.394 45.0186 124.884 43.3233 125.107C41.7649 125.301 40.19 125.324 38.6265 125.177C38.6265 125.177 22.665 86.4887 27.0579 76.8886C31.4508 67.2885 58.709 62.8933 58.709 62.8933L59.8712 60.0165L73.9722 58.0347L76.3019 75.2903C76.3019 75.2903 73.9882 75.5141 70.5069 75.9616C61.172 77.1603 43.3979 79.9465 39.1863 84.2405Z" stroke="#263238" stroke-width="0.7" stroke-linecap="round" stroke-linejoin="round"/>
<path d="M31.2947 49.4408C28.9543 49.036 45.6142 34.4387 45.6142 34.4387L53.6483 39.8408C53.6483 39.8408 39.9738 49.4621 37.8254 49.7285C35.6769 49.9949 31.2947 49.4408 31.2947 49.4408Z" fill="white"/>
<path opacity="0.2" d="M31.2947 49.4408C28.9543 49.036 45.6142 34.4387 45.6142 34.4387L53.6483 39.8408C53.6483 39.8408 39.9738 49.4621 37.8254 49.7285C35.6769 49.9949 31.2947 49.4408 31.2947 49.4408Z" fill="black" fill-opacity="0.7"/>
<path d="M31.2947 49.4408C28.9543 49.036 45.6142 34.4387 45.6142 34.4387L53.6483 39.8408C53.6483 39.8408 39.9738 49.4621 37.8254 49.7285C35.6769 49.9949 31.2947 49.4408 31.2947 49.4408Z" stroke="#263238" stroke-width="0.7" stroke-linecap="round" stroke-linejoin="round"/>
<path d="M34.2314 43.2986C34.2314 43.2986 37.7234 44.167 38.7896 44.8968C39.8558 45.6267 39.5573 48.2691 39.5573 48.2691C39.5573 48.2691 34.8925 46.9532 34.2314 43.2986Z" fill="white" stroke="#263238" stroke-width="0.7" stroke-linecap="round" stroke-linejoin="round"/>
<path d="M31.9932 36.618L38.4812 49.0576H39.2542L33.0861 36L31.9932 36.618Z" fill="#263238"/>
<path d="M37.8474 45.6051C37.8474 45.6051 33.753 42.6963 32.7508 42.6963C31.7485 42.6963 28.7471 46.239 28.7471 48.0237C28.7471 49.8084 35.2884 50.7834 36.5732 49.2757C37.2076 48.5245 35.9442 46.7132 35.9442 46.7132C36.7054 47.5246 37.5231 48.2812 38.3912 48.9773C38.9243 49.2757 39.9372 48.8868 39.9372 48.8868C39.9372 48.8868 38.5991 46.7079 37.8474 45.6051Z" fill="white" stroke="#263238" stroke-width="0.7" stroke-linecap="round" stroke-linejoin="round"/>
<path d="M35.9333 49.6914C34.9873 48.4937 33.8267 47.482 32.5107 46.708" stroke="#263238" stroke-width="0.7" stroke-linecap="round" stroke-linejoin="round"/>
<path d="M35.9334 46.7081C35.9334 46.7081 34.5153 45.4721 33.5557 45.2004" stroke="#263238" stroke-width="0.7" stroke-linecap="round" stroke-linejoin="round"/>
<path d="M31.4814 48.269C32.4742 48.7762 33.4307 49.3512 34.3443 49.9898" stroke="#263238" stroke-width="0.7" stroke-linecap="round" stroke-linejoin="round"/>
<path d="M50.8614 28.0564C48.7289 29.5214 39.3301 39.2121 39.3301 39.2121C39.3301 39.2121 43.739 44.2252 47.5987 44.9498L58.0745 39.8674L50.8614 28.0564Z" fill="#0D7377" stroke="#263238" stroke-width="0.7" stroke-linecap="round" stroke-linejoin="round"/>
<path opacity="0.4" d="M50.8614 28.0564C48.7289 29.5214 39.3301 39.2121 39.3301 39.2121C39.3301 39.2121 43.739 44.2252 47.5987 44.9498L58.0745 39.8674L50.8614 28.0564Z" fill="white" stroke="#263238" stroke-width="0.7" stroke-linecap="round" stroke-linejoin="round"/>
<path d="M45.7737 119.428L50.1986 131.074C50.1986 131.074 50.9396 134.073 37.5477 133.125L30.1641 132.496L45.7737 119.428Z" fill="#0D7377"/>
<path opacity="0.3" d="M45.7737 119.428L50.1986 131.074C50.1986 131.074 50.9396 134.073 37.5477 133.125L30.1641 132.496L45.7737 119.428Z" fill="black"/>
<path d="M45.7737 119.428L50.1986 131.074C50.1986 131.074 50.9396 134.073 37.5477 133.125L30.1641 132.496L45.7737 119.428Z" stroke="#263238" stroke-width="0.7" stroke-linecap="round" stroke-linejoin="round"/>
<path d="M44.0841 125.011C44.0841 125.011 45.0331 129.545 44.0841 132.917C44.0841 132.917 29.9566 135.128 26.7898 134.286C23.6231 133.444 21.7092 131.868 21.6133 131.09C21.6133 131.09 21.7306 128.927 24.8919 128.293C28.0533 127.659 34.3601 127.227 36.8498 123.658C39.3394 120.089 44.0841 125.011 44.0841 125.011Z" fill="#0D7377" stroke="#263238" stroke-width="0.7" stroke-linecap="round" stroke-linejoin="round"/>
<path d="M62.7387 59.5687C67.2542 53.1278 88.0085 60.874 88.0085 60.874C88.0085 60.874 89.9917 76.3662 81.723 80.5003C73.4544 84.6345 61.5232 84.4107 58.3245 87.7617L45.2099 126.428C45.2099 126.428 40.5024 128.4 33.6572 125.299C33.6572 125.299 41.9792 96.0992 44.4155 85.7319C46.8305 75.4712 62.4722 68.5082 62.4722 68.5082C61.6645 67.5572 61.0522 66.4566 60.6702 65.2691" fill="#263238"/>
<path d="M62.7387 59.5687C67.2542 53.1278 88.0085 60.874 88.0085 60.874C88.0085 60.874 89.9917 76.3662 81.723 80.5003C73.4544 84.6345 61.5232 84.4107 58.3245 87.7617L45.2099 126.428C45.2099 126.428 40.5024 128.4 33.6572 125.299C33.6572 125.299 41.9792 96.0992 44.4155 85.7319C46.8305 75.4712 62.4722 68.5082 62.4722 68.5082C61.6645 67.5572 61.0522 66.4566 60.6702 65.2691" stroke="#263238" stroke-width="0.7" stroke-linecap="round" stroke-linejoin="round"/>
<path d="M83.7543 74.3735C83.0895 74.9619 82.3898 75.5098 81.6592 76.0144" stroke="white" stroke-width="0.7" stroke-linecap="round" stroke-linejoin="round"/>
<path d="M85.454 61.252C87.144 64.9279 87.2772 69.6001 84.9209 72.999" stroke="white" stroke-width="0.7" stroke-linecap="round" stroke-linejoin="round"/>
<path d="M80.7163 61.8328C80.7163 61.8328 80.2792 64.667 81.548 65.7911C82.8168 66.9152 86.6872 67.4905 86.6872 67.4905" stroke="white" stroke-width="0.7" stroke-linecap="round" stroke-linejoin="round"/>
<path d="M63.704 61.9712C63.704 61.9712 63.8852 64.7947 62.739 64.6349C61.5928 64.4751 61.5342 65.7643 61.5342 65.7643" stroke="white" stroke-width="0.7" stroke-linecap="round" stroke-linejoin="round"/>
<path d="M51.1068 30.2302C50.9364 29.5179 50.8452 28.7889 50.835 28.0566C50.835 28.0566 57.259 22.6652 65.469 22.6972C75.273 22.7291 81.2706 25.8137 83.6749 30.097C87.4761 36.8736 88.0092 60.8738 88.0092 60.8738C88.0092 60.8738 63.4005 64.6669 59.866 60.0161C59.2529 59.2063 59.722 53.4899 59.722 53.4899C59.722 53.4899 56.9711 46.2659 56.3847 40.6614C56.3847 40.6614 55.3185 39.2336 54.135 37.1985C53.2587 35.7333 52.4993 34.2013 51.8639 32.6169" fill="#0D7377"/>
<path d="M51.1068 30.2302C50.9364 29.5179 50.8452 28.7889 50.835 28.0566C50.835 28.0566 57.259 22.6652 65.469 22.6972C75.273 22.7291 81.2706 25.8137 83.6749 30.097C87.4761 36.8736 88.0092 60.8738 88.0092 60.8738C88.0092 60.8738 63.4005 64.6669 59.866 60.0161C59.2529 59.2063 59.722 53.4899 59.722 53.4899C59.722 53.4899 56.9711 46.2659 56.3847 40.6614C56.3847 40.6614 55.3185 39.2336 54.135 37.1985C53.2587 35.7333 52.4993 34.2013 51.8639 32.6169" stroke="#263238" stroke-width="0.7" stroke-linecap="round" stroke-linejoin="round"/>
<g opacity="0.6">
<path d="M51.1068 30.2302C50.9364 29.5179 50.8452 28.7889 50.835 28.0566C50.835 28.0566 57.259 22.6652 65.469 22.6972C75.273 22.7291 81.2706 25.8137 83.6749 30.097C87.4761 36.8736 88.0092 60.8738 88.0092 60.8738C88.0092 60.8738 63.4005 64.6669 59.866 60.0161C59.2529 59.2063 59.722 53.4899 59.722 53.4899C59.722 53.4899 56.9711 46.2659 56.3847 40.6614C56.3847 40.6614 55.3185 39.2336 54.135 37.1985C53.2587 35.7333 52.4993 34.2013 51.8639 32.6169" fill="white"/>
<path d="M51.1068 30.2302C50.9364 29.5179 50.8452 28.7889 50.835 28.0566C50.835 28.0566 57.259 22.6652 65.469 22.6972C75.273 22.7291 81.2706 25.8137 83.6749 30.097C87.4761 36.8736 88.0092 60.8738 88.0092 60.8738C88.0092 60.8738 63.4005 64.6669 59.866 60.0161C59.2529 59.2063 59.722 53.4899 59.722 53.4899C59.722 53.4899 56.9711 46.2659 56.3847 40.6614C56.3847 40.6614 55.3185 39.2336 54.135 37.1985C53.2587 35.7333 52.4993 34.2013 51.8639 32.6169" stroke="#263238" stroke-width="0.7" stroke-linecap="round" stroke-linejoin="round"/>
</g>
<path d="M60.5361 36.0159C60.5361 36.0159 64.2946 50.5918 63.7348 53.7936C63.6026 54.9002 63.7875 56.0216 64.2679 57.0274C63.7783 57.5444 63.4634 58.202 63.3677 58.9074C63.2721 59.6128 63.4005 60.3305 63.7348 60.9591" stroke="#263238" stroke-width="0.7" stroke-linecap="round" stroke-linejoin="round"/>
<path d="M70.5073 48.0559C69.836 48.0304 69.1839 47.8243 68.6201 47.4592L67.5059 42.5793C69.7162 42.7811 71.9447 42.6264 74.1058 42.1211L75.3 47.4486C74.627 47.6364 73.9434 47.7841 73.2529 47.8908" stroke="#263238" stroke-width="0.7" stroke-linecap="round" stroke-linejoin="round"/>
<path d="M57.8675 37.8964C57.8675 37.8964 54.6688 24.2794 62.7402 22.6971C70.8116 21.1149 72.4696 24.8814 71.9898 27.4332C71.3554 30.8375 64.6701 39.2122 64.6701 39.2122L60.5384 36.0158L57.8675 37.8964Z" fill="#0D7377" stroke="#263238" stroke-width="0.7" stroke-linecap="round" stroke-linejoin="round"/>
<path opacity="0.4" d="M57.8675 37.8964C57.8675 37.8964 54.6688 24.2794 62.7402 22.6971C70.8116 21.1149 72.4696 24.8814 71.9898 27.4332C71.3554 30.8375 64.6701 39.2122 64.6701 39.2122L60.5384 36.0158L57.8675 37.8964Z" fill="white" stroke="#263238" stroke-width="0.7" stroke-linecap="round" stroke-linejoin="round"/>
<path d="M47.2773 79.93C47.2773 79.93 52.4859 73.9153 64.2625 69.3709C64.2625 69.3709 61.2077 68.4386 60.5306 67.176" stroke="white" stroke-width="0.7" stroke-linecap="round" stroke-linejoin="round"/>
<path d="M41.1464 98.363L36.375 115.656" stroke="white" stroke-width="0.7" stroke-linecap="round" stroke-linejoin="round"/>
<path d="M77.9697 48.5249C77.9697 48.5249 80.1022 52.1263 88.888 51.7906C87.2519 50.0419 85.1831 48.7556 82.8904 48.0614C79.3078 47.1025 77.9697 48.5249 77.9697 48.5249Z" fill="#0D7377" stroke="#263238" stroke-width="0.7" stroke-linecap="round" stroke-linejoin="round"/>
<path d="M43.9307 49.9739C43.9307 49.9739 45.9672 46.8147 47.8384 46.1861C49.7097 45.5574 55.1848 45.4988 56.0271 45.4722C56.8694 45.4456 71.9406 49.276 79.0044 51.6307L78.3914 39.8411L87.8862 40.5922C87.8862 40.5922 87.5076 54.9764 86.0309 58.7855C84.5542 62.5947 82.4377 61.6677 78.8285 60.1121C64.6263 54.0015 56.3096 49.7448 55.542 49.9899C54.7743 50.235 43.9307 49.9739 43.9307 49.9739Z" fill="white" stroke="#263238" stroke-width="0.7" stroke-linecap="round" stroke-linejoin="round"/>
<path d="M75.9927 32.9899C75.7417 33.9669 75.6623 34.9799 75.7581 35.984C76.1793 39.6706 77.9705 48.5248 77.9705 48.5248C77.9705 48.5248 86.8309 49.7874 88.8887 51.7905C88.8887 51.7905 90.3441 40.0701 87.3747 34.1193C84.4052 28.1686 81.3238 27.492 81.3238 27.492C79.378 27.0125 77.592 28.8238 76.6004 31.1519" fill="#0D7377"/>
<path d="M75.9927 32.9899C75.7417 33.9669 75.6623 34.9799 75.7581 35.984C76.1793 39.6706 77.9705 48.5248 77.9705 48.5248C77.9705 48.5248 86.8309 49.7874 88.8887 51.7905C88.8887 51.7905 90.3441 40.0701 87.3747 34.1193C84.4052 28.1686 81.3238 27.492 81.3238 27.492C79.378 27.0125 77.592 28.8238 76.6004 31.1519" stroke="#263238" stroke-width="0.7" stroke-linecap="round" stroke-linejoin="round"/>
<g opacity="0.4">
<g opacity="0.4">
<path d="M75.9927 32.9899C75.7417 33.9669 75.6623 34.9799 75.7581 35.984C76.1793 39.6706 77.9705 48.5248 77.9705 48.5248C77.9705 48.5248 86.8309 49.7874 88.8887 51.7905C88.8887 51.7905 90.3441 40.0701 87.3747 34.1193C84.4052 28.1686 81.3238 27.492 81.3238 27.492C79.378 27.0125 77.592 28.8238 76.6004 31.1519" fill="white"/>
<path d="M75.9927 32.9899C75.7417 33.9669 75.6623 34.9799 75.7581 35.984C76.1793 39.6706 77.9705 48.5248 77.9705 48.5248C77.9705 48.5248 86.8309 49.7874 88.8887 51.7905C88.8887 51.7905 90.3441 40.0701 87.3747 34.1193C84.4052 28.1686 81.3238 27.492 81.3238 27.492C79.378 27.0125 77.592 28.8238 76.6004 31.1519" stroke="#263238" stroke-width="0.7" stroke-linecap="round" stroke-linejoin="round"/>
</g>
</g>
<path d="M49.9697 37.5503C51.2973 38.6345 52.8456 39.4163 54.5066 39.8411" stroke="#263238" stroke-width="0.7" stroke-linecap="round" stroke-linejoin="round"/>
<path d="M77.9697 37.5503C77.9697 37.5503 81.1684 43.5916 85.2094 44.9235" stroke="#263238" stroke-width="0.7" stroke-linecap="round" stroke-linejoin="round"/>
<path d="M57.2588 84.0908C57.2588 84.0908 57.8505 84.533 58.0851 86.1472" stroke="white" stroke-width="0.7" stroke-linecap="round" stroke-linejoin="round"/>
<path d="M55.0508 86.1472C55.5668 86.2024 56.0657 86.3644 56.5155 86.6231C56.9653 86.8818 57.3561 87.2314 57.6631 87.6496" stroke="white" stroke-width="0.7" stroke-linecap="round" stroke-linejoin="round"/>
<path d="M37.4258 79.9302C37.4258 79.9302 39.1317 80.7932 38.7585 83.2385" stroke="white" stroke-width="0.7" stroke-linecap="round" stroke-linejoin="round"/>
<path d="M35.625 82.0347C35.625 82.0347 37.9547 83.4145 38.12 84.6558" stroke="white" stroke-width="0.7" stroke-linecap="round" stroke-linejoin="round"/>
<path d="M62.6201 67.1284C62.6201 67.1284 67.8127 67.8529 68.9695 67.1284" stroke="white" stroke-width="0.7" stroke-linecap="round" stroke-linejoin="round"/>
<path d="M60.5368 35.4137C60.0905 34.1445 59.9091 32.7974 60.0037 31.4554C60.0249 31.0001 60.073 30.5465 60.1477 30.0969L59.2467 28.6691L58.0898 26.8311L59.428 21.5037C59.428 21.5037 67.9578 23.1445 68.5976 25.5206C69.2373 27.8966 60.5368 35.4137 60.5368 35.4137Z" fill="white"/>
<path opacity="0.2" d="M59.9943 31.4559C60.0155 31.0006 60.0636 30.547 60.1383 30.0974L59.2373 28.6696C60.8615 28.4195 62.3404 27.5907 63.4009 26.3362C63.4457 27.4395 63.1404 28.5287 62.5286 29.4482C61.9168 30.3677 61.0298 31.0704 59.9943 31.4559V31.4559Z" fill="black" fill-opacity="0.7"/>
<path d="M60.5368 35.4137C60.0905 34.1445 59.9091 32.7974 60.0037 31.4554C60.0249 31.0001 60.073 30.5465 60.1477 30.0969L59.2467 28.6691L58.0898 26.8311L59.428 21.5037C59.428 21.5037 67.9578 23.1445 68.5976 25.5206C69.2373 27.8966 60.5368 35.4137 60.5368 35.4137Z" stroke="#263238" stroke-width="0.7" stroke-linecap="round" stroke-linejoin="round"/>
<path d="M65.8886 21.9516C68.5276 15.0259 66.7842 3.23619 53.9841 5.49504C46.4512 6.8269 45.5769 15.8942 48.0932 19.9218C50.6095 23.9494 47.9332 24.0772 51.7077 27.0606C53.2324 28.27 54.4693 30.3264 56.2925 30.4542C58.457 30.6034 61.2398 28.5523 63.3083 26.3361" fill="white"/>
<path d="M65.8886 21.9516C68.5276 15.0259 66.7842 3.23619 53.9841 5.49504C46.4512 6.8269 45.5769 15.8942 48.0932 19.9218C50.6095 23.9494 47.9332 24.0772 51.7077 27.0606C53.2324 28.27 54.4693 30.3264 56.2925 30.4542C58.457 30.6034 61.2398 28.5523 63.3083 26.3361" stroke="#263238" stroke-width="0.7" stroke-linecap="round" stroke-linejoin="round"/>
<path d="M53.2812 19.9216C53.2812 19.9216 55.1685 18.2062 57.4076 18.9147" stroke="#263238" stroke-width="0.7" stroke-linecap="round" stroke-linejoin="round"/>
<path d="M49.7415 19.9218C49.4898 19.4767 49.1384 19.0959 48.7148 18.8094C48.2911 18.5229 47.8068 18.3383 47.2998 18.2703" stroke="#263238" stroke-width="0.7" stroke-linecap="round" stroke-linejoin="round"/>
<path d="M50.9886 22.3936C50.9886 22.3936 50.7221 23.7734 50.3649 25.1692C50.0077 26.565 52.5986 25.8031 52.4973 25.59" fill="white"/>
<path d="M50.9886 22.3936C50.9886 22.3936 50.7221 23.7734 50.3649 25.1692C50.0077 26.565 52.5986 25.8031 52.4973 25.59" stroke="#263238" stroke-width="0.7" stroke-linecap="round" stroke-linejoin="round"/>
<path d="M53.8369 27.3585C54.9364 27.0438 55.9142 26.4028 56.6411 25.5205" stroke="#263238" stroke-width="0.7" stroke-linecap="round" stroke-linejoin="round"/>
<path d="M55.9034 21.6741C55.9095 21.7845 55.8842 21.8944 55.8304 21.9911C55.7767 22.0877 55.6967 22.1672 55.5996 22.2203C55.5025 22.2735 55.3924 22.2981 55.282 22.2913C55.1715 22.2845 55.0652 22.2467 54.9754 22.1821C54.8856 22.1175 54.8159 22.0288 54.7743 21.9263C54.7328 21.8238 54.7211 21.7117 54.7407 21.6028C54.7602 21.494 54.8102 21.3929 54.8848 21.3112C54.9594 21.2296 55.0557 21.1707 55.1624 21.1413C55.3307 21.1179 55.5017 21.1602 55.6397 21.2594C55.7777 21.3586 55.8721 21.5071 55.9034 21.6741V21.6741Z" fill="#263238"/>
<path d="M50.2002 21.5573C50.3068 21.9408 50.2269 22.3031 50.0243 22.3564C49.8217 22.4097 49.5765 22.1433 49.4912 21.7544C49.4059 21.3655 49.4645 21.0085 49.6618 20.9553C49.859 20.902 50.0936 21.1684 50.2002 21.5573Z" fill="#263238"/>
<path d="M58.0004 12.7881C58.0004 12.7881 56.0119 17.9718 51.1072 17.8546C51.1072 17.8546 52.8078 16.56 53.2823 15.324C53.2823 15.324 49.5079 19.0532 45.7334 17.162C41.9589 15.2707 43.7928 6.44844 49.5985 2.95362C55.4041 -0.5412 61.3004 0.401758 63.3049 3.73143C63.3049 3.73143 67.3619 3.35851 69.1692 9.30929C70.7686 14.6368 68.2149 22.7132 65.7093 22.8038C61.8335 22.9476 61.0552 18.7443 61.0552 18.7443C59.4452 17.1222 58.378 15.0414 58.0004 12.7881V12.7881Z" fill="#263238" stroke="#263238" stroke-width="0.7" stroke-linecap="round" stroke-linejoin="round"/>
<path d="M62.2429 21.978C62.2429 21.978 62.1256 17.0874 64.9085 17.6788C67.6914 18.2701 65.6762 23.9225 63.581 23.8639" fill="white"/>
<path d="M62.2429 21.978C62.2429 21.978 62.1256 17.0874 64.9085 17.6788C67.6914 18.2701 65.6762 23.9225 63.581 23.8639" stroke="#263238" stroke-width="0.7" stroke-linecap="round" stroke-linejoin="round"/>
<path d="M53.6384 49.4412H10.6532C10.1732 49.4412 9.78418 49.8299 9.78418 50.3095V51.8066C9.78418 52.2861 10.1732 52.6749 10.6532 52.6749H53.6384C54.1183 52.6749 54.5074 52.2861 54.5074 51.8066V50.3095C54.5074 49.8299 54.1183 49.4412 53.6384 49.4412Z" fill="#0D7377" stroke="#263238" stroke-width="0.7" stroke-linecap="round" stroke-linejoin="round"/>
<path d="M90.8444 99.1199C86.2403 102.124 82.3763 106.131 79.5423 110.84C74.8509 118.672 71.1297 129.689 76.9087 131.085L82.3999 130.877L92.9769 127.238L91.868 125.107C91.868 125.107 82.6025 130.014 81.0191 130.014C79.4357 130.014 77.3779 130.408 76.5089 129.774C75.6399 129.14 79.553 114.9 87.9283 110.153C96.3036 105.406 90.8444 99.1199 90.8444 99.1199Z" fill="#0D7377"/>
<path opacity="0.5" d="M90.8444 99.1199C86.2403 102.124 82.3763 106.131 79.5423 110.84C74.8509 118.672 71.1297 129.689 76.9087 131.085L82.3999 130.877L92.9769 127.238L91.868 125.107C91.868 125.107 82.6025 130.014 81.0191 130.014C79.4357 130.014 77.3779 130.408 76.5089 129.774C75.6399 129.14 79.553 114.9 87.9283 110.153C96.3036 105.406 90.8444 99.1199 90.8444 99.1199Z" fill="black" fill-opacity="0.7"/>
<path d="M90.8444 99.1199C86.2403 102.124 82.3763 106.131 79.5423 110.84C74.8509 118.672 71.1297 129.689 76.9087 131.085L82.3999 130.877L92.9769 127.238L91.868 125.107C91.868 125.107 82.6025 130.014 81.0191 130.014C79.4357 130.014 77.3779 130.408 76.5089 129.774C75.6399 129.14 79.553 114.9 87.9283 110.153C96.3036 105.406 90.8444 99.1199 90.8444 99.1199Z" stroke="#263238" stroke-width="0.7" stroke-linecap="round" stroke-linejoin="round"/>
<path d="M96.873 94.0004C96.873 94.0004 96.8731 91.7043 100.36 91.3899C103.846 91.0756 104.331 94.4266 104.331 94.4266H103.132C103.132 94.4266 103.164 92.4181 100.605 92.2636C98.0459 92.1091 98.1419 94.4266 98.1419 94.4266L96.873 94.0004Z" fill="#0D7377" stroke="#263238" stroke-width="0.7" stroke-linecap="round" stroke-linejoin="round"/>
<path d="M91.7299 131.074C84.3676 131.074 85.7644 98.0812 86.612 96.4457C87.4597 94.8101 108.816 93.995 110.922 94.6876C113.028 95.3802 121.473 128.251 116.786 130.877L91.7299 131.074Z" fill="#0D7377"/>
<path opacity="0.2" d="M91.7299 131.074C84.3676 131.074 85.7644 98.0812 86.612 96.4457C87.4597 94.8101 108.816 93.995 110.922 94.6876C113.028 95.3802 121.473 128.251 116.786 130.877L91.7299 131.074Z" fill="black" fill-opacity="0.7"/>
<path d="M91.7299 131.074C84.3676 131.074 85.7644 98.0812 86.612 96.4457C87.4597 94.8101 108.816 93.995 110.922 94.6876C113.028 95.3802 121.473 128.251 116.786 130.877L91.7299 131.074Z" stroke="#263238" stroke-width="0.7" stroke-linecap="round" stroke-linejoin="round"/>
<path d="M86.6113 96.4349C89.2769 97.005 90.807 107.804 94.3948 110.553C97.9827 113.302 114.904 112.684 116.786 110.553C118.668 108.422 114.962 96.2804 112.238 94.4265C109.514 92.5725 107.589 94.3732 99.9392 93.5261C88.6212 92.2635 86.6113 96.4349 86.6113 96.4349Z" fill="#0D7377" stroke="#263238" stroke-width="0.7" stroke-linecap="round" stroke-linejoin="round"/>
<path d="M106.022 102.642L109.157 105.204C109.201 105.239 109.238 105.284 109.264 105.334C109.29 105.384 109.306 105.439 109.31 105.496C109.314 105.552 109.306 105.609 109.287 105.662C109.268 105.716 109.238 105.765 109.199 105.806L106.763 108.438C106.724 108.477 106.678 108.508 106.627 108.529C106.577 108.55 106.522 108.561 106.467 108.561C106.412 108.561 106.357 108.55 106.307 108.529C106.256 108.508 106.21 108.477 106.171 108.438L103.058 105.486C103.016 105.448 102.983 105.401 102.96 105.348C102.938 105.296 102.926 105.24 102.926 105.183C102.926 105.126 102.938 105.069 102.96 105.017C102.983 104.965 103.016 104.918 103.058 104.879L105.473 102.642C105.549 102.575 105.646 102.538 105.747 102.538C105.848 102.538 105.946 102.575 106.022 102.642Z" fill="#0D7377"/>
<path opacity="0.2" d="M106.022 102.642L109.157 105.204C109.201 105.239 109.238 105.284 109.264 105.334C109.29 105.384 109.306 105.439 109.31 105.496C109.314 105.552 109.306 105.609 109.287 105.662C109.268 105.716 109.238 105.765 109.199 105.806L106.763 108.438C106.724 108.477 106.678 108.508 106.627 108.529C106.577 108.55 106.522 108.561 106.467 108.561C106.412 108.561 106.357 108.55 106.307 108.529C106.256 108.508 106.21 108.477 106.171 108.438L103.058 105.486C103.016 105.448 102.983 105.401 102.96 105.348C102.938 105.296 102.926 105.24 102.926 105.183C102.926 105.126 102.938 105.069 102.96 105.017C102.983 104.965 103.016 104.918 103.058 104.879L105.473 102.642C105.549 102.575 105.646 102.538 105.747 102.538C105.848 102.538 105.946 102.575 106.022 102.642Z" fill="black" fill-opacity="0.7"/>
<path d="M106.022 102.642L109.157 105.204C109.201 105.239 109.238 105.284 109.264 105.334C109.29 105.384 109.306 105.439 109.31 105.496C109.314 105.552 109.306 105.609 109.287 105.662C109.268 105.716 109.238 105.765 109.199 105.806L106.763 108.438C106.724 108.477 106.678 108.508 106.627 108.529C106.577 108.55 106.522 108.561 106.467 108.561C106.412 108.561 106.357 108.55 106.307 108.529C106.256 108.508 106.21 108.477 106.171 108.438L103.058 105.486C103.016 105.448 102.983 105.401 102.96 105.348C102.938 105.296 102.926 105.24 102.926 105.183C102.926 105.126 102.938 105.069 102.96 105.017C102.983 104.965 103.016 104.918 103.058 104.879L105.473 102.642C105.549 102.575 105.646 102.538 105.747 102.538C105.848 102.538 105.946 102.575 106.022 102.642Z" stroke="#263238" stroke-width="0.7" stroke-linecap="round" stroke-linejoin="round"/>
<path d="M95.6905 116.072C95.6905 116.072 109.855 117.239 116.813 115.438C117.742 116.172 118.436 117.164 118.806 118.288C119.441 120.185 120.763 126.674 116.813 128.336C112.862 129.998 98.6866 129.679 96.794 127.803C94.9015 125.928 95.6905 116.072 95.6905 116.072Z" fill="#0D7377"/>
<path opacity="0.4" d="M95.6905 116.072C95.6905 116.072 109.855 117.239 116.813 115.438C117.742 116.172 118.436 117.164 118.806 118.288C119.441 120.185 120.763 126.674 116.813 128.336C112.862 129.998 98.6866 129.679 96.794 127.803C94.9015 125.928 95.6905 116.072 95.6905 116.072Z" fill="black" fill-opacity="0.7"/>
<path d="M95.6905 116.072C95.6905 116.072 109.855 117.239 116.813 115.438C117.742 116.172 118.436 117.164 118.806 118.288C119.441 120.185 120.763 126.674 116.813 128.336C112.862 129.998 98.6866 129.679 96.794 127.803C94.9015 125.928 95.6905 116.072 95.6905 116.072Z" stroke="#263238" stroke-width="0.7" stroke-linecap="round" stroke-linejoin="round"/>
<path d="M95.6904 116.072C95.6904 116.072 97.3484 120.558 98.2227 121.24C99.097 121.922 117.495 121.927 119.547 120.265C121.6 118.603 118.79 115.598 116.823 115.438C116.813 115.438 103.922 116.941 95.6904 116.072Z" fill="#0D7377" stroke="#263238" stroke-width="0.7" stroke-linecap="round" stroke-linejoin="round"/>
<path d="M89.7787 115.124C89.7787 115.124 90.2531 124.537 91.2021 126.674C90.4974 127.04 89.7147 127.232 88.9203 127.232C88.126 127.232 87.3432 127.04 86.6386 126.674C84.2342 125.411 84.6288 117.297 85.1086 117.319C85.5884 117.34 89.7787 115.124 89.7787 115.124Z" fill="#0D7377"/>
<path opacity="0.4" d="M89.7787 115.124C89.7787 115.124 90.2531 124.537 91.2021 126.674C90.4974 127.04 89.7147 127.232 88.9203 127.232C88.126 127.232 87.3432 127.04 86.6386 126.674C84.2342 125.411 84.6288 117.297 85.1086 117.319C85.5884 117.34 89.7787 115.124 89.7787 115.124Z" fill="black" fill-opacity="0.7"/>
<path d="M89.7787 115.124C89.7787 115.124 90.2531 124.537 91.2021 126.674C90.4974 127.04 89.7147 127.232 88.9203 127.232C88.126 127.232 87.3432 127.04 86.6386 126.674C84.2342 125.411 84.6288 117.297 85.1086 117.319C85.5884 117.34 89.7787 115.124 89.7787 115.124Z" stroke="#263238" stroke-width="0.7" stroke-linecap="round" stroke-linejoin="round"/>
<path d="M89.7787 115.124L86.2121 115.838C86.2121 115.838 82.8108 118.448 84.3142 119.316C85.8176 120.185 89.6721 118.059 89.7787 115.124Z" fill="#0D7377" stroke="#263238" stroke-width="0.7" stroke-linecap="round" stroke-linejoin="round"/>
</svg>
