<svg width="256" height="274" viewBox="0 0 256 274" fill="none" xmlns="http://www.w3.org/2000/svg">
<g clip-path="url(#clip0)">
<g style="mix-blend-mode:multiply" opacity="0.3">
<path d="M211.991 22.435H81.4546C58.2818 22.435 39.4966 41.2526 39.4966 64.4653V195.226C39.4966 218.439 58.2818 237.256 81.4546 237.256H211.991C235.164 237.256 253.949 218.439 253.949 195.226V64.4653C253.949 41.2526 235.164 22.435 211.991 22.435Z" fill="#861B47"/>
</g>
<g opacity="0.5">
<path opacity="0.5" d="M66.8345 74.3845L70.9557 55.5363L89.3053 49.6707L103.552 62.7468L99.4499 81.595L81.0816 87.4606L66.8345 74.3845ZM71.7016 56.2274L67.8042 74.067L81.3053 86.3958L98.6853 80.7918L102.564 62.971L89.0816 50.6608L71.7016 56.2274Z" fill="white"/>
<path opacity="0.5" d="M108.457 112.342L112.56 93.4941L130.928 87.6286L145.156 100.705L141.054 119.553L122.685 125.344L108.457 112.342ZM113.306 94.1666L109.408 112.081L122.909 124.391L140.308 118.787L144.187 100.873L130.704 88.5626L113.306 94.1666Z" fill="white"/>
<path opacity="0.5" d="M76.6992 105.394L80.8204 86.5453L99.1701 80.6798L113.417 93.7559L109.315 112.604L90.9463 118.47L76.6992 105.394ZM81.5664 87.2365L77.6689 105.095L91.1701 117.405L108.55 111.801L112.447 93.924L98.9649 81.6138L81.5664 87.2365Z" fill="white"/>
<path opacity="0.5" d="M140.196 119.292L144.299 100.443L162.667 94.5778L176.895 107.654L172.793 126.502L154.424 132.368L140.196 119.292ZM145.045 101.134L141.166 118.974L154.648 131.303L172.047 125.699L175.926 107.822L162.443 95.5118L145.045 101.134Z" fill="white"/>
<path opacity="0.5" d="M118.322 143.351L122.424 124.503L140.792 118.638L155.021 131.714L150.918 150.562L132.55 156.353L118.322 143.351ZM123.17 125.157L119.347 143.053L132.848 155.363L150.247 149.759L154.126 131.901L140.569 119.553L123.17 125.157Z" fill="white"/>
<path opacity="0.5" d="M86.564 136.365L90.6852 117.517L109.035 111.652L123.282 124.728L119.179 143.576L100.811 149.441L86.564 136.365ZM91.3752 118.246L87.4777 136.104L100.979 148.414L118.359 142.81L122.256 124.933L108.774 112.642L91.3752 118.246Z" fill="white"/>
<path opacity="0.5" d="M64.6899 160.481L68.7925 141.614L87.1608 135.749L101.408 148.825L97.2867 167.598L78.937 173.464L64.6899 160.481ZM69.5571 142.306L65.6596 160.164L79.1422 172.474L96.5408 166.87L100.438 149.012L86.937 136.683L69.5571 142.306Z" fill="white"/>
<path opacity="0.5" d="M150.06 150.301L154.163 131.452L172.531 125.587L186.76 138.663L182.75 157.436L164.289 163.302L150.06 150.301ZM154.909 132.144L151.049 150.002L164.531 162.312L181.93 156.708L185.809 138.831L172.307 126.577L154.909 132.144Z" fill="white"/>
<path opacity="0.5" d="M113.753 96.3525C113.416 96.4856 113.054 96.5479 112.692 96.5355C112.33 96.5231 111.974 96.4362 111.646 96.2803C111.318 96.1244 111.026 95.9027 110.788 95.6291C110.549 95.3555 110.369 95.0357 110.259 94.6895C110.149 94.3434 110.111 93.9783 110.148 93.6169C110.185 93.2555 110.295 92.9054 110.472 92.5885C110.649 92.2715 110.89 91.9944 111.178 91.7743C111.467 91.5542 111.797 91.3958 112.149 91.3089C112.487 91.1757 112.848 91.1135 113.21 91.1259C113.573 91.1383 113.929 91.2252 114.256 91.3811C114.584 91.537 114.876 91.7586 115.114 92.0323C115.353 92.3059 115.533 92.6257 115.643 92.9719C115.753 93.318 115.791 93.6831 115.754 94.0445C115.718 94.4059 115.607 94.756 115.43 95.0729C115.253 95.3899 115.013 95.667 114.724 95.8871C114.436 96.1072 114.105 96.2656 113.753 96.3525Z" fill="white"/>
<path opacity="0.5" d="M99.8785 83.706C99.2108 83.9123 98.4889 83.8479 97.8681 83.5265C97.2473 83.2051 96.7773 82.6524 96.5591 81.9875C96.404 81.4914 96.399 80.9604 96.5445 80.4614C96.6901 79.9624 96.9798 79.5178 97.3772 79.1834C97.7746 78.8491 98.2618 78.64 98.7776 78.5825C99.2934 78.525 99.8146 78.6217 100.276 78.8604C100.737 79.0991 101.117 79.4691 101.368 79.9239C101.62 80.3786 101.731 80.8977 101.689 81.4158C101.646 81.9339 101.452 82.4278 101.13 82.8354C100.808 83.2429 100.372 83.5459 99.8785 83.706Z" fill="white"/>
<path opacity="0.5" d="M131.618 90.6362C131.122 90.7929 130.591 90.7989 130.091 90.6533C129.592 90.5077 129.147 90.2171 128.813 89.8183C128.479 89.4194 128.27 88.9302 128.213 88.4125C128.156 87.8948 128.254 87.3718 128.493 86.9096C128.733 86.4475 129.104 86.0669 129.56 85.8161C130.016 85.5652 130.535 85.4553 131.053 85.5003C131.571 85.5453 132.064 85.7431 132.47 86.0687C132.876 86.3943 133.176 86.8332 133.333 87.3298C133.437 87.6597 133.476 88.007 133.446 88.3518C133.416 88.6965 133.319 89.032 133.159 89.3391C133 89.6462 132.782 89.9188 132.517 90.1413C132.253 90.3639 131.947 90.532 131.618 90.6362Z" fill="white"/>
<path opacity="0.5" d="M82.0512 89.4035C81.556 89.5589 81.0259 89.564 80.5278 89.4181C80.0297 89.2723 79.5858 88.9821 79.252 88.584C78.9182 88.186 78.7095 87.6979 78.6521 87.1812C78.5947 86.6646 78.6913 86.1425 78.9295 85.6806C79.1678 85.2188 79.5372 84.838 79.9911 84.5861C80.4451 84.3341 80.9633 84.2224 81.4805 84.2649C81.9977 84.3075 82.4908 84.5024 82.8976 84.8251C83.3045 85.1478 83.6069 85.5839 83.7668 86.0785C83.9728 86.7473 83.9084 87.4705 83.5876 88.0923C83.2667 88.7141 82.715 89.185 82.0512 89.4035Z" fill="white"/>
<path opacity="0.5" d="M99.8785 83.706C99.2108 83.9123 98.4889 83.8479 97.8681 83.5265C97.2473 83.2051 96.7773 82.6524 96.5591 81.9875C96.404 81.4914 96.399 80.9604 96.5445 80.4614C96.6901 79.9624 96.9798 79.5178 97.3772 79.1834C97.7746 78.8491 98.2618 78.64 98.7776 78.5825C99.2934 78.525 99.8146 78.6217 100.276 78.8604C100.737 79.0991 101.117 79.4691 101.368 79.9239C101.62 80.3786 101.731 80.8977 101.689 81.4158C101.646 81.9339 101.452 82.4278 101.13 82.8354C100.808 83.2429 100.372 83.5459 99.8785 83.706Z" fill="white"/>
<path opacity="0.5" d="M82.0512 89.4035C81.556 89.5589 81.0259 89.564 80.5278 89.4181C80.0297 89.2723 79.5858 88.9821 79.252 88.584C78.9182 88.186 78.7095 87.6979 78.6521 87.1812C78.5947 86.6646 78.6913 86.1425 78.9295 85.6806C79.1678 85.2188 79.5372 84.838 79.9911 84.5861C80.4451 84.3341 80.9633 84.2224 81.4805 84.2649C81.9977 84.3075 82.4908 84.5024 82.8976 84.8251C83.3045 85.1478 83.6069 85.5839 83.7668 86.0785C83.9728 86.7473 83.9084 87.4705 83.5876 88.0923C83.2667 88.7141 82.715 89.185 82.0512 89.4035Z" fill="white"/>
<path opacity="0.5" d="M77.9861 107.766C77.3555 107.865 76.7104 107.733 76.1695 107.393C75.6286 107.054 75.2282 106.53 75.0421 105.919C74.856 105.307 74.8966 104.649 75.1566 104.065C75.4166 103.481 75.8784 103.011 76.4569 102.741C76.7944 102.608 77.1555 102.545 77.5179 102.558C77.8803 102.57 78.2364 102.657 78.5639 102.813C78.8915 102.969 79.1835 103.191 79.4221 103.464C79.6606 103.738 79.8404 104.058 79.9505 104.404C80.0606 104.75 80.0985 105.115 80.0619 105.476C80.0253 105.838 79.915 106.188 79.7378 106.505C79.5606 106.822 79.3203 107.099 79.0318 107.319C78.7434 107.539 78.4128 107.698 78.0607 107.784L77.9861 107.766Z" fill="white"/>
<path opacity="0.5" d="M163.357 97.6041C162.858 97.7646 162.322 97.7731 161.818 97.6285C161.314 97.4838 160.864 97.1926 160.526 96.7917C160.187 96.3908 159.975 95.8982 159.916 95.3764C159.857 94.8546 159.954 94.327 160.195 93.8605C160.436 93.394 160.809 93.0096 161.268 92.7559C161.727 92.5022 162.251 92.3907 162.773 92.4356C163.296 92.4804 163.793 92.6795 164.202 93.0077C164.612 93.3359 164.914 93.7783 165.072 94.2791C165.278 94.9479 165.214 95.6711 164.893 96.2929C164.572 96.9147 164.021 97.3856 163.357 97.6041Z" fill="white"/>
<path opacity="0.5" d="M145.455 103.301C144.959 103.457 144.429 103.462 143.931 103.316C143.433 103.17 142.989 102.88 142.655 102.482C142.322 102.084 142.113 101.596 142.055 101.079C141.998 100.563 142.095 100.04 142.333 99.5786C142.571 99.1168 142.941 98.7359 143.394 98.484C143.848 98.2321 144.367 98.1204 144.884 98.1629C145.401 98.2054 145.894 98.4003 146.301 98.723C146.708 99.0458 147.01 99.4818 147.17 99.9764C147.277 100.308 147.318 100.657 147.289 101.003C147.261 101.35 147.164 101.688 147.005 101.997C146.845 102.306 146.626 102.581 146.36 102.805C146.094 103.029 145.786 103.197 145.455 103.301Z" fill="white"/>
<path opacity="0.5" d="M131.618 90.6362C131.122 90.7929 130.591 90.7989 130.091 90.6533C129.592 90.5077 129.147 90.2171 128.813 89.8183C128.479 89.4194 128.27 88.9302 128.213 88.4125C128.156 87.8948 128.254 87.3718 128.493 86.9096C128.733 86.4475 129.104 86.0669 129.56 85.8161C130.016 85.5652 130.535 85.4553 131.053 85.5003C131.571 85.5453 132.064 85.7431 132.47 86.0687C132.876 86.3943 133.176 86.8332 133.333 87.3298C133.437 87.6597 133.476 88.007 133.446 88.3518C133.416 88.6965 133.319 89.032 133.159 89.3391C133 89.6462 132.782 89.9188 132.517 90.1413C132.253 90.3639 131.947 90.532 131.618 90.6362Z" fill="white"/>
<path opacity="0.5" d="M163.357 97.6041C162.858 97.7646 162.322 97.7731 161.818 97.6285C161.314 97.4838 160.864 97.1926 160.526 96.7917C160.187 96.3908 159.975 95.8982 159.916 95.3764C159.857 94.8546 159.954 94.327 160.195 93.8605C160.436 93.394 160.809 93.0096 161.268 92.7559C161.727 92.5022 162.251 92.3907 162.773 92.4356C163.296 92.4804 163.793 92.6795 164.202 93.0077C164.612 93.3359 164.914 93.7783 165.072 94.2791C165.278 94.9479 165.214 95.6711 164.893 96.2929C164.572 96.9147 164.021 97.3856 163.357 97.6041Z" fill="white"/>
<path opacity="0.5" d="M123.599 127.361C123.262 127.494 122.9 127.557 122.538 127.544C122.176 127.532 121.82 127.445 121.492 127.289C121.164 127.133 120.872 126.911 120.634 126.638C120.395 126.364 120.215 126.044 120.105 125.698C119.995 125.352 119.957 124.987 119.994 124.626C120.031 124.264 120.141 123.914 120.318 123.597C120.495 123.28 120.736 123.003 121.024 122.783C121.313 122.563 121.643 122.404 121.995 122.318C122.647 122.157 123.336 122.25 123.922 122.579C124.508 122.907 124.948 123.447 125.152 124.088C125.355 124.729 125.308 125.424 125.02 126.032C124.732 126.639 124.224 127.115 123.599 127.361Z" fill="white"/>
<path opacity="0.5" d="M109.743 114.715C109.076 114.921 108.354 114.857 107.733 114.535C107.112 114.214 106.642 113.661 106.424 112.996C106.269 112.5 106.264 111.969 106.41 111.47C106.555 110.971 106.845 110.526 107.242 110.192C107.64 109.858 108.127 109.649 108.643 109.591C109.158 109.534 109.68 109.63 110.141 109.869C110.602 110.108 110.982 110.478 111.233 110.932C111.485 111.387 111.596 111.906 111.554 112.424C111.511 112.943 111.317 113.436 110.995 113.844C110.673 114.252 110.237 114.555 109.743 114.715Z" fill="white"/>
<path opacity="0.5" d="M113.753 96.3525C113.416 96.4856 113.054 96.5479 112.692 96.5355C112.33 96.5231 111.974 96.4362 111.646 96.2803C111.318 96.1244 111.026 95.9027 110.788 95.6291C110.549 95.3555 110.369 95.0357 110.259 94.6895C110.149 94.3434 110.111 93.9783 110.148 93.6169C110.185 93.2555 110.295 92.9054 110.472 92.5885C110.649 92.2715 110.89 91.9944 111.178 91.7743C111.467 91.5542 111.797 91.3958 112.149 91.3089C112.487 91.1757 112.848 91.1135 113.21 91.1259C113.573 91.1383 113.929 91.2252 114.256 91.3811C114.584 91.537 114.876 91.7586 115.114 92.0323C115.353 92.3059 115.533 92.6257 115.643 92.9719C115.753 93.318 115.791 93.6831 115.754 94.0445C115.718 94.4059 115.607 94.756 115.43 95.0729C115.253 95.3899 115.013 95.667 114.724 95.8871C114.436 96.1072 114.105 96.2656 113.753 96.3525Z" fill="white"/>
<path opacity="0.5" d="M131.618 90.6362C131.122 90.7929 130.591 90.7989 130.091 90.6533C129.592 90.5077 129.147 90.2171 128.813 89.8183C128.479 89.4194 128.27 88.9302 128.213 88.4125C128.156 87.8948 128.254 87.3718 128.493 86.9096C128.733 86.4475 129.104 86.0669 129.56 85.8161C130.016 85.5652 130.535 85.4553 131.053 85.5003C131.571 85.5453 132.064 85.7431 132.47 86.0687C132.876 86.3943 133.176 86.8332 133.333 87.3298C133.437 87.6597 133.476 88.007 133.446 88.3518C133.416 88.6965 133.319 89.032 133.159 89.3391C133 89.6462 132.782 89.9188 132.517 90.1413C132.253 90.3639 131.947 90.532 131.618 90.6362Z" fill="white"/>
<path opacity="0.5" d="M145.455 103.301C144.959 103.457 144.429 103.462 143.931 103.316C143.433 103.17 142.989 102.88 142.655 102.482C142.322 102.084 142.113 101.596 142.055 101.079C141.998 100.563 142.095 100.04 142.333 99.5786C142.571 99.1168 142.941 98.7359 143.394 98.484C143.848 98.2321 144.367 98.1204 144.884 98.1629C145.401 98.2054 145.894 98.4003 146.301 98.723C146.708 99.0458 147.01 99.4818 147.17 99.9764C147.277 100.308 147.318 100.657 147.289 101.003C147.261 101.35 147.164 101.688 147.005 101.997C146.845 102.306 146.626 102.581 146.36 102.805C146.094 103.029 145.786 103.197 145.455 103.301Z" fill="white"/>
<path opacity="0.5" d="M141.482 121.645C140.987 121.806 140.455 121.815 139.955 121.672C139.454 121.53 139.007 121.241 138.67 120.844C138.333 120.447 138.121 119.958 138.062 119.44C138.002 118.922 138.098 118.398 138.336 117.935C138.574 117.471 138.944 117.088 139.399 116.836C139.854 116.583 140.374 116.471 140.892 116.514C141.411 116.557 141.905 116.754 142.312 117.079C142.719 117.404 143.021 117.842 143.179 118.339C143.39 119.003 143.331 119.724 143.012 120.343C142.694 120.963 142.144 121.431 141.482 121.645Z" fill="white"/>
<path opacity="0.5" d="M91.8603 120.412C91.3645 120.569 90.8334 120.575 90.3341 120.429C89.8349 120.284 89.39 119.993 89.0556 119.594C88.7212 119.195 88.5124 118.706 88.4555 118.189C88.3986 117.671 88.4962 117.148 88.736 116.686C88.9758 116.224 89.347 115.843 89.8027 115.592C90.2584 115.341 90.7781 115.231 91.2961 115.276C91.8141 115.321 92.3072 115.519 92.713 115.845C93.1188 116.17 93.4191 116.609 93.5759 117.106C93.6802 117.436 93.7184 117.783 93.6886 118.128C93.6588 118.473 93.5614 118.808 93.4021 119.115C93.2428 119.422 93.0246 119.695 92.7601 119.917C92.4955 120.14 92.1898 120.308 91.8603 120.412Z" fill="white"/>
<path opacity="0.5" d="M77.9861 107.766C77.3555 107.865 76.7104 107.733 76.1695 107.393C75.6286 107.054 75.2282 106.53 75.0421 105.919C74.856 105.307 74.8966 104.649 75.1566 104.065C75.4166 103.481 75.8784 103.011 76.4569 102.741C76.7944 102.608 77.1555 102.545 77.5179 102.558C77.8803 102.57 78.2364 102.657 78.5639 102.813C78.8915 102.969 79.1835 103.191 79.4221 103.464C79.6606 103.738 79.8404 104.058 79.9505 104.404C80.0606 104.75 80.0985 105.115 80.0619 105.476C80.0253 105.838 79.915 106.188 79.7378 106.505C79.5606 106.822 79.3203 107.099 79.0318 107.319C78.7434 107.539 78.4128 107.698 78.0607 107.784L77.9861 107.766Z" fill="white"/>
<path opacity="0.5" d="M82.0512 89.4035C81.556 89.5589 81.0259 89.564 80.5278 89.4181C80.0297 89.2723 79.5858 88.9821 79.252 88.584C78.9182 88.186 78.7095 87.6979 78.6521 87.1812C78.5947 86.6646 78.6913 86.1425 78.9295 85.6806C79.1678 85.2188 79.5372 84.838 79.9911 84.5861C80.4451 84.3341 80.9633 84.2224 81.4805 84.2649C81.9977 84.3075 82.4908 84.5024 82.8976 84.8251C83.3045 85.1478 83.6069 85.5839 83.7668 86.0785C83.9728 86.7473 83.9084 87.4705 83.5876 88.0923C83.2667 88.7141 82.715 89.185 82.0512 89.4035Z" fill="white"/>
<path opacity="0.5" d="M99.8785 83.706C99.2108 83.9123 98.4889 83.8479 97.8681 83.5265C97.2473 83.2051 96.7773 82.6524 96.5591 81.9875C96.404 81.4914 96.399 80.9604 96.5445 80.4614C96.6901 79.9624 96.9798 79.5178 97.3772 79.1834C97.7746 78.8491 98.2618 78.64 98.7776 78.5825C99.2934 78.525 99.8146 78.6217 100.276 78.8604C100.737 79.0991 101.117 79.4691 101.368 79.9239C101.62 80.3786 101.731 80.8977 101.689 81.4158C101.646 81.9339 101.452 82.4278 101.13 82.8354C100.808 83.2429 100.372 83.5459 99.8785 83.706Z" fill="white"/>
<path opacity="0.5" d="M113.753 96.3525C113.416 96.4856 113.054 96.5479 112.692 96.5355C112.33 96.5231 111.974 96.4362 111.646 96.2803C111.318 96.1244 111.026 95.9027 110.788 95.6291C110.549 95.3555 110.369 95.0357 110.259 94.6895C110.149 94.3434 110.111 93.9783 110.148 93.6169C110.185 93.2555 110.295 92.9054 110.472 92.5885C110.649 92.2715 110.89 91.9944 111.178 91.7743C111.467 91.5542 111.797 91.3958 112.149 91.3089C112.487 91.1757 112.848 91.1135 113.21 91.1259C113.573 91.1383 113.929 91.2252 114.256 91.3811C114.584 91.537 114.876 91.7586 115.114 92.0323C115.353 92.3059 115.533 92.6257 115.643 92.9719C115.753 93.318 115.791 93.6831 115.754 94.0445C115.718 94.4059 115.607 94.756 115.43 95.0729C115.253 95.3899 115.013 95.667 114.724 95.8871C114.436 96.1072 114.105 96.2656 113.753 96.3525Z" fill="white"/>
<path opacity="0.5" d="M109.743 114.715C109.076 114.921 108.354 114.857 107.733 114.535C107.112 114.214 106.642 113.661 106.424 112.996C106.269 112.5 106.264 111.969 106.41 111.47C106.555 110.971 106.845 110.526 107.242 110.192C107.64 109.858 108.127 109.649 108.643 109.591C109.158 109.534 109.68 109.63 110.141 109.869C110.602 110.108 110.982 110.478 111.233 110.932C111.485 111.387 111.596 111.906 111.554 112.424C111.511 112.943 111.317 113.436 110.995 113.844C110.673 114.252 110.237 114.555 109.743 114.715Z" fill="white"/>
<path opacity="0.5" d="M77.9861 107.766C77.3555 107.865 76.7104 107.733 76.1695 107.393C75.6286 107.054 75.2282 106.53 75.0421 105.919C74.856 105.307 74.8966 104.649 75.1566 104.065C75.4166 103.481 75.8784 103.011 76.4569 102.741C76.7944 102.608 77.1555 102.545 77.5179 102.558C77.8803 102.57 78.2364 102.657 78.5639 102.813C78.8915 102.969 79.1835 103.191 79.4221 103.464C79.6606 103.738 79.8404 104.058 79.9505 104.404C80.0606 104.75 80.0985 105.115 80.0619 105.476C80.0253 105.838 79.915 106.188 79.7378 106.505C79.5606 106.822 79.3203 107.099 79.0318 107.319C78.7434 107.539 78.4128 107.698 78.0607 107.784L77.9861 107.766Z" fill="white"/>
<path opacity="0.5" d="M91.8603 120.412C91.3645 120.569 90.8334 120.575 90.3341 120.429C89.8349 120.284 89.39 119.993 89.0556 119.594C88.7212 119.195 88.5124 118.706 88.4555 118.189C88.3986 117.671 88.4962 117.148 88.736 116.686C88.9758 116.224 89.347 115.843 89.8027 115.592C90.2584 115.341 90.7781 115.231 91.2961 115.276C91.8141 115.321 92.3072 115.519 92.713 115.845C93.1188 116.17 93.4191 116.609 93.5759 117.106C93.6802 117.436 93.7184 117.783 93.6886 118.128C93.6588 118.473 93.5614 118.808 93.4021 119.115C93.2428 119.422 93.0246 119.695 92.7601 119.917C92.4955 120.14 92.1898 120.308 91.8603 120.412Z" fill="white"/>
<path opacity="0.5" d="M87.8509 138.775C87.3536 138.946 86.8168 138.965 86.3088 138.829C85.8008 138.693 85.3446 138.409 84.9984 138.013C84.6521 137.617 84.4315 137.126 84.3646 136.604C84.2976 136.081 84.3875 135.551 84.6226 135.08C84.8577 134.609 85.2275 134.218 85.6848 133.959C86.1421 133.699 86.6663 133.581 87.1906 133.621C87.7148 133.661 88.2154 133.856 88.6286 134.182C89.0418 134.507 89.3488 134.949 89.5106 135.45C89.7292 136.111 89.6773 136.833 89.3663 137.456C89.0552 138.079 88.5103 138.553 87.8509 138.775Z" fill="white"/>
<path opacity="0.5" d="M155.338 134.31C154.843 134.465 154.313 134.471 153.815 134.325C153.317 134.179 152.873 133.889 152.539 133.491C152.205 133.093 151.996 132.605 151.939 132.088C151.882 131.571 151.978 131.049 152.216 130.587C152.455 130.125 152.824 129.745 153.278 129.493C153.732 129.241 154.25 129.129 154.767 129.172C155.285 129.214 155.778 129.409 156.185 129.732C156.591 130.054 156.894 130.491 157.054 130.985C157.161 131.316 157.201 131.665 157.173 132.012C157.144 132.359 157.048 132.697 156.888 133.006C156.729 133.315 156.509 133.59 156.243 133.813C155.977 134.037 155.67 134.206 155.338 134.31Z" fill="white"/>
<path opacity="0.5" d="M141.482 121.645C140.987 121.806 140.455 121.815 139.955 121.672C139.454 121.53 139.007 121.241 138.67 120.844C138.333 120.447 138.121 119.958 138.062 119.44C138.002 118.922 138.098 118.398 138.336 117.935C138.574 117.471 138.944 117.088 139.399 116.836C139.854 116.583 140.374 116.471 140.892 116.514C141.411 116.557 141.905 116.754 142.312 117.079C142.719 117.404 143.021 117.842 143.179 118.339C143.39 119.003 143.331 119.724 143.012 120.343C142.694 120.963 142.144 121.431 141.482 121.645Z" fill="white"/>
<path opacity="0.5" d="M145.455 103.301C144.959 103.457 144.429 103.462 143.931 103.316C143.433 103.17 142.989 102.88 142.655 102.482C142.322 102.084 142.113 101.596 142.055 101.079C141.998 100.563 142.095 100.04 142.333 99.5786C142.571 99.1168 142.941 98.7359 143.394 98.484C143.848 98.2321 144.367 98.1204 144.884 98.1629C145.401 98.2054 145.894 98.4003 146.301 98.723C146.708 99.0458 147.01 99.4818 147.17 99.9764C147.277 100.308 147.318 100.657 147.289 101.003C147.261 101.35 147.164 101.688 147.005 101.997C146.845 102.306 146.626 102.581 146.36 102.805C146.094 103.029 145.786 103.197 145.455 103.301Z" fill="white"/>
<path opacity="0.5" d="M163.357 97.6041C162.858 97.7646 162.322 97.7731 161.818 97.6285C161.314 97.4838 160.864 97.1926 160.526 96.7917C160.187 96.3908 159.975 95.8982 159.916 95.3764C159.857 94.8546 159.954 94.327 160.195 93.8605C160.436 93.394 160.809 93.0096 161.268 92.7559C161.727 92.5022 162.251 92.3907 162.773 92.4356C163.296 92.4804 163.793 92.6795 164.202 93.0077C164.612 93.3359 164.914 93.7783 165.072 94.2791C165.278 94.9479 165.214 95.6711 164.893 96.2929C164.572 96.9147 164.021 97.3856 163.357 97.6041Z" fill="white"/>
<path opacity="0.5" d="M133.464 158.37C132.969 158.526 132.439 158.531 131.941 158.385C131.443 158.239 130.999 157.949 130.665 157.551C130.331 157.153 130.122 156.665 130.065 156.148C130.008 155.631 130.104 155.109 130.342 154.648C130.581 154.186 130.95 153.805 131.404 153.553C131.858 153.301 132.376 153.189 132.893 153.232C133.411 153.274 133.904 153.469 134.31 153.792C134.717 154.115 135.02 154.551 135.18 155.045C135.386 155.714 135.321 156.437 135 157.059C134.68 157.681 134.128 158.152 133.464 158.37Z" fill="white"/>
<path opacity="0.5" d="M119.59 145.705C119.09 145.866 118.555 145.874 118.051 145.73C117.547 145.585 117.097 145.294 116.759 144.893C116.42 144.492 116.208 144 116.149 143.478C116.09 142.956 116.187 142.428 116.428 141.962C116.669 141.495 117.042 141.111 117.501 140.857C117.96 140.604 118.484 140.492 119.006 140.537C119.529 140.582 120.026 140.781 120.435 141.109C120.844 141.437 121.147 141.88 121.305 142.38C121.412 142.711 121.453 143.061 121.424 143.407C121.396 143.754 121.299 144.092 121.14 144.401C120.98 144.71 120.761 144.985 120.495 145.209C120.229 145.433 119.921 145.601 119.59 145.705Z" fill="white"/>
<path opacity="0.5" d="M123.599 127.361C123.262 127.494 122.9 127.557 122.538 127.544C122.176 127.532 121.82 127.445 121.492 127.289C121.164 127.133 120.872 126.911 120.634 126.638C120.395 126.364 120.215 126.044 120.105 125.698C119.995 125.352 119.957 124.987 119.994 124.626C120.031 124.264 120.141 123.914 120.318 123.597C120.495 123.28 120.736 123.003 121.024 122.783C121.313 122.563 121.643 122.404 121.995 122.318C122.647 122.157 123.336 122.25 123.922 122.579C124.508 122.907 124.948 123.447 125.152 124.088C125.355 124.729 125.308 125.424 125.02 126.032C124.732 126.639 124.224 127.115 123.599 127.361Z" fill="white"/>
<path opacity="0.5" d="M141.482 121.645C140.987 121.806 140.455 121.815 139.955 121.672C139.454 121.53 139.007 121.241 138.67 120.844C138.333 120.447 138.121 119.958 138.062 119.44C138.002 118.922 138.098 118.398 138.336 117.935C138.574 117.471 138.944 117.088 139.399 116.836C139.854 116.583 140.374 116.471 140.892 116.514C141.411 116.557 141.905 116.754 142.312 117.079C142.719 117.404 143.021 117.842 143.179 118.339C143.39 119.003 143.331 119.724 143.012 120.343C142.694 120.963 142.144 121.431 141.482 121.645Z" fill="white"/>
<path opacity="0.5" d="M155.338 134.31C154.843 134.465 154.313 134.471 153.815 134.325C153.317 134.179 152.873 133.889 152.539 133.491C152.205 133.093 151.996 132.605 151.939 132.088C151.882 131.571 151.978 131.049 152.216 130.587C152.455 130.125 152.824 129.745 153.278 129.493C153.732 129.241 154.25 129.129 154.767 129.172C155.285 129.214 155.778 129.409 156.185 129.732C156.591 130.054 156.894 130.491 157.054 130.985C157.161 131.316 157.201 131.665 157.173 132.012C157.144 132.359 157.048 132.697 156.888 133.006C156.729 133.315 156.509 133.59 156.243 133.813C155.977 134.037 155.67 134.206 155.338 134.31Z" fill="white"/>
<path opacity="0.5" d="M151.347 152.673C150.68 152.879 149.958 152.815 149.337 152.493C148.716 152.172 148.246 151.619 148.028 150.954C147.873 150.458 147.868 149.927 148.013 149.428C148.159 148.929 148.449 148.485 148.846 148.15C149.243 147.816 149.731 147.607 150.246 147.549C150.762 147.492 151.283 147.589 151.744 147.827C152.205 148.066 152.586 148.436 152.837 148.891C153.089 149.346 153.2 149.865 153.158 150.383C153.115 150.901 152.921 151.395 152.598 151.802C152.276 152.21 151.841 152.513 151.347 152.673Z" fill="white"/>
<path opacity="0.5" d="M101.725 151.421C101.229 151.578 100.698 151.584 100.199 151.438C99.6996 151.293 99.2547 151.002 98.9203 150.603C98.5859 150.205 98.3771 149.715 98.3202 149.198C98.2633 148.68 98.361 148.157 98.6008 147.695C98.8406 147.233 99.2118 146.852 99.6675 146.601C100.123 146.35 100.643 146.241 101.161 146.285C101.679 146.33 102.172 146.528 102.578 146.854C102.984 147.18 103.284 147.618 103.441 148.115C103.545 148.445 103.583 148.792 103.553 149.137C103.524 149.482 103.426 149.817 103.267 150.124C103.108 150.431 102.889 150.704 102.625 150.926C102.36 151.149 102.055 151.317 101.725 151.421Z" fill="white"/>
<path opacity="0.5" d="M87.8509 138.775C87.3536 138.946 86.8168 138.965 86.3088 138.829C85.8008 138.693 85.3446 138.409 84.9984 138.013C84.6521 137.617 84.4315 137.126 84.3646 136.604C84.2976 136.081 84.3875 135.551 84.6226 135.08C84.8577 134.609 85.2275 134.218 85.6848 133.959C86.1421 133.699 86.6663 133.581 87.1906 133.621C87.7148 133.661 88.2154 133.856 88.6286 134.182C89.0418 134.507 89.3488 134.949 89.5106 135.45C89.7292 136.111 89.6773 136.833 89.3663 137.456C89.0552 138.079 88.5103 138.553 87.8509 138.775Z" fill="white"/>
<path opacity="0.5" d="M91.8603 120.412C91.3645 120.569 90.8334 120.575 90.3341 120.429C89.8349 120.284 89.39 119.993 89.0556 119.594C88.7212 119.195 88.5124 118.706 88.4555 118.189C88.3986 117.671 88.4962 117.148 88.736 116.686C88.9758 116.224 89.347 115.843 89.8027 115.592C90.2584 115.341 90.7781 115.231 91.2961 115.276C91.8141 115.321 92.3072 115.519 92.713 115.845C93.1188 116.17 93.4191 116.609 93.5759 117.106C93.6802 117.436 93.7184 117.783 93.6886 118.128C93.6588 118.473 93.5614 118.808 93.4021 119.115C93.2428 119.422 93.0246 119.695 92.7601 119.917C92.4955 120.14 92.1898 120.308 91.8603 120.412Z" fill="white"/>
<path opacity="0.5" d="M109.743 114.715C109.076 114.921 108.354 114.857 107.733 114.535C107.112 114.214 106.642 113.661 106.424 112.996C106.269 112.5 106.264 111.969 106.41 111.47C106.555 110.971 106.845 110.526 107.242 110.192C107.64 109.858 108.127 109.649 108.643 109.591C109.158 109.534 109.68 109.63 110.141 109.869C110.602 110.108 110.982 110.478 111.233 110.932C111.485 111.387 111.596 111.906 111.554 112.424C111.511 112.943 111.317 113.436 110.995 113.844C110.673 114.252 110.237 114.555 109.743 114.715Z" fill="white"/>
<path opacity="0.5" d="M123.599 127.361C123.262 127.494 122.9 127.557 122.538 127.544C122.176 127.532 121.82 127.445 121.492 127.289C121.164 127.133 120.872 126.911 120.634 126.638C120.395 126.364 120.215 126.044 120.105 125.698C119.995 125.352 119.957 124.987 119.994 124.626C120.031 124.264 120.141 123.914 120.318 123.597C120.495 123.28 120.736 123.003 121.024 122.783C121.313 122.563 121.643 122.404 121.995 122.318C122.647 122.157 123.336 122.25 123.922 122.579C124.508 122.907 124.948 123.447 125.152 124.088C125.355 124.729 125.308 125.424 125.02 126.032C124.732 126.639 124.224 127.115 123.599 127.361Z" fill="white"/>
<path opacity="0.5" d="M119.59 145.705C119.09 145.866 118.555 145.874 118.051 145.73C117.547 145.585 117.097 145.294 116.759 144.893C116.42 144.492 116.208 144 116.149 143.478C116.09 142.956 116.187 142.428 116.428 141.962C116.669 141.495 117.042 141.111 117.501 140.857C117.96 140.604 118.484 140.492 119.006 140.537C119.529 140.582 120.026 140.781 120.435 141.109C120.844 141.437 121.147 141.88 121.305 142.38C121.412 142.711 121.453 143.061 121.424 143.407C121.396 143.754 121.299 144.092 121.14 144.401C120.98 144.71 120.761 144.985 120.495 145.209C120.229 145.433 119.921 145.601 119.59 145.705Z" fill="white"/>
<path opacity="0.5" d="M87.8509 138.775C87.3536 138.946 86.8168 138.965 86.3088 138.829C85.8008 138.693 85.3446 138.409 84.9984 138.013C84.6521 137.617 84.4315 137.126 84.3646 136.604C84.2976 136.081 84.3875 135.551 84.6226 135.08C84.8577 134.609 85.2275 134.218 85.6848 133.959C86.1421 133.699 86.6663 133.581 87.1906 133.621C87.7148 133.661 88.2154 133.856 88.6286 134.182C89.0418 134.507 89.3488 134.949 89.5106 135.45C89.7292 136.111 89.6773 136.833 89.3663 137.456C89.0552 138.079 88.5103 138.553 87.8509 138.775Z" fill="white"/>
<path opacity="0.5" d="M101.725 151.421C101.229 151.578 100.698 151.584 100.199 151.438C99.6996 151.293 99.2547 151.002 98.9203 150.603C98.5859 150.205 98.3771 149.715 98.3202 149.198C98.2633 148.68 98.361 148.157 98.6008 147.695C98.8406 147.233 99.2118 146.852 99.6675 146.601C100.123 146.35 100.643 146.241 101.161 146.285C101.679 146.33 102.172 146.528 102.578 146.854C102.984 147.18 103.284 147.618 103.441 148.115C103.545 148.445 103.583 148.792 103.553 149.137C103.524 149.482 103.426 149.817 103.267 150.124C103.108 150.431 102.889 150.704 102.625 150.926C102.36 151.149 102.055 151.317 101.725 151.421Z" fill="white"/>
<path opacity="0.5" d="M151.347 152.673C150.68 152.879 149.958 152.815 149.337 152.493C148.716 152.172 148.246 151.619 148.028 150.954C147.873 150.458 147.868 149.927 148.013 149.428C148.159 148.929 148.449 148.485 148.846 148.15C149.243 147.816 149.731 147.607 150.246 147.549C150.762 147.492 151.283 147.589 151.744 147.827C152.205 148.066 152.586 148.436 152.837 148.891C153.089 149.346 153.2 149.865 153.158 150.383C153.115 150.901 152.921 151.395 152.598 151.802C152.276 152.21 151.841 152.513 151.347 152.673Z" fill="white"/>
<path opacity="0.5" d="M155.338 134.31C154.843 134.465 154.313 134.471 153.815 134.325C153.317 134.179 152.873 133.889 152.539 133.491C152.205 133.093 151.996 132.605 151.939 132.088C151.882 131.571 151.978 131.049 152.216 130.587C152.455 130.125 152.824 129.745 153.278 129.493C153.732 129.241 154.25 129.129 154.767 129.172C155.285 129.214 155.778 129.409 156.185 129.732C156.591 130.054 156.894 130.491 157.054 130.985C157.161 131.316 157.201 131.665 157.173 132.012C157.144 132.359 157.048 132.697 156.888 133.006C156.729 133.315 156.509 133.59 156.243 133.813C155.977 134.037 155.67 134.206 155.338 134.31Z" fill="white"/>
<path opacity="0.5" d="M133.464 158.37C132.969 158.526 132.439 158.531 131.941 158.385C131.443 158.239 130.999 157.949 130.665 157.551C130.331 157.153 130.122 156.665 130.065 156.148C130.008 155.631 130.104 155.109 130.342 154.648C130.581 154.186 130.95 153.805 131.404 153.553C131.858 153.301 132.376 153.189 132.893 153.232C133.411 153.274 133.904 153.469 134.31 153.792C134.717 154.115 135.02 154.551 135.18 155.045C135.386 155.714 135.321 156.437 135 157.059C134.68 157.681 134.128 158.152 133.464 158.37Z" fill="white"/>
<path opacity="0.5" d="M151.347 152.673C150.68 152.879 149.958 152.815 149.337 152.493C148.716 152.172 148.246 151.619 148.028 150.954C147.873 150.458 147.868 149.927 148.013 149.428C148.159 148.929 148.449 148.485 148.846 148.15C149.243 147.816 149.731 147.607 150.246 147.549C150.762 147.492 151.283 147.589 151.744 147.827C152.205 148.066 152.586 148.436 152.837 148.891C153.089 149.346 153.2 149.865 153.158 150.383C153.115 150.901 152.921 151.395 152.598 151.802C152.276 152.21 151.841 152.513 151.347 152.673Z" fill="white"/>
<path opacity="0.5" d="M101.725 151.421C101.229 151.578 100.698 151.584 100.199 151.438C99.6996 151.293 99.2547 151.002 98.9203 150.603C98.5859 150.205 98.3771 149.715 98.3202 149.198C98.2633 148.68 98.361 148.157 98.6008 147.695C98.8406 147.233 99.2118 146.852 99.6675 146.601C100.123 146.35 100.643 146.241 101.161 146.285C101.679 146.33 102.172 146.528 102.578 146.854C102.984 147.18 103.284 147.618 103.441 148.115C103.545 148.445 103.583 148.792 103.553 149.137C103.524 149.482 103.426 149.817 103.267 150.124C103.108 150.431 102.889 150.704 102.625 150.926C102.36 151.149 102.055 151.317 101.725 151.421Z" fill="white"/>
<path opacity="0.5" d="M119.59 145.705C119.09 145.866 118.555 145.874 118.051 145.73C117.547 145.585 117.097 145.294 116.759 144.893C116.42 144.492 116.208 144 116.149 143.478C116.09 142.956 116.187 142.428 116.428 141.962C116.669 141.495 117.042 141.111 117.501 140.857C117.96 140.604 118.484 140.492 119.006 140.537C119.529 140.582 120.026 140.781 120.435 141.109C120.844 141.437 121.147 141.88 121.305 142.38C121.412 142.711 121.453 143.061 121.424 143.407C121.396 143.754 121.299 144.092 121.14 144.401C120.98 144.71 120.761 144.985 120.495 145.209C120.229 145.433 119.921 145.601 119.59 145.705Z" fill="white"/>
<path opacity="0.5" d="M133.464 158.37C132.969 158.526 132.439 158.531 131.941 158.385C131.443 158.239 130.999 157.949 130.665 157.551C130.331 157.153 130.122 156.665 130.065 156.148C130.008 155.631 130.104 155.109 130.342 154.648C130.581 154.186 130.95 153.805 131.404 153.553C131.858 153.301 132.376 153.189 132.893 153.232C133.411 153.274 133.904 153.469 134.31 153.792C134.717 154.115 135.02 154.551 135.18 155.045C135.386 155.714 135.321 156.437 135 157.059C134.68 157.681 134.128 158.152 133.464 158.37Z" fill="white"/>
</g>
<path d="M244.905 236.92C244.905 240.286 244.243 243.618 242.957 246.728C241.671 249.837 239.787 252.663 237.411 255.043C235.035 257.422 232.215 259.31 229.111 260.598C226.007 261.886 222.68 262.549 219.32 262.549H219.059V274H219.32C229.047 273.985 238.371 270.107 245.247 263.215C252.123 256.323 255.99 246.981 256 237.238V206.994H244.905V236.92Z" fill="#1B95A2"/>
<path d="M256 194.722H244.905V206.995H256V194.722Z" fill="#9EE8DF"/>
<path d="M218.797 274H219.058V262.549H218.797C212.01 262.549 205.5 259.85 200.699 255.044C195.898 250.238 193.198 243.719 193.193 236.92V207.032H182.098V237.238C182.108 246.985 185.977 256.33 192.858 263.222C199.738 270.114 209.067 273.99 218.797 274Z" fill="#FC611F"/>
<path d="M193.193 194.722H182.098V206.995H193.193V194.722Z" fill="#9EE8DF"/>
<path d="M244.904 236.92V207.032H233.715V237.238C233.711 241.087 232.183 244.778 229.467 247.502C226.752 250.226 223.069 251.761 219.226 251.771H218.965V262.549H219.226C222.594 262.561 225.931 261.908 229.046 260.625C232.16 259.343 234.992 257.457 237.378 255.076C239.763 252.695 241.656 249.865 242.948 246.75C244.239 243.634 244.904 240.294 244.904 236.92Z" fill="#1B95A2"/>
<path d="M244.904 194.722H233.809V206.995H244.904V194.722Z" fill="#9EE8DF"/>
<path d="M218.797 251.771C214.951 251.766 211.263 250.233 208.544 247.509C205.824 244.784 204.294 241.09 204.289 237.238V206.994H193.1V236.883C193.105 243.682 195.805 250.2 200.606 255.006C205.407 259.812 211.917 262.512 218.704 262.512H218.965V251.733L218.797 251.771Z" fill="#FC611F"/>
<path d="M204.289 194.722H193.194V206.995H204.289V194.722Z" fill="#9EE8DF"/>
<g style="mix-blend-mode:multiply" opacity="0.5">
<g style="mix-blend-mode:multiply" opacity="0.5">
<path d="M244.904 236.92V207.032H233.715V237.238C233.711 241.087 232.183 244.778 229.467 247.502C226.752 250.226 223.069 251.761 219.226 251.771H218.965V262.549H219.226C222.594 262.561 225.931 261.908 229.046 260.625C232.16 259.343 234.992 257.457 237.378 255.076C239.763 252.695 241.656 249.865 242.948 246.75C244.239 243.634 244.904 240.294 244.904 236.92Z" fill="#1B95A2"/>
</g>
</g>
<g style="mix-blend-mode:multiply" opacity="0.5">
<g style="mix-blend-mode:multiply" opacity="0.5">
<path d="M244.904 194.722H233.809V206.995H244.904V194.722Z" fill="#1B95A2"/>
</g>
</g>
<g style="mix-blend-mode:multiply">
<g style="mix-blend-mode:multiply">
<path d="M218.797 251.771C214.951 251.766 211.263 250.233 208.544 247.509C205.824 244.784 204.294 241.09 204.289 237.238V206.994H193.1V236.883C193.105 243.682 195.805 250.2 200.606 255.006C205.407 259.812 211.917 262.512 218.704 262.512H218.965V251.733L218.797 251.771Z" fill="#FF931E"/>
</g>
</g>
<g style="mix-blend-mode:multiply" opacity="0.5">
<g style="mix-blend-mode:multiply" opacity="0.5">
<path d="M204.289 194.722H193.194V206.995H204.289V194.722Z" fill="#1B95A2"/>
</g>
</g>
<path d="M248.373 28.2445V108.345C248.368 109.775 247.799 111.145 246.789 112.157C245.779 113.168 244.412 113.739 242.984 113.743H190.359C188.931 113.739 187.563 113.168 186.554 112.157C185.544 111.145 184.975 109.775 184.97 108.345V28.2445C184.975 26.816 185.545 25.4476 186.555 24.4392C187.565 23.4309 188.933 22.8646 190.359 22.8647H242.984C244.41 22.8646 245.778 23.4309 246.788 24.4392C247.798 25.4476 248.368 26.816 248.373 28.2445Z" fill="#1B95A2"/>
<path d="M200.13 49.5023H195.711C194.434 49.5023 193.398 50.5394 193.398 51.8187V56.2458C193.398 57.5251 194.434 58.5622 195.711 58.5622H200.13C201.407 58.5622 202.443 57.5251 202.443 56.2458V51.8187C202.443 50.5394 201.407 49.5023 200.13 49.5023Z" fill="#095C60"/>
<path d="M212.774 49.5023H208.355C207.078 49.5023 206.042 50.5394 206.042 51.8187V56.2458C206.042 57.5251 207.078 58.5622 208.355 58.5622H212.774C214.051 58.5622 215.087 57.5251 215.087 56.2458V51.8187C215.087 50.5394 214.051 49.5023 212.774 49.5023Z" fill="#095C60"/>
<path d="M225.398 49.5023H220.979C219.702 49.5023 218.667 50.5394 218.667 51.8187V56.2458C218.667 57.5251 219.702 58.5622 220.979 58.5622H225.398C226.676 58.5622 227.711 57.5251 227.711 56.2458V51.8187C227.711 50.5394 226.676 49.5023 225.398 49.5023Z" fill="#095C60"/>
<path d="M200.13 61.6444H195.711C194.434 61.6444 193.398 62.6814 193.398 63.9607V68.3879C193.398 69.6672 194.434 70.7042 195.711 70.7042H200.13C201.407 70.7042 202.443 69.6672 202.443 68.3879V63.9607C202.443 62.6814 201.407 61.6444 200.13 61.6444Z" fill="#82D6D8"/>
<path d="M212.774 61.6444H208.355C207.078 61.6444 206.042 62.6814 206.042 63.9607V68.3879C206.042 69.6672 207.078 70.7042 208.355 70.7042H212.774C214.051 70.7042 215.087 69.6672 215.087 68.3879V63.9607C215.087 62.6814 214.051 61.6444 212.774 61.6444Z" fill="#82D6D8"/>
<path d="M225.398 61.6444H220.979C219.702 61.6444 218.667 62.6814 218.667 63.9607V68.3879C218.667 69.6672 219.702 70.7042 220.979 70.7042H225.398C226.676 70.7042 227.711 69.6672 227.711 68.3879V63.9607C227.711 62.6814 226.676 61.6444 225.398 61.6444Z" fill="#82D6D8"/>
<path d="M200.13 73.7865H195.711C194.434 73.7865 193.398 74.8235 193.398 76.1028V80.53C193.398 81.8093 194.434 82.8463 195.711 82.8463H200.13C201.407 82.8463 202.443 81.8093 202.443 80.53V76.1028C202.443 74.8235 201.407 73.7865 200.13 73.7865Z" fill="#82D6D8"/>
<path d="M212.774 73.7865H208.355C207.078 73.7865 206.042 74.8235 206.042 76.1028V80.53C206.042 81.8093 207.078 82.8463 208.355 82.8463H212.774C214.051 82.8463 215.087 81.8093 215.087 80.53V76.1028C215.087 74.8235 214.051 73.7865 212.774 73.7865Z" fill="#82D6D8"/>
<path d="M225.398 73.7865H220.979C219.702 73.7865 218.667 74.8235 218.667 76.1028V80.53C218.667 81.8093 219.702 82.8463 220.979 82.8463H225.398C226.676 82.8463 227.711 81.8093 227.711 80.53V76.1028C227.711 74.8235 226.676 73.7865 225.398 73.7865Z" fill="#82D6D8"/>
<path d="M200.13 85.9285H195.711C194.434 85.9285 193.398 86.9656 193.398 88.2449V92.6721C193.398 93.9513 194.434 94.9884 195.711 94.9884H200.13C201.407 94.9884 202.443 93.9513 202.443 92.6721V88.2449C202.443 86.9656 201.407 85.9285 200.13 85.9285Z" fill="#82D6D8"/>
<path d="M212.774 85.9285H208.355C207.078 85.9285 206.042 86.9656 206.042 88.2449V92.6721C206.042 93.9513 207.078 94.9884 208.355 94.9884H212.774C214.051 94.9884 215.087 93.9513 215.087 92.6721V88.2449C215.087 86.9656 214.051 85.9285 212.774 85.9285Z" fill="#82D6D8"/>
<path d="M225.398 85.9285H220.979C219.702 85.9285 218.667 86.9656 218.667 88.2449V92.6721C218.667 93.9513 219.702 94.9884 220.979 94.9884H225.398C226.676 94.9884 227.711 93.9513 227.711 92.6721V88.2449C227.711 86.9656 226.676 85.9285 225.398 85.9285Z" fill="#82D6D8"/>
<path d="M212.755 98.0706H195.711C194.434 98.0706 193.398 99.1077 193.398 100.387V104.814C193.398 106.093 194.434 107.13 195.711 107.13H212.755C214.032 107.13 215.067 106.093 215.067 104.814V100.387C215.067 99.1077 214.032 98.0706 212.755 98.0706Z" fill="#82D6D8"/>
<path d="M225.398 98.0706H220.979C219.702 98.0706 218.667 99.1077 218.667 100.387V104.814C218.667 106.093 219.702 107.13 220.979 107.13H225.398C226.676 107.13 227.711 106.093 227.711 104.814V100.387C227.711 99.1077 226.676 98.0706 225.398 98.0706Z" fill="#82D6D8"/>
<path d="M237.632 49.5023H233.212C231.935 49.5023 230.9 50.5394 230.9 51.8187V56.2458C230.9 57.5251 231.935 58.5622 233.212 58.5622H237.632C238.909 58.5622 239.944 57.5251 239.944 56.2458V51.8187C239.944 50.5394 238.909 49.5023 237.632 49.5023Z" fill="#095C60"/>
<path d="M237.632 61.6444H233.212C231.935 61.6444 230.9 62.6814 230.9 63.9607V68.3879C230.9 69.6672 231.935 70.7042 233.212 70.7042H237.632C238.909 70.7042 239.944 69.6672 239.944 68.3879V63.9607C239.944 62.6814 238.909 61.6444 237.632 61.6444Z" fill="#82D6D8"/>
<path d="M237.632 73.7865H233.212C231.935 73.7865 230.9 74.8235 230.9 76.1028V80.53C230.9 81.8093 231.935 82.8463 233.212 82.8463H237.632C238.909 82.8463 239.944 81.8093 239.944 80.53V76.1028C239.944 74.8235 238.909 73.7865 237.632 73.7865Z" fill="#82D6D8"/>
<path d="M237.632 85.9285H233.212C231.935 85.9285 230.9 86.9656 230.9 88.2449V104.814C230.9 106.093 231.935 107.13 233.212 107.13H237.632C238.909 107.13 239.944 106.093 239.944 104.814V88.2449C239.944 86.9656 238.909 85.9285 237.632 85.9285Z" fill="#82D6D8"/>
<g style="mix-blend-mode:multiply" opacity="0.5">
<path d="M248.373 28.2445V108.345C248.368 109.775 247.799 111.145 246.789 112.157C245.779 113.168 244.412 113.739 242.984 113.743H216.671V22.8647H242.984C244.41 22.8646 245.778 23.4309 246.788 24.4392C247.798 25.4476 248.368 26.816 248.373 28.2445Z" fill="#1B95A2"/>
</g>
<path d="M236.438 28.4124H196.923C194.976 28.4124 193.398 29.9931 193.398 31.943V41.4511C193.398 43.401 194.976 44.9817 196.923 44.9817H236.438C238.385 44.9817 239.963 43.401 239.963 41.4511V31.943C239.963 29.9931 238.385 28.4124 236.438 28.4124Z" fill="#FDBC00"/>
<path d="M236.42 27.7586H196.923C196.373 27.7561 195.828 27.8625 195.319 28.0717C194.81 28.2809 194.347 28.5887 193.957 28.9775C193.567 29.3663 193.258 29.8284 193.047 30.3373C192.836 30.8462 192.727 31.3918 192.727 31.9429V41.4511C192.727 42.5658 193.169 43.6349 193.956 44.4231C194.743 45.2113 195.81 45.6541 196.923 45.6541H236.42C237.523 45.6394 238.576 45.1901 239.35 44.4034C240.125 43.6168 240.56 42.5562 240.559 41.4511V31.9429C240.56 30.8396 240.125 29.7809 239.349 28.9973C238.574 28.2136 237.521 27.7684 236.42 27.7586ZM239.291 41.4511C239.287 42.2125 238.982 42.9414 238.445 43.4798C237.907 44.0183 237.18 44.3229 236.42 44.3278H196.923C196.163 44.3229 195.435 44.0183 194.898 43.4798C194.36 42.9414 194.056 42.2125 194.051 41.4511V31.9429C194.051 31.566 194.126 31.1928 194.27 30.8448C194.415 30.4969 194.627 30.181 194.894 29.9153C195.16 29.6497 195.477 29.4395 195.826 29.297C196.174 29.1545 196.547 29.0824 196.923 29.0848H236.42C236.796 29.0824 237.169 29.1545 237.517 29.297C237.865 29.4395 238.182 29.6497 238.449 29.9153C238.716 30.181 238.928 30.4969 239.072 30.8448C239.217 31.1928 239.291 31.566 239.291 31.9429V41.4511Z" fill="#095C60"/>
<g style="mix-blend-mode:multiply" opacity="0.5">
<path d="M240.559 31.9433V41.4515C240.559 42.5662 240.117 43.6352 239.331 44.4235C238.544 45.2117 237.476 45.6545 236.364 45.6545H216.671V27.7589H236.42C237.521 27.7688 238.574 28.214 239.349 28.9976C240.125 29.7813 240.56 30.84 240.559 31.9433Z" fill="#FF931E"/>
</g>
<path d="M223.944 40.349H222.508V35.7163V35.0065L222.005 35.4735L221.203 36.1086L220.513 35.2306L222.713 33.4747H223.907L223.944 40.349Z" fill="#095C60"/>
<path d="M227.692 37.4725H225.828V36.4451H227.692V34.5771H228.718V36.4451H230.583V37.4725H228.718V39.3405H227.692V37.4725Z" fill="#095C60"/>
<path d="M236.14 40.3493H231.329V39.3406L233.063 37.5846C233.411 37.2408 233.741 36.8792 234.052 36.5012C234.194 36.3311 234.313 36.1426 234.406 35.9408C234.434 35.7613 234.434 35.5785 234.406 35.3991C234.412 35.2865 234.395 35.174 234.356 35.0681C234.318 34.9622 234.259 34.8651 234.182 34.7826C234.009 34.641 233.79 34.5679 233.567 34.5771C233.301 34.5842 233.041 34.6479 232.802 34.7639C232.52 34.9044 232.257 35.0802 232.019 35.287L231.217 34.353C231.565 34.0665 231.845 33.8611 232.056 33.7365C232.287 33.6189 232.531 33.531 232.783 33.475C233.076 33.4042 233.377 33.3728 233.679 33.3816C234.121 33.358 234.562 33.4413 234.965 33.6244C235.271 33.7741 235.534 33.9991 235.73 34.2783C235.904 34.572 235.994 34.908 235.991 35.2496C235.993 35.5565 235.936 35.8609 235.823 36.1463C235.694 36.4539 235.525 36.7429 235.32 37.0055C235.083 37.2795 234.673 37.6905 234.089 38.2384L233.194 39.079H236.196L236.14 40.3493Z" fill="#095C60"/>
<path d="M151.888 52.1176L150.023 43.0764L148.923 43.2258L150.788 52.3791L151.888 52.1176Z" fill="white"/>
<path d="M137.249 22.8273L129.063 17.3354C128.879 17.6531 128.667 17.9532 128.429 18.232L136.653 23.8361C136.832 23.4883 137.031 23.1515 137.249 22.8273Z" fill="white"/>
<path d="M155.114 19.6703L160.821 11.2082C160.507 11.0052 160.208 10.7805 159.925 10.5357L154.182 19.0912C154.503 19.2668 154.814 19.4601 155.114 19.6703Z" fill="white"/>
<path d="M169.119 63.3818C168.693 61.2165 167.773 59.1792 166.43 57.4292C165.088 55.6793 163.359 54.2642 161.38 53.2946C160.3 52.7475 159.152 52.3455 157.967 52.099C156.043 51.6878 154.055 51.6878 152.131 52.099H151.888L150.825 52.3605C148.055 53.1956 145.599 54.8452 143.777 57.0954C141.954 59.3456 140.848 62.0926 140.603 64.98C140.358 67.8673 140.984 70.7619 142.401 73.2882C143.819 75.8145 145.961 77.856 148.55 79.1478C150.965 80.3413 153.664 80.8335 156.344 80.5687C159.023 80.304 161.575 79.2928 163.71 77.6498C165.845 76.0068 167.478 73.7977 168.424 71.2726C169.371 68.7476 169.592 66.0076 169.063 63.3631L169.119 63.3818ZM148.811 78.6808L149.054 78.1765C146.973 77.1529 145.195 75.6031 143.896 73.6802C142.597 71.7573 141.822 69.528 141.647 67.2128C141.471 64.8976 141.903 62.5766 142.898 60.4796C143.892 58.3825 145.417 56.5819 147.319 55.256C148.802 54.2039 150.494 53.484 152.28 53.1451C154.057 52.7696 155.892 52.7696 157.669 53.1451C158.759 53.3955 159.817 53.7716 160.821 54.2659C162.4 55.0366 163.812 56.1128 164.974 57.4326C166.137 58.7523 167.027 60.2895 167.594 61.9556C168.16 63.6216 168.392 65.3835 168.276 67.1397C168.16 68.8959 167.698 70.6116 166.916 72.1881C166.135 73.7645 165.05 75.1705 163.724 76.3249C162.397 77.4793 160.856 78.3594 159.189 78.9143C157.521 79.4692 155.761 79.6881 154.008 79.5582C152.256 79.4284 150.547 78.9524 148.979 78.1578L148.737 78.6622L148.811 78.6808Z" fill="white"/>
<path d="M150.079 43.0764H150.321C153.673 42.3734 156.614 40.3798 158.511 37.525C160.409 34.6703 161.111 31.183 160.466 27.8147C159.971 25.3527 158.772 23.0878 157.016 21.2953C156.447 20.7077 155.822 20.176 155.151 19.7075C154.852 19.491 154.541 19.2914 154.219 19.1098L153.697 18.8296H153.566L152.746 18.4373C150.382 17.4756 147.789 17.2288 145.287 17.7274C143.319 18.065 141.459 18.8653 139.86 20.0625C138.844 20.8461 137.952 21.778 137.212 22.8271C136.996 23.127 136.797 23.4388 136.615 23.7611C136.019 24.7457 135.56 25.808 135.254 26.9181C134.485 29.8199 134.736 32.8986 135.965 35.6369C137.194 38.3752 139.327 40.6064 142.004 41.9556C142.737 42.3019 143.498 42.5832 144.28 42.7962C145.76 43.1996 147.303 43.3262 148.83 43.1698L150.079 43.0764ZM142.508 40.9468C140.88 40.153 139.458 38.993 138.351 37.5575C137.245 36.122 136.485 34.4499 136.13 32.6715C135.683 30.4984 135.857 28.2428 136.632 26.1642C137.407 24.0857 138.752 22.2685 140.513 20.9217C141.965 19.8021 143.656 19.0349 145.454 18.6801C147.744 18.21 150.121 18.4377 152.28 19.3339L153.044 19.6889L153.287 19.1845L153.156 19.7262C154.293 20.3046 155.327 21.0685 156.214 21.9865C158.049 23.8397 159.222 26.2472 159.552 28.8359C159.882 31.4247 159.35 34.0502 158.04 36.3057C156.729 38.5612 154.712 40.3208 152.302 41.3118C149.892 42.3029 147.223 42.47 144.708 41.7874C143.991 41.6282 143.291 41.3967 142.62 41.0963L142.508 40.9468Z" fill="white"/>
<path d="M129.063 17.3351C130.053 15.7323 130.536 13.8669 130.448 11.984C130.36 10.1012 129.705 8.28909 128.57 6.78582C127.435 5.28255 125.873 4.15848 124.088 3.56135C122.303 2.96422 120.38 2.92197 118.571 3.44015C116.762 3.95834 115.151 5.01271 113.951 6.4647C112.752 7.91668 112.018 9.69833 111.848 11.5755C111.678 13.4526 112.079 15.3375 112.998 16.9822C113.917 18.627 115.311 19.9547 116.998 20.7909C118.849 21.7165 120.955 21.9991 122.984 21.5942C125.143 21.1656 127.076 19.9719 128.429 18.2317C128.667 17.9529 128.879 17.6528 129.063 17.3351ZM117.24 20.2866L117.482 19.8009C115.949 19.0346 114.692 17.8075 113.889 16.2911C113.086 14.7747 112.775 13.0447 113.001 11.3429C113.227 9.64111 113.978 8.05256 115.149 6.79924C116.321 5.54592 117.853 4.69047 119.534 4.35242C121.316 3.98586 123.17 4.23612 124.792 5.06226C125.921 5.61174 126.907 6.41539 127.674 7.41029C128.441 8.4052 128.967 9.56437 129.212 10.7971C129.43 11.8619 129.435 12.9592 129.228 14.0262C129.022 15.0932 128.607 16.1088 128.007 17.0147C127.408 17.9207 126.636 18.6992 125.735 19.3055C124.835 19.9118 123.824 20.3341 122.76 20.5481C120.967 20.8986 119.108 20.6354 117.482 19.8009L117.221 20.2866H117.24Z" fill="white"/>
<path d="M160.82 11.2082C161 11.331 161.187 11.4433 161.38 11.5444C161.968 11.8362 162.597 12.0377 163.245 12.1422C163.9 12.2451 164.566 12.2451 165.221 12.1422C166.814 11.8325 168.218 10.9018 169.126 9.55485C170.033 8.20787 170.37 6.55493 170.06 4.95965C169.751 3.36438 168.822 1.95744 167.478 1.04836C166.133 0.139281 164.483 -0.197481 162.89 0.112162L162.461 0.224242C160.988 0.637259 159.724 1.59171 158.922 2.89711C158.12 4.20251 157.839 5.76283 158.135 7.26665C158.195 7.63155 158.295 7.98867 158.433 8.33142C158.537 8.58128 158.655 8.82458 158.788 9.05994C159.087 9.60354 159.471 10.0955 159.925 10.517C160.207 10.7682 160.506 10.9992 160.82 11.2082ZM163.095 1.19561C164.177 0.991092 165.295 1.14178 166.284 1.62525C166.967 1.95812 167.563 2.4452 168.026 3.04813C168.489 3.65106 168.805 4.35337 168.951 5.09975C169.209 6.39515 168.944 7.74025 168.213 8.8399C167.482 9.93955 166.346 10.7039 165.054 10.9653C164.523 11.0589 163.98 11.0589 163.45 10.9653C162.678 10.8641 161.939 10.5856 161.292 10.1514C160.645 9.71716 160.107 9.13906 159.72 8.46218C159.616 8.26836 159.522 8.06878 159.44 7.86441C159.332 7.5867 159.25 7.29887 159.198 7.00513C158.967 5.77582 159.207 4.50445 159.871 3.44485C160.535 2.38526 161.573 1.61541 162.778 1.28901L163.095 1.19561Z" fill="white"/>
<g opacity="0.5">
<path opacity="0.5" d="M224.075 203.445C223.607 204.351 222.901 205.111 222.033 205.644C221.166 206.177 220.169 206.463 219.152 206.471H219.021C217.997 206.47 216.993 206.187 216.118 205.654C215.243 205.12 214.532 204.356 214.061 203.445H212.811C213.32 204.677 214.181 205.729 215.286 206.471C216.391 207.212 217.691 207.609 219.021 207.611H219.152C220.478 207.611 221.774 207.215 222.873 206.473C223.973 205.731 224.826 204.676 225.324 203.445H224.075Z" fill="white"/>
<path opacity="0.5" d="M219.058 124.055C212.57 124.062 206.272 126.256 201.181 130.286C196.09 134.315 192.501 139.945 190.993 146.267C189.485 152.589 190.146 159.235 192.87 165.135C195.593 171.034 200.22 175.844 206.005 178.788V187.717H207.142V178.059L206.825 177.91C201.207 175.135 196.691 170.537 194.012 164.865C191.334 159.193 190.65 152.779 192.072 146.668C193.494 140.557 196.939 135.108 201.845 131.207C206.752 127.306 212.832 125.183 219.096 125.183C225.36 125.183 231.44 127.306 236.346 131.207C241.253 135.108 244.697 140.557 246.119 146.668C247.542 152.779 246.858 159.193 244.179 164.865C241.5 170.537 236.985 175.135 231.366 177.91L231.049 178.078V187.735H232.187V178.769C237.961 175.82 242.578 171.01 245.294 165.115C248.01 159.219 248.668 152.58 247.161 146.264C245.655 139.949 242.071 134.325 236.987 130.297C231.904 126.268 225.615 124.07 219.133 124.055H219.058Z" fill="white"/>
<path opacity="0.5" d="M231.571 198.962H230.788C230.65 199.406 230.449 199.827 230.191 200.214C229.756 200.827 229.179 201.327 228.511 201.672C227.843 202.017 227.101 202.195 226.35 202.194H211.953C211.193 202.193 210.444 202.009 209.769 201.658C209.094 201.307 208.513 200.799 208.075 200.176C207.786 199.782 207.571 199.339 207.44 198.869H206.545L206.247 196.067H206.061V197.449C206.061 197.692 206.061 197.916 206.061 198.159C206.178 199.147 206.551 200.087 207.142 200.886C207.685 201.648 208.401 202.269 209.231 202.697C210.062 203.126 210.982 203.351 211.916 203.352H226.312C227.231 203.355 228.138 203.14 228.958 202.724C229.778 202.309 230.488 201.704 231.03 200.961L231.142 200.849C231.699 200.05 232.051 199.126 232.168 198.159C232.168 197.916 232.168 197.692 232.168 197.449V196.141H231.944L231.571 198.962Z" fill="white"/>
<path opacity="0.5" d="M231.012 187.717H223.217V188.221C223.22 188.286 223.209 188.35 223.185 188.41C223.162 188.47 223.126 188.525 223.081 188.57C223.035 188.616 222.981 188.652 222.921 188.675C222.861 188.699 222.796 188.709 222.732 188.707C222.604 188.707 222.48 188.656 222.389 188.565C222.298 188.473 222.247 188.35 222.247 188.221V187.717H215.87V188.221C215.87 188.285 215.857 188.348 215.833 188.407C215.808 188.466 215.773 188.519 215.728 188.565C215.683 188.61 215.629 188.645 215.57 188.67C215.511 188.694 215.448 188.707 215.385 188.707C215.32 188.709 215.256 188.699 215.196 188.675C215.136 188.652 215.082 188.616 215.036 188.57C214.991 188.525 214.955 188.47 214.931 188.41C214.908 188.35 214.897 188.286 214.9 188.221V187.717H205.968V191.453H207.105V188.856H231.012V191.527H232.149V187.791L231.012 187.717Z" fill="white"/>
<path opacity="0.5" d="M205.968 194.33V196.16H206.154L205.968 194.33Z" fill="white"/>
<path opacity="0.5" d="M232.149 196.16V194.33L231.926 196.16H232.149Z" fill="white"/>
<path opacity="0.5" d="M231.012 191.528H207.105H205.968V192.686V194.33H207.105V192.686H231.012V194.33H232.149V192.686V191.528H231.012Z" fill="white"/>
<path opacity="0.5" d="M231.012 194.273H205.968L206.154 196.141L206.452 198.943H231.571L231.926 196.141L232.149 194.273H231.012ZM231.012 197.748H207.105V195.431H231.012V197.748Z" fill="white"/>
<path opacity="0.5" d="M230.993 151.552C231.039 151.476 231.063 151.389 231.063 151.3C231.063 151.211 231.039 151.124 230.993 151.048C230.956 150.966 230.895 150.897 230.818 150.851C230.742 150.804 230.653 150.782 230.564 150.786C230.137 150.789 229.714 150.876 229.32 151.042C228.927 151.209 228.57 151.452 228.27 151.757C227.828 152.212 227.225 152.474 226.592 152.486C225.977 152.486 225.622 151.944 225.137 151.029C224.653 150.114 224.037 149.161 222.806 149.161C221.576 149.161 220.942 150.207 220.494 151.029C220.046 151.851 219.636 152.486 219.039 152.486C218.443 152.486 218.07 151.944 217.566 151.029C217.063 150.114 216.485 149.161 215.254 149.161C214.023 149.161 213.389 150.207 212.942 151.029C212.494 151.851 212.102 152.486 211.487 152.486C211.149 152.454 210.821 152.352 210.525 152.184C210.23 152.017 209.973 151.789 209.771 151.515C209.487 151.14 209.124 150.833 208.709 150.613C208.293 150.394 207.835 150.268 207.366 150.244C207.279 150.25 207.194 150.277 207.119 150.322C207.045 150.368 206.982 150.431 206.937 150.506C206.891 150.582 206.866 150.669 206.866 150.758C206.866 150.847 206.891 150.934 206.937 151.01L214.862 162.667V188.221C214.86 188.285 214.87 188.35 214.894 188.41C214.917 188.47 214.953 188.525 214.999 188.57C215.044 188.616 215.099 188.652 215.159 188.675C215.219 188.699 215.283 188.709 215.347 188.707C215.476 188.707 215.599 188.655 215.69 188.564C215.781 188.473 215.832 188.35 215.832 188.221V162.517C215.857 162.425 215.857 162.329 215.832 162.237L208.783 151.851L209.137 152.206C209.422 152.58 209.785 152.888 210.2 153.107C210.616 153.327 211.074 153.452 211.543 153.476C212.774 153.476 213.408 152.43 213.855 151.608C214.303 150.786 214.695 150.151 215.31 150.151C215.925 150.151 216.28 150.693 216.764 151.608C217.249 152.523 217.846 153.476 219.095 153.476C220.345 153.476 220.96 152.43 221.408 151.608C221.855 150.786 222.247 150.151 222.862 150.151C223.478 150.151 223.832 150.693 224.336 151.608C224.839 152.523 225.417 153.476 226.648 153.476C227.508 153.457 228.329 153.109 228.942 152.505C229.109 152.374 229.277 152.224 229.445 152.112L222.322 162.517C222.296 162.609 222.296 162.706 222.322 162.797V188.184C222.322 188.312 222.373 188.436 222.464 188.527C222.554 188.618 222.678 188.669 222.806 188.669C222.871 188.672 222.935 188.661 222.995 188.638C223.055 188.614 223.11 188.579 223.155 188.533C223.201 188.487 223.236 188.433 223.26 188.373C223.283 188.312 223.294 188.248 223.291 188.184V162.984L230.993 151.552Z" fill="white"/>
</g>
<path d="M170.107 246.241H10.6479V151.309C10.6479 150.23 10.8602 149.161 11.2725 148.164C11.6849 147.166 12.2893 146.26 13.0512 145.497C13.8131 144.734 14.7176 144.128 15.7131 143.715C16.7086 143.302 17.7756 143.09 18.8531 143.09H161.902C162.98 143.09 164.047 143.302 165.042 143.715C166.038 144.128 166.942 144.734 167.704 145.497C168.466 146.26 169.07 147.166 169.483 148.164C169.895 149.161 170.107 150.23 170.107 151.309V246.241Z" fill="#03A677"/>
<path d="M165.967 138.943H14.7133C12.5337 138.948 10.4448 139.817 8.90363 141.361C7.36244 142.905 6.49443 144.997 6.4895 147.181V250.314H174.322V147.181C174.322 146.088 174.105 145.006 173.683 143.998C173.262 142.99 172.645 142.075 171.867 141.309C171.089 140.542 170.167 139.938 169.155 139.532C168.142 139.126 167.058 138.925 165.967 138.943ZM14.7879 155.456C14.7879 153.276 15.6523 151.185 17.1911 149.644C18.7299 148.103 20.8169 147.237 22.993 147.237H157.762C159.938 147.237 162.025 148.103 163.564 149.644C165.103 151.185 165.967 153.276 165.967 155.456V242.113H14.7879V155.456Z" fill="#42210B"/>
<path d="M180.755 250.388H0V258.029H180.755V250.388Z" fill="#1E0B02"/>
<g opacity="0.5">
<g style="mix-blend-mode:multiply" opacity="0.5">
<path d="M165.967 155.456C165.967 153.276 165.103 151.186 163.564 149.644C162.025 148.103 159.938 147.237 157.762 147.237H90.3682V242.113H165.967V155.456Z" fill="#1B95A2"/>
</g>
<g style="mix-blend-mode:multiply" opacity="0.5">
<path d="M157.762 147.237C159.938 147.237 162.025 148.103 163.564 149.644C165.103 151.186 165.967 153.276 165.967 155.456V242.113H90.3682V250.314H174.284V147.181C174.284 146.091 174.069 145.012 173.649 144.007C173.23 143.001 172.616 142.089 171.843 141.322C171.069 140.556 170.152 139.951 169.143 139.543C168.134 139.134 167.055 138.93 165.967 138.943H90.3682V147.237H157.762Z" fill="#1B95A2"/>
</g>
<g style="mix-blend-mode:multiply" opacity="0.5">
<path d="M174.247 250.388H90.3682V258.028H180.736V250.388H174.247Z" fill="#1B95A2"/>
</g>
</g>
<path d="M53.6504 246.242H31.6458V250.389H53.6504V246.242Z" fill="white"/>
<path d="M50.9837 212.001H35.1143V184.41H50.9837V189.211H41.0257V195.263H50.3497V200.064H41.0257V207.181H51.0583L50.9837 212.001Z" fill="white"/>
<path d="M54.9187 196.814V192.685H73.5667V196.814H54.9187ZM54.9187 204.118V199.989H73.5667V204.118H54.9187Z" fill="white"/>
<path d="M90.4242 212.001L83.7855 190.351H83.6176C83.86 194.759 83.9719 197.692 83.9719 199.168V212.001H78.7505V184.41H86.7132L93.24 205.481H93.3519L100.27 184.373H108.158V211.963H102.769V198.887C102.769 198.271 102.769 197.561 102.769 196.758C102.769 195.955 102.881 193.806 103.03 190.332H102.862L95.7575 211.945L90.4242 212.001Z" fill="white"/>
<path d="M126.806 188.893C125.815 188.848 124.829 189.051 123.936 189.485C123.044 189.919 122.274 190.57 121.697 191.378C120.363 193.427 119.711 195.846 119.832 198.289C119.832 204.429 122.138 207.505 126.75 207.517C129.158 207.424 131.534 206.931 133.781 206.06V210.973C131.375 211.941 128.802 212.424 126.21 212.393C124.496 212.498 122.78 212.217 121.189 211.57C119.598 210.924 118.172 209.928 117.016 208.657C114.708 205.673 113.573 201.944 113.827 198.177C113.782 195.6 114.317 193.046 115.394 190.705C116.356 188.632 117.923 186.899 119.888 185.736C121.996 184.545 124.387 183.951 126.806 184.018C129.604 184.026 132.363 184.664 134.881 185.886L133.016 190.649C132.01 190.161 130.976 189.731 129.921 189.36C128.918 189.024 127.864 188.866 126.806 188.893Z" fill="white"/>
<path d="M148.401 199.13H137.212V196.776L141.24 192.686C142.434 191.453 143.217 190.612 143.571 190.145C143.896 189.741 144.166 189.295 144.373 188.819C144.529 188.42 144.611 187.996 144.615 187.567C144.632 187.303 144.593 187.038 144.5 186.79C144.406 186.542 144.261 186.316 144.075 186.129C143.678 185.799 143.172 185.632 142.657 185.662C142.01 185.646 141.368 185.794 140.793 186.091C140.123 186.417 139.496 186.825 138.928 187.306L137.063 185.12C137.675 184.579 138.337 184.097 139.04 183.682C139.594 183.4 140.184 183.193 140.793 183.065C141.471 182.909 142.166 182.834 142.863 182.841C143.775 182.816 144.681 183.001 145.511 183.383C146.254 183.707 146.884 184.247 147.319 184.933C147.757 185.605 147.985 186.392 147.972 187.194C147.976 187.91 147.843 188.62 147.58 189.286C147.272 190 146.864 190.667 146.368 191.266C145.473 192.338 144.501 193.343 143.459 194.273L141.389 196.141V196.291H148.401V199.13Z" fill="white"/>
<path d="M84.8671 71.3955C84.8708 73.3914 84.2834 75.3434 83.1791 77.0047C82.0749 78.666 80.5035 79.9619 78.6637 80.7282C76.824 81.4946 74.7987 81.697 72.8441 81.3099C70.8895 80.9228 69.0935 79.9635 67.6833 78.5535C66.2731 77.1436 65.3122 75.3462 64.9222 73.389C64.5321 71.4317 64.7304 69.4026 65.492 67.5583C66.2537 65.714 67.5443 64.1375 69.2007 63.0282C70.8571 61.919 72.8048 61.3269 74.7972 61.3269C77.4647 61.3269 80.0232 62.3871 81.9111 64.2748C83.7991 66.1625 84.8622 68.7234 84.8671 71.3955Z" fill="#1B95A2"/>
<path d="M67.9721 32.5035C67.9758 33.5572 67.6672 34.5883 67.0855 35.4663C66.5038 36.3442 65.675 37.0295 64.7042 37.4353C63.7334 37.8412 62.6642 37.9492 61.6321 37.7459C60.5999 37.5426 59.6512 37.0371 58.906 36.2933C58.1609 35.5495 57.6529 34.6009 57.4463 33.5677C57.2397 32.5344 57.3438 31.463 57.7455 30.4891C58.1472 29.5152 58.8284 28.6827 59.7028 28.0968C60.5772 27.511 61.6055 27.1983 62.6574 27.1983C64.0637 27.1983 65.4127 27.7566 66.4089 28.751C67.4051 29.7454 67.9672 31.0947 67.9721 32.5035Z" fill="#FDBC00"/>
<path d="M38.8998 87.1989C38.8998 88.4447 38.5308 89.6626 37.8394 90.6982C37.148 91.7339 36.1655 92.5407 35.016 93.0166C33.8666 93.4925 32.6021 93.6161 31.3825 93.3717C30.163 93.1273 29.0433 92.5259 28.1651 91.6436C27.287 90.7613 26.6899 89.6379 26.4495 88.4155C26.2092 87.1931 26.3363 85.9268 26.8148 84.7768C27.2933 83.6268 28.1017 82.645 29.1376 81.9555C30.1735 81.266 31.3904 80.9 32.6341 80.9037C33.4585 80.9036 34.2748 81.0666 35.0362 81.3832C35.7976 81.6998 36.4892 82.1638 37.0712 82.7486C37.6533 83.3334 38.1145 84.0275 38.4282 84.7912C38.742 85.5549 38.9023 86.373 38.8998 87.1989Z" fill="#1B95A2"/>
<path d="M92.3075 63.8673V62.6157C92.3075 61.7938 92.3075 60.9532 92.1583 60.1499C92.1583 59.7203 92.1583 59.3093 92.1583 58.8984C91.8413 54.5272 91.3751 50.3802 90.7411 46.4948L90.5733 45.3926C90.4614 44.6641 90.3308 43.9543 90.1817 43.2257C90.1817 42.8708 90.0511 42.5159 89.9952 42.161C86.8996 26.4697 81.3611 16.233 74.9276 16.233C67.9905 16.233 62.1164 28.1135 59.2073 45.8596L59.0395 46.9244C58.9276 47.6156 58.8343 48.3067 58.7411 49.0166C58.7411 49.3715 58.6479 49.7264 58.5919 50.1C58.1692 53.4251 57.8398 56.9058 57.6036 60.5422C57.6036 61.0092 57.6036 61.4762 57.5103 61.9432L57.3984 64.6518V66.0342C57.3984 67.7901 57.3984 69.5834 57.3984 71.3954C57.3984 73.9732 57.3984 76.4764 57.5663 78.8674C57.5663 79.2971 57.5663 79.708 57.5663 80.119C57.5663 80.9409 57.5663 81.7628 57.6968 82.5848C57.6968 82.9957 57.6968 83.4254 57.6968 83.8363C58.0325 88.2075 58.4987 92.3731 59.1141 96.2399L59.2819 97.3421L59.6735 99.4903C59.6735 99.8639 59.804 100.219 59.8786 100.574C62.9555 116.265 68.494 126.502 74.9276 126.502C81.8646 126.502 87.7388 114.64 90.6479 96.8751L90.8157 95.8103C90.9276 95.1191 91.0208 94.428 91.1141 93.7181C91.1141 93.3632 91.2259 93.0083 91.2632 92.6533C91.7108 89.3283 92.0465 85.8351 92.2516 82.2112C92.2516 81.7442 92.2516 81.2772 92.3448 80.8102C92.3448 79.9135 92.3448 78.9421 92.4567 78.1015V76.7192C92.4567 74.8512 92.4567 73.1513 92.4567 71.3207C92.4567 68.8362 92.4008 66.3144 92.3075 63.8673ZM90.219 78.4565V79.8201C90.219 80.7354 90.1257 81.6881 90.0698 82.5287C90.0698 82.9957 90.0698 83.4627 89.9765 83.911C89.7714 86.8065 89.5103 89.5151 89.1747 92.2237C89.1747 92.5973 89.1747 92.9522 89.0255 93.3072C88.9136 94.017 88.8204 94.7082 88.7085 95.3993C88.7085 95.7729 88.7085 96.1279 88.5593 96.4828C85.7434 113.911 80.1677 124.503 74.853 124.503C69.9113 124.503 64.7271 115.163 61.7994 99.8452C61.7061 99.4903 61.6502 99.1167 61.5942 98.7617L61.2026 96.5762L61.0348 95.4927C60.5313 92.2237 60.121 88.7305 59.8413 85.0505C59.8413 84.6396 59.8413 84.2286 59.8413 83.799L59.6735 81.3519V80.1003C59.543 77.2983 59.4684 74.4963 59.4684 71.4141C59.4684 69.0417 59.4684 66.7067 59.5989 64.4464V63.0827C59.5989 62.1674 59.6921 61.2147 59.7481 60.3928C59.7481 59.9258 59.7481 59.4588 59.8413 59.0105C60.0465 56.115 60.3262 53.4064 60.6618 50.6978C60.6618 50.3242 60.7551 49.9506 60.811 49.5957C60.811 48.8858 60.9975 48.1947 61.1094 47.5035L61.2772 46.42C64.0931 28.9915 69.6688 18.3999 74.9649 18.3999C79.9252 18.3999 85.1094 27.6465 88.0185 43.0576C88.0185 43.3939 88.149 43.7488 88.2236 44.1224C88.3542 44.8322 88.4847 45.5794 88.5966 46.308C88.5966 46.6816 88.7085 47.0365 88.7644 47.4101C89.2866 50.6604 89.6782 54.1349 89.9765 57.8336C89.9765 58.2446 89.9765 58.6555 89.9765 59.0852C89.9765 59.8884 90.1071 60.7103 90.1444 61.5323V62.7838C90.2749 65.5859 90.3495 68.3879 90.3495 71.4514C90.3495 73.7864 90.3122 76.1214 90.219 78.4565Z" fill="#1B95A2"/>
<path d="M93.4081 64.4841C93.4081 64.0544 93.4081 63.6248 93.4081 63.2138C93.4081 62.3919 93.4081 61.5513 93.2589 60.7481C93.2589 60.3184 93.2589 59.9074 93.2589 59.4965C92.9419 54.7331 92.4571 50.1564 91.7671 46.0655C91.7671 45.6919 91.7671 45.3183 91.5993 44.9633C91.4874 44.2348 91.3568 43.5063 91.2077 42.7965C91.2077 42.4415 91.0771 42.0866 91.0025 41.7504C87.6459 25.5547 81.8091 15.1499 74.7974 15.1499C67.3382 15.1499 61.0352 27.1985 58.0142 45.5611L57.8091 46.7006C57.6972 47.3918 57.6039 48.0829 57.5107 48.7928C57.5107 49.1477 57.3988 49.5026 57.3615 49.8762C56.8767 53.5188 56.5223 57.3483 56.2986 61.4392C56.2986 61.9062 56.2986 62.3732 56.2986 62.8402C56.2986 63.7369 56.2986 64.7082 56.2053 65.5488C56.2053 66.0158 56.2053 66.4642 56.2053 66.9312C56.2053 68.4256 56.2053 69.9387 56.2053 71.4704C56.2053 73.8428 56.2053 76.1405 56.3359 78.4008V79.671C56.3359 80.5116 56.3359 81.3149 56.4664 82.1181C56.4664 82.5664 56.4664 82.9774 56.4664 83.3884C56.7834 88.1518 57.2869 92.7284 57.9582 96.838L58.1261 97.9215C58.2566 98.65 58.3871 99.3599 58.5363 100.088C58.5363 100.443 58.6669 100.798 58.7228 101.153C61.9489 117.349 67.823 127.735 74.816 127.735C82.2753 127.735 88.5969 115.686 91.5993 97.3237C91.5993 96.9688 91.7298 96.6139 91.7857 96.259C91.7857 95.5678 91.9909 94.8766 92.0841 94.1668C92.0841 93.8119 92.1773 93.4569 92.2333 93.0833C92.6995 89.4407 93.0538 85.6113 93.2962 81.539C93.2962 81.072 93.2962 80.5863 93.2962 80.1193C93.2962 79.2227 93.2962 78.2513 93.2962 77.4294C93.2962 76.9624 93.2962 76.5141 93.2962 76.0471C93.2962 74.5527 93.2962 73.0209 93.2962 71.4704C93.5387 69.1167 93.5014 66.7257 93.4081 64.4841ZM74.7601 123.401C70.7881 123.401 65.6226 115.032 62.6575 99.3972C62.6575 99.0423 62.527 98.6687 62.4524 98.2951C62.3219 97.5852 62.1913 96.8754 62.0981 96.1282C62.0981 95.7733 61.9676 95.3997 61.9116 95.0261C61.4827 92.0933 61.1098 88.955 60.83 85.686C60.83 85.275 60.83 84.8454 60.83 84.4344C60.83 83.6312 60.7181 82.8093 60.6808 81.9873C60.6808 81.5764 60.6808 81.1654 60.6808 80.7358C60.5317 77.7968 60.4571 74.6834 60.4571 71.3957C60.4571 68.7058 60.4571 66.1279 60.6249 63.6248V62.2611C60.6249 61.3458 60.7181 60.3931 60.7741 59.5712C60.7741 59.1229 60.7741 58.6559 60.8673 58.2076C61.0538 55.6671 61.3149 53.2573 61.5946 50.9783C61.5946 50.6047 61.5946 50.2311 61.7251 49.8762C61.7251 49.1664 61.9116 48.4752 62.0235 47.784L62.1913 46.7006C65.0258 28.9545 70.6389 19.4276 74.872 19.4276C79.1051 19.4276 84.0282 27.7776 86.9932 43.4129C86.9932 43.7678 87.1237 44.1414 87.1797 44.515C87.3102 45.2249 87.4408 45.9347 87.5526 46.6819C87.5526 47.0368 87.6645 47.4104 87.7391 47.784C88.168 50.7168 88.5223 53.8551 88.8021 57.2175C88.8021 57.6285 88.8021 58.0581 88.8953 58.4691L89.0631 60.9162V62.1677C89.2123 65.1005 89.2869 68.1827 89.2869 71.3957C89.2869 74.0857 89.2869 76.6822 89.1377 79.1853C89.1377 79.6337 89.1377 80.1007 89.1377 80.549C89.1377 81.4643 89.1377 82.417 88.9885 83.2389C88.9885 83.7059 88.9885 84.1542 88.8953 84.6212C88.7088 87.1431 88.4664 89.5528 88.1867 91.8504C88.1867 92.2054 88.0934 92.579 88.0375 92.9339C88.0375 93.6437 87.851 94.3349 87.7391 95.0261L87.5713 96.1095C84.6622 113.949 79.0491 123.401 74.7974 123.401H74.7601Z" fill="#FDBC00"/>
<g style="mix-blend-mode:multiply">
<g style="mix-blend-mode:multiply">
<path d="M93.5384 71.3957C93.5384 72.9462 93.5384 74.4779 93.5384 75.9723C93.5384 76.4393 93.5384 76.8877 93.5384 77.3547C93.5384 78.2513 93.5384 79.2227 93.5384 80.0446C93.5384 80.5116 93.5384 80.9973 93.5384 81.4643C93.296 85.4992 92.9416 89.366 92.4754 93.0086C92.4754 93.3822 92.3822 93.7371 92.3263 94.0921C92.3263 94.8019 92.1211 95.4931 92.0279 96.1842C92.0279 96.5392 91.916 96.8941 91.8414 97.249C88.8391 115.612 82.5174 127.66 75.0582 127.66V123.401C79.3099 123.401 84.923 113.856 87.7388 96.1095L87.9067 95.0261C88.0186 94.3349 88.1118 93.6437 88.205 92.9339C88.205 92.579 88.2983 92.2054 88.3542 91.8504C88.6339 89.5528 88.8764 87.1431 89.0628 84.6212C89.0628 84.1542 89.0629 83.7059 89.1561 83.2389C89.1561 82.3609 89.268 81.3709 89.3053 80.549C89.3053 80.1006 89.3053 79.6336 89.3053 79.1853C89.4172 76.6822 89.4545 74.0857 89.4545 71.3957C89.4545 68.1827 89.4545 65.1005 89.2307 62.1677V60.9162L89.0628 58.4691C89.0628 58.0581 89.0628 57.6285 88.9696 57.2175C88.6899 53.8551 88.3356 50.7168 87.9067 47.784C87.9067 47.4104 87.7761 47.0368 87.7202 46.6819C87.6083 45.9347 87.4778 45.2249 87.3472 44.515C87.3472 44.1414 87.2167 43.7678 87.1608 43.4129C83.916 27.7776 78.7691 19.4276 74.7971 19.4276V15.1499C81.8088 15.1499 87.6829 25.5547 90.8904 41.7504C90.8904 42.0866 91.0395 42.4415 91.0955 42.7965C91.2447 43.5063 91.3752 44.2348 91.4871 44.9633C91.4871 45.3183 91.599 45.6919 91.6549 46.0655C92.3449 50.2311 92.8298 54.7331 93.1468 59.4965C93.1468 59.9074 93.1468 60.3184 93.1468 60.748C93.1468 61.5513 93.1468 62.3919 93.2959 63.2138C93.2959 63.6248 93.2959 64.0544 93.2959 64.4841C93.5011 66.7257 93.5384 69.1167 93.5384 71.3957Z" fill="#FF931E"/>
</g>
</g>
<path d="M121.007 41.358C119.44 38.9482 116.382 37.734 111.925 37.734C104.735 38.154 97.6785 39.8688 91.0953 42.7963L90.051 43.226L88.1862 44.0666L87.1979 44.5149C83.2258 46.3829 79.1046 48.363 74.8902 50.7354L74.5359 50.9222L73.3424 51.5947L70.8622 52.9957C70.4706 53.2385 70.0604 53.4627 69.6687 53.7242C68.1583 54.6395 66.6478 55.5922 65.1186 56.5823C63.5895 57.5723 62.0976 58.581 60.6431 59.5711L59.5242 60.3743C58.7783 60.8787 58.051 61.4204 57.3238 61.9434L56.2049 62.7654C52.2142 65.7355 48.5405 68.7243 45.2771 71.6758C44.9788 71.9373 44.699 72.1802 44.438 72.4417L42.8715 73.8987L42.0697 74.6833C30.6198 85.8914 25.044 96.0347 28.5499 101.452C30.1163 103.862 33.1559 105.076 37.6314 105.076C43.114 105.076 50.3494 103.208 58.4613 100.014L59.4869 99.5652L61.5382 98.7433L62.5079 98.295C66.4799 96.5204 70.6011 94.4469 74.8156 92.0745L75.1886 91.8877L76.382 91.1965C77.1652 90.7482 77.9485 90.2999 78.713 89.8329L79.9065 89.123C81.417 88.189 82.9275 87.255 84.438 86.265C85.9485 85.2749 87.459 84.2662 88.9135 83.2575L90.0324 82.4729L92.2328 80.9038L93.3704 80.0632C97.361 77.093 101.016 74.0855 104.298 71.1341C104.578 70.8912 104.858 70.6484 105.119 70.3869L106.704 68.9111L107.487 68.1452C118.937 57.0119 124.513 46.7005 121.007 41.358ZM105.715 66.931L104.913 67.6969C104.391 68.1826 103.869 68.687 103.31 69.1727C103.049 69.4342 102.769 69.677 102.489 69.9199C99.7666 72.3483 96.7519 74.839 93.445 77.3919L92.3261 78.2138L90.1629 79.783C89.79 80.0632 89.4356 80.3247 89.044 80.5862C87.1792 81.9125 85.3144 83.2201 83.2631 84.509C81.2119 85.798 79.3284 87.0122 77.3517 88.2451L76.1583 88.9362L74.7969 89.7395L73.8273 90.2812L72.6151 90.9537C69.0534 92.8217 65.5289 94.6897 62.1349 96.2215L61.1279 96.6511L59.1513 97.5104L58.107 97.94C50.0883 101.209 42.9461 103.058 37.6874 103.058C35.1326 103.058 31.7946 102.591 30.3774 100.406C27.6734 96.2402 32.6151 86.844 43.8972 75.9722L44.699 75.2063L46.2841 73.7306L47.1233 72.9834C49.8273 70.5363 52.8482 68.0518 56.1676 65.5114L57.2678 64.6894C57.9764 64.1477 58.7037 63.606 59.431 63.1016L60.5499 62.2984C62.4147 60.9908 64.2795 59.6832 66.3307 58.3755C68.382 57.0679 70.2655 55.8724 72.2422 54.6395L73.417 53.9484L74.7969 53.1638L75.7853 52.6221L76.9788 51.9496C80.5405 50.0816 84.0837 48.2136 87.4776 46.6818L88.4659 46.2521L90.4426 45.3929L91.4869 44.9632C99.5056 41.6942 106.666 39.8449 112 39.8449C114.555 39.8449 117.874 40.3119 119.31 42.5161C121.92 46.7005 116.997 56.0405 105.715 66.931Z" fill="#1B95A2"/>
<path d="M121.902 40.7788C120.037 38.0328 116.774 36.6505 111.925 36.6505C104.664 37.0638 97.5371 38.7916 90.8904 41.7502C90.5547 41.8622 90.2191 42.0117 89.8648 42.1611L87.8881 42.9644L86.9184 43.3753C83.0023 45.1126 78.937 47.1113 74.7972 49.465C74.2377 49.7452 73.6969 50.0628 73.1561 50.3804L71.944 51.0715L69.613 52.4539L68.4195 53.1824C67.1515 53.9856 65.8648 54.7702 64.6899 55.6108C63.5151 56.4514 62.1352 57.292 60.9603 58.1513L59.8414 58.9359C59.0955 59.4402 58.3683 59.9633 57.641 60.4863C57.2494 60.7478 56.8764 61.028 56.5035 61.3082C52.2948 64.3164 48.2487 67.5464 44.3822 70.9845L43.5617 71.7318L41.9953 73.2075L41.2121 73.9734C29.3892 85.499 23.8881 96.1093 27.6923 101.994C29.5571 104.74 32.8205 106.122 37.6876 106.122C44.9409 105.707 52.0602 103.986 58.7039 101.041L59.7482 100.611L61.7249 99.7893L62.6946 99.3597C66.592 97.6224 70.6573 95.6236 74.7972 93.2886L76.4568 92.3546L77.669 91.6448C78.4522 91.1964 79.2354 90.7481 80 90.2624L81.1748 89.5526C82.4615 88.768 83.7296 87.9648 84.9044 87.1429L88.634 84.6024L89.7529 83.8178L91.9533 82.2673L93.1095 81.4454C97.5105 78.2138 101.501 74.9447 105.044 71.7504L105.865 71.0032L107.45 69.5275L108.233 68.7616C120.205 57.2547 125.725 46.7004 121.902 40.7788ZM102.415 68.5748L101.576 69.322C99.1515 71.4889 96.4537 73.7056 93.4825 75.9721L92.3822 76.7941C91.6736 77.3358 90.965 77.8588 90.2191 78.3819C89.8648 78.6621 89.4918 78.9236 89.1188 79.1851C87.0862 80.6422 84.9417 82.0992 82.6853 83.575C80.4289 85.0507 78.3216 86.3583 76.0839 87.6472L74.8904 88.3384L72.6526 89.5899L71.4405 90.2624C68.2331 91.9935 65.1251 93.5564 62.1165 94.9511L61.1282 95.3995L59.1515 96.2401L58.1072 96.6884C50.1258 99.9574 43.0396 101.807 37.8554 101.807C35.9906 101.807 32.6713 101.527 31.4405 99.6399C29.7063 96.9686 32.1678 90.991 37.8554 84.0606C40.0062 81.4004 42.31 78.868 44.7552 76.4765L45.5757 75.7106L47.1608 74.2536L48 73.5064C50.4864 71.2772 53.1717 69.0605 56.0559 66.8562L57.1561 66.0343L59.3193 64.4278L60.4382 63.6246C62.5081 62.1489 64.6526 60.6731 66.8531 59.2347C69.0536 57.7964 71.2727 56.4514 73.4732 55.1625L74.6666 54.4713L76.923 53.2011L78.1352 52.5286C81.3426 50.7976 84.4506 49.2347 87.4592 47.8399L88.4289 47.4102L90.4056 46.5509L91.4498 46.1213C99.4312 42.8336 106.536 40.9843 111.72 40.9843C113.585 40.9843 116.904 41.2645 118.117 43.1512C120.298 46.4949 116.103 55.4053 104.615 66.4079L103.795 67.1738C103.496 67.6034 102.956 68.0891 102.415 68.5748Z" fill="#1B95A2"/>
<g style="mix-blend-mode:multiply" opacity="0.5">
<g style="mix-blend-mode:multiply" opacity="0.5">
<path d="M84.867 71.3955C84.867 74.0708 83.8061 76.6365 81.9176 78.5283C80.0292 80.42 77.4678 81.4827 74.7971 81.4827V61.3269C76.1186 61.3244 77.4277 61.5831 78.6493 62.0879C79.8709 62.5928 80.9812 63.3341 81.9165 64.2693C82.8518 65.2045 83.5939 66.3153 84.1002 67.5381C84.6064 68.7609 84.867 70.0717 84.867 71.3955Z" fill="#1B95A2"/>
</g>
</g>
<g style="mix-blend-mode:multiply" opacity="0.8">
<g style="mix-blend-mode:multiply" opacity="0.8">
<path d="M108.401 68.7803L107.618 69.5462L106.033 71.0219L105.212 71.7691C101.669 74.9634 97.7528 78.2324 93.2773 81.4641L92.1211 82.286L89.9207 83.8365L88.8018 84.621L85.0722 87.1615C83.8041 87.9835 82.536 88.7867 81.3426 89.5713L80.1677 90.2811C79.4032 90.7668 78.62 91.2151 77.8367 91.6634L76.6246 92.3733L74.9649 93.3073V88.4131L76.1584 87.7219C78.3589 86.433 80.5593 85.0694 82.7598 83.6497C84.9603 82.23 87.1607 80.7169 89.1934 79.2598C89.5663 78.9983 89.9393 78.7368 90.2936 78.4566C91.0395 77.9335 91.7482 77.4105 92.4568 76.8688L93.557 76.0469C96.5158 73.7928 99.2136 71.5761 101.65 69.3967L102.489 68.6495C103.03 68.1638 103.571 67.6782 104.074 67.1925L104.895 66.4266C116.382 55.424 120.578 46.5136 118.396 43.1698C117.184 41.3018 113.865 41.003 112 41.003C106.816 41.003 99.7109 42.871 91.7295 46.14L90.6852 46.5696L88.7085 47.4289L87.7388 47.8586C84.6806 49.2409 81.5726 50.8038 78.4148 52.5473L77.2027 53.2197L74.9463 54.49V49.5211C79.0861 47.2047 83.1514 45.1686 87.0675 43.4314L88.0372 43.0204L90.0139 42.1798C90.3682 42.0304 90.7039 41.8809 91.0395 41.7688C97.6269 38.8256 104.689 37.092 111.888 36.6505C116.736 36.6505 120.093 38.0328 121.865 40.7788C125.725 46.7004 120.205 57.2547 108.401 68.7803Z" fill="#1B95A2"/>
</g>
</g>
<path d="M126.807 81.4828C126.808 82.2316 126.663 82.9734 126.378 83.6658C126.093 84.3581 125.675 84.9874 125.147 85.5177C124.887 85.7841 124.599 86.022 124.289 86.2276C123.723 86.6136 123.091 86.8922 122.424 87.0495C122.057 87.132 121.682 87.1758 121.306 87.1803H121.212C120.464 87.1803 119.723 87.0323 119.031 86.7448C118.34 86.4573 117.712 86.036 117.184 85.5049C116.656 84.9739 116.237 84.3436 115.952 83.6502C115.668 82.9568 115.522 82.2139 115.525 81.4641C115.517 81.0174 115.567 80.5716 115.674 80.1379C115.764 79.7514 115.896 79.3757 116.066 79.0171C116.367 78.3637 116.798 77.7789 117.334 77.2985C118.133 76.5271 119.144 76.0115 120.237 75.8172C121.33 75.6228 122.456 75.7586 123.471 76.2073C124.487 76.6559 125.347 77.3971 125.941 78.3366C126.535 79.276 126.836 80.3712 126.807 81.4828Z" fill="#FC611F"/>
<path d="M124.308 86.2275C122.472 82.8779 120.083 79.8649 117.24 77.3171C116.587 76.7006 115.897 76.0655 115.17 75.4491C112.914 73.4877 110.378 71.5263 107.711 69.5648L106.778 68.911L104.914 67.7155L104 67.1364C100.699 64.9322 97.0629 62.784 93.24 60.7478L92.1212 60.1501C91.3939 59.7765 90.6852 59.3842 89.9393 59.0293C89.585 58.8238 89.2121 58.6557 88.8391 58.4688C86.62 57.3667 84.3449 56.2833 82.0139 55.2372C80.3729 54.5087 78.7132 53.7988 77.0722 53.145C76.6433 52.9582 76.233 52.7714 75.8041 52.622C75.3752 52.4725 75.1514 52.3418 74.8158 52.2297L73.268 51.6132L71.9626 51.1276C68.5687 49.8573 65.2121 48.7552 61.9673 47.7838L60.9603 47.4849L58.9277 46.9245L57.8088 46.7004C51.339 44.8708 44.6685 43.8481 37.9487 43.6555C30.6759 43.6555 25.9953 45.5235 24.4475 49.0354C22.4521 53.5373 25.9766 60.0753 34.4055 67.454C36.8219 69.5423 39.3426 71.5062 41.958 73.3382C42.275 73.5624 42.5734 73.7865 42.8904 73.9733C43.2074 74.1601 44.0652 74.7766 44.6619 75.1876L45.5943 75.7853C48.9137 77.9709 52.5128 80.1004 56.3356 82.1179L57.4545 82.7343L59.6363 83.8551L60.7365 84.4155C62.9556 85.5177 65.2494 86.6011 67.5804 87.6472C69.2214 88.3757 70.8811 89.0669 72.5221 89.7394C72.951 89.9262 73.3612 90.113 73.7901 90.2624C74.1049 90.4081 74.4288 90.5329 74.7598 90.636L76.3263 91.2525C76.7738 91.4393 77.2027 91.5887 77.6316 91.7381C81.0256 93.0271 84.3636 94.1292 87.6083 95.1006L88.6153 95.3994L90.648 95.9599L91.7295 96.2587C98.1995 98.0846 104.87 99.1011 111.59 99.2849C118.844 99.2849 123.524 97.4169 125.072 93.9237C125.543 92.6681 125.718 91.3209 125.586 89.9863C125.453 88.6518 125.016 87.3657 124.308 86.2275ZM123.189 93.0084C122.014 95.6423 117.911 97.118 111.627 97.118C105.006 96.9304 98.4343 95.9137 92.0652 94.0918L90.9836 93.793L88.9696 93.2326L87.944 92.9337C85.3519 92.1491 82.7039 91.2711 79.9999 90.2811L78.6946 89.8141C77.8554 89.5152 77.0163 89.179 76.1584 88.8427L74.8904 88.3384C72.8018 87.4978 70.6759 86.6011 68.5687 85.6671C65.8834 84.4529 63.254 83.2013 60.7179 81.9311L59.599 81.3707L57.4545 80.2312L56.3356 79.6334C53.1468 77.8962 50.1258 76.1029 47.31 74.2909L46.3776 73.6745L44.5128 72.4789L43.5804 71.8251C40.8884 69.9694 38.3046 67.9612 35.8414 65.8101C28.2703 59.2161 24.8577 53.3879 26.4242 49.8386C27.599 47.1861 31.7202 45.729 38.0046 45.729C44.6256 45.9167 51.1973 46.9333 57.5664 48.7552L58.6293 49.0541L60.6619 49.6145L61.6689 49.9134C64.2797 50.6979 66.9277 51.5759 69.6316 52.5473L70.937 53.0329C71.7575 53.3505 72.5967 53.6494 73.4358 54.0043C73.8647 54.1537 74.3123 54.3219 74.7412 54.5087C76.8484 55.368 78.9556 56.2459 81.0815 57.1799C83.7668 58.4253 86.3838 59.6706 88.9323 60.9159L90.0326 61.4763L92.1957 62.6158L93.3146 63.2136C96.4848 64.9695 99.5244 66.7628 102.359 68.5748L103.254 69.1726C103.869 69.5648 104.466 69.9571 105.119 70.3681L106.051 71.0219C108.722 72.8839 111.292 74.8854 113.753 77.0182C114.517 77.7094 115.263 78.3632 115.935 79.0357C118.503 81.3311 120.671 84.0395 122.35 87.0494C122.929 87.9151 123.305 88.9007 123.451 89.9326C123.596 90.9645 123.506 92.016 123.189 93.0084Z" fill="#1B95A2"/>
<path d="M125.165 85.5175C123.295 82.1808 120.902 79.1662 118.079 76.5884C117.389 75.9159 116.662 75.2435 115.879 74.571C113.494 72.4956 111.004 70.5441 108.419 68.7241L107.487 68.0703L105.734 66.8748L104.839 66.2957C101.221 63.9233 97.3797 61.6257 93.1653 59.4401L92.0464 58.8423L89.8646 57.7215L88.7457 57.1611C86.6944 56.1524 84.5872 55.1623 82.4427 54.2096C81.0627 53.5932 79.6641 52.9954 78.2841 52.3416C77.8647 52.1449 77.4352 51.9703 76.9974 51.8186C76.2888 51.5197 75.5429 51.2208 74.8156 50.9593C74.7064 50.8906 74.5867 50.8402 74.4613 50.8099C74.0262 50.6231 73.5973 50.4549 73.1746 50.3055C69.445 48.8858 65.7154 47.6342 62.135 46.5695L61.128 46.2706L59.0953 45.7289L58.0324 45.43C51.508 43.5884 44.7805 42.5656 38.0044 42.3851C30.2655 42.3851 25.2678 44.4586 23.5149 48.3814C21.2958 53.369 24.9322 60.3554 33.734 68.0516C35.9718 69.9196 38.4893 71.9558 41.1932 73.8985L42.107 74.5523L43.8786 75.7478L44.7923 76.3456C48.3914 78.6993 52.2515 80.9969 56.4287 83.1825L57.5476 83.7803C58.2748 84.1539 59.0021 84.5462 59.748 84.9011L60.8483 85.4615C62.8995 86.4702 65.0254 87.4603 67.1513 88.413C68.5499 89.0294 69.9298 89.6458 71.3284 90.281L72.5965 90.804C73.3238 91.1029 74.051 91.4018 74.7783 91.6633C74.8957 91.7289 75.0211 91.7792 75.1513 91.8127L76.438 92.3171C80.1676 93.7368 83.8972 94.9883 87.459 96.0531L88.4846 96.352L90.4986 96.8937L91.5615 97.1926C98.0943 99.0251 104.827 100.048 111.608 100.237C119.328 100.237 124.345 98.164 126.079 94.2411C126.595 92.8125 126.781 91.2852 126.622 89.7742C126.464 88.2632 125.966 86.8079 125.165 85.5175ZM122.219 92.5599C121.231 94.7642 117.37 96.0344 111.627 96.0344C105.055 95.8459 98.5326 94.8292 92.2142 93.0083L91.1326 92.7281L89.1187 92.149L88.093 91.8501C85.7807 91.1589 83.5242 90.4117 81.1746 89.6645L79.8879 89.1975L77.3517 88.2448C76.9228 88.0954 76.5126 87.9086 76.0837 87.7405L74.797 87.2548C72.9322 86.4515 70.8809 85.6296 68.9228 84.7516C66.051 83.5063 63.2601 82.1676 60.5499 80.7354L59.4496 80.175L57.3051 79.0355L56.1862 78.4191C53.3331 76.85 50.5918 75.2435 48.0557 73.5996L47.1233 72.9832C46.5079 72.5909 45.9112 72.1799 45.2585 71.769L44.3821 70.9844C41.652 69.1037 39.0251 67.077 36.5126 64.9134C29.445 58.7302 26.0324 53.2383 27.3937 50.1934C28.3634 47.9892 32.2422 46.7189 37.9858 46.7189C44.5569 46.9172 51.0778 47.9338 57.3984 49.7451L58.4613 50.044C59.1326 50.2121 59.8226 50.4176 60.4939 50.6231L61.5196 50.9219C63.776 51.5944 66.0883 52.3603 68.4193 53.1822C68.8483 53.3317 69.2958 53.4811 69.7247 53.6679C70.5639 53.9481 71.403 54.2844 72.2422 54.6019L73.5289 55.1063L74.797 55.592C76.6618 56.3952 78.7317 57.2358 80.6897 58.1138C83.5615 59.384 86.2842 60.729 89.0441 62.1113L90.1443 62.6717L92.3075 63.8112C92.6804 63.998 93.0347 64.2222 93.4077 64.4277C96.2795 65.9968 99.0021 67.622 101.576 69.2658L102.489 69.8636C103.105 70.2559 103.701 70.6482 104.354 71.0591L105.286 71.7129C108.028 73.5784 110.655 75.6057 113.156 77.784C114.051 78.5685 114.89 79.3531 115.655 80.1003C117.834 82.1838 119.705 84.5677 121.212 87.1801C121.772 87.9436 122.153 88.8237 122.328 89.755C122.502 90.6863 122.465 91.645 122.219 92.5599Z" fill="#FC611F"/>
<g style="mix-blend-mode:multiply">
<g style="mix-blend-mode:multiply">
<path d="M125.165 85.5177C125.978 86.8134 126.484 88.2779 126.646 89.7994C126.807 91.321 126.62 92.8594 126.098 94.2973C124.364 98.2202 119.347 100.294 111.627 100.294C104.846 100.104 98.1131 99.0813 91.5803 97.2488L90.5174 96.9499L88.5034 96.4082L87.4778 96.1093C83.8973 95.0445 80.205 93.793 76.4568 92.3733L75.1701 91.8689C75.0399 91.8353 74.9145 91.7851 74.7971 91.7195V87.1615L76.0838 87.6472C76.5127 87.8153 76.923 88.0021 77.3519 88.1516L79.888 89.1043L81.1747 89.5713C83.5244 90.4119 85.8367 91.1591 88.0932 91.8502L89.1188 92.1491L91.1328 92.7282L92.2144 93.0084C98.5328 94.8293 105.055 95.846 111.627 96.0346C117.371 96.0346 121.231 94.7643 122.219 92.5601C122.465 91.6451 122.502 90.6865 122.328 89.7551C122.153 88.8238 121.772 87.9438 121.212 87.1802C120.464 87.1802 119.722 87.0322 119.031 86.7447C118.34 86.4572 117.712 86.0359 117.184 85.5049C116.655 84.9738 116.237 84.3435 115.952 83.6501C115.667 82.9567 115.522 82.2139 115.524 81.4641C115.517 81.0174 115.567 80.5716 115.674 80.1378C114.909 79.3906 114.07 78.606 113.175 77.8215C110.674 75.6432 108.046 73.6159 105.305 71.7504L104.373 71.0966C103.795 70.6857 103.198 70.2934 102.508 69.9011L101.594 69.3033C99.0209 67.6595 96.2983 66.0343 93.4265 64.4652C93.0535 64.2597 92.6992 64.0355 92.3263 63.8487L90.1631 62.7092L89.0628 62.1488C86.3775 60.7665 83.5803 59.4215 80.7085 58.1513C78.7505 57.2733 76.7738 56.4327 74.8158 55.6295V51.0902C75.543 51.3517 76.289 51.6506 76.9976 51.9495C77.4353 52.1012 77.8648 52.2758 78.2843 52.4725C79.6642 53.0516 81.0628 53.6494 82.4428 54.3406C84.5873 55.2932 86.6946 56.2086 88.7458 57.292L89.8647 57.8524L92.0465 58.9732L93.1654 59.571C97.3239 61.7566 101.221 64.0542 104.839 66.4266L105.734 67.0057L107.487 68.2012L108.419 68.855C111.004 70.675 113.494 72.6265 115.879 74.7019C116.662 75.3744 117.389 76.0469 118.079 76.7193C119.01 76.107 120.098 75.7762 121.212 75.7667C122.34 75.7657 123.443 76.0998 124.382 76.7267C125.321 77.3535 126.053 78.245 126.486 79.2886C126.919 80.3321 127.033 81.4808 126.815 82.5895C126.597 83.6982 126.055 84.7172 125.259 85.5177H125.165Z" fill="#FF931E"/>
</g>
</g>
</g>
<defs>
<clipPath id="clip0">
<rect width="256" height="274" fill="white"/>
</clipPath>
</defs>
</svg>
