<svg width="110" height="152" viewBox="0 0 110 152" fill="none" xmlns="http://www.w3.org/2000/svg">
<g opacity="0.2">
<path opacity="0.2" d="M62.7194 152C84.6391 152 102.408 149.965 102.408 147.455C102.408 144.945 84.6391 142.91 62.7194 142.91C40.7997 142.91 23.0303 144.945 23.0303 147.455C23.0303 149.965 40.7997 152 62.7194 152Z" fill="#263238"/>
</g>
<path d="M60.5228 138.857C60.5228 138.857 60.7965 144.795 59.1572 145.926C57.5178 147.057 43.5661 148.754 42.7433 143.664C41.9205 138.574 55.3254 137.16 60.5228 138.857Z" fill="white"/>
<g opacity="0.2">
<path opacity="0.2" d="M59.1554 145.926C57.5126 147.057 43.5643 148.754 42.7409 143.664C42.696 143.397 42.6933 143.125 42.7329 142.858C46.2142 144.869 55.6656 143.654 57.2298 142.787C58.282 142.205 59.181 140.299 59.7904 138.65C60.0476 138.712 60.2906 138.783 60.5199 138.857C60.5216 138.857 60.7959 144.795 59.1554 145.926Z" fill="#263238"/>
</g>
<path d="M51.2033 148.259C48.8038 148.259 46.3894 147.975 44.6386 147.229C42.4473 146.293 41.7901 144.872 41.6228 143.844C41.464 142.862 41.6034 141.411 43.1665 140.074C46.938 136.85 56.5789 136.38 60.8721 137.782C61.0907 137.853 61.2824 137.989 61.4216 138.172C61.5608 138.355 61.6409 138.576 61.6511 138.806C61.7222 140.346 61.7979 145.479 59.795 146.859C58.7997 147.545 55.0209 148.259 51.2033 148.259ZM55.092 139.297C51.0964 139.297 46.5419 140.166 44.6386 141.794C43.8089 142.503 43.7959 143.098 43.8579 143.484C43.8971 143.727 44.0166 144.468 45.4187 145.101C49.288 146.847 57.5217 145.62 58.5169 144.993C59.0433 144.63 59.4359 142.231 59.4143 139.722C58.2006 139.436 56.691 139.297 55.092 139.297V139.297Z" fill="#263238"/>
<path d="M66.4791 138.857C66.4791 138.857 66.2054 144.795 67.8447 145.926C69.4841 147.057 83.4358 148.754 84.2586 143.664C85.0814 138.574 71.6765 137.16 66.4791 138.857Z" fill="white"/>
<g opacity="0.2">
<path opacity="0.2" d="M84.2949 143.253C84.2946 143.381 84.2831 143.508 84.2607 143.635C83.4408 148.725 69.4896 147.028 67.8463 145.897C66.2029 144.766 66.4806 138.827 66.4806 138.827C66.6416 138.773 66.8112 138.725 66.9893 138.68C67.6721 140.433 68.6964 142.543 69.8151 143.171C71.4111 144.07 80.8899 145.323 84.2949 143.253Z" fill="#263238"/>
</g>
<path d="M75.7978 148.259C71.9797 148.259 68.2014 147.545 67.2056 146.858C65.2032 145.478 65.2789 140.345 65.35 138.805C65.3602 138.575 65.4403 138.354 65.5795 138.171C65.7187 137.988 65.9104 137.852 66.129 137.781C70.4223 136.379 80.0632 136.849 83.8346 140.073C85.3972 141.41 85.5366 142.861 85.3784 143.843C85.2128 144.871 84.5556 146.29 82.3626 147.228C80.6123 147.978 78.1968 148.259 75.7978 148.259ZM67.5863 139.722C67.5652 142.231 67.9584 144.63 68.4882 144.995C69.4788 145.621 77.7137 146.848 81.5825 145.101C82.9845 144.468 83.104 143.727 83.1433 143.484C83.2053 143.098 83.1922 142.504 82.362 141.794C79.6979 139.515 71.8329 138.722 67.5863 139.722Z" fill="#263238"/>
<path d="M91.4898 77.1325C91.4898 77.1325 99.6911 64.093 105.913 66.0348C112.136 67.9767 107.327 77.1325 102.52 77.9649C102.52 77.9649 94.3343 90.8867 90.791 92.333L91.4898 77.1325Z" fill="white"/>
<path d="M106.19 75.3558C105.682 75.3522 105.183 75.2221 104.738 74.9774C102.64 73.8514 102.059 71.0845 102 70.7727C101.959 70.4851 102.03 70.1929 102.199 69.9565C102.368 69.7201 102.621 69.5577 102.906 69.503C103.191 69.4482 103.487 69.5052 103.731 69.6623C103.975 69.8193 104.15 70.0643 104.219 70.3465C104.328 70.903 104.828 72.4591 105.806 72.9843C106.111 73.1487 106.304 73.0981 106.453 73.0309C106.931 72.809 107.307 72.1559 107.385 71.7895C107.416 71.6441 107.475 71.5063 107.559 71.3838C107.643 71.2613 107.751 71.1566 107.875 71.0756C108 70.9946 108.139 70.9389 108.285 70.9118C108.431 70.8846 108.581 70.8864 108.726 70.9172C108.872 70.948 109.01 71.0071 109.132 71.0912C109.255 71.1752 109.359 71.2826 109.44 71.4071C109.521 71.5316 109.577 71.6709 109.604 71.8169C109.631 71.963 109.63 72.113 109.599 72.2583C109.394 73.2255 108.621 74.5194 107.406 75.0827C107.026 75.2615 106.61 75.3547 106.19 75.3558V75.3558Z" fill="#263238"/>
<path d="M99.2147 70.2509C99.2147 70.2509 102.856 68.8285 103.305 71.0851C103.753 73.3416 100.679 73.1168 100.679 73.1168C100.679 73.1168 100.861 75.5139 98.6309 75.7227" fill="white"/>
<g opacity="0.6">
<path opacity="0.6" d="M108.853 70.2964C108.386 69.5386 107.611 68.9309 106.457 68.5708C100.236 66.6283 92.0339 79.6656 92.0339 79.6656L91.4683 91.9553C91.2556 92.1037 91.0283 92.2301 90.79 92.3325L91.4882 77.1314C91.4882 77.1314 99.6901 64.0913 105.912 66.0337C108.187 66.7449 108.987 68.4177 108.853 70.2964Z" fill="white"/>
</g>
<path d="M99.2148 70.251C99.4967 69.9689 99.8184 69.7295 100.17 69.5404C100.529 69.339 100.917 69.1916 101.32 69.1028C101.539 69.053 101.764 69.0274 101.989 69.0266C102.244 69.0205 102.499 69.0543 102.743 69.1267C103.273 69.2542 103.851 69.7014 104.129 70.2567C104.26 70.527 104.367 70.8069 104.398 71.0686C104.419 71.2023 104.44 71.3354 104.455 71.4726C104.451 71.6239 104.443 71.777 104.43 71.9277C104.426 72.0762 104.359 72.2475 104.317 72.404C104.265 72.5666 104.191 72.7212 104.097 72.8631C104.012 73.0093 103.908 73.1433 103.787 73.2614C103.68 73.3777 103.559 73.4806 103.427 73.5681C102.924 73.914 102.425 74.0449 101.968 74.1103C101.744 74.1388 101.519 74.1515 101.293 74.1484C101.183 74.1484 101.074 74.141 100.964 74.133C100.854 74.1251 100.756 74.1114 100.611 74.0915L101.656 73.0441C101.656 73.1568 101.648 73.2694 101.631 73.3809C101.614 73.4799 101.597 73.5777 101.574 73.6733C101.532 73.8664 101.473 74.0552 101.396 74.2372C101.246 74.6154 101.018 74.9579 100.728 75.2425C100.443 75.5261 100.081 75.7196 99.687 75.799C99.3172 75.8849 98.9519 75.824 98.6338 75.7233C98.924 75.5338 99.1778 75.3626 99.3508 75.1458C99.4469 75.0536 99.505 74.9296 99.5704 74.834C99.621 74.7285 99.6631 74.6191 99.6961 74.5069C99.7535 74.2869 99.7816 74.0605 99.7798 73.8332C99.7798 73.7194 99.7741 73.6016 99.7616 73.4861C99.757 73.4292 99.7468 73.3723 99.7382 73.3154C99.7332 73.2726 99.7235 73.2304 99.7092 73.1897C99.6205 73.168 99.5416 73.1172 99.4852 73.0453C99.4288 72.9735 99.3981 72.8848 99.3981 72.7934C99.3981 72.7021 99.4288 72.6134 99.4852 72.5415C99.5416 72.4697 99.6205 72.4188 99.7092 72.3971L100.755 72.1422C100.791 72.1337 100.88 72.124 100.946 72.1127L101.16 72.0751C101.297 72.0525 101.432 72.02 101.564 71.9778C101.815 71.9073 102.022 71.8071 102.112 71.7326C102.201 71.658 102.188 71.6683 102.225 71.5841C102.228 71.5548 102.235 71.5262 102.247 71.4993C102.245 71.4538 102.245 71.4082 102.247 71.3628C102.252 71.2847 102.249 71.2063 102.237 71.1289C102.213 71.0225 102.22 70.944 102.067 70.8166C101.913 70.6891 101.657 70.589 101.355 70.5156C100.735 70.3688 100.003 70.3244 99.2148 70.251Z" fill="#263238"/>
<g opacity="0.2">
<path opacity="0.2" d="M102.519 78.2159C102.519 78.2159 94.332 91.1366 90.791 92.5817L90.9617 88.9085C94.9073 85.0907 100.611 76.088 100.611 76.088C104.253 75.4581 107.895 70.0478 106.743 66.6187C111.668 69.0965 107.095 77.425 102.519 78.2159Z" fill="#263238"/>
</g>
<path d="M90.7914 93.4643C90.6385 93.4643 90.4872 93.4333 90.3466 93.3731C90.206 93.313 90.079 93.225 89.9734 93.1145C89.8678 93.0039 89.7857 92.8731 89.732 92.7299C89.6784 92.5867 89.6543 92.4341 89.6613 92.2814L90.3601 77.0809C90.3686 76.8858 90.4274 76.6963 90.5308 76.5307C91.4179 75.1208 99.3939 62.8186 106.249 64.9557C108.795 65.7522 110.156 67.7117 109.983 70.3381C109.74 74.0364 106.531 78.0624 103.222 78.9659C101.635 81.438 94.7433 91.9428 91.2153 93.3806C91.0807 93.4356 90.9368 93.464 90.7914 93.4643V93.4643ZM92.6066 77.4866L92.0296 90.0368C94.8013 87.3678 99.0627 81.3094 101.564 77.3603C101.648 77.2263 101.76 77.1115 101.891 77.0233C102.022 76.9351 102.171 76.8754 102.327 76.8482C104.767 76.426 107.543 73.002 107.728 70.1873C107.831 68.6027 107.128 67.5968 105.576 67.1149C101.266 65.7727 94.9083 73.9174 92.6066 77.4866Z" fill="#263238"/>
<path d="M53.1681 132.071C39.593 121.608 34.2198 134.616 18.9473 132.071C10.7602 130.705 6.23196 126.418 3.79143 122.731C3.15875 121.775 2.60679 120.769 2.14128 119.722C1.36969 117.994 1.13184 116.801 1.13184 116.801C23.1916 118.497 24.8884 91.0667 32.2413 85.4112C39.5942 79.7557 51.4742 80.6034 51.4742 80.6034C51.7143 80.7451 51.9493 80.8948 52.1752 81.0535C53.6768 82.0884 54.882 83.4432 55.8294 85.0437C64.2259 99.1176 53.1681 132.071 53.1681 132.071Z" fill="#0D7377" fill-opacity="0.6"/>
<g opacity="0.2">
<path opacity="0.2" d="M53.1677 132.071C39.5926 121.608 34.2193 134.616 18.9468 132.071C10.7598 130.705 6.23154 126.418 3.79102 122.731C4.33102 122.928 4.87727 123.107 5.42012 123.259C9.17565 124.317 13.449 124.125 16.6901 121.951C19.8322 119.846 21.71 116.142 25.0274 114.324C25.6692 114.929 26.1714 115.667 26.4991 116.486C26.8268 117.305 26.9722 118.185 26.9251 119.066C26.8744 119.881 26.6593 120.692 26.7811 121.498C26.9029 122.305 27.5208 123.127 28.3362 123.099C29.1283 123.073 29.6598 122.302 30.0365 121.608C33.9024 114.454 35.144 106.233 37.0161 98.321C37.5083 96.2312 38.0682 94.1157 39.225 92.3087C40.5087 90.3008 42.4604 88.7965 44.5533 87.6568C47.9833 85.7878 51.9318 84.8063 55.8261 85.0441C64.2254 99.1175 53.1677 132.071 53.1677 132.071Z" fill="#263238"/>
</g>
<g opacity="0.6">
<path opacity="0.6" d="M52.1723 81.0535C47.8171 81.7124 36.7069 82.3132 32.2612 88.8961C26.7986 96.9811 21.4692 122.107 1.57341 118.306C0.80125 116.578 1.13014 116.8 1.13014 116.8C23.1899 118.497 24.8867 91.0667 32.2396 85.4112C39.5924 79.7557 51.4724 80.6034 51.4724 80.6034C51.7114 80.7451 51.9464 80.8948 52.1723 81.0535Z" fill="white"/>
</g>
<path d="M22.9484 133.536C21.5457 133.534 20.1454 133.416 18.7622 133.183C10.496 131.806 5.84543 127.507 3.39865 124.143C0.739618 120.488 0.0499665 117.161 0.0220846 117.021C-0.0122629 116.85 -0.00648085 116.673 0.0389774 116.504C0.0844357 116.336 0.168334 116.18 0.284095 116.049C0.399855 115.918 0.54433 115.816 0.706192 115.751C0.868054 115.685 1.0429 115.658 1.21703 115.671C15.5199 116.77 20.8482 104.81 25.1221 95.1977C27.2053 90.5151 29.004 86.4715 31.552 84.5131C39.1592 78.6624 51.0512 79.4379 51.5536 79.4743C51.7279 79.4865 51.897 79.5391 52.0475 79.628C68.4859 89.314 54.8317 130.674 54.2428 132.428C54.1854 132.599 54.0879 132.754 53.9585 132.879C53.8291 133.005 53.6716 133.098 53.499 133.151C53.3264 133.203 53.1437 133.213 52.9663 133.181C52.7888 133.149 52.6217 133.074 52.4788 132.964C45.0907 127.27 40.4907 128.917 34.6685 131.004C31.3045 132.21 27.5928 133.536 22.9484 133.536ZM2.65494 118.004C3.79298 121.259 7.67938 129.046 19.1343 130.955C25.253 131.975 29.6504 130.4 33.9026 128.877C39.5496 126.854 44.9001 124.938 52.5665 130.228C54.834 122.805 64.0402 89.7772 51.1308 81.7183C49.3754 81.6421 39.2639 81.4373 32.9325 86.3076C30.8407 87.9144 29.1485 91.7173 27.1905 96.1172C23.0537 105.417 17.4523 118.004 3.05154 118.004C2.92029 118.004 2.78809 118.004 2.65494 118.004Z" fill="#263238"/>
<path d="M40.1597 102.377C40.1597 102.377 50.3406 112.772 45.1101 118.321C39.8797 123.869 33.6558 120.475 36.201 113.689C36.201 113.689 27.9997 107.75 28.2825 100.963C28.5653 94.176 36.4838 91.3477 36.4838 91.3477L42.9501 99.4998L40.1597 102.377Z" fill="white"/>
<path d="M39.7045 122.246C38.7181 122.253 37.7499 121.981 36.9123 121.46C34.7153 120.091 33.9534 117.255 34.8735 114.093C32.8352 112.449 26.8924 107.109 27.1507 100.916C27.4614 93.4534 35.7492 90.4094 36.102 90.2831C36.3245 90.2037 36.5663 90.1959 36.7935 90.2609C37.0207 90.3259 37.2218 90.4604 37.3686 90.6456L43.835 98.7971C44.0057 99.0122 44.0924 99.2821 44.0788 99.5564C44.0652 99.8307 43.9522 100.091 43.761 100.288L41.7159 102.396C44.1058 105.088 50.9807 113.742 45.9312 119.096C43.992 121.154 41.7529 122.246 39.7045 122.246ZM36.1321 92.7263C34.2931 93.5797 29.6112 96.2265 29.4115 101.01C29.1577 107.103 36.7871 112.717 36.8656 112.773C37.0659 112.919 37.213 113.126 37.2843 113.363C37.3556 113.6 37.3473 113.854 37.2605 114.086C36.337 116.548 36.663 118.638 38.1106 119.54C39.4575 120.38 41.8889 120.087 44.2868 117.545C48.6511 112.916 39.4467 103.264 39.3522 103.169C39.146 102.958 39.0301 102.675 39.0294 102.38C39.0286 102.085 39.143 101.801 39.3482 101.59L41.4474 99.4276L36.1321 92.7263Z" fill="#263238"/>
<g opacity="0.2">
<path opacity="0.2" d="M44.2605 119.031C39.2037 123.55 33.6546 120.162 36.0815 113.689C36.0815 113.689 27.8796 107.75 28.1624 100.963C28.2501 98.8511 29.0791 97.1203 30.179 95.74C29.8769 96.7149 29.7581 97.7373 29.8285 98.7555C30.2695 105.616 39.1075 111.619 39.1075 111.619C37.8118 116.503 40.773 119.648 44.2605 119.031Z" fill="#263238"/>
</g>
<path d="M38.1865 119.947C38.203 119.964 38.273 119.934 38.3219 119.92C38.3709 119.906 38.4323 119.879 38.4881 119.854C38.6018 119.805 38.7129 119.751 38.821 119.69C39.0443 119.565 39.2541 119.418 39.4469 119.25C39.6483 119.075 39.8245 118.873 39.9704 118.649C40.126 118.408 40.2424 118.144 40.3152 117.866C40.431 118.157 40.5007 118.464 40.5218 118.776C40.5428 119.109 40.5191 119.444 40.4512 119.77C40.382 120.108 40.2786 120.437 40.1428 120.753C40.0739 120.913 39.9988 121.072 39.9123 121.229C39.8702 121.308 39.8247 121.386 39.7758 121.464C39.722 121.554 39.6605 121.64 39.592 121.72C39.4759 121.815 39.342 121.886 39.1982 121.929C39.0543 121.972 38.9033 121.986 38.754 121.97C38.6047 121.954 38.4601 121.908 38.3286 121.836C38.1971 121.763 38.0813 121.666 37.988 121.548C37.8947 121.43 37.8258 121.295 37.7852 121.151C37.7447 121.006 37.7333 120.855 37.7518 120.706C37.7702 120.557 37.8182 120.413 37.8928 120.283C37.9675 120.153 38.0673 120.039 38.1865 119.947V119.947Z" fill="#263238"/>
<path d="M41.3522 119.752C41.3579 119.769 41.3824 119.74 41.3995 119.726C41.4194 119.708 41.4384 119.689 41.4564 119.669C41.4956 119.629 41.5332 119.583 41.5702 119.538C41.6458 119.444 41.7209 119.345 41.7915 119.241C41.9377 119.028 42.0684 118.804 42.1824 118.572C42.4258 118.078 42.6017 117.553 42.7053 117.012C43.1222 117.82 43.3746 118.702 43.4479 119.608C43.4621 119.768 43.4684 119.93 43.4695 120.096C43.4695 120.18 43.4695 120.263 43.4633 120.35C43.4633 120.394 43.4587 120.437 43.4536 120.484C43.4499 120.539 43.4414 120.593 43.428 120.647C43.3697 120.784 43.2849 120.908 43.1784 121.012C43.072 121.116 42.946 121.199 42.8078 121.254C42.6695 121.309 42.5216 121.337 42.3727 121.335C42.2237 121.333 42.0766 121.302 41.9398 121.243C41.803 121.184 41.6791 121.099 41.5754 120.992C41.4716 120.885 41.39 120.759 41.3352 120.62C41.2804 120.482 41.2535 120.334 41.256 120.185C41.2586 120.036 41.2905 119.889 41.3499 119.752H41.3522Z" fill="#263238"/>
<path d="M43.6527 118.215C43.6527 118.234 43.6596 118.228 43.6675 118.224C43.6768 118.221 43.6854 118.215 43.6926 118.208C43.7114 118.195 43.7293 118.18 43.7461 118.165C43.7825 118.132 43.8178 118.094 43.8536 118.055C43.9262 117.973 43.9936 117.887 44.0556 117.797C44.1858 117.604 44.2912 117.397 44.3691 117.178C44.4551 116.945 44.507 116.7 44.5233 116.452C44.5426 116.183 44.526 115.912 44.4738 115.647C44.6983 115.833 44.8976 116.048 45.0668 116.285C45.2487 116.54 45.3948 116.818 45.5009 117.113C45.6163 117.422 45.694 117.744 45.7325 118.073C45.7528 118.242 45.7632 118.413 45.7638 118.585C45.7638 118.672 45.7638 118.761 45.7541 118.853C45.7541 118.898 45.7462 118.947 45.7405 118.995C45.7405 119.018 45.7342 119.044 45.7291 119.072C45.7238 119.106 45.7158 119.139 45.7052 119.172C45.6446 119.31 45.557 119.435 45.4474 119.538C45.3379 119.642 45.2088 119.723 45.0676 119.776C44.9264 119.829 44.776 119.853 44.6252 119.848C44.4745 119.842 44.3264 119.806 44.1898 119.742C44.0531 119.678 43.9306 119.587 43.8296 119.475C43.7285 119.363 43.6508 119.232 43.6011 119.09C43.5515 118.947 43.5308 118.796 43.5404 118.646C43.5499 118.495 43.5895 118.348 43.6567 118.213L43.6527 118.215Z" fill="#263238"/>
<path d="M34.6577 116.919C34.7681 116.661 34.8762 116.46 34.9991 116.237C35.122 116.014 35.2489 115.803 35.3974 115.587C35.5522 115.355 35.7282 115.138 35.9232 114.938C36.047 114.813 36.1865 114.704 36.338 114.614C36.5448 114.486 36.7881 114.429 37.0305 114.452C37.1545 114.466 37.2745 114.504 37.3833 114.566C37.4691 114.616 37.5484 114.677 37.6194 114.747C37.6749 114.807 37.7261 114.87 37.7725 114.937L37.8812 115.123C37.9856 115.348 38.0646 115.584 38.1168 115.827C38.2108 116.271 38.2731 116.722 38.3034 117.175C38.0964 116.788 37.8621 116.417 37.6024 116.063C37.4852 115.903 37.3498 115.756 37.1989 115.627L37.0942 115.557C37.0666 115.544 37.0379 115.533 37.0083 115.524C37.0007 115.523 36.9928 115.523 36.9854 115.526C36.9779 115.528 36.9712 115.532 36.9656 115.537C36.9656 115.556 36.9747 115.563 37.0015 115.581C37.0493 115.607 37.0999 115.598 37.0925 115.635C37.085 115.684 37.0724 115.732 37.055 115.779C37.008 115.941 36.9715 116.105 36.9457 116.272C36.8854 116.652 36.858 117.037 36.8638 117.422C36.8686 117.596 36.8343 117.769 36.7636 117.928C36.6929 118.087 36.5876 118.228 36.4552 118.341C36.3229 118.454 36.1669 118.536 35.9988 118.581C35.8307 118.626 35.6546 118.632 35.4835 118.6C35.3125 118.568 35.1507 118.499 35.0101 118.396C34.8696 118.293 34.7537 118.161 34.6711 118.008C34.5885 117.854 34.5412 117.685 34.5326 117.511C34.5241 117.337 34.5546 117.164 34.6219 117.003L34.6577 116.919Z" fill="#263238"/>
<path d="M94.4572 89.9354L86.8011 96.0069L86.6873 96.1002C86.9018 100.817 86.3305 105.87 85.358 110.785C85.1714 111.733 84.9677 112.672 84.7555 113.605C81.7095 126.885 76.2202 138.434 76.2202 138.434H66.3192L63.5788 122.527L60.3804 138.434H49.3499C46.5754 130.767 45.2803 121.492 44.6919 113.792C44.6271 112.968 44.573 112.163 44.5252 111.379C44.0615 103.812 44.2595 98.2776 44.2595 98.2776L40.0169 102.236L31.25 94.8843C34.6436 88.946 55.2888 74.4641 64.339 74.5239C72.0879 74.5745 77.3912 76.769 80.8782 80.3182C80.8921 80.3314 80.9053 80.3455 80.9174 80.3603L91.3475 77.4927C91.3475 77.4927 95.5902 81.1688 94.4572 89.9354Z" fill="#00B2B9"/>
<path d="M86.824 96.1555C86.824 96.1555 85.9756 89.6511 84.5615 85.4094Z" fill="#BA6445"/>
<path d="M44.2598 98.2765C44.2598 98.2765 44.8254 92.9038 45.1082 89.7932Z" fill="#BA6445"/>
<g opacity="0.2">
<path opacity="0.2" d="M84.7559 113.605C81.71 126.885 76.2206 138.434 76.2206 138.434H66.3197L63.5793 122.527L60.3808 138.434H49.3504C46.5758 130.767 45.2807 121.492 44.6924 113.792C46.2902 120.449 49.6588 132.787 52.8373 133.493C57.2012 134.463 59.7862 123.918 59.7862 123.918C59.7862 123.918 57.2194 122.755 54.9353 120.655C54.2178 119.995 54.7509 118.802 55.7206 118.905C59.5296 119.313 66.7948 119.883 73.0267 119.169C73.8285 119.077 74.4038 119.927 74.0271 120.641C73.1872 122.234 71.2719 124.434 67.0281 124.888C67.0281 124.888 67.868 134.342 71.5052 134.219C73.8706 134.141 80.4542 122.038 84.7559 113.605Z" fill="#263238"/>
</g>
<path d="M94.4573 89.9357L86.8012 96.0071L86.6874 96.1004C86.9019 100.817 86.3306 105.871 85.3581 110.785C66.9219 120.61 44.5253 111.379 44.5253 111.379C44.0616 103.812 44.2596 98.2779 44.2596 98.2779L40.017 102.237L35.4079 98.374L32.441 95.8854L31.2461 94.8846C32.9429 91.9151 38.9552 86.8052 45.6753 82.4532C52.3954 78.1012 59.8103 74.4956 64.3351 74.5241C72.0841 74.5747 77.3873 76.7692 80.8743 80.3184C80.8883 80.3316 80.9014 80.3457 80.9135 80.3605L82.5227 79.9196L91.3425 77.493C91.3425 77.493 91.9992 78.0619 92.723 79.2801C93.3904 80.4004 94.1171 82.0743 94.4539 84.3621C94.6906 85.9256 94.7418 87.7753 94.4573 89.9357Z" fill="#0D7377"/>
<g opacity="0.6">
<path opacity="0.6" d="M92.7279 79.28L63.4906 87.9249L46.6026 85.0607C46.6026 85.0607 39.272 90.5387 32.442 95.8859L31.2471 94.8851C32.9439 91.9156 38.9561 86.8057 45.6763 82.4537C52.3964 78.1017 59.8113 74.4961 64.3361 74.5246C72.085 74.5752 77.3883 76.7697 80.8753 80.3189C80.8892 80.3321 80.9023 80.3462 80.9145 80.361L82.5237 79.9201L91.3435 77.4935C91.3435 77.4935 92.0041 78.0624 92.7279 79.28Z" fill="white"/>
</g>
<g opacity="0.2">
<path opacity="0.2" d="M94.4576 89.9357L86.8015 96.0072L86.6877 96.1005C86.9022 100.817 86.3309 105.871 85.3584 110.785C66.9222 120.61 44.5256 111.379 44.5256 111.379C44.0618 103.812 44.2599 98.2779 44.2599 98.2779L40.0173 102.237L35.4082 98.3741C41.4831 97.1895 44.6832 91.3496 44.6832 91.3496C48.7733 103.382 60.5441 107.497 60.5441 107.497C54.4891 107.316 48.96 102.953 48.96 102.953C49.3543 104.523 49.3492 105.988 49.2615 107.004C49.2294 107.403 49.3418 107.801 49.5782 108.125C49.8146 108.448 50.1594 108.676 50.5498 108.767C80.9411 115.92 81.5232 103.851 81.5232 103.851C70.816 107.663 64.9363 103.498 64.9363 103.498C83.6389 106.589 85.3613 88.4928 85.3613 88.4928C88.574 88.7898 91.979 86.5362 94.4622 84.3616C94.6909 85.9257 94.7421 87.7754 94.4576 89.9357Z" fill="#263238"/>
</g>
<path d="M76.2178 139.564H66.3169C66.0514 139.564 65.7943 139.47 65.5907 139.3C65.3871 139.13 65.2499 138.893 65.2033 138.632L63.4023 128.556L61.4893 138.643C61.4403 138.902 61.3024 139.136 61.0995 139.304C60.8967 139.472 60.6415 139.564 60.378 139.564H49.3504C49.1179 139.564 48.891 139.492 48.7006 139.359C48.5103 139.225 48.3656 139.036 48.2863 138.818C45.085 129.971 43.8599 119.051 43.3962 111.447C43.1259 107.036 43.0798 103.283 43.0883 100.917L40.7895 103.063C40.5876 103.251 40.3237 103.359 40.0477 103.366C39.7716 103.374 39.5024 103.28 39.2907 103.103L30.5233 95.7498C30.3201 95.5795 30.1833 95.3432 30.1367 95.0823C30.0902 94.8214 30.1367 94.5524 30.2683 94.3223C32.0204 91.2555 37.9643 86.1047 45.0583 81.5046C48.8275 79.058 58.2265 73.3911 64.2838 73.3911H64.3469C71.6304 73.4389 77.3109 75.3569 81.2468 79.095L91.0459 76.4004C91.2254 76.3511 91.4143 76.3469 91.5958 76.3881C91.7774 76.4293 91.9459 76.5146 92.0866 76.6365C92.279 76.8026 96.7742 80.8167 95.5787 90.0789C95.5406 90.3706 95.3904 90.6359 95.1599 90.8186L87.84 96.6277C87.9766 100.878 87.5157 105.712 86.4681 111.004C83.623 125.395 77.3029 138.785 77.2392 138.918C77.1474 139.112 77.0027 139.275 76.8219 139.389C76.6411 139.503 76.4316 139.564 76.2178 139.564V139.564ZM67.266 137.301H75.4929C76.7675 134.487 81.809 122.894 84.2484 110.565C85.309 105.209 85.7489 100.359 85.5571 96.1509C85.5492 95.9734 85.5831 95.7965 85.6562 95.6345C85.7292 95.4725 85.8393 95.33 85.9776 95.2184L86.0914 95.1251L93.3885 89.3376C94.0714 83.1404 91.9176 79.8586 90.9941 78.7616L81.2155 81.45C81.0116 81.5058 80.7961 81.5035 80.5934 81.4431C80.3908 81.3828 80.2091 81.2669 80.0689 81.1086C76.5444 77.5292 71.2531 75.6983 64.3299 75.6528H64.2815C60.4964 75.6528 53.7768 78.546 46.2868 83.4021C40.1727 87.3672 34.8313 91.8296 32.7441 94.6625L39.9735 100.725L43.4838 97.4493C43.6474 97.2952 43.8531 97.1933 44.0748 97.1565C44.2965 97.1198 44.5241 97.1499 44.7287 97.2431C44.9332 97.3362 45.1053 97.4882 45.2231 97.6795C45.3409 97.8709 45.399 98.093 45.39 98.3176C45.39 98.3745 45.2 103.889 45.6546 111.31C46.0962 118.551 47.2359 128.843 50.1499 137.302H59.4425L62.3263 122.1C62.3756 121.841 62.5144 121.606 62.7185 121.438C62.9225 121.27 63.1791 121.179 63.4435 121.18C63.7079 121.181 63.9635 121.275 64.1659 121.446C64.3682 121.616 64.5046 121.852 64.5512 122.112L67.266 137.301ZM80.0342 81.0682C80.0365 81.0714 80.039 81.0744 80.0416 81.0773L80.0342 81.0682Z" fill="#263238"/>
<path d="M85.4321 96.0684C85.4759 95.2207 85.4805 94.3115 85.4651 93.4261C85.4498 92.5408 85.4082 91.6424 85.3388 90.752C85.2694 89.8616 85.1761 88.9672 85.0509 88.0779C84.9257 87.1886 84.7561 86.301 84.5615 85.4146C84.9348 86.2395 85.2921 87.0799 85.5994 87.9396C85.9067 88.7993 86.1986 89.6693 86.453 90.5506C86.7073 91.4319 86.9423 92.3218 87.15 93.2202C87.3577 94.1186 87.5421 95.0107 87.6934 95.9632C87.7185 96.1204 87.7102 96.2811 87.6692 96.435C87.6282 96.5888 87.5554 96.7323 87.4555 96.8563C87.3555 96.9802 87.2307 97.0818 87.089 97.1545C86.9473 97.2272 86.792 97.2693 86.633 97.2782C86.474 97.2871 86.315 97.2625 86.1661 97.2061C86.0172 97.1496 85.8818 97.0626 85.7687 96.9505C85.6556 96.8385 85.5672 96.704 85.5093 96.5556C85.4514 96.4073 85.4253 96.2485 85.4327 96.0895L85.4321 96.0684Z" fill="#263238"/>
<path d="M43.1355 98.1583L45.1094 89.7944L45.386 98.3961C45.3913 98.5585 45.3619 98.7202 45.2997 98.8703C45.2375 99.0204 45.144 99.1555 45.0255 99.2667C44.9069 99.3778 44.7659 99.4623 44.6121 99.5146C44.4582 99.5669 44.295 99.5857 44.1332 99.5699C43.9715 99.554 43.815 99.5039 43.6742 99.4227C43.5334 99.3416 43.4116 99.2313 43.3168 99.0993C43.2221 98.9673 43.1566 98.8166 43.1247 98.6573C43.0928 98.4979 43.0954 98.3336 43.1321 98.1753L43.1355 98.1583Z" fill="#263238"/>
<path d="M65.7439 116.432C63.1119 116.427 60.4833 116.245 57.876 115.886C49.92 114.799 44.3288 112.521 44.0944 112.424C43.8981 112.343 43.7285 112.209 43.6051 112.036C43.4816 111.863 43.4092 111.659 43.3962 111.448C43.1259 107.036 43.0798 103.283 43.0883 100.917L40.7895 103.063C40.5876 103.251 40.3237 103.359 40.0477 103.366C39.7716 103.374 39.5024 103.28 39.2907 103.103L30.5233 95.7498C30.3201 95.5795 30.1833 95.3432 30.1367 95.0823C30.0902 94.8213 30.1367 94.5523 30.2683 94.3223C32.0215 91.2533 37.9677 86.1018 45.0628 81.5029C48.8298 79.0597 58.2248 73.3911 64.2849 73.3911H64.3452C71.6287 73.4389 77.3103 75.3575 81.2485 79.095L91.047 76.4004C91.2265 76.3511 91.4154 76.3469 91.597 76.3881C91.7785 76.4293 91.9471 76.5146 92.0878 76.6365C92.2801 76.8026 96.7753 80.8167 95.5798 90.0789C95.5418 90.3705 95.3915 90.6359 95.161 90.8186L87.84 96.6277C87.9766 100.878 87.5157 105.712 86.4681 111.004C86.4354 111.169 86.3667 111.324 86.2668 111.458C86.1669 111.593 86.0384 111.704 85.8906 111.783C79.1864 115.355 71.986 116.432 65.7439 116.432ZM45.6119 110.581C49.3606 111.951 68.4348 118.194 84.3519 110.034C85.3369 104.888 85.7426 100.22 85.5571 96.1515C85.5492 95.974 85.5831 95.7971 85.6562 95.6351C85.7292 95.4731 85.8393 95.3305 85.9776 95.219L86.0914 95.1256L93.3885 89.3381C94.0714 83.1409 91.9182 79.8591 90.9941 78.7622L81.2149 81.4505C81.0111 81.5064 80.7957 81.5041 80.5931 81.4437C80.3905 81.3834 80.2089 81.2675 80.0689 81.1091C76.5444 77.5298 71.2531 75.6988 64.3298 75.6533H64.2838C60.4964 75.6533 53.7779 78.5459 46.2931 83.4009C40.1778 87.3655 34.8342 91.8313 32.7481 94.6631L39.9775 100.726L43.4878 97.4499C43.6515 97.2972 43.8568 97.1964 44.0777 97.1605C44.2987 97.1245 44.5254 97.1549 44.729 97.2478C44.9327 97.3407 45.1042 97.4919 45.2219 97.6823C45.3396 97.8728 45.3981 98.0938 45.39 98.3175C45.3883 98.3699 45.2119 103.53 45.6119 110.581ZM80.0365 81.0682L80.0439 81.0773L80.0365 81.0682Z" fill="#263238"/>
<path d="M82.5815 80.8854C82.5815 87.7568 74.2863 93.3281 64.0571 93.3281C54.6165 93.3281 46.8249 88.5852 45.6777 82.4517C52.3922 78.0969 59.8127 74.4942 64.3376 74.5226C72.0865 74.5733 77.3892 76.7678 80.8767 80.317C80.8905 80.3303 80.9037 80.3443 80.916 80.3591L82.5252 79.9181C82.5611 80.2393 82.5799 80.5622 82.5815 80.8854V80.8854Z" fill="#0D7377"/>
<path d="M64.0569 94.3235C54.2663 94.3235 45.945 89.2984 44.7005 82.6346C44.6643 82.4408 44.6865 82.2405 44.7643 82.0593C44.8421 81.878 44.972 81.724 45.1375 81.6167C48.8931 79.1799 58.262 73.5266 64.2862 73.5266H64.3431C71.6265 73.5744 77.2945 75.4981 81.2088 79.2459L82.2615 78.9574C82.4005 78.9195 82.546 78.9123 82.688 78.9361C82.8301 78.9599 82.9653 79.0142 83.0843 79.0954C83.2033 79.1765 83.3033 79.2825 83.3774 79.406C83.4514 79.5295 83.4978 79.6677 83.5133 79.8108C83.5516 80.1672 83.5706 80.5255 83.5702 80.8839C83.5771 88.2953 74.8204 94.3235 64.0569 94.3235ZM46.8065 82.9111C48.295 88.3254 55.5426 92.3321 64.0569 92.3321C73.5555 92.3321 81.3141 87.373 81.5781 81.2111L81.1798 81.3197C80.9998 81.369 80.8096 81.3668 80.6308 81.3133C80.4521 81.2598 80.2919 81.1571 80.1686 81.0171C76.618 77.4104 71.2919 75.5641 64.3311 75.5186H64.2845C60.5733 75.518 54.0774 78.2695 46.8065 82.9111ZM80.1419 80.9835L80.1487 80.9915L80.1419 80.9835Z" fill="#263238"/>
<path d="M55.9978 120.191C56.004 120.211 56.0712 120.219 56.1076 120.23L56.2367 120.257C56.3238 120.275 56.4109 120.29 56.4979 120.304C56.6686 120.335 56.8439 120.364 57.0174 120.388L58.0514 120.532C58.7376 120.621 59.417 120.702 60.0998 120.766C61.4569 120.899 62.8061 120.985 64.1564 121.019C65.5067 121.054 66.8587 121.04 68.2237 120.982C69.5888 120.923 70.9642 120.819 72.4032 120.754C71.1679 121.498 69.8045 121.989 68.403 122.31C65.5751 122.939 62.6354 122.859 59.846 122.076C59.1529 121.879 58.4755 121.63 57.8198 121.331C57.4913 121.18 57.1711 121.013 56.8604 120.829C56.7056 120.735 56.552 120.64 56.4023 120.539C56.3284 120.486 56.255 120.432 56.1833 120.376L56.0774 120.289L56.0273 120.242C56.016 120.228 55.9756 120.208 55.9978 120.191Z" fill="#263238"/>
<path d="M101.808 60.0031C104.481 55.373 103.748 49.945 100.169 47.8792C96.5909 45.8135 91.5228 47.8922 88.8494 52.5223C86.176 57.1524 86.9096 62.5804 90.4879 64.6461C94.0662 66.7119 99.1343 64.6331 101.808 60.0031Z" fill="white"/>
<g opacity="0.2">
<path opacity="0.2" d="M103.081 56.9406C101.811 61.9993 97.3119 65.8284 93.0272 65.4916C88.7425 65.1548 86.3048 60.7806 87.5743 55.7213C87.6688 55.3443 87.7827 54.9725 87.9157 54.6073C88.2298 58.0404 90.4194 60.6139 93.6628 60.8659C97.6255 61.1771 101.774 57.9249 103.378 53.429C103.478 54.6078 103.378 55.7953 103.081 56.9406V56.9406Z" fill="#263238"/>
</g>
<path d="M93.5399 66.5731C93.339 66.5731 93.1387 66.5657 92.9384 66.5498C90.8068 66.3825 88.949 65.3385 87.7068 63.6099C86.154 61.4479 85.7056 58.4489 86.4772 55.3776C87.8741 49.8159 92.9156 45.5976 97.717 45.9754C99.8486 46.1427 101.706 47.1868 102.949 48.9153C104.501 51.0773 104.95 54.0764 104.178 57.1476C102.839 62.4771 98.1552 66.5731 93.5399 66.5731ZM88.6713 55.9295C88.0625 58.3538 88.3805 60.6724 89.5442 62.2911C90.4034 63.4859 91.6382 64.1795 93.1159 64.2955C96.8658 64.588 100.844 61.1372 101.984 56.5974C102.593 54.1736 102.275 51.8551 101.111 50.2364C100.252 49.0416 99.0167 48.348 97.5395 48.2314C93.7914 47.9406 89.8116 51.3903 88.6713 55.9295Z" fill="#263238"/>
<path d="M37.1018 73.6953C40.6802 71.6295 41.4138 66.2015 38.7403 61.5714C36.0669 56.9413 30.9989 54.8626 27.4205 56.9283C23.8422 58.9941 23.1086 64.4221 25.7821 69.0522C28.4555 73.6822 33.5235 75.761 37.1018 73.6953Z" fill="white"/>
<g opacity="0.2">
<path opacity="0.2" d="M34.5618 74.9203C30.2799 75.2572 25.7778 71.4309 24.5078 66.3716C24.2512 65.3686 24.1406 64.3338 24.1794 63.2992C25.9753 67.3457 29.8474 70.1734 33.5523 69.8821C36.9346 69.6164 39.1663 66.8336 39.333 63.1831C39.6176 63.818 39.846 64.4765 40.0158 65.1512C41.2842 70.2104 38.8436 74.5841 34.5618 74.9203Z" fill="#263238"/>
</g>
<path d="M34.0491 75.6227C29.4355 75.6227 24.749 71.5261 23.4084 66.1966C22.6374 63.1242 23.0858 60.1246 24.6386 57.9643C25.8825 56.2358 27.7404 55.19 29.8736 55.0244C34.675 54.6472 39.7176 58.8649 41.1134 64.4271C41.885 67.4996 41.4366 70.4991 39.8832 72.6595C38.641 74.388 36.7832 75.4321 34.6517 75.5993C34.4502 75.6158 34.2494 75.6227 34.0491 75.6227ZM30.4995 57.2622C30.3501 57.2622 30.2002 57.268 30.05 57.2798C28.5705 57.3936 27.3381 58.0894 26.4788 59.2848C25.3152 60.9035 24.9994 63.2221 25.606 65.6459C26.744 70.1851 30.7214 73.6404 34.4741 73.344C35.9536 73.2302 37.1866 72.5343 38.0459 71.3389C39.2089 69.7208 39.5253 67.4017 38.9182 64.9779C37.8228 60.6196 34.1117 57.2622 30.4995 57.2622Z" fill="#263238"/>
<path d="M34.0491 75.6227C29.4355 75.6227 24.749 71.5261 23.4084 66.1966C22.6374 63.1242 23.0858 60.1246 24.6386 57.9643C25.8825 56.2358 27.7404 55.19 29.8736 55.0244C34.675 54.6472 39.7176 58.8649 41.1134 64.4271C41.885 67.4996 41.4366 70.4991 39.8832 72.6595C38.641 74.388 36.7832 75.4321 34.6517 75.5993C34.4502 75.6158 34.2494 75.6227 34.0491 75.6227ZM30.4995 57.2622C30.3501 57.2622 30.2002 57.268 30.05 57.2798C28.5705 57.3936 27.3381 58.0894 26.4788 59.2848C25.3152 60.9035 24.9994 63.2221 25.606 65.6459C26.744 70.1851 30.7214 73.6404 34.4741 73.344C35.9536 73.2302 37.1866 72.5343 38.0459 71.3389C39.2089 69.7208 39.5253 67.4017 38.9182 64.9779C37.8228 60.6196 34.1117 57.2622 30.4995 57.2622Z" fill="#263238"/>
<path d="M34.0491 75.6227C29.4355 75.6227 24.749 71.5261 23.4084 66.1966C22.6374 63.1242 23.0858 60.1246 24.6386 57.9643C25.8825 56.2358 27.7404 55.19 29.8736 55.0244C34.675 54.6472 39.7176 58.8649 41.1134 64.4271C41.885 67.4996 41.4366 70.4991 39.8832 72.6595C38.641 74.388 36.7832 75.4321 34.6517 75.5993C34.4502 75.6158 34.2494 75.6227 34.0491 75.6227ZM30.4995 57.2622C30.3501 57.2622 30.2002 57.268 30.05 57.2798C28.5705 57.3936 27.3381 58.0894 26.4788 59.2848C25.3152 60.9035 24.9994 63.2221 25.606 65.6459C26.744 70.1851 30.7214 73.6404 34.4741 73.344C35.9536 73.2302 37.1866 72.5343 38.0459 71.3389C39.2089 69.7208 39.5253 67.4017 38.9182 64.9779C37.8228 60.6196 34.1117 57.2622 30.4995 57.2622Z" fill="#263238"/>
<path d="M96.4388 48.3655C96.4411 51.281 96.1454 54.1891 95.5563 57.0445C92.1228 73.6327 79.0712 85.9765 63.4909 85.9765C51.5899 85.9765 41.1626 78.7739 35.3734 67.9772C32.3081 62.2676 30.543 55.5516 30.543 48.3655C30.543 27.592 45.2948 10.7568 63.4892 10.7568C81.6836 10.7568 96.4388 27.5948 96.4388 48.3655Z" fill="white"/>
<g opacity="0.2">
<path opacity="0.2" d="M96.4388 48.3702C96.4411 51.2855 96.1454 54.1934 95.5563 57.0486C92.1228 73.6374 79.0712 85.9806 63.4909 85.9806C51.5899 85.9806 41.1626 78.778 35.3734 67.9813C32.3081 62.2717 30.543 55.5557 30.543 48.3702C30.543 47.4708 30.5712 46.5795 30.6278 45.696C31.0096 51.8608 32.695 57.6182 35.3734 62.6069C41.1626 73.4036 51.5904 80.6061 63.4909 80.6061C79.0712 80.6061 92.1228 68.2595 95.5563 51.6742C95.9631 49.7042 96.2293 47.7078 96.3529 45.7C96.4102 46.5812 96.4388 47.4712 96.4388 48.3702Z" fill="#263238"/>
</g>
<path d="M63.4922 87.109C44.7009 87.109 29.4131 69.7271 29.4131 48.3624C29.4131 26.9977 44.7009 9.62085 63.4922 9.62085C82.2835 9.62085 97.5714 27.0022 97.5714 48.3624C97.5714 69.7225 82.2835 87.109 63.4922 87.109ZM63.4922 11.8876C45.9482 11.8876 31.6755 28.2522 31.6755 48.3669C31.6755 68.4816 45.9482 84.8468 63.4922 84.8468C81.0362 84.8468 95.3112 68.4799 95.3112 48.3624C95.3112 28.2448 81.0357 11.8853 63.4922 11.8853V11.8876Z" fill="#263238"/>
<path d="M72.1384 65.1058C72.1384 65.1058 72.152 65.1416 72.1742 65.2104C72.4399 65.982 73.9723 70.8347 71.6018 73.0952C71.1335 73.5418 70.5104 73.8917 69.6967 74.0817C65.701 75.0274 63.924 71.815 63.145 69.1261C62.8353 68.0504 62.6358 66.9461 62.5498 65.83C66.7167 67.1148 69.9829 66.3063 72.1742 65.2104C74.2602 64.1709 75.3732 62.8777 75.3732 62.8777" fill="#263238"/>
<path d="M71.5956 72.9456C71.6004 72.9953 71.6023 73.0453 71.6013 73.0952C71.133 73.5419 70.5099 73.8918 69.6962 74.0818C65.7006 75.0274 63.9235 71.8151 63.1445 69.1261C63.9019 68.733 64.7316 68.4986 65.5828 68.4371C68.6987 68.2016 71.3896 70.2214 71.5956 72.9456Z" fill="white"/>
<path d="M72.0462 64.1555C72.2374 63.9308 72.469 63.7931 72.7114 63.6645C72.9651 63.5419 73.2264 63.4358 73.4938 63.347C73.7653 63.2475 74.0475 63.1542 74.3383 63.0574C74.629 62.9607 74.9352 62.8668 75.2652 62.7832L75.2806 62.7792C75.3014 62.7739 75.323 62.7728 75.3443 62.7759C75.3655 62.779 75.386 62.7862 75.4044 62.7972C75.4229 62.8082 75.439 62.8227 75.4518 62.8399C75.4646 62.8572 75.4739 62.8767 75.4792 62.8975C75.4843 62.921 75.4843 62.9452 75.4792 62.9687C75.4068 63.3104 75.2861 63.6402 75.1207 63.9479C74.9632 64.2447 74.7784 64.5262 74.5687 64.7888C74.3587 65.0454 74.1363 65.2975 73.8717 65.4898C73.6133 65.6953 73.3111 65.8388 72.9885 65.9091C72.777 65.95 72.5581 65.9243 72.3618 65.8355C72.1655 65.7468 72.0015 65.5995 71.8925 65.4137C71.7834 65.228 71.7346 65.013 71.7527 64.7984C71.7709 64.5838 71.8551 64.3801 71.9939 64.2153L72.0462 64.1555Z" fill="#263238"/>
<path d="M68.3486 75.3786C65.421 75.3786 63.1705 73.2894 62.0575 69.4409C61.7242 68.2831 61.5105 67.0942 61.4197 65.8928C61.4097 65.7108 61.4438 65.529 61.5192 65.3629C61.5946 65.1969 61.709 65.0516 61.8527 64.9393C61.9963 64.827 62.165 64.751 62.3443 64.7179C62.5237 64.6848 62.7083 64.6956 62.8826 64.7492C66.0304 65.7199 68.9808 65.5372 71.6524 64.207L71.678 64.1939L71.7844 64.1404C71.9733 64.0439 72.1856 64.0025 72.397 64.0208C72.6084 64.0392 72.8103 64.1166 72.9798 64.2442C73.1493 64.3718 73.2795 64.5445 73.3556 64.7425C73.4317 64.9406 73.4506 65.156 73.4101 65.3642C73.9188 67.0746 74.906 71.5091 72.3819 73.9141C71.7383 74.528 70.9217 74.9547 69.9555 75.1829C69.4293 75.3101 68.89 75.3757 68.3486 75.3786V75.3786ZM63.8852 67.3334C63.9755 67.832 64.0908 68.3257 64.2306 68.8128C65.6953 73.8674 68.5102 73.2012 69.4355 72.9827C70.0045 72.8479 70.4716 72.6112 70.8205 72.2783C72.0649 71.0915 71.8862 68.6176 71.4464 66.7639C69.5544 67.4757 66.9909 67.9462 63.8852 67.3334V67.3334Z" fill="#263238"/>
<path d="M84.8444 50.3458C84.61 50.3589 84.4006 50.2889 84.2003 50.248L83.6193 50.1114C83.2443 50.0249 82.891 49.9481 82.5513 49.8952C81.9292 49.785 81.2946 49.7645 80.6667 49.8343C80.0703 49.9026 79.466 50.0653 78.8122 50.3157C78.1522 50.5564 77.4694 50.8886 76.6426 51.1947C76.8434 50.3339 77.3163 49.6016 77.9644 48.9991C78.6474 48.366 79.5136 47.966 80.4385 47.8566C81.3747 47.7503 82.3197 47.9569 83.126 48.4443C83.689 48.7825 84.1664 49.2458 84.5212 49.7985C84.5781 49.8878 84.635 49.9806 84.6851 50.0733C84.7296 50.1689 84.783 50.2601 84.8444 50.3458V50.3458Z" fill="#263238"/>
<path d="M57.9763 53.4567C57.7418 53.4693 57.5324 53.3998 57.3321 53.3583L56.7512 53.2218C56.3762 53.1353 56.0228 53.0585 55.6831 53.0056C55.061 52.8954 54.4264 52.8749 53.7985 52.9447C53.1626 53.0264 52.5395 53.1881 51.9441 53.426C51.284 53.6667 50.6012 53.999 49.7744 54.3051C49.9753 53.4448 50.4481 52.712 51.0962 52.11C51.779 51.4765 52.6454 51.0763 53.5703 50.967C54.5065 50.8606 55.4515 51.0673 56.2578 51.5547C56.6341 51.783 56.974 52.0664 57.2661 52.3956C57.4072 52.5568 57.5365 52.728 57.6531 52.9077C57.71 52.997 57.7669 53.0898 57.8169 53.1825C57.8614 53.2787 57.9148 53.3705 57.9763 53.4567Z" fill="#263238"/>
<path d="M93.8882 36.9572C93.9519 36.9049 94.0538 36.8042 94.138 36.72C94.2222 36.6358 94.3138 36.5402 94.4003 36.4463C94.5744 36.2602 94.7417 36.0645 94.9085 35.8654C95.2397 35.4639 95.549 35.0447 95.8348 34.6097C96.4167 33.7353 96.8866 32.7914 97.2335 31.8001C97.5873 30.7956 97.7771 29.7407 97.7957 28.6759C97.8224 27.5994 97.6306 26.511 97.2887 25.459C97.8008 26.4353 98.1934 27.5073 98.3601 28.635C98.5345 29.7746 98.5247 30.9349 98.3311 32.0715C98.139 33.2219 97.8031 34.3436 97.3313 35.4102C97.0968 35.9481 96.8335 36.4731 96.5427 36.9828C96.3959 37.2383 96.2439 37.492 96.0806 37.7413C95.9993 37.8664 95.9162 37.9905 95.8286 38.1151C95.7409 38.2397 95.6607 38.354 95.5384 38.5048L95.4951 38.5583C95.4008 38.6745 95.2845 38.7711 95.1529 38.8424C95.0213 38.9138 94.8769 38.9585 94.728 38.974C94.5791 38.9895 94.4286 38.9756 94.2851 38.933C94.1416 38.8903 94.0079 38.8199 93.8916 38.7256C93.7753 38.6313 93.6788 38.515 93.6075 38.3834C93.5361 38.2518 93.4914 38.1074 93.4759 37.9585C93.4603 37.8096 93.4743 37.6592 93.5169 37.5157C93.5595 37.3722 93.63 37.2385 93.7243 37.1222C93.7733 37.0619 93.8282 37.0066 93.8882 36.9572V36.9572Z" fill="#263238"/>
<path d="M95.4425 57.5795L95.0043 37.3544C95.0043 37.3544 88.5175 46.6696 71.8333 46.104C71.8333 46.104 76.3581 41.014 74.3785 33.9441C74.3785 33.9441 74.9441 45.8212 49.7741 50.6284C49.7741 50.6284 51.7537 46.104 50.6225 39.0346C50.6225 39.0346 47.5111 51.7595 36.4818 49.7801L34.7179 66.6938C34.7179 66.6938 25.3615 56.7448 23.404 44.941C22.6433 40.3603 23 35.4962 25.4525 30.8307C25.4525 30.8307 17.2507 33.9412 16.9679 30.8307C16.6851 27.7201 26.5843 26.8718 26.5843 26.8718C26.5843 26.8718 23.7563 17.5407 26.5843 15.8429C29.4123 14.1451 30.5424 24.3291 30.5424 24.3291C30.5424 24.3291 31.7868 21.8996 34.3776 18.6138L34.389 18.6024C39.703 11.8607 50.6732 1.5192 68.1569 1.13799C81.6921 0.843838 92.4705 8.82701 97.6429 20.3531C98.1068 21.386 98.5241 22.4447 98.8947 23.5291C102.352 33.63 101.749 45.8912 95.4425 57.5795Z" fill="#263238"/>
<g opacity="0.2">
<path opacity="0.2" d="M95.4427 57.5796L95.0046 37.3545C95.0046 37.3545 88.5178 46.6697 71.8335 46.1041C71.8335 46.1041 76.3584 41.0141 74.3788 33.9442C74.3788 33.9442 74.9444 45.8213 49.7744 50.6285C49.7744 50.6285 51.754 46.1041 50.6228 39.0347C50.6228 39.0347 47.5114 51.7596 36.4821 49.7802L34.7181 66.6939C34.7181 66.6939 25.3617 56.7449 23.4043 44.9411C28.4469 51.0183 32.2634 48.3658 32.2634 48.3658C30.838 47.407 30.5438 43.5045 30.5438 43.5045C43.4036 47.687 49.7766 28.7802 49.7766 28.7802C53.5037 32.0518 54.1581 43.5045 54.1581 43.5045C67.179 42.4161 74.2303 25.054 74.2303 25.054C80.6636 30.0934 79.6627 40.8082 79.6627 40.8082C93.2093 38.4805 97.1885 29.6763 98.8955 23.5315C102.352 33.6301 101.75 45.8913 95.4427 57.5796Z" fill="#263238"/>
</g>
<g opacity="0.6">
<path opacity="0.6" d="M97.6431 20.3555C70.7894 -12.9961 35.1153 17.9664 34.3887 18.6054C39.7027 11.8609 50.6729 1.51933 68.1566 1.13812C81.6918 0.846239 92.4702 8.82941 97.6431 20.3555Z" fill="white"/>
</g>
<path d="M34.7159 67.8237C34.5615 67.8236 34.4087 67.792 34.267 67.7306C34.1253 67.6693 33.9977 67.5795 33.892 67.4669C33.7031 67.2666 29.2295 62.4708 25.7829 55.5215C21.6541 47.1958 20.8404 39.3628 23.3759 32.69C21.282 33.2589 18.4773 33.7408 16.9836 32.8072C16.3099 32.3856 15.915 31.7381 15.8416 30.9341C15.7778 30.232 16.0049 29.5493 16.4993 28.9593C18.1205 27.0248 22.7068 26.1998 25.1445 25.8902C24.8322 24.6575 24.5853 23.4092 24.4047 22.1504C23.8596 18.2246 24.3825 15.8463 26.0037 14.8739C26.7076 14.4517 27.4757 14.4079 28.166 14.751C29.7529 15.5368 30.677 18.5631 31.1818 21.0825C33.3732 17.8091 35.9373 14.8011 38.8226 12.119C44.5788 6.75875 54.3363 0.308374 68.1333 0.00852866C79.879 -0.248644 90.2175 5.49223 96.4949 15.7558C100.051 21.5695 101.995 28.4318 102.115 35.6014C102.243 43.2084 100.279 50.9942 96.4369 58.1171C96.3185 58.337 96.1306 58.5116 95.9025 58.6135C95.6744 58.7155 95.419 58.7391 95.1761 58.6806C94.9332 58.6221 94.7165 58.4849 94.5598 58.2903C94.4031 58.0957 94.3152 57.8548 94.3099 57.605L93.9344 40.1855C90.9561 42.9268 84.4801 47.2584 73.3006 47.2589C72.8078 47.2589 72.3076 47.251 71.7961 47.2333C71.5813 47.2261 71.3731 47.1579 71.1957 47.0367C71.0183 46.9155 70.8791 46.7462 70.7943 46.5488C70.7096 46.3513 70.6829 46.1338 70.7173 45.9217C70.7517 45.7096 70.8459 45.5117 70.9886 45.3512C71.1024 45.2226 72.9762 43.0435 73.5726 39.6393C70.9249 43.7137 64.6816 48.9311 49.9867 51.7378C49.7844 51.7766 49.5753 51.7594 49.382 51.688C49.1888 51.6166 49.0187 51.4937 48.8902 51.3327C48.7616 51.1717 48.6796 50.9786 48.6528 50.7744C48.626 50.5701 48.6556 50.3624 48.7383 50.1737C48.7508 50.1442 49.7494 47.767 49.8325 43.8428C47.9684 47.1747 44.5406 51.1205 38.7639 51.1211C38.3505 51.1211 37.9244 51.1002 37.4859 51.0585L35.8409 66.8097C35.8186 67.0253 35.7347 67.2298 35.5993 67.399C35.4639 67.5682 35.2827 67.6949 35.0773 67.7639C34.9609 67.8036 34.8388 67.8238 34.7159 67.8237V67.8237ZM25.4523 29.7C25.6471 29.7001 25.8385 29.7504 26.0082 29.8461C26.1778 29.9417 26.3199 30.0796 26.4207 30.2463C26.5214 30.4129 26.5775 30.6028 26.5834 30.7974C26.5893 30.9921 26.5448 31.185 26.4543 31.3574C19.7547 44.1068 29.7148 58.7111 33.8664 63.9342L35.3572 49.6605C35.3733 49.5058 35.4212 49.356 35.4978 49.2206C35.5744 49.0852 35.6782 48.9671 35.8026 48.8736C35.927 48.7801 36.0694 48.7134 36.2208 48.6774C36.3722 48.6415 36.5293 48.6372 36.6825 48.6648C46.5208 50.4286 49.4069 39.2393 49.5247 38.762C49.5871 38.5087 49.7352 38.2848 49.9438 38.1281C50.1524 37.9715 50.4088 37.8918 50.6695 37.9025C50.9301 37.9132 51.1791 38.0137 51.3742 38.1869C51.5692 38.3601 51.6984 38.5955 51.7399 38.853C52.4796 43.485 51.9458 47.0751 51.4315 49.1348C62.6485 46.707 67.9825 42.8289 70.501 39.9306C73.2949 36.712 73.2539 34.0953 73.2511 33.9855C73.2422 33.7096 73.3344 33.44 73.5104 33.2274C73.6865 33.0148 73.9341 32.8739 74.2068 32.8311C74.4795 32.7883 74.7584 32.8466 74.9911 32.9951C75.2238 33.1436 75.3942 33.372 75.4702 33.6373C76.8803 38.6732 75.2734 42.7521 73.9777 44.9893C88.2442 44.731 94.0203 36.7894 94.0795 36.7052C94.2167 36.5104 94.4119 36.364 94.6373 36.2866C94.8626 36.2092 95.1066 36.2049 95.3345 36.2742C95.5625 36.3436 95.7627 36.483 95.9068 36.6728C96.0509 36.8625 96.1315 37.0929 96.137 37.331L96.4705 52.787C101.503 40.6271 100.872 27.2478 94.566 16.937C88.7199 7.37835 79.1086 2.03576 68.1834 2.27131C55.0959 2.55579 45.834 8.68356 40.3657 13.7747C34.4252 19.3005 31.5801 24.7887 31.5499 24.8433C31.4393 25.0602 31.2617 25.2356 31.0434 25.3434C30.8252 25.4513 30.578 25.4858 30.3385 25.442C30.099 25.3982 29.8801 25.2783 29.7142 25.1001C29.5484 24.9219 29.4444 24.695 29.4178 24.453C29.0127 20.8185 27.9645 17.2203 27.1986 16.7959C27.1875 16.8014 27.1767 16.8075 27.1662 16.8141C25.9451 17.5464 26.4498 22.5299 27.6664 26.5434C27.7153 26.7046 27.7276 26.8747 27.7024 27.0412C27.6771 27.2078 27.615 27.3666 27.5206 27.5061C27.4261 27.6455 27.3017 27.7622 27.1564 27.8474C27.0111 27.9327 26.8487 27.9844 26.6808 27.9988C23.8044 28.2463 19.2836 29.159 18.2332 30.4113C18.0824 30.5916 18.0909 30.6872 18.0949 30.7282C18.1051 30.8385 18.1279 30.8533 18.1831 30.888C19.0673 31.4411 22.4507 30.7578 25.0517 29.7729C25.1797 29.7245 25.3155 29.6999 25.4523 29.7V29.7Z" fill="#263238"/>
<path d="M59.333 99.6831C55.2998 101.447 52.0535 99.3417 50.2514 97.6132C49.8262 97.2074 49.4294 96.7728 49.0639 96.3125C48.8238 96.0098 48.6963 95.8175 48.6963 95.8175C55.3282 97.4834 53.4561 91.8416 56.2899 89.6243C57.5144 88.6661 58.657 88.3885 59.6579 88.5131C59.7799 88.5276 59.9009 88.5492 60.0204 88.578C61.126 88.8215 62.0364 89.5395 62.6674 90.3144C62.6953 90.3486 62.7209 90.3793 62.7465 90.4134C62.9502 90.6735 63.2302 91.1571 63.4618 91.7852C64.2197 93.8466 64.4126 97.4607 59.333 99.6831Z" fill="#0D7377"/>
<g opacity="0.6">
<path opacity="0.6" d="M60.7454 94.2085C60.7739 94.7962 60.404 95.3311 59.9852 95.7447C58.9468 96.7569 56.9085 97.6496 55.4541 97.1051C56.4175 96.7796 57.325 96.5418 58.2201 96.0127C59.1152 95.4835 59.9323 94.8469 60.7454 94.2085Z" fill="white"/>
</g>
<g opacity="0.6">
<path opacity="0.6" d="M60.0206 88.5751C59.2707 89.1919 58.0376 90.3031 57.46 91.3494C56.7203 92.6842 54.9455 98.7221 50.2534 97.608C49.8281 97.2023 49.4313 96.7677 49.0658 96.3074C48.8257 96.0047 48.6982 95.8124 48.6982 95.8124C55.3302 97.4783 53.4581 91.8364 56.2918 89.6192C57.5164 88.661 58.659 88.3834 59.6599 88.508C59.7813 88.5233 59.9018 88.5457 60.0206 88.5751V88.5751Z" fill="white"/>
</g>
<g opacity="0.2">
<path opacity="0.2" d="M55.043 96.6573C57.0504 94.4226 58.5781 91.7998 59.5314 88.9512C59.5764 88.8215 59.6162 88.6713 59.6583 88.5103C60.9255 88.6633 61.9691 89.4547 62.6679 90.3116C60.6797 93.0574 58.2193 95.5603 55.043 96.6573Z" fill="#263238"/>
</g>
<g opacity="0.2">
<path opacity="0.2" d="M59.3336 99.6832C54.1327 101.959 50.2412 97.7971 49.0645 96.3127C50.128 97 51.2136 97.6702 52.4274 98.0196C54.6841 98.6642 57.1616 98.0958 59.1834 96.9084C60.9513 95.8706 62.4643 94.3349 63.2393 92.4403C63.3259 92.2269 63.4004 92.0089 63.4624 91.7871C64.2203 93.8468 64.4132 97.4608 59.3336 99.6832Z" fill="#263238"/>
</g>
<path d="M56.3039 101.198C51.3033 101.198 48.0229 96.3455 47.9837 96.2863C47.8887 96.1428 47.8392 95.9739 47.8419 95.8018C47.8446 95.6298 47.8992 95.4625 47.9987 95.322C48.0981 95.1815 48.2377 95.0744 48.3991 95.0147C48.5606 94.955 48.7363 94.9454 48.9032 94.9873C52.4721 95.884 52.9268 94.5891 53.679 92.4463C54.1024 91.2413 54.5815 89.8752 55.765 88.9495C57.6286 87.4929 59.2747 87.502 60.3286 87.7666C61.4797 88.0556 62.5773 88.8084 63.4201 89.8854C63.9515 90.5682 65.188 92.8964 64.5342 95.4841C63.9953 97.6143 62.3611 99.2893 59.6765 100.463C58.4855 100.983 57.3571 101.198 56.3039 101.198ZM50.7975 96.9696C52.4232 98.5491 55.3553 100.488 58.9914 98.8984C61.1679 97.9471 62.4755 96.6578 62.8778 95.0653C63.37 93.12 62.3691 91.3141 62.0743 90.9369C61.721 90.4857 60.9704 89.6852 59.912 89.4223C58.9163 89.1725 57.875 89.4661 56.816 90.2939C56.0256 90.9118 55.6677 91.932 55.2888 93.0113C54.6577 94.8098 53.8998 96.9696 50.8237 96.9696H50.7975Z" fill="#263238"/>
<path d="M63.5189 90.6671C63.3733 90.8821 63.2526 91.0358 63.1161 91.2059C62.9795 91.376 62.8469 91.5313 62.7109 91.6901C62.4361 92.0047 62.1504 92.3051 61.8574 92.5964C61.2756 93.1735 60.6526 93.7074 59.9933 94.1941C59.6723 94.4422 59.3269 94.6595 58.9924 94.8837C58.6413 95.0862 58.3061 95.3064 57.9425 95.48C57.2392 95.8629 56.4875 96.1422 55.7461 96.3903C56.4107 95.9676 57.0548 95.5312 57.6239 95.01C57.9209 94.7676 58.1849 94.4831 58.4598 94.2208C58.7175 93.9364 58.9815 93.6655 59.2183 93.3674C59.7004 92.7887 60.1397 92.1756 60.5327 91.533C60.7267 91.2133 60.9105 90.8907 61.0801 90.5658C61.1626 90.4014 61.2463 90.2381 61.3208 90.0736C61.3953 89.9092 61.4739 89.7323 61.5177 89.6077C61.571 89.4541 61.6564 89.3136 61.7683 89.1956C61.8802 89.0776 62.0159 88.9848 62.1664 88.9234C62.317 88.862 62.4789 88.8334 62.6414 88.8394C62.8039 88.8455 62.9632 88.8861 63.1087 88.9586C63.2543 89.031 63.3827 89.1337 63.4855 89.2597C63.5883 89.3857 63.663 89.5321 63.7047 89.6892C63.7464 89.8464 63.7542 90.0106 63.7274 90.171C63.7007 90.3313 63.6401 90.4842 63.5497 90.6193L63.5189 90.6671Z" fill="#263238"/>
<path d="M84.7759 90.0628C84.7759 90.0628 82.7058 97.7092 75.8952 97.0816C69.2377 96.4734 69.2211 91.5302 69.628 89.7345C69.6567 89.6082 69.6926 89.4836 69.7355 89.3613C69.8243 89.1112 69.9302 88.8674 70.0525 88.6319C70.4315 87.8968 70.9942 87.1981 71.7635 86.7429C72.1692 86.5025 72.6178 86.3431 73.0842 86.2735C73.8052 86.1597 74.645 86.2308 75.6152 86.579C76.8369 87.0143 77.6204 88.0663 78.3898 89.0614C78.5992 89.3306 78.8086 89.5963 79.0231 89.8449C80.2169 91.2195 81.6508 92.0508 84.7759 90.0628Z" fill="#0D7377"/>
<g opacity="0.6">
<path opacity="0.6" d="M77.5087 92.9478C76.8162 93.372 75.997 93.5403 75.1934 93.4235C74.5049 93.3211 73.5956 92.9569 73.1904 92.3578C73.3611 92.281 73.9615 92.6326 74.1669 92.6992C75.2452 93.0464 76.3908 93.1318 77.5087 92.9484V92.9478Z" fill="white"/>
</g>
<g opacity="0.6">
<path opacity="0.6" d="M78.3895 89.0614C75.5188 89.5114 73.9039 87.7215 73.084 86.2735C73.8049 86.1597 74.6448 86.2308 75.615 86.579C76.8367 87.0143 77.6202 88.0663 78.3895 89.0614Z" fill="white"/>
</g>
<g opacity="0.2">
<path opacity="0.2" d="M84.7759 90.0628C84.7759 90.0628 82.7058 97.7091 75.8952 97.0816C69.2377 96.4733 69.2211 91.5302 69.628 89.7345C70.2869 91.1655 71.322 92.424 72.6967 93.2189C74.7162 94.3892 77.4281 94.4006 79.3144 93.0209C77.2659 92.9412 75.1885 92.5993 73.3642 91.6633C72.0179 90.9732 70.8161 89.9268 70.0525 88.6319C70.4315 87.8968 70.9942 87.1981 71.7635 86.7429C72.1536 86.9549 72.5166 87.2132 72.8447 87.5122C73.668 88.2473 74.3861 89.1354 75.3734 89.627C76.4904 90.1789 77.8168 90.1448 79.0214 89.8449C80.2169 91.2195 81.6508 92.0508 84.7759 90.0628Z" fill="#263238"/>
</g>
<path d="M76.6795 97.9727C76.3995 97.9727 76.1104 97.9601 75.8163 97.9328C72.8983 97.6648 70.8191 96.5895 69.6373 94.7375C68.2011 92.4872 68.6409 89.8859 68.9311 89.0734C69.3915 87.7853 70.1966 86.7253 71.1975 86.0886C72.1136 85.5054 73.6745 84.978 75.901 85.7739C77.3162 86.2798 78.2016 87.424 78.9829 88.4361C80.3718 90.2335 81.21 91.3186 84.3163 89.3431C84.4615 89.2509 84.6312 89.2047 84.8032 89.2106C84.9751 89.2166 85.1413 89.2743 85.2798 89.3763C85.4184 89.4783 85.5229 89.6198 85.5796 89.7822C85.6363 89.9446 85.6426 90.1204 85.5977 90.2864C85.5761 90.3667 83.4366 97.9721 76.6795 97.9727ZM73.7297 87.0752C73.1583 87.0674 72.5969 87.2255 72.1136 87.5304C71.193 88.1164 70.7315 89.1092 70.5386 89.6492C70.3776 90.0998 69.9963 92.1288 71.0763 93.8203C71.9594 95.2046 73.6068 96.0171 75.9699 96.2339C79.9189 96.5975 82.0948 93.834 83.1395 91.8227C80.2023 92.8104 78.7979 90.9931 77.6292 89.4808C76.9293 88.575 76.2686 87.717 75.3241 87.3824C74.7547 87.1776 74.2232 87.0752 73.7297 87.0752Z" fill="#263238"/>
<path d="M70.6469 88.211C70.7277 88.3169 70.8602 88.4642 70.9809 88.5911C71.1015 88.718 71.2335 88.8523 71.3638 88.982C71.6278 89.2397 71.9044 89.4878 72.1889 89.7302C72.7642 90.2165 73.3743 90.6602 74.0143 91.0576C74.3329 91.2664 74.6687 91.4411 75.0032 91.6266C75.3447 91.7887 75.6861 91.9759 76.0451 92.1125C76.7518 92.4271 77.4984 92.6388 78.2643 92.8305C77.4819 92.8265 76.6807 92.7986 75.8921 92.6564C75.4937 92.6063 75.1051 92.5028 74.7074 92.4214C74.3199 92.3139 73.9238 92.216 73.5409 92.08C72.7618 91.8259 72.0022 91.5154 71.2682 91.1509C70.9001 90.966 70.5342 90.7708 70.174 90.5592C69.9948 90.4516 69.8149 90.3441 69.6374 90.2269C69.4599 90.1097 69.2915 89.9993 69.0855 89.8423L69.0434 89.8104C68.9241 89.7189 68.8241 89.6048 68.749 89.4747C68.6738 89.3445 68.6251 89.2009 68.6055 89.0519C68.5859 88.9029 68.5958 88.7515 68.6347 88.6063C68.6736 88.4612 68.7408 88.3251 68.8323 88.2059C68.9238 88.0867 69.0378 87.9867 69.168 87.9116C69.2982 87.8364 69.4418 87.7877 69.5908 87.7681C69.7399 87.7485 69.8913 87.7584 70.0364 87.7973C70.1816 87.8362 70.3177 87.9033 70.4369 87.9948C70.5156 88.0578 70.5862 88.1305 70.6469 88.211V88.211Z" fill="#263238"/>
<path d="M66.443 94.6153C69.2544 94.6153 71.5334 92.6528 71.5334 90.232C71.5334 87.8111 69.2544 85.8486 66.443 85.8486C63.6316 85.8486 61.3525 87.8111 61.3525 90.232C61.3525 92.6528 63.6316 94.6153 66.443 94.6153Z" fill="#0D7377"/>
<g opacity="0.6">
<path opacity="0.6" d="M66.2897 88.8968C67.2102 88.8968 67.9564 88.534 67.9564 88.0866C67.9564 87.6391 67.2102 87.2764 66.2897 87.2764C65.3692 87.2764 64.623 87.6391 64.623 88.0866C64.623 88.534 65.3692 88.8968 66.2897 88.8968Z" fill="white"/>
</g>
<g opacity="0.2">
<path opacity="0.2" d="M71.534 90.1677C71.534 92.588 69.2545 94.5487 66.4436 94.5487C63.6326 94.5487 61.3525 92.5858 61.3525 90.1677C61.3526 89.594 61.4811 89.0277 61.7287 88.5103C62.4894 90.1079 64.3137 91.2339 66.4436 91.2339C68.5734 91.2339 70.3971 90.1079 71.1579 88.5103C71.4055 89.0277 71.534 89.594 71.534 90.1677V90.1677Z" fill="#263238"/>
</g>
<path d="M66.4426 95.4687C63.165 95.4687 60.498 93.1195 60.498 90.2342C60.498 87.349 63.165 84.9998 66.4426 84.9998C69.7202 84.9998 72.3866 87.349 72.3866 90.2342C72.3866 93.1195 69.7202 95.4687 66.4426 95.4687ZM66.4426 86.7021C64.1062 86.7021 62.2051 88.2855 62.2051 90.2297C62.2051 92.1738 64.1062 93.7573 66.4426 93.7573C68.779 93.7573 70.6795 92.1738 70.6795 90.2297C70.6795 88.2855 68.779 86.7021 66.4426 86.7021V86.7021Z" fill="#263238"/>
<path d="M103.412 69.9123C103.398 69.9379 103.46 69.9515 103.493 69.9692C103.534 69.984 103.577 69.9976 103.622 70.009C103.714 70.0328 103.808 70.0507 103.902 70.0625C104.098 70.0885 104.296 70.0894 104.491 70.0653C104.698 70.0397 104.899 69.9775 105.084 69.8815C105.284 69.7848 105.454 69.6301 105.622 69.4429C105.642 69.705 105.613 69.9686 105.537 70.2201C105.451 70.4956 105.319 70.7547 105.147 70.9865C104.969 71.2281 104.762 71.4471 104.531 71.6385C104.413 71.7373 104.29 71.829 104.161 71.9133C104.097 71.9571 104.029 71.9981 103.959 72.0385C103.878 72.0869 103.792 72.1269 103.703 72.158C103.405 72.1965 103.104 72.1153 102.867 71.9321C102.629 71.749 102.474 71.4789 102.435 71.1813C102.397 70.8838 102.478 70.5831 102.661 70.3454C102.844 70.1077 103.114 69.9525 103.412 69.914V69.9123Z" fill="#263238"/>
<path d="M84.3288 54.8093C83.7453 55.0719 83.1777 55.3686 82.6292 55.6981C82.1007 56.0169 81.5993 56.3785 81.1298 56.7791C80.8942 56.9709 80.6877 57.1882 80.472 57.3947C80.2802 57.6223 80.0657 57.8294 79.8979 58.0735C79.5217 58.5321 79.2475 59.0584 78.9789 59.5898L77.7441 58.5503C77.8839 58.4667 78.0289 58.3922 78.1783 58.3273C78.3154 58.2641 78.4531 58.2135 78.5908 58.1566C78.8657 58.0556 79.1466 57.9716 79.4318 57.9051C79.9983 57.7715 80.58 57.7141 81.1616 57.7344C81.7386 57.7646 82.3145 57.8391 82.8539 58.028C83.3996 58.1867 83.9009 58.4598 84.3613 58.7591C84.4175 58.7955 84.4595 58.8501 84.4801 58.9138C84.5008 58.9775 84.4988 59.0464 84.4745 59.1088C84.4502 59.1712 84.4051 59.2233 84.3469 59.2563C84.2886 59.2893 84.2207 59.3012 84.1547 59.29L84.12 59.2843C83.8651 59.241 83.6249 59.1705 83.3803 59.1369C83.1356 59.1033 82.8932 59.0607 82.6496 59.0527C82.1735 59.0154 81.6947 59.031 81.222 59.0994C80.7567 59.1575 80.2989 59.2649 79.8563 59.4197C79.6361 59.4942 79.4222 59.5841 79.2128 59.6769C79.1103 59.7258 79.0062 59.7736 78.9095 59.8276C78.8127 59.8817 78.704 59.9414 78.6528 59.9761L78.6369 59.9858C78.5433 60.0447 78.439 60.0845 78.33 60.103C78.221 60.1216 78.1094 60.1184 78.0016 60.0938C77.8937 60.0692 77.7919 60.0235 77.7017 59.9595C77.6115 59.8955 77.5349 59.8143 77.4761 59.7207C77.4044 59.6041 77.3617 59.4719 77.3518 59.3353C77.3419 59.1988 77.365 59.0618 77.4192 58.9361C77.7162 58.2573 78.0565 57.5814 78.5396 57.0073C78.7575 56.7023 79.0375 56.452 79.2953 56.1845C79.5798 55.9473 79.8563 55.6986 80.1693 55.5018C80.7715 55.0931 81.4296 54.7736 82.1233 54.5533C82.8141 54.3439 83.5072 54.2119 84.2435 54.2341C84.3097 54.2357 84.3734 54.2597 84.4242 54.3022C84.475 54.3447 84.5099 54.4032 84.5231 54.4681C84.5363 54.533 84.5271 54.6005 84.497 54.6595C84.4669 54.7185 84.4176 54.7655 84.3573 54.7928L84.3288 54.8093Z" fill="#263238"/>
<path d="M59.2839 61.0289C59.4512 58.0175 57.7277 55.473 55.4343 55.3456C53.1409 55.2182 51.1461 57.5561 50.9787 60.5675C50.8114 63.5788 52.5349 66.1233 54.8284 66.2507C57.1218 66.3781 59.1166 64.0402 59.2839 61.0289Z" fill="#263238"/>
<path d="M57.4068 59.907C57.4555 59.0276 56.9519 58.2846 56.282 58.2475C55.6121 58.2104 55.0295 58.8932 54.9808 59.7726C54.9321 60.6521 55.4357 61.3951 56.1056 61.4322C56.7755 61.4693 57.3581 60.7864 57.4068 59.907Z" fill="white"/>
<path d="M104.425 72.3368C104.414 72.351 104.425 72.3493 104.436 72.3504C104.446 72.3518 104.457 72.3518 104.467 72.3504C104.492 72.3485 104.516 72.3451 104.54 72.3402C104.591 72.3316 104.643 72.3174 104.697 72.3038C104.807 72.2719 104.916 72.2339 105.021 72.19C105.246 72.0983 105.459 71.9825 105.658 71.8446C105.871 71.7006 106.066 71.5322 106.24 71.3428C106.427 71.1418 106.59 70.9206 106.727 70.6833C106.772 70.9719 106.784 71.2644 106.764 71.5556C106.745 71.8641 106.691 72.1695 106.603 72.4659C106.514 72.7781 106.393 73.0803 106.242 73.3677C106.164 73.5174 106.078 73.663 105.985 73.8041C105.936 73.8758 105.887 73.9481 105.831 74.0203C105.805 74.0556 105.774 74.0926 105.744 74.1296C105.729 74.1478 105.713 74.1666 105.693 74.1865C105.671 74.2114 105.647 74.2344 105.621 74.2553C105.367 74.4058 105.064 74.4507 104.776 74.3805C104.489 74.3102 104.241 74.1303 104.085 73.8793C103.929 73.6284 103.877 73.3262 103.941 73.0376C104.005 72.749 104.179 72.4968 104.426 72.3351L104.425 72.3368Z" fill="#263238"/>
</svg>
