<svg width="347" height="324" viewBox="0 0 347 324" fill="none" xmlns="http://www.w3.org/2000/svg">
<g clip-path="url(#clip0)">
<path d="M73.8149 163.876L76.4163 166.826L80.3256 166.355L78.3195 169.746L79.9802 173.321L76.137 172.46L73.2564 175.138L72.889 171.217L69.45 169.304L73.058 167.738L73.8149 163.876Z" stroke="#263238" stroke-width="2" stroke-miterlimit="10"/>
<path d="M231.101 28.9457L233.798 31.8071L237.685 31.204L235.796 34.6613L237.575 38.1774L233.709 37.4492L230.917 40.2223L230.417 36.3163L226.919 34.5215L230.469 32.837L231.101 28.9457Z" stroke="#263238" stroke-width="2" stroke-miterlimit="10"/>
<path d="M187.885 160.374L187.818 163.052L189.979 164.619L187.414 165.384L186.591 167.929L185.077 165.73H182.403L184.027 163.604L183.196 161.058L185.717 161.949L187.885 160.374Z" stroke="#263238" stroke-width="2" stroke-miterlimit="10"/>
<path d="M247.936 139.66L247.796 145.258L252.33 148.546L246.966 150.15L245.239 155.475L242.064 150.863L236.465 150.87L239.867 146.42L238.133 141.094L243.416 142.955L247.936 139.66Z" stroke="#263238" stroke-width="2" stroke-miterlimit="10"/>
<path d="M284.935 115.224L287.397 116.989L290.255 115.959L289.337 118.857L291.196 121.255L288.161 121.27L286.456 123.786L285.501 120.902L282.591 120.056L285.031 118.254L284.935 115.224Z" stroke="#263238" stroke-width="2" stroke-miterlimit="10"/>
<path d="M263.904 62.2681L263.831 65.3061L266.285 67.0862L263.375 67.9542L262.442 70.8451L260.722 68.3441H257.687L259.532 65.9313L258.591 63.0478L261.45 64.0556L263.904 62.2681Z" stroke="#263238" stroke-width="2" stroke-miterlimit="10"/>
<path d="M153.215 31.7997L153.119 35.7352L156.301 38.0449L152.531 39.1704L151.319 42.9146L149.085 39.6706L145.153 39.678L147.542 36.5517L146.322 32.8075L150.033 34.1169L153.215 31.7997Z" stroke="#263238" stroke-width="2" stroke-miterlimit="10"/>
<path d="M116.605 64.4013L119.684 66.8435L123.446 65.6812L122.079 69.3739L124.343 72.5958L120.411 72.434L118.052 75.5823L116.987 71.794L113.269 70.5141L116.539 68.3367L116.605 64.4013Z" stroke="#263238" stroke-width="2" stroke-miterlimit="10"/>
<path d="M220.328 95.4655C219.792 100.367 220.72 105.318 222.994 109.691C225.269 114.065 228.788 117.665 233.107 120.036C237.425 122.408 242.35 123.444 247.257 123.014C252.164 122.583 256.833 120.706 260.674 117.62C264.515 114.533 267.356 110.375 268.836 105.672C270.317 100.969 270.371 95.9328 268.991 91.1992C267.612 86.4656 264.862 82.2478 261.088 79.0791C257.314 75.9105 252.686 73.9333 247.789 73.3977C241.224 72.6796 234.643 74.601 229.494 78.7394C224.344 82.8777 221.047 88.8942 220.328 95.4655V95.4655Z" stroke="#263238" stroke-width="2" stroke-miterlimit="10"/>
<path d="M220.328 95.4655C220.855 90.6056 222.797 86.0078 225.913 82.2439C229.029 78.4799 233.181 75.7158 237.854 74.2951C233.95 64.3278 226.834 55.9498 217.635 50.4888C208.436 45.0278 197.679 42.7961 187.069 44.1474C176.46 45.4987 166.604 50.3557 159.064 57.9486C151.524 65.5416 146.731 75.4363 145.444 86.0647C144.158 96.6932 146.452 107.447 151.962 116.623C157.472 125.799 165.884 132.872 175.864 136.72C185.845 140.569 196.822 140.973 207.058 137.869C217.294 134.766 226.203 128.331 232.372 119.586C228.264 117.145 224.945 113.574 222.81 109.297C220.674 105.02 219.812 100.219 220.328 95.4655V95.4655Z" stroke="#263238" stroke-width="2" stroke-miterlimit="10"/>
<path d="M290.454 87.1018C289.638 83.7548 279.938 83.0339 266.167 84.7185L267.115 86.4692C277.484 84.998 284.898 86.1897 285.332 87.9404C286.067 90.8827 268.622 97.6723 246.385 103.094C224.149 108.515 205.579 110.523 204.859 107.581C204.426 105.793 210.268 101.328 220.225 97.8782V95.8921C207.189 100.747 198.914 105.874 199.701 109.221C200.928 114.253 222.231 113.37 247.289 107.25C272.347 101.13 291.674 92.1333 290.454 87.1018Z" stroke="#263238" stroke-width="2" stroke-miterlimit="10"/>
<path d="M164.127 118.431C164.036 118.023 163.991 117.606 163.995 117.188C163.995 114.245 164.553 114.687 163.444 114.687C158.05 114.687 155.713 109.015 155.713 105.227C155.713 103.02 157.102 100.813 159.593 100.813C162.452 100.813 163.157 104.05 166.64 104.594C171.262 105.33 170.234 110.987 172.519 114.657C175.569 119.586 184.894 123.837 184.894 127.162C184.894 128.633 182.447 129.862 180.33 129.862C178.214 129.862 177.553 128.472 176.34 128.472H176.289H175.554C169.256 128.516 165.465 124.146 164.127 118.431Z" stroke="#263238" stroke-width="2" stroke-miterlimit="10"/>
<path d="M188.855 116.268C188.488 115.977 188.189 115.61 187.977 115.192C187.766 114.774 187.646 114.316 187.627 113.848C187.627 112.075 189.714 111.479 190.956 111.479C193.286 111.479 195.02 113.524 195.02 115.076C195.02 116.842 193.425 117.085 191.559 117.085C190.59 117.137 189.633 116.848 188.855 116.268V116.268Z" stroke="#263238" stroke-width="2" stroke-miterlimit="10"/>
<path d="M153.097 91.9494C152.846 91.8737 152.622 91.7261 152.454 91.5248C152.286 91.3235 152.18 91.0773 152.149 90.8166C152.149 89.2571 154.552 86.7046 156.815 86.7046C157.785 86.7046 158.094 88.9114 158.094 89.875C158.094 91.4271 157.359 94.7226 155.838 94.7226C154.449 94.7226 153.06 93.0601 153.06 92.2657C153.059 92.1591 153.071 92.0527 153.097 91.9494V91.9494Z" stroke="#263238" stroke-width="2" stroke-miterlimit="10"/>
<path d="M208.027 72.6768C207.292 71.7527 206.867 70.62 206.814 69.4402C206.796 69.1179 206.846 68.7953 206.962 68.494C207.077 68.1927 207.256 67.9195 207.485 67.6926C207.715 67.4657 207.99 67.2904 208.292 67.1782C208.595 67.0661 208.917 67.0197 209.239 67.0421C212.281 67.0421 212.803 72.6694 212.803 73.5227C212.803 75.038 212.017 76.7667 210.481 76.7667C210.186 76.7745 209.895 76.7037 209.637 76.5615C209.378 76.4193 209.162 76.2108 209.011 75.9575C208.401 74.8983 208.798 73.6404 208.027 72.6768Z" stroke="#263238" stroke-width="2" stroke-miterlimit="10"/>
<path d="M179.412 60.3188C179.408 60.2821 179.408 60.2451 179.412 60.2084C179.412 59.0388 182.351 58.3032 183.571 58.3032C185.585 58.3032 187.554 59.3698 187.554 61.3927C187.554 62.5402 186.643 64.5631 182.579 64.5631C181.683 64.5631 180.749 64.5043 179.875 64.5043C179.418 64.4983 178.962 64.5228 178.508 64.5778H178.413C177.869 64.5778 177.509 63.9599 177.509 63.3788C177.506 63.2121 177.539 63.0467 177.604 62.8933C177.938 61.8747 178.568 60.9785 179.412 60.3188V60.3188Z" stroke="#263238" stroke-width="2" stroke-miterlimit="10"/>
<path d="M198.466 53.3233C198.217 53.8461 198.096 54.4212 198.114 55.0004C198.114 55.5595 198.187 56.1186 198.187 56.6776C198.248 56.9748 198.402 57.2449 198.626 57.4486C198.851 57.6523 199.135 57.7791 199.436 57.8104C200.627 57.5361 201.844 57.393 203.066 57.3838C208.019 57.3838 212.436 59.7156 217.447 60.591C217.638 60.5398 217.812 60.4416 217.955 60.3054C218.097 60.1692 218.203 59.9992 218.263 59.8112C218.267 59.7918 218.267 59.7718 218.263 59.7524C215.324 52.5803 196.46 46.9163 195.336 46.9163C194.212 46.9163 193.506 47.2841 193.506 48.3874C193.515 48.7435 193.579 49.096 193.697 49.432C194.439 51.6829 197.9 50.528 198.466 53.3233Z" stroke="#263238" stroke-width="2" stroke-miterlimit="10"/>
<path d="M157.146 69.5284C157.984 68.7928 162.136 64.6588 162.136 66.7111C162.136 68.1234 162.87 69.3887 162.87 70.6318C162.87 72.9122 159.828 75.8987 156.316 75.8987C155.008 75.8987 152.994 75.2955 152.994 74.0597C152.987 72.5591 155.831 70.7348 157.146 69.5284Z" stroke="#263238" stroke-width="2" stroke-miterlimit="10"/>
<path d="M189.81 81.2685C190.453 80.9825 191.149 80.8346 191.853 80.8345C195.659 80.8345 199.04 90.64 199.04 91.4785C199.04 95.1565 195.123 98.7756 190.339 98.7756C185.371 98.7756 180.962 94.4945 180.962 87.955C180.962 83.8431 182.557 80.2092 186.496 80.2092C187.681 80.2258 188.834 80.5945 189.81 81.2685V81.2685Z" stroke="#263238" stroke-width="2" stroke-miterlimit="10"/>
<path d="M211.973 97.1868C211.6 97.2022 211.229 97.1265 210.893 96.9661L210.709 97.0249C210.709 96.944 210.657 96.8631 210.635 96.7895L210.569 96.7233C210.392 96.4966 210.262 96.2365 210.188 95.9584C210.113 95.6803 210.096 95.3901 210.136 95.105V94.9653H210.217C210.217 94.7593 210.217 94.568 210.217 94.3694C210.217 92.3539 211.37 90.2648 213.296 90.2648C213.579 90.2711 213.858 90.3366 214.114 90.457C214.371 90.5774 214.6 90.7501 214.786 90.964C214.972 91.178 215.111 91.4285 215.195 91.6995C215.279 91.9705 215.305 92.256 215.272 92.5378C215.243 94.4136 214.199 97.1868 211.973 97.1868ZM211.238 96.3703C211.468 96.4768 211.72 96.5272 211.973 96.5174C213.67 96.5174 214.574 94.2076 214.574 92.5378C214.574 91.5595 214.06 90.9269 213.266 90.9269C211.796 90.9269 210.856 92.7144 210.856 94.3694C210.87 95.0476 210.986 95.7197 211.201 96.3629L211.238 96.3703Z" fill="#263238"/>
<path d="M193.999 132.128C193.999 133.599 197.107 133.797 198.084 133.797C201.758 133.797 203.419 131.465 203.419 129.722C203.419 128.251 201.611 127.596 200.605 127.596C198.143 127.596 195.924 130.421 193.999 132.128Z" stroke="#263238" stroke-width="2" stroke-miterlimit="10"/>
<path d="M169.984 122.351C171.028 123.344 172.396 123.924 173.834 123.984C175.106 123.984 176.039 123.653 176.039 122.366C176.039 121.241 173.915 120.211 171.916 120.211C170.66 120.211 169.624 120.299 169.624 121.491C169.619 121.652 169.649 121.812 169.711 121.96C169.773 122.108 169.866 122.242 169.984 122.351V122.351Z" stroke="#263238" stroke-width="2" stroke-miterlimit="10"/>
<path d="M85.1095 58.215C85.1095 58.215 84.8744 59.311 84.4482 61.2456C84.3453 61.7238 84.2204 62.2607 84.0954 62.8419C83.9705 63.423 83.9117 64.0629 83.8089 64.7397C83.706 65.4164 83.6178 66.1373 83.5149 66.9023C83.4635 67.2775 83.412 67.6379 83.3533 68.0646C83.2945 68.4912 83.3018 68.8811 83.2798 69.3004C83.2283 70.1463 83.1842 71.0217 83.1328 71.9265C83.1328 72.3825 83.0667 72.8386 83.0667 73.3094C83.0667 73.7802 83.0667 74.2509 83.1181 74.7364C83.1181 75.6927 83.1769 76.6857 83.2063 77.6788C83.2357 78.6719 83.4194 79.7164 83.5149 80.7609C83.7435 82.9085 84.0993 85.0406 84.5804 87.1459C84.6787 87.689 84.8138 88.2248 84.9846 88.7495L85.4476 90.3531C85.7283 91.4364 86.0718 92.5023 86.4763 93.5456L87.6521 96.6792C88.0489 97.6943 88.5853 98.7095 89.0409 99.7172C89.4965 100.725 90.055 101.659 90.5768 102.608C90.834 103.079 91.0985 103.542 91.3557 104.006C91.6129 104.469 91.9362 104.896 92.2228 105.337C92.818 106.198 93.3324 107.095 93.957 107.897C94.5817 108.699 95.1622 109.493 95.7354 110.266C96.3085 111.038 96.9772 111.737 97.5651 112.392L98.4469 113.399C98.7335 113.73 99.0568 114.017 99.3508 114.319C100.556 115.496 101.629 116.606 102.694 117.474C103.76 118.342 104.612 119.174 105.428 119.733L107.912 121.594L105.325 119.902C104.487 119.38 103.569 118.607 102.481 117.754C101.952 117.313 101.335 116.908 100.784 116.364L98.9981 114.701C98.6968 114.407 98.3587 114.128 98.0575 113.804L97.1463 112.811C96.529 112.127 95.8603 111.457 95.2357 110.707C94.6111 109.957 94.0085 109.162 93.3692 108.36C93.0425 107.958 92.7383 107.538 92.458 107.103L91.5761 105.786C91.2822 105.345 90.9736 104.903 90.687 104.447L89.8713 102.983C89.3349 102.027 88.7397 101.078 88.2914 100.041C87.8431 99.0037 87.2994 98.0621 86.8658 96.9882C86.4322 95.9142 86.0428 94.8696 85.6386 93.8104C85.2354 92.7506 84.8968 91.6673 84.6245 90.5664C84.4702 90.0147 84.3232 89.4704 84.1689 88.9334C84.0039 88.3951 83.8713 87.8473 83.7721 87.293C83.3044 85.1549 82.9633 82.9909 82.7507 80.8124C82.6625 79.7532 82.5008 78.716 82.4788 77.6935C82.4567 76.671 82.4788 75.6633 82.4788 74.6923C82.4788 74.2068 82.4788 73.7213 82.4788 73.2211C82.4788 72.7209 82.5449 72.2795 82.5743 71.8235C82.6552 70.9113 82.7213 70.0286 82.7948 69.1827C82.7948 68.756 82.8536 68.3441 82.905 67.9395C82.9564 67.535 83.0446 67.1451 83.1108 66.7626C83.243 66.027 83.3753 65.2914 83.5002 64.5999C83.6251 63.9085 83.706 63.2759 83.8676 62.7094C84.0293 62.143 84.1689 61.6061 84.3012 61.1279C84.8082 59.2963 85.1095 58.215 85.1095 58.215Z" fill="#263238"/>
<path d="M169.962 20.2804L167.081 19.1255L165.567 18.5149C165.016 18.2795 164.392 18.1324 163.745 17.9191L161.665 17.2791L160.534 16.9187C160.144 16.8157 159.74 16.7348 159.328 16.6392L156.771 16.0654C156.323 15.9698 155.882 15.8521 155.419 15.7785L154.008 15.5873L151.069 15.19C150.069 15.0797 149.033 15.065 147.983 14.9914C145.831 14.8627 143.674 14.8627 141.523 14.9914C140.97 14.999 140.417 15.0432 139.87 15.1238L138.216 15.3225C137.103 15.4183 135.996 15.5804 134.902 15.8079L131.618 16.4553C130.552 16.6833 129.464 17.0437 128.399 17.3306C127.333 17.6175 126.319 18.0147 125.298 18.3678L123.828 18.9122C123.336 19.1181 122.858 19.3388 122.359 19.5448C121.403 19.9935 120.433 20.3539 119.544 20.8394L116.921 22.2076C116.076 22.671 115.297 23.2007 114.525 23.6788L113.386 24.4144C113.011 24.6424 112.651 24.9146 112.335 25.15C110.976 26.143 109.705 27.0184 108.661 27.9305C107.618 28.8427 106.67 29.5488 105.986 30.2624L103.782 32.403L105.898 30.1373C106.718 29.2751 107.582 28.4551 108.485 27.6804C109.006 27.2244 109.506 26.6874 110.138 26.2093L112.063 24.7381C112.401 24.488 112.732 24.2084 113.107 23.9583L114.231 23.2227C114.966 22.7299 115.774 22.1708 116.619 21.6853L119.235 20.2142C119.684 19.9559 120.148 19.725 120.624 19.5227L122.094 18.868C122.586 18.6547 123.064 18.4193 123.564 18.206L125.1 17.6396C126.136 17.2718 127.172 16.8304 128.237 16.5582C129.303 16.2861 130.354 15.9036 131.485 15.6461L134.814 14.9547C135.927 14.742 137.051 14.5873 138.18 14.4912L139.863 14.3147C140.418 14.2365 140.977 14.1947 141.538 14.1896C143.722 14.08 145.911 14.0996 148.093 14.2485C149.158 14.3294 150.202 14.3441 151.216 14.4912L154.155 14.9694L155.573 15.2048C156.044 15.293 156.492 15.4254 156.933 15.5284L159.461 16.1831C159.872 16.2934 160.276 16.3817 160.666 16.4994L161.79 16.8966L163.862 17.6322C164.502 17.875 165.126 18.0515 165.663 18.309L167.133 18.9931L169.962 20.2804Z" fill="#263238"/>
<g style="mix-blend-mode:multiply" opacity="0.8">
<path d="M293.246 278.79C293.246 275.848 287.933 273.479 281.379 273.479C274.824 273.479 269.511 275.848 269.511 278.79C269.511 281.733 274.824 284.101 281.379 284.101C287.933 284.101 293.246 281.733 293.246 278.79Z" fill="#725E4A"/>
</g>
<g style="mix-blend-mode:multiply" opacity="0.8">
<path d="M58.3171 305.676C81.6003 305.676 100.475 300.42 100.475 293.936C100.475 287.452 81.6003 282.196 58.3171 282.196C35.0339 282.196 16.1592 287.452 16.1592 293.936C16.1592 300.42 35.0339 305.676 58.3171 305.676Z" fill="#725E4A"/>
</g>
<g style="mix-blend-mode:multiply" opacity="0.8">
<path d="M260.796 236.692C249.92 236.692 240.742 239.855 237.78 244.195L232.122 244.541C230.263 243.158 226.831 242.224 222.9 242.224C222.163 242.226 221.428 242.265 220.695 242.342C220.624 241.779 220.519 241.221 220.379 240.672C224.098 239.936 226.692 238.311 226.692 236.405C226.692 233.816 221.9 231.72 215.992 231.72C210.084 231.72 205.3 233.816 205.3 236.405C205.3 238.995 210.084 241.091 215.992 241.091C216.595 241.091 217.183 241.091 217.756 241.018L218.542 242.651C215.654 243.224 213.435 244.335 212.597 245.703C210.463 245.008 208.228 244.668 205.984 244.696C202.368 244.696 199.172 245.483 197.239 246.689L181.506 247.653L181.411 245.255C184.96 244.791 187.554 243.357 187.554 241.65C187.554 239.576 183.711 237.891 178.971 237.891C178.618 237.891 178.273 237.891 177.935 237.891L187.414 236.42L208.453 224.783L161.665 209.644C161.665 209.644 135.571 220.134 130.067 223.216C128.326 224.187 127.635 225.07 127.51 225.835L103.26 228.454L85.5651 229.851C83.7414 228.771 81.7949 227.914 79.7672 227.299C78.0668 226.778 76.3051 226.483 74.5278 226.423C71.8015 226.342 62.7703 227.107 60.6687 227.159C59.8076 227.187 58.9501 227.283 58.1041 227.446C56.2596 227.578 54.6797 227.689 53.9449 227.711C53.2951 227.733 52.6473 227.794 52.0049 227.895C48.8569 225.949 45.4504 224.458 41.8861 223.466C39.4128 222.747 36.8554 222.359 34.2805 222.311C30.3564 222.267 17.4379 223.591 14.4397 223.746C5.29827 224.217 -0.646601 229.329 0.0588476 237.332C0.999446 248.072 13.5726 259.952 28.1372 263.858C31.3101 264.743 34.5953 265.159 37.8885 265.094C41.4525 264.991 54.2167 263.711 57.1929 263.144C59.1805 262.789 61.077 262.038 62.7703 260.937L111.63 269.86C108.176 271.604 106.089 273.855 106.089 276.311C106.089 281.865 116.678 286.36 129.737 286.36C142.795 286.36 153.376 281.865 153.376 276.311C153.376 270.758 142.795 266.285 129.737 266.285C126.323 266.275 122.917 266.601 119.566 267.256L66.6576 256.575C66.6744 256.54 66.6941 256.505 66.7164 256.472C69.5676 256.333 75.8579 255.884 78.8413 255.597C82.4641 255.354 87.4022 254.913 88.894 254.656C92.5682 254.038 95.2503 252.015 96.2938 248.955C105.692 248.145 118.339 247.02 118.633 246.998C119.555 246.946 120.471 246.823 121.374 246.63L158.601 249.153L157.131 251.846L161.812 251.573C156.764 252.427 153.171 254.575 153.171 257.083C153.171 260.356 159.218 262.968 166.684 262.968C173.577 262.968 179.258 260.702 180.081 257.774C181.55 259.201 184.776 260.195 188.561 260.195C193.705 260.195 197.849 258.37 197.849 256.127C197.849 254.023 194.175 252.287 189.516 252.081C189.593 251.365 189.568 250.642 189.442 249.933L195.321 249.595C195.615 252.066 200.274 254.008 205.991 254.008C207.339 254.011 208.684 253.895 210.011 253.662C205.212 254.906 201.986 257.193 201.986 259.812C201.986 263.762 209.298 266.962 218.322 266.962C227.346 266.962 234.65 263.762 234.65 259.812C234.65 255.862 227.338 252.662 218.322 252.662C216.103 252.655 213.889 252.857 211.708 253.265C213.913 252.647 215.588 251.676 216.279 250.529C218.414 251.222 220.648 251.563 222.893 251.537C228.411 251.537 232.96 249.705 233.526 247.351L236.759 247.167C236.759 252.978 247.517 257.686 260.788 257.686C274.06 257.686 284.825 252.978 284.825 247.167C284.825 241.356 274.096 236.692 260.796 236.692ZM126.907 243.666C128.443 241.797 128.539 239.326 126.819 236.707C124.945 233.853 121.315 231.418 117.105 229.895L129.494 228.549L129.582 228.593C129.582 228.593 162.04 236.817 166.559 238.053C171.079 239.289 171.902 238.877 171.902 238.877L174.363 238.487C171.983 239.157 170.403 240.319 170.403 241.65C170.403 243.725 174.246 245.409 178.986 245.409H179.243C179.332 246.223 179.558 247.017 179.912 247.756L168.713 248.44L170.513 245.541L126.907 243.666ZM179.5 255.251C177.876 253.045 173.467 251.463 168.117 251.213L187.223 250.102L187.554 252.14C183.6 252.309 180.375 253.559 179.5 255.251Z" fill="#725E4A"/>
</g>
<path d="M121.778 261.423L119.5 265.66L113.93 262.806L116.642 259.606L121.778 261.423Z" fill="#38220F"/>
<path d="M164.45 237.869L160.328 238.995L157.991 242.025L165.435 243.151L164.45 237.869Z" fill="#38220F"/>
<path d="M175.458 193.388C174.158 193.032 172.779 193.089 171.512 193.55L141.619 204.495C141.495 204.542 141.391 204.629 141.322 204.743C141.253 204.856 141.224 204.989 141.239 205.121C141.254 205.252 141.313 205.375 141.406 205.47C141.498 205.564 141.62 205.625 141.751 205.643L144.235 205.959L148.019 221.649L146.55 222.79C146.371 222.927 146.234 223.112 146.154 223.324C146.074 223.535 146.055 223.764 146.099 223.986C146.142 224.208 146.247 224.413 146.4 224.578C146.554 224.744 146.751 224.863 146.969 224.923L187.179 235.957C187.801 236.129 188.452 236.169 189.091 236.077C189.729 235.985 190.342 235.761 190.89 235.42C196.144 232.161 211.708 222.51 214.986 220.377C216.83 219.178 219.137 213.175 217.293 208.512C215.772 204.679 183.858 195.668 175.458 193.388Z" fill="#684622"/>
<path d="M187.164 235.942C187.787 236.112 188.437 236.152 189.076 236.06C189.714 235.967 190.327 235.744 190.875 235.405C196.13 232.146 211.693 222.495 214.971 220.362C215.348 220.09 215.672 219.751 215.926 219.362C217.183 215.382 218.234 209.416 214.045 207.592L151.642 200.817L141.619 204.495C141.533 204.537 141.458 204.598 141.398 204.672L141.656 205.599C141.656 205.599 141.714 205.643 141.751 205.643L144.235 205.959L148.019 221.649L147.505 222.047L152.862 226.541L187.164 235.942Z" fill="url(#paint0_linear)"/>
<path d="M216.639 218.133L188.384 233.25L147.968 221.48L148.012 221.649L146.542 222.79C146.363 222.926 146.225 223.11 146.144 223.32C146.064 223.531 146.044 223.76 146.087 223.981C146.13 224.203 146.234 224.409 146.387 224.575C146.54 224.741 146.736 224.862 146.954 224.923L187.164 235.957C187.787 236.127 188.437 236.167 189.076 236.074C189.714 235.982 190.327 235.759 190.875 235.42C195.689 232.477 209.114 224.114 213.861 221.09L216 219.273C216.238 218.908 216.451 218.527 216.639 218.133Z" fill="url(#paint1_linear)"/>
<g style="mix-blend-mode:hard-light">
<g style="mix-blend-mode:multiply" opacity="0.6">
<path d="M188.384 233.25L188.208 227.939L216.235 209.35L215.434 207.732L188.443 223.091L141.986 204.333L141.619 204.466C141.495 204.513 141.39 204.599 141.32 204.713C141.251 204.826 141.222 204.959 141.237 205.091C141.251 205.224 141.309 205.347 141.403 205.442C141.496 205.537 141.619 205.598 141.751 205.613L144.235 205.93L148.019 221.62L146.55 222.76C146.37 222.896 146.232 223.08 146.152 223.291C146.071 223.501 146.051 223.73 146.094 223.952C146.137 224.174 146.241 224.379 146.394 224.546C146.548 224.712 146.744 224.832 146.961 224.893L181.668 234.456H181.763L188.384 233.25Z" fill="#725E4A"/>
</g>
</g>
<path d="M216.558 207.651C211.539 203.495 183.292 195.536 175.458 193.388C174.158 193.032 172.779 193.089 171.512 193.55L141.619 204.495C141.495 204.542 141.39 204.629 141.32 204.742C141.251 204.855 141.222 204.989 141.237 205.121C141.251 205.253 141.309 205.377 141.403 205.472C141.496 205.567 141.619 205.627 141.751 205.643L186.65 224.217C187.548 224.586 188.523 224.731 189.49 224.639C190.456 224.547 191.386 224.22 192.198 223.687L216.558 207.651Z" fill="url(#paint2_linear)"/>
<path d="M216.698 207.504C211.679 203.348 183.292 194.844 175.458 192.696C174.158 192.337 172.779 192.394 171.512 192.858L141.619 203.76C141.495 203.806 141.39 203.893 141.32 204.007C141.251 204.12 141.222 204.253 141.237 204.385C141.251 204.517 141.309 204.641 141.403 204.736C141.496 204.831 141.619 204.891 141.751 204.907L186.731 223.532C187.614 223.897 188.571 224.044 189.523 223.961C190.474 223.878 191.392 223.567 192.198 223.054L216.698 207.504Z" fill="url(#paint3_linear)"/>
<path d="M187.752 228.748L184.519 231.058L180.139 226.328L187.752 228.748Z" fill="url(#paint4_linear)"/>
<g style="mix-blend-mode:multiply" opacity="0.6">
<path d="M214.045 215.125L205.278 221.362L209.548 219.744L214.045 215.125Z" fill="#725E4A"/>
</g>
<g style="mix-blend-mode:multiply" opacity="0.6">
<path d="M181.161 214.11L196.438 203.51C196.818 203.246 197.255 203.079 197.714 203.022C198.172 202.966 198.637 203.022 199.069 203.186L205.852 205.761C206.026 205.825 206.185 205.923 206.322 206.049C206.458 206.175 206.568 206.327 206.645 206.496C206.649 206.455 206.649 206.413 206.645 206.371C206.618 206.105 206.519 205.851 206.358 205.637C206.198 205.424 205.982 205.258 205.734 205.157L198.951 202.59C198.519 202.424 198.052 202.367 197.592 202.423C197.132 202.48 196.693 202.648 196.313 202.914L181.036 213.506C180.819 213.66 180.647 213.87 180.54 214.113C180.433 214.357 180.393 214.625 180.426 214.889C180.443 215.032 180.482 215.171 180.544 215.301C180.545 215.068 180.601 214.838 180.709 214.631C180.816 214.424 180.971 214.245 181.161 214.11Z" fill="#725E4A"/>
</g>
<path style="mix-blend-mode:overlay" d="M181.161 214.11C180.945 214.264 180.776 214.474 180.67 214.717C180.564 214.959 180.525 215.227 180.558 215.49C180.592 215.753 180.695 216.002 180.858 216.211C181.021 216.42 181.237 216.581 181.484 216.677L186.51 218.545C186.934 218.702 187.387 218.763 187.837 218.724C188.287 218.685 188.722 218.546 189.112 218.317L206.072 208.32C206.302 208.183 206.489 207.984 206.612 207.745C206.734 207.507 206.787 207.238 206.764 206.971C206.741 206.704 206.643 206.449 206.481 206.235C206.32 206.02 206.102 205.856 205.851 205.761L199.069 203.186C198.637 203.022 198.172 202.966 197.713 203.022C197.255 203.079 196.817 203.246 196.438 203.51L181.161 214.11Z" fill="url(#paint5_linear)"/>
<path style="mix-blend-mode:overlay" d="M191.059 223.069L215.559 207.504C211.341 204.002 190.574 197.434 179.427 194.16L187.51 223.981C188.759 224.059 190.002 223.74 191.059 223.069V223.069Z" fill="url(#paint6_linear)"/>
<path d="M110.704 176.866L115.319 275.738L122.006 275.046L113.93 173.674L110.704 176.866Z" fill="#F25136"/>
<g style="mix-blend-mode:multiply" opacity="0.6">
<path d="M112.085 177.139L110.748 177.771L114.753 263.703L119.008 263.961L112.085 177.139Z" fill="#725E4A"/>
</g>
<path d="M94.5595 161.206L60.4187 239.716L66.878 242.025L97.7854 163.052L94.5595 161.206Z" fill="#F25136"/>
<g style="mix-blend-mode:multiply" opacity="0.6">
<path d="M84.2202 197.72L97.7854 163.052L94.5595 161.206L60.4187 239.716L63.9312 240.973L80.715 199.537L84.2202 197.72Z" fill="#725E4A"/>
</g>
<path d="M132.389 181.53L161.915 248.028H167.449L134.234 178.757L132.389 181.53Z" fill="#F25136"/>
<g style="mix-blend-mode:multiply" opacity="0.6">
<path d="M162.834 244.107L140.002 193.77L135.674 181.765L134.748 179.831L132.455 181.692L157.513 238.134C159.85 241.584 161.753 243.864 162.834 244.107Z" fill="#725E4A"/>
</g>
<path d="M118.089 171.828L127.312 221.708C128.713 221.842 130.126 221.685 131.463 221.245L121.315 171.394L118.089 171.828Z" fill="#F25136"/>
<g style="mix-blend-mode:multiply" opacity="0.6">
<path d="M129.78 221.635L124.085 195.845L125.18 190.357L122.719 178.087L119.044 176.947L127.231 221.171L129.104 221.716C129.332 221.693 129.567 221.671 129.78 221.635Z" fill="#725E4A"/>
</g>
<path d="M153.134 140.778C152.186 140.19 127.98 126.132 127.025 125.456C123.549 122.991 118.053 123.58 112.931 127.456C106.053 132.65 102.459 141.793 104.899 147.877C105.42 149.233 106.301 150.421 107.449 151.312C108.764 152.312 135.997 167.627 136.409 167.885C143.258 172.122 152.575 169.496 157.183 162C161.79 154.504 159.99 145.015 153.134 140.778Z" fill="#DFCDD9"/>
<path d="M135.27 126.574C134.709 125.121 133.792 123.834 132.602 122.83C132.522 122.756 132.411 122.675 132.309 122.594C132.682 123.17 132.997 123.781 133.249 124.418C136.424 132.51 131.103 145.184 121.374 152.79C116.091 156.917 110.587 158.675 106.163 158.153C110.792 159.97 117.399 158.521 123.696 153.695C133.183 146.427 138.364 134.283 135.27 126.574Z" fill="#684622"/>
<path d="M133.741 123.786C133.147 122.216 132.172 120.818 130.905 119.718C128.891 117.997 120.815 113.37 119.066 112.171C118.32 111.67 117.519 111.258 116.678 110.942C115.062 109.964 113.68 109.125 113.07 108.736C107.838 105.153 99.6813 106.161 92.1492 112.046C82.0451 119.939 76.9159 133.621 80.6856 142.61C81.5895 144.765 80.2521 144.772 81.8981 145.986C83.2943 147.009 90.2974 151.26 93.4866 153.011C96.6391 154.931 101.1 157.425 102.606 158.065C107.544 160.124 114.643 158.565 121.411 153.276C131.485 145.353 137.004 132.164 133.741 123.786Z" fill="#DFCDD9"/>
<path d="M95.941 154.512L93.4058 163.751L111.167 178.985L133.969 184.303L139.304 168.826L135.152 162.588L116.935 155.203L105.398 158.896L95.941 154.512Z" fill="#F25136"/>
<g style="mix-blend-mode:multiply" opacity="0.6">
<path d="M117.905 155.6L116.935 155.203L105.398 158.896L95.941 154.512L93.4058 163.751L110.902 178.764L117.391 161.434L117.905 155.6Z" fill="#725E4A"/>
</g>
<path d="M115.032 161.978C115.444 160.816 115.077 159.617 114.202 159.3C113.328 158.984 112.277 159.676 111.858 160.838C111.439 162 111.814 163.199 112.688 163.515C113.563 163.832 114.636 163.14 115.032 161.978Z" fill="#F25136"/>
<path d="M110.961 171.254C111.387 170.069 111.005 168.856 110.123 168.539C109.242 168.223 108.169 168.915 107.75 170.092C107.331 171.268 107.706 172.49 108.595 172.806C109.484 173.122 110.564 172.431 110.961 171.254Z" fill="#F25136"/>
<path d="M97.7709 160.933C98.1824 159.786 97.9766 158.66 97.3079 158.418C96.6392 158.175 95.7647 158.918 95.3532 160.065C94.9417 161.213 95.1475 162.338 95.8162 162.581C96.4849 162.824 97.3593 162.081 97.7709 160.933Z" fill="#F25136"/>
<g style="mix-blend-mode:multiply" opacity="0.6">
<path d="M107.441 160.029L103.495 169.606L104.531 170.327L109.896 158.896L107.441 160.029Z" fill="#725E4A"/>
</g>
<g style="mix-blend-mode:multiply" opacity="0.6">
<path d="M101.335 158.035L98.6526 164.957L99.4315 165.568L102.54 158.896L101.335 158.035Z" fill="#725E4A"/>
</g>
<g style="mix-blend-mode:overlay" opacity="0.7">
<path d="M138.893 170.025L139.304 168.826L136.107 163.832L117.34 156.557L117.391 161.434L138.893 170.025Z" fill="#FCEEB4"/>
</g>
<path style="mix-blend-mode:overlay" d="M111.99 178.551L112.086 178.624L133.587 183.641L138.606 169.076L118.229 161.809L111.99 178.551Z" fill="url(#paint7_linear)"/>
<g style="mix-blend-mode:multiply" opacity="0.6">
<path d="M136.71 170.93L132.389 181.53L134.623 171.46L119.236 164.354L134.895 170.239L136.71 170.93Z" fill="#725E4A"/>
</g>
<path style="mix-blend-mode:overlay" d="M80.1418 126.338L155.919 163.398C157.44 159.984 160.093 152.842 159.306 149.517L135.674 135.349L135.152 129.119L92.715 101.637L80.1418 126.338Z" fill="url(#paint8_linear)"/>
<path style="mix-blend-mode:multiply" opacity="0.6" d="M69.6851 148.826C73.6312 149.355 78.1431 148.612 82.8167 146.619C85.227 148.193 90.7309 151.51 93.4572 153.004C96.6097 154.924 101.07 157.417 102.577 158.057C106.251 159.609 111.226 159.102 116.326 156.513C124.754 161.323 136.166 167.738 136.409 167.9C143.258 172.137 152.575 169.51 157.183 162.015C157.344 161.743 157.491 161.463 157.638 161.191L97.3225 129.81L69.6851 148.826Z" fill="url(#paint9_linear)"/>
<path style="mix-blend-mode:multiply" opacity="0.6" d="M108.022 112.656C108.022 112.656 97.4402 150.797 99.3435 154.048L101.247 157.336L75.6448 142.095L108.022 112.656Z" fill="url(#paint10_linear)"/>
<path d="M109.778 96.9955C108.849 94.7414 107.378 92.7525 105.494 91.2064C102.511 88.801 90.6135 82.4234 88.0416 80.7609C80.311 75.7809 68.5242 77.5758 57.8542 86.4103C43.5322 98.2607 36.6467 118.306 42.474 131.179C43.7305 134.054 45.748 136.532 48.3086 138.343C51.248 140.381 62.932 146.714 66.033 147.906C73.2786 150.694 83.5076 148.141 93.0973 140.197C107.427 128.347 114.893 109 109.778 96.9955Z" fill="#BCA6B6"/>
<path style="mix-blend-mode:overlay" d="M44.6931 133.952C45.7272 135.189 46.9469 136.259 48.3085 137.122C51.2479 138.961 62.9319 144.706 66.0329 145.788C72.3158 147.994 80.8327 146.523 89.2466 141.411L52.115 125.301L44.6931 133.952Z" fill="url(#paint11_linear)"/>
<path d="M70.802 113.024L100.673 130.2C102.934 127.229 104.868 124.023 106.442 120.638L86.0132 107.198L88.2178 99.7613L108.94 113.568C109.19 112.612 109.403 111.663 109.572 110.729C110.057 108.096 81.2809 88.2714 81.2809 88.2714L70.802 113.024Z" fill="#DFCDD9"/>
<path d="M86.0134 107.169L106.442 120.638C107.483 118.357 108.328 115.992 108.97 113.568L88.2473 99.7614L86.0134 107.169Z" fill="#FFFAF8"/>
<path d="M76.7396 130.575C91.5834 119.255 99.6446 99.879 94.7432 87.3224C89.8418 74.7658 73.8443 73.7507 59.0005 85.1157C44.1567 96.4806 36.0955 115.805 40.9969 128.369C45.8983 140.933 61.8958 141.904 76.7396 130.575Z" fill="#FFFAF8"/>
<path d="M75.5491 129.273C90.3048 118.019 98.5203 99.0257 93.9202 86.859C89.3201 74.6923 73.5724 73.9567 58.7874 85.2333C44.0023 96.51 35.8162 115.481 40.4163 127.64C45.0164 139.8 60.7861 140.543 75.5491 129.273Z" fill="#DFCDD9"/>
<path d="M61.8664 126.522C62.8851 129.349 64.7934 131.768 67.3043 133.415C70.1258 132.084 72.7963 130.454 75.2699 128.553C89.5406 117.695 97.4916 99.3053 93.0164 87.5358C91.9973 84.7094 90.089 82.2906 87.5786 80.6432C84.7541 81.9682 82.0829 83.5987 79.6129 85.5055C65.3422 96.3629 57.3912 114.753 61.8664 126.522Z" fill="#FFFAF8"/>
<path d="M74.5791 124.529C86.1676 113.789 92.0242 97.4957 87.6593 88.161C83.2943 78.8263 70.3684 79.9591 58.7873 90.7061C47.2062 101.453 41.3495 117.739 45.7071 127.081C50.0647 136.423 62.998 135.283 74.5791 124.529Z" fill="#A597A2"/>
<path d="M45.7072 127.081C45.81 127.302 45.9423 127.486 46.0525 127.692L57.3177 133.341C60.7286 132.962 64.0201 131.862 66.9735 130.112L44.7151 115.246C43.9362 119.681 44.186 123.808 45.7072 127.081Z" fill="#BFACBB"/>
<path d="M62.2413 92.5304C50.6601 103.277 44.8255 119.564 49.1684 128.898C49.8936 130.513 51.0069 131.923 52.4091 133.003C58.3686 134.474 66.5474 131.605 74.1531 124.544C85.7415 113.796 91.5909 97.5104 87.2333 88.1683C86.5034 86.5562 85.3909 85.1471 83.9926 84.0637C78.033 82.5778 69.8542 85.4614 62.2413 92.5304Z" fill="#684622"/>
<g style="mix-blend-mode:overlay" opacity="0.7">
<path d="M73.227 118.946C75.6961 111.715 72.9551 105.102 67.1058 104.175C61.2564 103.248 54.5106 108.353 52.0342 115.584C49.5577 122.815 52.306 129.421 58.1554 130.355C64.0047 131.289 70.7579 126.169 73.227 118.946Z" fill="#FCEEB4"/>
</g>
<g style="mix-blend-mode:overlay" opacity="0.7">
<path d="M60.0733 108.331C63.2993 101.174 74.0353 90.64 71.2576 90.1986C68.4799 89.7572 56.3844 100.71 53.6434 108.132C50.9906 115.209 49.7194 126.257 54.2166 128.729C56.6342 129.987 56.9649 115.216 60.0733 108.331Z" fill="#FCEEB4"/>
</g>
<g style="mix-blend-mode:overlay" opacity="0.7">
<path d="M76.9307 113.488C76.0412 115.373 74.8663 117.11 73.4475 118.637C67.7672 124.757 59.6472 126.449 55.3043 122.41C54.3672 121.482 53.6442 120.359 53.186 119.122C52.7277 117.884 52.5453 116.561 52.6515 115.246C50.278 120.262 50.5131 125.544 53.717 128.486C58.0599 132.517 66.2093 130.826 71.8603 124.705C75.0569 121.263 76.7984 117.143 76.9307 113.488Z" fill="#FCEEB4"/>
</g>
<path style="mix-blend-mode:multiply" opacity="0.6" d="M62.0135 96.6865C69.6265 89.6175 77.8053 86.734 83.7649 88.2199C85.1632 89.3032 86.2757 90.7123 87.0055 92.3245C87.9138 94.3938 88.3938 96.6258 88.4164 98.886C88.9676 94.877 88.6295 91.1622 87.2333 88.1684C86.5035 86.5562 85.391 85.1471 83.9927 84.0637C78.0331 82.5926 69.8543 85.4614 62.2413 92.5304C53.0484 101.056 47.4857 113.068 47.7649 122.337C48.9333 113.841 54.1434 103.984 62.0135 96.6865Z" fill="url(#paint12_linear)"/>
<path d="M162.327 273.31C161.967 270.574 156.992 268.948 151.223 269.669C145.455 270.39 141.068 273.2 141.428 275.929C141.788 278.658 146.755 280.291 152.524 279.57C158.293 278.849 162.687 276.047 162.327 273.31Z" fill="#684622"/>
<g style="mix-blend-mode:multiply" opacity="0.8">
<path d="M150.077 274.016C149.886 272.545 151.194 271.074 153.347 269.941C152.487 269.932 151.628 269.984 150.775 270.096C145.558 270.765 141.589 273.34 141.913 275.833C142.236 278.327 146.719 279.82 151.936 279.151C153.878 278.918 155.767 278.356 157.521 277.488C153.479 277.459 150.341 276.091 150.077 274.016Z" fill="#725E4A"/>
</g>
<path d="M112.321 275.274C112.321 275.274 113.239 267.183 113.93 262.769C119.243 265.314 121.778 261.386 121.778 261.386L126.386 276.392C126.386 276.392 116.01 284.278 112.321 275.274Z" fill="#684622"/>
<path style="mix-blend-mode:multiply" opacity="0.6" d="M121.719 262.438L121.602 262.063C121.602 262.063 119.25 265.741 114.32 263.35C113.673 267.433 112.85 274.936 112.85 274.936C114.209 278.253 116.524 279.107 118.868 278.93C118.486 272.648 120.558 265.741 121.719 262.438Z" fill="url(#paint13_linear)"/>
<path d="M63.1966 230.977L70.8095 235.596L67.6056 244.799C67.6056 244.799 56.3037 246.645 57.2223 241.562C59.2652 237.178 63.1966 230.977 63.1966 230.977Z" fill="#684622"/>
<path d="M125.467 217.545L131.699 216.39L133.771 222.628C133.771 222.628 130.097 226.556 126.158 223.783C125.695 220.553 125.467 217.545 125.467 217.545Z" fill="#684622"/>
<path d="M157.991 242.011L159.38 249.859C159.38 249.859 167.684 252.405 169.984 249.859C168.977 244.431 166.038 239.326 164.45 237.854C162.055 240.466 157.991 242.011 157.991 242.011Z" fill="#684622"/>
<path style="mix-blend-mode:overlay" d="M163.451 250.279C165.722 250.624 168.397 250.698 169.528 249.455C168.595 244.445 165.854 239.73 164.384 238.377L164.245 238.517C163.401 240.876 162.981 243.366 163.003 245.872C163.011 247.352 163.161 248.828 163.451 250.279Z" fill="url(#paint14_linear)"/>
<path d="M266.564 207.438L266.329 205.525L221.849 215.581C221.658 215.621 221.461 215.623 221.269 215.587C221.077 215.55 220.895 215.475 220.732 215.367C220.568 215.26 220.429 215.119 220.322 214.955C220.216 214.79 220.145 214.605 220.115 214.411L219.262 209.321L215.713 208.725L217.969 217.891C218.069 218.319 218.333 218.691 218.704 218.928C219.087 219.154 219.543 219.223 219.975 219.119L266.564 207.438Z" fill="url(#paint15_linear)"/>
<g style="mix-blend-mode:multiply" opacity="0.8">
<path d="M221.849 215.581C221.658 215.621 221.461 215.623 221.269 215.587C221.077 215.55 220.895 215.475 220.732 215.367C220.569 215.257 220.429 215.115 220.322 214.949C220.215 214.784 220.142 214.598 220.108 214.404L219.262 209.321L215.713 208.725L217.969 217.89C218.069 218.309 218.329 218.672 218.693 218.902C219.057 219.132 219.496 219.21 219.916 219.119L222.569 215.441L221.849 215.581Z" fill="#725E4A"/>
</g>
<g style="mix-blend-mode:multiply" opacity="0.6">
<path d="M266.564 207.401L266.329 205.488L262.258 206.415L261.744 208.615L266.564 207.401Z" fill="#725E4A"/>
</g>
<path d="M286.192 183.347L286.081 186.289C286.06 186.632 285.92 186.956 285.685 187.206C285.45 187.456 285.136 187.615 284.795 187.658L270.562 189.048L269.959 190.379L285.567 189.607C286.059 189.583 286.531 189.4 286.911 189.086C287.291 188.772 287.559 188.343 287.676 187.864L288.874 182.928L286.192 183.347Z" fill="url(#paint16_linear)"/>
<g style="mix-blend-mode:multiply" opacity="0.6">
<path d="M288.859 182.957V182.913L286.207 183.347L286.096 186.289C286.084 186.635 285.946 186.964 285.71 187.215C285.473 187.467 285.154 187.624 284.81 187.658L281.702 187.959L282.54 189.739L283.532 189.695L288.176 185.833L288.859 182.957Z" fill="#725E4A"/>
</g>
<path d="M334.721 186.951L335.235 192.836L268.262 196.823L268.026 198.493L335.037 196.007C335.488 195.99 335.927 195.852 336.306 195.606C336.685 195.359 336.991 195.015 337.19 194.609L340.967 186.951H334.721Z" fill="url(#paint17_linear)"/>
<g style="mix-blend-mode:multiply" opacity="0.6">
<path d="M335.037 196.014C335.489 195.997 335.928 195.858 336.309 195.612C336.689 195.366 336.996 195.022 337.197 194.616L340.372 188.121L334.912 189.195L335.235 192.873L324.168 193.528L326.086 196.374L335.037 196.014Z" fill="#725E4A"/>
</g>
<path d="M308.59 215.279L309.457 209.497L306.745 209.843V212.153C306.742 212.336 306.7 212.516 306.622 212.681C306.544 212.846 306.432 212.993 306.293 213.112C306.154 213.231 305.991 213.319 305.816 213.371C305.641 213.422 305.457 213.436 305.276 213.411L268.894 208.173L268.717 209.556L306.988 216.706C307.172 216.741 307.361 216.737 307.544 216.694C307.726 216.651 307.897 216.57 308.046 216.456C308.196 216.341 308.32 216.195 308.411 216.03C308.502 215.864 308.558 215.681 308.575 215.492L308.59 215.279Z" fill="url(#paint18_linear)"/>
<path d="M293.452 228.284L293.32 230.572C293.309 230.729 293.26 230.881 293.176 231.015C293.092 231.148 292.976 231.258 292.839 231.336C292.702 231.413 292.548 231.455 292.391 231.458C292.234 231.461 292.078 231.424 291.938 231.352L268.151 218.92L268.026 219.972L292.504 234.736C292.739 234.876 293.002 234.963 293.274 234.991C293.546 235.019 293.821 234.987 294.079 234.897C294.337 234.808 294.573 234.662 294.769 234.472C294.966 234.281 295.118 234.05 295.216 233.794L297.178 228.645L293.452 228.284Z" fill="url(#paint19_linear)"/>
<g style="mix-blend-mode:multiply" opacity="0.6">
<path d="M292.504 234.736C292.739 234.876 293.002 234.963 293.274 234.991C293.546 235.019 293.821 234.987 294.079 234.897C294.337 234.808 294.573 234.662 294.769 234.472C294.966 234.281 295.118 234.05 295.216 233.794L297.09 229.152L295.407 228.468L293.452 228.284L293.32 230.572C293.306 230.724 293.255 230.871 293.172 230.999C293.089 231.127 292.975 231.233 292.842 231.308C292.705 231.384 292.551 231.424 292.394 231.424C292.237 231.424 292.083 231.384 291.946 231.308L289.638 230.109L290.233 233.323L292.504 234.736Z" fill="#725E4A"/>
</g>
<path d="M250.508 231.484C250.385 231.555 250.246 231.592 250.104 231.592C249.962 231.592 249.823 231.555 249.7 231.484C249.573 231.41 249.47 231.302 249.401 231.172C249.332 231.042 249.301 230.895 249.31 230.749L249.369 226.813L245.651 226.468L246.907 233.551C246.95 233.798 247.052 234.03 247.204 234.229C247.356 234.427 247.554 234.586 247.781 234.691C248.007 234.797 248.256 234.846 248.506 234.834C248.755 234.823 248.999 234.751 249.215 234.625L267.336 224.128V222.745L250.508 231.484Z" fill="url(#paint20_linear)"/>
<g style="mix-blend-mode:multiply" opacity="0.6">
<path d="M267.336 224.128V222.745L262.163 225.43L262.376 227.005L267.336 224.128Z" fill="#725E4A"/>
</g>
<g style="mix-blend-mode:multiply" opacity="0.6">
<path d="M249.31 230.749L249.369 226.813L245.651 226.468L246.907 233.551C246.907 233.61 246.944 233.662 246.959 233.713L249.553 231.308C249.477 231.236 249.416 231.149 249.375 231.053C249.333 230.957 249.311 230.853 249.31 230.749V230.749Z" fill="#725E4A"/>
</g>
<path d="M266.292 201.957L249.229 202.884C249.016 202.896 248.806 202.826 248.642 202.69C248.477 202.554 248.369 202.361 248.34 202.149L247.884 199.626L245.445 199.765L247.811 204.26C247.919 204.472 248.09 204.646 248.3 204.758C248.511 204.87 248.75 204.914 248.987 204.885L267.042 202.826L266.292 201.957Z" fill="url(#paint21_linear)"/>
<g style="mix-blend-mode:multiply" opacity="0.6">
<path d="M249.229 202.884C249.016 202.896 248.806 202.826 248.642 202.69C248.477 202.554 248.369 202.361 248.34 202.149L247.884 199.626L245.445 199.765L247.804 204.26C247.914 204.472 248.086 204.646 248.298 204.757C248.509 204.869 248.749 204.914 248.987 204.885L249.369 204.841L251.985 202.708L249.229 202.884Z" fill="#725E4A"/>
</g>
<g style="mix-blend-mode:multiply" opacity="0.6">
<path d="M267.042 202.855L266.307 201.958L262.772 202.156L263.302 203.289L267.042 202.855Z" fill="#725E4A"/>
</g>
<path d="M267.27 188.606L226.119 176.557C225.762 176.452 225.446 176.239 225.214 175.949C224.981 175.658 224.843 175.303 224.818 174.932L224.553 170.842L220.666 170.239L222.415 177.845C222.48 178.136 222.625 178.402 222.835 178.614C223.044 178.826 223.308 178.975 223.598 179.044L267.637 189.894L267.27 188.606Z" fill="url(#paint22_linear)"/>
<g style="mix-blend-mode:multiply" opacity="0.6">
<path d="M267.622 189.894L267.269 188.606L244.739 182.008L243.703 184.002L267.622 189.894Z" fill="#725E4A"/>
</g>
<g style="mix-blend-mode:multiply" opacity="0.6">
<path d="M224.803 174.932L224.538 170.842L220.651 170.239L222.4 177.845C222.435 178 222.494 178.149 222.576 178.286L224.913 175.432C224.855 175.271 224.818 175.103 224.803 174.932Z" fill="#725E4A"/>
</g>
<path d="M290.439 182.545C290.489 181.873 290.336 181.201 290 180.618C289.663 180.034 289.158 179.565 288.552 179.273C287.945 178.981 287.264 178.878 286.599 178.978C285.933 179.079 285.313 179.377 284.819 179.836C284.325 180.294 283.981 180.891 283.831 181.548C283.681 182.205 283.732 182.892 283.978 183.519C284.224 184.147 284.653 184.686 285.209 185.066C285.765 185.446 286.422 185.649 287.096 185.649C287.95 185.681 288.782 185.372 289.409 184.79C290.036 184.208 290.407 183.401 290.439 182.545V182.545Z" fill="url(#paint23_linear)"/>
<path d="M300.345 226.342C300.416 225.405 300.203 224.467 299.733 223.653C299.264 222.838 298.561 222.184 297.714 221.775C296.868 221.367 295.919 221.223 294.99 221.363C294.061 221.503 293.195 221.92 292.506 222.559C291.818 223.199 291.337 224.031 291.128 224.948C290.919 225.865 290.991 226.823 291.334 227.699C291.677 228.574 292.276 229.326 293.052 229.855C293.829 230.385 294.747 230.668 295.686 230.668C296.876 230.71 298.034 230.278 298.907 229.467C299.78 228.657 300.297 227.533 300.345 226.342V226.342Z" fill="url(#paint24_linear)"/>
<path style="mix-blend-mode:multiply" opacity="0.6" d="M293.761 224.96C293.771 224.182 293.986 223.42 294.385 222.753C293.596 222.973 292.899 223.44 292.395 224.086C291.891 224.732 291.607 225.523 291.585 226.342C291.628 227.39 292.083 228.379 292.851 229.092C293.62 229.804 294.639 230.183 295.686 230.145C296.462 230.146 297.223 229.938 297.89 229.542C296.772 229.39 295.744 228.846 294.988 228.007C294.232 227.168 293.797 226.089 293.761 224.96V224.96Z" fill="url(#paint25_linear)"/>
<path d="M254.601 222.753C254.601 218.979 251.301 215.919 247.252 215.919C243.203 215.919 239.904 218.979 239.904 222.753C239.904 226.526 243.203 229.586 247.252 229.586C251.301 229.586 254.601 226.563 254.601 222.753Z" fill="url(#paint26_linear)"/>
<path d="M251.316 198.11C251.38 197.276 251.191 196.442 250.774 195.717C250.356 194.992 249.731 194.409 248.978 194.045C248.225 193.681 247.381 193.553 246.554 193.676C245.727 193.8 244.957 194.17 244.344 194.739C243.73 195.307 243.302 196.047 243.115 196.863C242.928 197.678 242.991 198.531 243.296 199.311C243.6 200.09 244.132 200.759 244.822 201.231C245.512 201.704 246.328 201.957 247.164 201.957C248.224 201.997 249.257 201.615 250.035 200.893C250.813 200.172 251.274 199.171 251.316 198.11Z" fill="url(#paint27_linear)"/>
<path style="mix-blend-mode:multiply" opacity="0.6" d="M249.722 200.486C248.782 200.516 247.87 200.174 247.181 199.533C246.493 198.892 246.086 198.006 246.047 197.066C246.051 196.621 246.145 196.182 246.323 195.775C246.501 195.368 246.76 195.001 247.084 194.697C246.623 194.685 246.164 194.766 245.735 194.935C245.306 195.105 244.916 195.36 244.588 195.684C244.26 196.009 244.001 196.397 243.826 196.824C243.652 197.252 243.566 197.71 243.574 198.172C243.581 198.633 243.682 199.089 243.87 199.51C244.058 199.932 244.329 200.311 244.667 200.625C245.006 200.939 245.404 201.181 245.838 201.337C246.272 201.492 246.733 201.558 247.194 201.531C248.181 201.538 249.132 201.161 249.847 200.479L249.722 200.486Z" fill="url(#paint28_linear)"/>
<path d="M234.532 196.823C234.532 187.783 226.618 180.449 216.896 180.449C207.174 180.449 199.26 187.805 199.26 196.823C199.26 205.841 207.167 213.197 216.896 213.197C226.626 213.197 234.532 205.864 234.532 196.823Z" fill="url(#paint29_linear)"/>
<g style="mix-blend-mode:hard-light" opacity="0.6">
<g style="mix-blend-mode:hard-light" opacity="0.6">
<path style="mix-blend-mode:multiply" opacity="0.6" d="M212.583 181.927C205.587 183.707 200.443 189.622 200.443 196.639C200.443 205.091 207.828 211.939 216.933 211.939C218.015 211.939 219.095 211.841 220.159 211.645C214.325 202.893 211.652 192.408 212.583 181.927V181.927Z" fill="url(#paint30_linear)"/>
</g>
</g>
<path d="M347 181.479C347 176.418 342.591 172.313 337.117 172.313C331.642 172.313 327.24 176.418 327.24 181.479C327.24 186.539 331.649 190.644 337.117 190.644C342.584 190.644 347 186.539 347 181.479Z" fill="url(#paint31_linear)"/>
<path style="mix-blend-mode:multiply" opacity="0.4" d="M334.089 179.404C334.097 178.22 334.37 177.052 334.887 175.986C335.405 174.921 336.154 173.985 337.08 173.247H336.955C332.053 173.247 328.071 176.925 328.071 181.486C328.071 186.047 332.053 189.725 336.955 189.725C339.096 189.733 341.174 188.997 342.834 187.643C338.028 187.577 334.089 183.899 334.089 179.404Z" fill="url(#paint32_linear)"/>
<path d="M231.564 165.266C231.689 160.654 227.765 156.799 222.79 156.66C217.815 156.52 213.685 160.146 213.56 164.751C213.435 169.356 217.352 173.218 222.327 173.358C227.302 173.497 231.431 169.878 231.564 165.266Z" fill="url(#paint33_linear)"/>
<path style="mix-blend-mode:multiply" opacity="0.3" d="M220.923 164.199C220.965 161.72 221.785 159.316 223.267 157.329C223.098 157.329 222.944 157.329 222.775 157.285C218.182 157.16 214.354 160.514 214.236 164.781C214.119 169.047 217.749 172.615 222.319 172.74C222.895 172.756 223.471 172.717 224.039 172.622C222.974 171.504 222.149 170.181 221.613 168.733C221.077 167.284 220.842 165.742 220.923 164.199V164.199Z" fill="url(#paint34_linear)"/>
<path style="mix-blend-mode:overlay" d="M233.423 196.19C233.423 188.445 224.965 181.64 218.66 181.64C212.355 181.64 209.893 188.849 209.893 196.595C209.893 204.341 213.281 211.66 219.586 211.66C225.891 211.66 233.423 203.936 233.423 196.19Z" fill="url(#paint35_linear)"/>
<path style="mix-blend-mode:overlay" d="M230.917 164.722C230.917 160.757 226.751 157.277 223.642 157.277C220.534 157.277 219.321 160.955 219.321 164.928C219.321 168.9 220.989 172.637 224.098 172.637C227.206 172.637 230.917 168.687 230.917 164.722Z" fill="url(#paint36_linear)"/>
<path style="mix-blend-mode:overlay" d="M289.998 181.368C289.778 180.125 287.985 179.478 286.986 179.713C285.986 179.949 285.986 181.442 286.251 182.655C286.515 183.869 287.302 185.193 288.301 184.958C289.3 184.723 290.263 183.038 289.998 181.368Z" fill="url(#paint37_linear)"/>
<path style="mix-blend-mode:overlay" d="M299.573 224.908C299.287 223.275 296.92 222.422 295.605 222.701C294.29 222.981 294.282 224.982 294.665 226.6C295.047 228.218 296.046 229.947 297.361 229.638C298.677 229.329 299.955 227.115 299.573 224.908Z" fill="url(#paint38_linear)"/>
<path style="mix-blend-mode:overlay" d="M250.736 196.742C250.471 195.271 248.318 194.477 247.12 194.756C245.922 195.036 245.908 196.838 246.26 198.309C246.613 199.78 247.517 201.362 248.722 201.082C249.927 200.803 251.088 198.75 250.736 196.742Z" fill="url(#paint39_linear)"/>
<path style="mix-blend-mode:overlay" d="M346.221 181.118C346.221 177.205 341.952 173.762 338.77 173.762C335.588 173.762 334.361 177.396 334.361 181.309C334.361 185.223 336.066 188.915 339.248 188.915C342.429 188.915 346.221 185.031 346.221 181.118Z" fill="url(#paint40_linear)"/>
<path d="M248.002 227.821L248.531 222.319L243.674 223.591L248.002 227.821Z" fill="#B7CE55"/>
<path d="M244.519 217.986L242.932 220.193L245.364 222.4L247.789 221.664C247.789 221.664 249.692 218.92 248.215 217.545L244.519 217.986Z" fill="#B7CE55"/>
<path d="M251.698 222.216L250.963 226.548L253.565 224.864C253.831 224.191 253.973 223.476 253.984 222.753C253.978 221.912 253.797 221.082 253.451 220.315C253.106 219.549 252.604 218.863 251.978 218.302L249.913 218.199L251.698 222.216Z" fill="#B7CE55"/>
<path style="mix-blend-mode:multiply" opacity="0.6" d="M245.438 220.825C245.439 219.998 245.61 219.179 245.94 218.42C246.269 217.661 246.751 216.977 247.355 216.412C247.275 216.412 247.209 216.412 247.128 216.412C243.358 216.412 240.301 219.244 240.301 222.745C240.301 226.247 243.358 229.079 247.128 229.079C248.955 229.091 250.714 228.392 252.036 227.13C248.377 227.027 245.438 224.253 245.438 220.825Z" fill="url(#paint41_linear)"/>
<path style="mix-blend-mode:overlay" d="M253.954 221.245C253.469 218.479 249.281 216.235 247.054 216.758C244.828 217.28 244.85 220.612 245.467 223.378C246.084 226.144 247.804 229.035 250.03 228.527C252.257 228.02 254.608 224.96 253.954 221.245Z" fill="url(#paint42_linear)"/>
<g style="mix-blend-mode:multiply" opacity="0.6">
<path d="M305.335 216.39C306.815 215.544 308.074 214.359 309.009 212.933C309.244 210.446 309.442 209.497 309.442 209.497L306.731 209.843V212.153C306.727 212.336 306.685 212.516 306.607 212.681C306.529 212.846 306.417 212.993 306.278 213.112C306.139 213.231 305.977 213.319 305.802 213.371C305.626 213.422 305.442 213.436 305.261 213.411L289.528 211.152C289.602 211.986 289.797 212.804 290.109 213.58L305.335 216.39Z" fill="#725E4A"/>
</g>
<path d="M321.861 198.051C321.861 191.012 315.696 185.296 308.12 185.296C300.543 185.296 294.371 191.012 294.371 198.051C294.371 205.091 300.529 210.799 308.12 210.799C315.71 210.799 321.861 205.098 321.861 198.051Z" fill="url(#paint43_linear)"/>
<path style="mix-blend-mode:multiply" opacity="0.6" d="M303.446 194.933C303.434 192.021 304.244 189.165 305.783 186.694C299.853 187.569 295.311 192.321 295.311 198.066C295.311 204.436 300.874 209.6 307.737 209.6C309.448 209.602 311.143 209.27 312.727 208.622C307.392 207.026 303.446 201.509 303.446 194.933Z" fill="url(#paint44_linear)"/>
<path style="mix-blend-mode:overlay" d="M321.31 197.139C321.31 191.107 314.696 185.804 309.802 185.804C304.908 185.804 302.976 191.416 302.976 197.456C302.976 203.495 305.606 209.225 310.522 209.225C315.439 209.225 321.31 203.193 321.31 197.139Z" fill="url(#paint45_linear)"/>
<path d="M292.188 244.674C292.188 238.303 280.857 233.132 266.88 233.132C252.904 233.132 241.572 238.281 241.572 244.674C241.572 251.066 252.904 256.215 266.88 256.215C280.857 256.215 292.188 251.051 292.188 244.674Z" fill="#7F5475"/>
<g style="mix-blend-mode:multiply" opacity="0.6">
<path d="M241.572 244.673C241.572 250.043 249.619 254.538 260.502 255.832V233.515C249.619 234.809 241.572 239.311 241.572 244.673Z" fill="#725E4A"/>
</g>
<path style="mix-blend-mode:overlay" d="M259.576 248.484V255.722C264.699 256.419 269.895 256.38 275.007 255.604V248.484H259.576Z" fill="url(#paint46_linear)"/>
<path style="mix-blend-mode:overlay" d="M281.378 254.126C285.383 252.846 288.536 251.051 290.373 248.977V240.4C290.152 240.15 289.903 239.907 289.638 239.664H281.378V254.126Z" fill="url(#paint47_linear)"/>
<path d="M292.188 243.394C292.188 237.729 280.857 233.132 266.88 233.132C252.904 233.132 241.572 237.729 241.572 243.394C241.572 249.058 252.904 253.692 266.88 253.692C280.857 253.692 292.188 249.065 292.188 243.394Z" fill="url(#paint48_linear)"/>
<path style="mix-blend-mode:overlay" d="M290.571 243.651C290.336 247.682 283.759 250.463 275.875 249.867C267.99 249.271 261.795 245.505 262.03 241.474C262.265 237.443 268.835 234.662 276.727 235.265C284.619 235.868 290.799 239.627 290.571 243.651Z" fill="url(#paint49_linear)"/>
<path style="mix-blend-mode:multiply" opacity="0.6" d="M281.856 250.36C268.629 250.36 257.856 246.005 257.856 240.628C257.856 240.407 268.144 239.488 268.144 239.488L266.314 238.016L260.303 237.722C260.876 237.435 264.404 233.919 265.058 233.662C252.301 233.882 242.123 238.141 242.123 243.364C242.123 248.741 252.859 253.103 266.116 253.103C272.656 253.103 278.608 252.029 282.914 250.308C282.554 250.345 282.18 250.36 281.856 250.36Z" fill="url(#paint50_linear)"/>
<path d="M266.329 181.824L265.374 239.186L268.24 239.664L271.106 179.434L266.329 181.824Z" fill="url(#paint51_linear)"/>
<g style="mix-blend-mode:multiply" opacity="0.6">
<path d="M270.745 186.988L271.106 179.434L266.329 181.824L265.374 239.186L266.667 239.399L268.717 191.343L270.745 186.988Z" fill="#725E4A"/>
</g>
<path d="M282.268 159.102C277.411 151.944 267.115 150.466 259.267 155.792C251.419 161.117 248.98 171.239 253.844 178.418C258.709 185.598 268.997 187.062 276.852 181.729C284.708 176.396 287.125 166.244 282.268 159.102Z" fill="url(#paint52_linear)"/>
<path style="mix-blend-mode:multiply" opacity="0.6" d="M265.138 173.402C261.156 167.517 260.516 160.514 262.897 155.122C261.744 155.584 260.643 156.165 259.612 156.858C252.374 161.772 250.14 171.114 254.616 177.712C258.936 184.09 267.931 185.561 275.059 181.236C271.008 179.74 267.535 176.997 265.138 173.402V173.402Z" fill="url(#paint53_linear)"/>
<path style="mix-blend-mode:overlay" d="M282.621 162.522C281.445 155.792 271.715 152.283 266.3 153.555C260.884 154.828 260.862 162.942 262.427 169.599C263.992 176.256 268.122 183.369 273.538 182.104C278.954 180.839 284.215 171.577 282.621 162.522Z" fill="url(#paint54_linear)"/>
<path d="M252.97 269.706C252.741 269.485 252.559 269.221 252.432 268.93C252.306 268.638 252.239 268.324 252.235 268.007C252.11 267.072 252.169 266.763 251.691 266.226C251.254 265.488 250.928 264.69 250.721 263.858C250.464 263.174 254.968 267.484 255.196 267.705C255.424 267.926 252.926 269.014 252.97 269.706Z" fill="#555F70"/>
<path style="mix-blend-mode:overlay" d="M250.243 263.269C250.67 263.865 251.382 265.064 251.86 265.601C252.338 266.138 252.404 266.683 252.235 268.007C252.144 268.331 252.168 268.677 252.302 268.986C252.435 269.296 252.671 269.55 252.97 269.706C252.933 269.206 254.212 268.507 254.851 268.073L250.897 263.762C250.412 263.343 250.126 263.115 250.243 263.269Z" fill="url(#paint55_linear)"/>
<g style="mix-blend-mode:multiply" opacity="0.8">
<path d="M280.387 302.499C280.445 302.402 280.497 302.301 280.541 302.197C280.689 301.91 280.802 301.606 280.879 301.292C280.879 301.233 280.879 301.16 280.879 301.094C280.967 300.675 281.011 300.249 281.011 299.821C281.011 295.665 256.027 270.758 253.33 269.566C253.161 269.495 252.983 269.448 252.801 269.426H252.639C252.5 269.411 252.359 269.411 252.22 269.426H252.073L251.831 269.492C251.096 268.816 249.986 267.756 249.134 267.021C248.788 266.704 248.458 266.41 248.193 266.182C247.715 265.763 247.458 265.528 247.546 265.689C247.635 265.851 247.899 266.212 248.112 266.528C248.285 267.279 248.583 267.995 248.994 268.646C249.472 269.183 249.413 269.492 249.538 270.427C249.488 270.753 249.52 271.087 249.633 271.398C249.513 271.632 249.42 271.878 249.354 272.133C249.068 273.376 253.881 281.755 259.385 289.787C264.933 297.879 271.142 305.595 273.626 305.323C274.089 305.272 274.545 305.213 274.985 305.147C276.17 304.992 277.324 304.66 278.41 304.161V304.161C278.725 304 279.025 303.81 279.306 303.595L279.519 303.425C279.647 303.315 279.767 303.197 279.88 303.072C280.068 302.899 280.237 302.707 280.387 302.499V302.499Z" fill="#725E4A"/>
</g>
<path d="M252.051 269.735C251.47 272.222 271.451 303.47 276.301 302.925C280.453 302.469 283.649 301.542 283.649 297.386C283.649 293.23 258.665 268.323 255.968 267.139C254.476 266.44 252.47 267.926 252.051 269.735Z" fill="url(#paint56_linear)"/>
<path style="mix-blend-mode:overlay" d="M268.953 280.217C262.64 272.803 256.21 267.911 254.594 269.286C252.977 270.662 256.798 277.805 263.096 285.219C269.393 292.634 275.845 297.533 277.462 296.15C279.079 294.767 275.257 287.618 268.953 280.217Z" fill="url(#paint57_linear)"/>
<path style="mix-blend-mode:overlay" d="M283.708 297.386C283.708 293.23 258.723 268.323 256.027 267.138C254.954 266.66 253.675 267.227 252.837 268.22L281.121 301.763C281.951 301.39 282.645 300.768 283.108 299.985C283.571 299.201 283.781 298.294 283.708 297.386V297.386Z" fill="url(#paint58_linear)"/>
<path style="mix-blend-mode:multiply" opacity="0.6" d="M283.649 298.004C283.649 297.798 283.708 297.614 283.708 297.386C283.705 297.229 283.681 297.073 283.634 296.923L272.928 300.946C273.266 301.263 273.596 301.542 273.905 301.785L283.649 298.004Z" fill="url(#paint59_linear)"/>
<g style="mix-blend-mode:multiply" opacity="0.6">
<path d="M268.82 284.234C270 283.642 271.249 283.2 272.538 282.917C272.075 282.417 271.605 281.924 271.135 281.446C269.894 281.733 268.692 282.171 267.556 282.748C265.365 283.801 263.48 285.399 262.082 287.389C262.464 287.948 262.853 288.508 263.243 289.059C264.636 286.98 266.563 285.313 268.82 284.234V284.234Z" fill="#725E4A"/>
</g>
<g style="mix-blend-mode:multiply" opacity="0.6">
<path d="M263.25 288.89C264.647 286.899 266.532 285.3 268.725 284.248C269.861 283.673 271.063 283.236 272.303 282.946C272.494 283.145 272.039 282.527 271.568 282.034C270.328 282.323 269.126 282.76 267.99 283.336C265.797 284.391 263.912 285.992 262.515 287.985C262.897 288.544 263.412 289.125 263.25 288.89Z" fill="#725E4A"/>
</g>
<path style="mix-blend-mode:overlay" d="M146.704 273.479C146.704 275.48 151.062 277.098 156.433 277.098H157.323C160.218 276.069 162.048 274.502 161.82 272.964C161.592 271.427 159.152 270.206 155.816 269.897C150.731 270 146.704 271.567 146.704 273.479Z" fill="url(#paint60_linear)"/>
<path d="M148.593 262.563L149.879 274.642L152.539 274.296L151.877 260.209L148.593 262.563Z" fill="#684622"/>
<g style="mix-blend-mode:multiply" opacity="0.8">
<path d="M151.995 262.696L148.673 263.299L149.364 269.831L152.237 267.793L151.995 262.696Z" fill="#725E4A"/>
</g>
<path d="M164.553 239.539C160.571 231.845 149.408 229.719 139.635 234.787C129.861 239.855 125.158 250.235 129.149 257.907C133.139 265.579 144.286 267.727 154.067 262.659C163.848 257.591 168.536 247.233 164.553 239.539Z" fill="url(#paint61_linear)"/>
<path d="M140.906 252.75L142.435 245.747L146.807 240.275L134.557 242.246L133.007 249.904C137.842 255.597 140.906 252.75 140.906 252.75Z" fill="#B7CE55"/>
<path d="M143.471 254.516L140.193 254.354L137.254 255.825C138.239 259.437 144.602 262.232 144.602 262.232L147.395 261.732L146.902 256.973L143.471 254.516Z" fill="#B7CE55"/>
<path d="M145.771 249.411L143.471 251.875L144.948 253.022L145.771 249.411Z" fill="#B7CE55"/>
<path d="M147.409 234.964L140.061 238.252L148.717 239.068C150.687 237.266 147.409 234.964 147.409 234.964Z" fill="#B7CE55"/>
<path d="M154.626 239.561L154.956 246.13C155.217 246.356 155.522 246.523 155.853 246.622C156.183 246.72 156.53 246.747 156.872 246.7C157.213 246.654 157.541 246.535 157.833 246.351C158.124 246.168 158.374 245.925 158.564 245.637L160.527 243.666L162.665 244.651C161.019 247.116 159.726 249.411 159.726 249.411L159.395 254.832L162.239 253.486C164.759 249.072 165.274 244.151 163.128 240.01C162.418 238.64 161.447 237.423 160.269 236.427C160.154 237.942 159.686 239.408 158.903 240.709C156.757 241.533 154.626 239.561 154.626 239.561Z" fill="#B7CE55"/>
<path d="M157.903 238.906L159.13 235.559C157.781 234.652 156.291 233.974 154.721 233.551L154.611 235.456L157.903 238.906Z" fill="#B7CE55"/>
<path style="mix-blend-mode:hard-light" opacity="0.6" d="M141.171 251.522C139.908 249.104 139.164 246.449 138.986 243.727C138.807 241.005 139.198 238.276 140.134 235.714V235.714C131.015 240.451 126.635 250.11 130.354 257.282C134.072 264.454 144.485 266.447 153.604 261.695L153.854 261.555C151.148 260.884 148.616 259.641 146.429 257.911C144.241 256.181 142.449 254.002 141.171 251.522V251.522Z" fill="url(#paint62_linear)"/>
<path style="mix-blend-mode:overlay" d="M143.052 247.064C143.61 254.7 147.461 261.673 153.553 261.217C155.555 260.988 157.451 260.195 159.02 258.929C164.164 254.383 166.662 248.138 165.428 242.643C165.428 242.562 165.391 242.481 165.362 242.4C165.332 242.32 165.31 242.231 165.288 242.143C164.002 238.788 161.636 235.956 158.564 234.096C155.162 232.487 151.353 231.944 147.637 232.536C143.779 234.743 142.559 240.775 143.052 247.064Z" fill="url(#paint63_linear)"/>
<path style="mix-blend-mode:overlay" d="M150.929 268.72L151.275 274.296H152.539L152.237 267.793L150.929 268.72Z" fill="url(#paint64_linear)"/>
<g style="mix-blend-mode:multiply" opacity="0.6">
<path d="M220.005 219.119L242.866 213.367L221.489 216.912C220.958 217.622 220.462 218.359 220.005 219.119V219.119Z" fill="#725E4A"/>
</g>
<g style="mix-blend-mode:overlay">
<path d="M155.456 291.097L151.995 296.29L160.526 300.446L148.541 297.761L155.456 291.097Z" fill="white"/>
</g>
<path d="M147.858 155.21C148.592 153.099 147.806 150.9 146.094 150.297C144.382 149.693 142.42 150.929 141.685 153.04C140.95 155.152 141.736 157.358 143.449 157.954C145.161 158.55 147.123 157.336 147.858 155.21Z" fill="#684622"/>
<g style="mix-blend-mode:multiply" opacity="0.6">
<path d="M146.072 156.807C144.36 156.211 143.574 154.011 144.308 151.893C144.533 151.248 144.897 150.66 145.374 150.172C143.853 150.069 142.288 151.224 141.656 153.048C140.921 155.166 141.707 157.366 143.419 157.962C144.021 158.137 144.659 158.134 145.259 157.954C145.859 157.774 146.394 157.424 146.8 156.946C146.552 156.932 146.307 156.885 146.072 156.807V156.807Z" fill="#725E4A"/>
</g>
<path style="mix-blend-mode:overlay" d="M148.056 155.1C148.593 153.555 148.056 151.959 146.77 151.518C145.484 151.076 144.073 151.981 143.537 153.519C143 155.056 143.537 156.66 144.823 157.094C146.109 157.528 147.52 156.638 148.056 155.1Z" fill="url(#paint65_linear)"/>
<path d="M143.419 157.962L150.613 186.841L152.921 187.187L144.845 157.976L143.419 157.962Z" fill="#684622"/>
<g style="mix-blend-mode:multiply" opacity="0.6">
<path d="M143.419 157.962L150.613 186.841L152.274 187.084L144.33 157.969L143.419 157.962Z" fill="#725E4A"/>
</g>
<path d="M159.204 180.375L152.803 181.295C151.333 181.295 150.15 183.031 150.15 185.164C150.15 187.297 151.378 189.048 152.803 189.048C152.955 189.044 153.105 189.022 153.251 188.982L158.675 190.195C158.84 190.276 159.02 190.318 159.204 190.32C160.57 190.32 161.687 188.114 161.687 185.355C161.687 182.597 160.57 180.375 159.204 180.375Z" fill="#684622"/>
<path style="mix-blend-mode:overlay" d="M157.8 189.989L158.675 190.181C158.84 190.261 159.02 190.304 159.204 190.306C160.57 190.306 161.687 188.099 161.687 185.34C161.687 182.582 160.57 180.375 159.204 180.375L157.139 180.669C157.095 181.405 157.073 182.141 157.073 182.972C157.044 185.331 157.288 187.686 157.8 189.989V189.989Z" fill="url(#paint66_linear)"/>
<g style="mix-blend-mode:multiply" opacity="0.6">
<path d="M158.917 181.067L150.18 184.745C150.172 184.887 150.172 185.029 150.18 185.171C150.18 187.304 151.37 189.04 152.833 189.04C152.984 189.037 153.135 189.015 153.281 188.974L158.704 190.188C158.869 190.268 159.05 190.311 159.233 190.313C159.32 190.304 159.406 190.286 159.49 190.262C158.248 187.326 158.917 181.067 158.917 181.067Z" fill="#725E4A"/>
</g>
<g style="mix-blend-mode:multiply" opacity="0.8">
<path d="M143.537 310.884C142.654 310.693 141.841 310.264 141.184 309.644C140.527 309.023 140.053 308.235 139.811 307.364C139.57 306.493 139.571 305.572 139.815 304.702C140.058 303.831 140.535 303.044 141.193 302.425L180.176 265.645C180.908 264.957 181.781 264.436 182.734 264.119C183.686 263.801 184.697 263.695 185.695 263.806L221.651 267.874C222.413 267.963 223.147 268.218 223.8 268.621C224.453 269.025 225.01 269.568 225.431 270.21C225.851 270.853 226.126 271.581 226.234 272.341C226.343 273.102 226.283 273.877 226.06 274.612L212.833 317.931C212.206 319.992 210.828 321.741 208.973 322.832C207.117 323.922 204.919 324.273 202.817 323.816L143.537 310.884Z" fill="#725E4A"/>
</g>
<path d="M149.305 308.575C148.425 308.382 147.614 307.952 146.959 307.331C146.305 306.711 145.832 305.924 145.591 305.054C145.351 304.184 145.352 303.266 145.595 302.397C145.837 301.528 146.312 300.741 146.969 300.123L185.915 263.343C186.647 262.654 187.52 262.133 188.472 261.816C189.425 261.498 190.436 261.392 191.434 261.504L227.419 265.55C228.182 265.638 228.915 265.893 229.569 266.297C230.222 266.701 230.778 267.243 231.199 267.886C231.62 268.529 231.894 269.256 232.003 270.017C232.111 270.777 232.052 271.553 231.828 272.288L218.601 315.607C217.973 317.668 216.594 319.418 214.737 320.508C212.88 321.598 210.681 321.949 208.578 321.492L149.305 308.575Z" fill="#555F70"/>
<g style="mix-blend-mode:multiply" opacity="0.8">
<path d="M147.321 305.095C147.321 301.071 149.394 299.564 149.864 297.379L146.969 300.123C146.31 300.741 145.834 301.529 145.59 302.399C145.347 303.27 145.346 304.19 145.587 305.061C145.829 305.932 146.303 306.721 146.96 307.341C147.617 307.962 148.43 308.391 149.313 308.582L208.6 321.499C209.941 321.79 211.333 321.754 212.658 321.395C213.983 321.035 215.202 320.362 216.213 319.432L213.45 318.439L147.321 305.095Z" fill="#725E4A"/>
</g>
<path d="M215.022 310.377L229.815 266.491C229.105 265.987 228.282 265.666 227.419 265.557L191.463 261.489C190.459 261.373 189.442 261.479 188.484 261.799C187.525 262.119 186.648 262.646 185.915 263.343L146.968 300.123C146.69 300.384 146.443 300.678 146.234 300.998L208.6 314.062C209.935 314.342 211.327 314.121 212.511 313.442C213.695 312.763 214.589 311.672 215.022 310.377V310.377Z" fill="#BFD8D6"/>
<g style="mix-blend-mode:overlay" opacity="0.4">
<path d="M196.152 310.517L193.793 262.887L191.316 262.607C190.36 262.499 189.392 262.601 188.48 262.906C187.567 263.211 186.732 263.711 186.033 264.373L175.289 274.509L169.999 305.036L196.152 310.517Z" fill="#F2FFC4"/>
</g>
<g style="mix-blend-mode:overlay" opacity="0.4">
<path d="M207.725 312.944C209.004 313.21 210.337 312.998 211.47 312.347C212.603 311.697 213.459 310.653 213.876 309.413L217.873 297.555L205.381 264.196L197.805 263.343L204.022 312.164L207.725 312.944Z" fill="#F2FFC4"/>
</g>
<path d="M155.324 296.055C155.132 296.242 154.995 296.478 154.928 296.737C154.861 296.996 154.865 297.269 154.942 297.526C155.018 297.782 155.162 298.012 155.358 298.192C155.555 298.372 155.797 298.495 156.059 298.548L208.585 309.038C208.958 309.113 209.345 309.055 209.68 308.873C210.014 308.692 210.274 308.399 210.415 308.045L225.802 269.794C225.888 269.584 225.923 269.358 225.907 269.132C225.89 268.906 225.822 268.687 225.707 268.492C225.595 268.293 225.439 268.124 225.25 267.996C225.061 267.868 224.845 267.786 224.619 267.756L189.832 263.218C189.599 263.186 189.363 263.208 189.14 263.282C188.917 263.356 188.714 263.48 188.546 263.644L155.324 296.055Z" fill="#394354"/>
<path d="M156.103 296.195C155.951 296.342 155.842 296.528 155.789 296.733C155.736 296.938 155.74 297.154 155.801 297.357C155.862 297.56 155.977 297.742 156.134 297.885C156.291 298.027 156.483 298.124 156.69 298.166L208.019 308.383C208.465 308.479 208.931 308.414 209.334 308.2C209.737 307.986 210.052 307.637 210.224 307.214L225.016 270.383C225.103 270.164 225.139 269.929 225.122 269.695C225.106 269.461 225.037 269.233 224.921 269.029C224.8 268.828 224.636 268.658 224.44 268.53C224.244 268.403 224.021 268.322 223.789 268.293L190.089 263.88C189.856 263.85 189.62 263.873 189.398 263.947C189.175 264.021 188.972 264.144 188.803 264.307L156.103 296.195Z" fill="#515A6D"/>
<g style="mix-blend-mode:overlay">
<g style="mix-blend-mode:overlay">
<path style="mix-blend-mode:overlay" d="M191.463 261.489C190.459 261.373 189.442 261.479 188.484 261.799C187.525 262.119 186.648 262.646 185.915 263.343L179.757 269.154L146.969 300.123C146.844 300.24 146.109 301.814 145.308 303.58C145.642 304.219 146.112 304.776 146.684 305.214C147.257 305.651 147.918 305.957 148.622 306.11L207.909 319.027C210.013 319.485 212.211 319.134 214.068 318.043C215.925 316.953 217.304 315.204 217.932 313.143L231.16 269.823C231.32 269.285 231.387 268.722 231.358 268.161C231.306 268.073 231.277 267.97 231.218 267.889C230.806 267.264 230.265 266.735 229.631 266.337C228.771 265.991 228.058 265.719 227.662 265.601C227.581 265.601 227.507 265.557 227.434 265.55L191.463 261.489Z" fill="url(#paint67_linear)"/>
</g>
</g>
<g style="mix-blend-mode:overlay" opacity="0.4">
<path d="M190.082 265.16C189.861 265.127 189.636 265.146 189.423 265.213C189.211 265.281 189.016 265.396 188.855 265.55L176.95 277.165L173.496 300.365L174.577 300.645L193.197 304.323L192.117 265.388L190.082 265.16Z" fill="#F2FFC4"/>
</g>
<g style="mix-blend-mode:overlay" opacity="0.4">
<path d="M198.591 266.285L204.242 306.581L207.02 307.133C207.437 307.215 207.87 307.149 208.245 306.947C208.619 306.744 208.911 306.417 209.07 306.022L214.082 293.517C212.237 288.441 206.337 272.244 204.279 267.036L198.591 266.285Z" fill="#F2FFC4"/>
</g>
<g style="mix-blend-mode:multiply" opacity="0.8">
<path d="M208.115 317.218C208.115 316.276 207.586 315.511 206.932 315.511C206.278 315.511 205.741 316.247 205.741 317.218C205.741 318.189 206.278 318.924 206.932 318.924C207.586 318.924 208.115 318.159 208.115 317.218Z" fill="#725E4A"/>
</g>
<g style="mix-blend-mode:multiply" opacity="0.8">
<path d="M203.676 316.401C203.676 315.46 203.14 314.702 202.486 314.702C201.832 314.702 201.303 315.438 201.303 316.401C201.303 317.365 201.832 318.108 202.486 318.108C203.14 318.108 203.676 317.343 203.676 316.401Z" fill="#725E4A"/>
</g>
<path d="M230.16 271.81L231.027 272.678L229.036 279.776L227.742 280.298L230.16 271.81Z" fill="#555F70"/>
<g style="mix-blend-mode:overlay" opacity="0.4">
<path d="M230.16 271.898L231.461 273.112L229.557 279.489L227.742 280.041L230.16 271.898Z" fill="#F2FFC4"/>
</g>
<g style="mix-blend-mode:multiply" opacity="0.6">
<path d="M230.16 271.898L230.77 272.273L228.521 279.953L227.742 280.041L230.16 271.898Z" fill="#725E4A"/>
</g>
<path style="mix-blend-mode:multiply" opacity="0.6" d="M63.1966 230.977L70.8095 235.596L67.6056 244.799C67.6056 244.799 56.3037 246.645 57.2223 241.562C59.2652 237.178 63.1966 230.977 63.1966 230.977Z" fill="url(#paint68_linear)"/>
<g style="mix-blend-mode:multiply" opacity="0.4">
<path d="M125.467 217.545L131.699 216.39L133.771 222.628C133.771 222.628 130.097 226.556 126.158 223.783C125.695 220.553 125.467 217.545 125.467 217.545Z" fill="#725E4A"/>
</g>
<path d="M50.2927 260.121C42.9443 260.121 36.9553 267.006 36.9553 275.495C36.9553 283.984 42.9222 290.861 50.2927 290.861C57.6632 290.861 63.6301 283.984 63.6301 275.495C63.6301 267.006 57.6558 260.121 50.2927 260.121ZM52.049 285.197C47.3974 285.197 43.6277 280.85 43.6277 275.495C43.6277 270.14 47.3974 265.792 52.049 265.792C56.7005 265.792 60.4703 270.132 60.4703 275.495C60.4703 280.857 56.7005 285.197 52.049 285.197V285.197Z" fill="#BCA6B6"/>
<path style="mix-blend-mode:multiply" opacity="0.6" d="M51.9167 263.497C46.038 263.497 41.3276 268.955 41.3276 275.693C41.3276 282.432 46.0674 287.897 51.9167 287.897C57.7661 287.897 62.4985 282.432 62.4985 275.693C62.4985 268.955 57.7587 263.497 51.9167 263.497ZM51.5199 285.565C46.7875 285.565 42.9516 281.152 42.9516 275.693C42.9516 270.235 46.7875 265.829 51.5199 265.829C56.2523 265.829 60.0808 270.243 60.0808 275.693C60.0808 281.144 56.2449 285.565 51.5199 285.565Z" fill="url(#paint69_linear)"/>
<path style="mix-blend-mode:hard-light" opacity="0.6" d="M50.2927 260.121C42.9443 260.121 36.9553 267.006 36.9553 275.495C36.9553 283.984 42.9222 290.861 50.2927 290.861C57.6632 290.861 63.6301 283.984 63.6301 275.495C63.6301 267.006 57.6558 260.121 50.2927 260.121ZM52.049 285.197C47.3974 285.197 43.6277 280.85 43.6277 275.495C43.6277 270.14 47.3974 265.792 52.049 265.792C56.7005 265.792 60.4703 270.132 60.4703 275.495C60.4703 280.857 56.7005 285.197 52.049 285.197V285.197Z" fill="url(#paint70_linear)"/>
<path d="M99.3581 255.788C99.3581 251.081 88.8572 247.263 75.9093 247.263C62.9614 247.263 52.4531 251.081 52.4531 255.788V293.502C52.4531 298.828 62.954 303.146 75.9093 303.146C88.8646 303.146 99.3581 298.828 99.3581 293.502V255.788Z" fill="#BCA6B6"/>
<path style="mix-blend-mode:overlay" d="M99.358 255.81C99.358 251.095 88.982 247.263 76.1811 247.263C63.3801 247.263 53.0115 251.095 53.0115 255.81V293.635C53.0115 298.975 63.3875 303.3 76.1811 303.3C88.9747 303.3 99.358 298.975 99.358 293.635V255.81Z" fill="url(#paint71_linear)"/>
<path d="M294.804 273.17C293.937 269.492 289.256 267.448 284.347 268.602C279.439 269.757 276.169 273.685 277.043 277.371C277.918 281.056 282.591 283.094 287.493 281.931C292.394 280.769 295.671 276.848 294.804 273.17Z" fill="#BCA6B6"/>
<path d="M289.491 269.264L313.513 259.393L314.535 261.202L292.894 269.551L289.491 269.264Z" fill="#7F5475"/>
<path d="M292.607 279.511L316.284 278.121L315.196 276.392L294.363 278.047L292.607 279.511Z" fill="#7F5475"/>
<path d="M290.307 274.899L321.089 270.537L319.855 268.213L292.732 272.663L290.307 274.899Z" fill="#7F5475"/>
<path style="mix-blend-mode:overlay" d="M290.307 274.899L321.089 270.537L319.855 268.213L292.732 272.663L290.307 274.899Z" fill="url(#paint72_linear)"/>
<path style="mix-blend-mode:overlay" d="M289.491 269.264L313.513 259.393L314.535 261.202L292.894 269.551L289.491 269.264Z" fill="url(#paint73_linear)"/>
<path style="mix-blend-mode:overlay" d="M292.607 279.511L316.284 278.121L315.196 276.392L294.363 278.047L292.607 279.511Z" fill="url(#paint74_linear)"/>
<g style="mix-blend-mode:multiply" opacity="0.8">
<path d="M97.4035 254.95C97.4035 252.096 87.777 249.801 75.9093 249.801C64.0416 249.801 54.3784 252.096 54.3784 254.95C54.3784 257.804 64.0049 260.099 75.8799 260.099C87.755 260.099 97.4035 257.811 97.4035 254.95Z" fill="#725E4A"/>
</g>
<g style="mix-blend-mode:multiply" opacity="0.8">
<path d="M75.9092 253.633C66.0549 253.633 57.9643 255.296 57.0164 257.421C60.6906 259.032 67.7524 260.121 75.9092 260.121C84.0659 260.121 91.1204 259.032 94.7946 257.458C93.8467 255.296 85.7561 253.633 75.9092 253.633Z" fill="#725E4A"/>
</g>
<path style="mix-blend-mode:multiply" opacity="0.6" d="M75.9093 262.659C64.8867 262.659 55.5762 260.136 52.4531 256.664V293.635C52.4531 298.975 63.1892 303.3 76.431 303.3C79.4332 303.306 82.4311 303.073 85.3961 302.602V261.997C82.2538 262.445 79.0833 262.666 75.9093 262.659V262.659Z" fill="url(#paint75_linear)"/>
<g style="mix-blend-mode:multiply" opacity="0.6">
<path d="M74.0942 285.065L73.0727 288.978L75.7255 292.038L71.6912 292.281L69.6043 295.746L68.1199 291.98L64.1885 291.067L67.3042 288.493L66.9588 284.462L70.3685 286.639L74.0942 285.065Z" fill="#725E4A"/>
</g>
<g style="mix-blend-mode:multiply" opacity="0.6">
<path d="M89.7904 278.15L86.4983 278.378L84.8155 281.233L83.5809 278.165L80.355 277.444L82.8828 275.318L82.5669 272.023L85.374 273.781L88.4015 272.457L87.6079 275.672L89.7904 278.15Z" fill="#725E4A"/>
</g>
<g style="mix-blend-mode:multiply" opacity="0.6">
<path d="M74.3 271.228L73.5431 273.156L74.7042 274.87L72.6393 274.745L71.3606 276.378L70.8462 274.377L68.9062 273.671L70.6478 272.552L70.714 270.485L72.3159 271.802L74.3 271.228Z" fill="#725E4A"/>
</g>
<path style="mix-blend-mode:overlay" d="M80.7885 264.946L72.2056 300.159C72.2056 300.159 79.9508 301.631 81.4205 300.365C82.8902 299.1 89.3788 263.269 89.3788 263.269L80.7885 264.946Z" fill="url(#paint76_linear)"/>
<path style="mix-blend-mode:multiply" opacity="0.6" d="M285.288 275.929C284.494 272.582 288.639 268.235 284.178 269.309C279.718 270.382 276.749 273.921 277.565 277.268C278.38 280.615 282.598 282.468 287.059 281.409C291.519 280.35 286.074 279.268 285.288 275.929Z" fill="url(#paint77_linear)"/>
<path style="mix-blend-mode:overlay" d="M293.643 273.443C292.908 270.375 289.006 268.661 284.913 269.632C280.82 270.603 278.087 273.877 278.814 276.951C279.542 280.026 283.444 281.733 287.537 280.762C291.63 279.791 294.363 276.517 293.643 273.443Z" fill="url(#paint78_linear)"/>
<path d="M285.097 279.092C287.207 279.092 288.918 277.379 288.918 275.267C288.918 273.154 287.207 271.442 285.097 271.442C282.986 271.442 281.276 273.154 281.276 275.267C281.276 277.379 282.986 279.092 285.097 279.092Z" fill="#421E14"/>
<path d="M285.097 278.047C286.631 278.047 287.875 276.803 287.875 275.267C287.875 273.731 286.631 272.486 285.097 272.486C283.563 272.486 282.319 273.731 282.319 275.267C282.319 276.803 283.563 278.047 285.097 278.047Z" fill="#BCA6B6"/>
<path style="mix-blend-mode:overlay" d="M81.7073 256.892C81.6265 255.089 74.5058 254.81 70.6332 254.81C66.7606 254.81 59.5738 255.428 59.5004 257.068C59.4416 258.407 66.5695 259.143 70.4348 259.143C74.3001 259.143 81.8028 259.253 81.7073 256.892Z" fill="url(#paint79_linear)"/>
<g style="mix-blend-mode:overlay" opacity="0.8">
<path d="M83.7208 252.787C83.7208 252.787 87.0716 246.292 85.8151 241.466C85.5285 240.378 82.0453 229.734 82.2584 227.424C82.4715 225.114 85.1978 215.478 85.8151 215.058C86.4323 214.639 74.6161 224.496 80.7887 236.861C83.3019 241.886 84.7716 247.969 83.7208 252.787Z" fill="#F2FFC4"/>
</g>
<g style="mix-blend-mode:overlay" opacity="0.8">
<path d="M76.1444 252.522C76.1444 252.522 77.8566 246.027 77.8566 243.357C77.8566 240.687 75.3802 236.861 74.9981 232.279C74.616 227.696 72.7127 239.539 74.0428 242.783C75.3728 246.027 76.1444 252.522 76.1444 252.522Z" fill="#F2FFC4"/>
</g>
<path d="M197.834 20.0376H197.753C195.755 19.5815 195.093 18.9342 195.071 18.9048L195.027 18.868V18.8092C195.027 18.6988 192.396 8.08418 199.377 2.26563C201.148 0.735595 202.677 0 203.904 0C207.042 0 207.108 4.86228 207.108 4.90642C207.108 4.95055 207.718 14.6383 197.908 20.0008L197.834 20.0376ZM195.409 18.6253C196.119 19.1135 196.927 19.4422 197.775 19.5889C207.27 14.3515 206.689 5.02411 206.682 4.92848C206.674 4.83286 206.623 0.426645 203.904 0.426645C202.78 0.426645 201.339 1.16224 199.635 2.57458C193.146 7.98856 195.204 17.7425 195.409 18.6253Z" fill="#263238"/>
<path d="M200.421 11.6812C200.106 11.6827 199.799 11.5906 199.536 11.4165C199.274 11.2425 199.07 10.9944 198.949 10.7038C198.828 10.4132 198.796 10.0931 198.857 9.78419C198.918 9.47529 199.069 9.1915 199.291 8.96885C199.514 8.7462 199.797 8.59473 200.106 8.53365C200.414 8.47258 200.734 8.50466 201.024 8.62583C201.315 8.747 201.563 8.95179 201.736 9.21421C201.91 9.47662 202.002 9.78483 202.001 10.0997C201.999 10.5186 201.832 10.9197 201.536 11.2159C201.24 11.5121 200.839 11.6793 200.421 11.6812V11.6812ZM200.421 8.93746C200.191 8.93601 199.966 9.00293 199.774 9.12975C199.582 9.25657 199.432 9.43757 199.343 9.64981C199.254 9.86205 199.23 10.096 199.274 10.3219C199.318 10.5478 199.428 10.7556 199.59 10.9189C199.752 11.0822 199.959 11.1936 200.184 11.239C200.41 11.2845 200.644 11.2619 200.856 11.1742C201.069 11.0864 201.251 10.9375 201.379 10.7462C201.506 10.5549 201.575 10.3299 201.575 10.0997C201.576 9.94742 201.547 9.79646 201.489 9.65549C201.431 9.51452 201.347 9.38634 201.239 9.27832C201.132 9.1703 201.005 9.08457 200.864 9.02607C200.724 8.96757 200.573 8.93746 200.421 8.93746V8.93746Z" fill="#263238"/>
<path d="M198.675 3.18053L198.501 3.57013L206.587 7.18247L206.761 6.79287L198.675 3.18053Z" fill="#263238"/>
<path d="M190.104 16.72L195.248 10.4896L195.027 16.264L190.104 16.72ZM194.77 11.7695L191.059 16.1831L194.586 15.8594L194.77 11.7695Z" fill="#263238"/>
<path d="M203.103 22.6784L199.37 18.8239L203.779 14.756L203.103 22.6784ZM199.98 18.8386L202.758 21.7074L203.265 15.8227L199.98 18.8386Z" fill="#263238"/>
<path d="M190.501 40.3253L189.677 40.1929C190.794 33.2562 193.065 26.7241 195.137 21.244L195.924 21.5456C193.859 26.9816 191.61 33.4622 190.501 40.3253Z" fill="#263238"/>
<path d="M88.6956 56.2803L80.4434 55.9493L87.5346 43.1794L93.1267 42.5026L88.6956 56.2803ZM81.4501 55.3902L88.2621 55.6624L92.2596 43.2162L87.9094 43.7384L81.4501 55.3902Z" fill="#263238"/>
<path d="M93.6115 48.2256L91.7597 44.6874L92.2741 43.2897L89.6507 43.15L86.5791 37.0077L94.0598 32.5942L99.1082 45.7025L93.6115 48.2256ZM92.4211 44.6432L93.8908 47.4385L98.3439 45.4156L93.7512 33.499L87.3727 37.2431L90.0329 42.5688L93.1192 42.7307L92.4211 44.6432Z" fill="#263238"/>
<path d="M97.6828 37.6698L94.7434 32.0131L96.9994 27.217L97.1096 27.1729C99.733 26.0916 103.04 24.3556 103.099 24.3188L103.532 24.6866C103.521 24.7274 103.501 24.7652 103.473 24.7969C102.944 25.9003 97.6828 37.6698 97.6828 37.6698ZM95.4342 31.9984L97.6387 36.2796C98.4103 34.5435 100.718 29.387 102.048 26.4888L101.886 26.68L102.489 25.4663C101.019 26.2387 98.3074 27.3641 97.4476 27.7172L95.4342 31.9984Z" fill="#263238"/>
</g>
<defs>
<linearGradient id="paint0_linear" x1="67.3336" y1="218.457" x2="243.387" y2="218.457" gradientUnits="userSpaceOnUse">
<stop stop-color="#70367A"/>
<stop offset="0.47" stop-color="#D9C0A6"/>
<stop offset="0.8" stop-color="#EAD7AD"/>
</linearGradient>
<linearGradient id="paint1_linear" x1="207.623" y1="214.213" x2="149.122" y2="236.013" gradientUnits="userSpaceOnUse">
<stop stop-color="#FF6C45"/>
<stop offset="1" stop-color="#AF3723"/>
</linearGradient>
<linearGradient id="paint2_linear" x1="18299.1" y1="9086.94" x2="19420.9" y2="9870.06" gradientUnits="userSpaceOnUse">
<stop stop-color="#FF6C45"/>
<stop offset="1" stop-color="#AF3723"/>
</linearGradient>
<linearGradient id="paint3_linear" x1="21162" y1="8736.13" x2="17664" y2="11860.4" gradientUnits="userSpaceOnUse">
<stop stop-color="#FF6C45"/>
<stop offset="1" stop-color="#AF3723"/>
</linearGradient>
<linearGradient id="paint4_linear" x1="172.945" y1="230.094" x2="193" y2="227.099" gradientUnits="userSpaceOnUse">
<stop stop-color="#70367A"/>
<stop offset="0.5" stop-color="#EAD7AD"/>
<stop offset="0.56" stop-color="#EAD7AD"/>
<stop offset="0.75" stop-color="#EAD7AD"/>
</linearGradient>
<linearGradient id="paint5_linear" x1="164.774" y1="210.866" x2="191.008" y2="210.866" gradientUnits="userSpaceOnUse">
<stop stop-color="#70367A"/>
<stop offset="0.47" stop-color="#D9C0A6"/>
<stop offset="0.69" stop-color="#EAD7AD"/>
<stop offset="0.8" stop-color="#EAD7AD"/>
<stop offset="0.84" stop-color="#EAD7AD"/>
</linearGradient>
<linearGradient id="paint6_linear" x1="155.338" y1="209.071" x2="215.008" y2="209.071" gradientUnits="userSpaceOnUse">
<stop stop-color="#70367A"/>
<stop offset="1" stop-color="#FCEEB4"/>
</linearGradient>
<linearGradient id="paint7_linear" x1="3318.95" y1="5288.28" x2="4541.96" y2="5288.28" gradientUnits="userSpaceOnUse">
<stop stop-color="#70367A"/>
<stop offset="1" stop-color="#FCEEB4"/>
</linearGradient>
<linearGradient id="paint8_linear" x1="8062.41" y1="14314" x2="13416.3" y2="9299.84" gradientUnits="userSpaceOnUse">
<stop stop-color="#70367A"/>
<stop offset="1" stop-color="#FCEEB4"/>
</linearGradient>
<linearGradient id="paint9_linear" x1="128.472" y1="136.754" x2="92.906" y2="181.053" gradientUnits="userSpaceOnUse">
<stop offset="0.27" stop-color="#70367A"/>
<stop offset="1" stop-color="#FCEEB4"/>
</linearGradient>
<linearGradient id="paint10_linear" x1="72.6613" y1="130.362" x2="135.978" y2="139.524" gradientUnits="userSpaceOnUse">
<stop offset="0.27" stop-color="#70367A"/>
<stop offset="0.8" stop-color="#BF9E9B"/>
<stop offset="1" stop-color="#FCEEB4"/>
</linearGradient>
<linearGradient id="paint11_linear" x1="2323.16" y1="4097.66" x2="6099.51" y2="4097.66" gradientUnits="userSpaceOnUse">
<stop stop-color="#70367A"/>
<stop offset="1" stop-color="#FCEEB4"/>
</linearGradient>
<linearGradient id="paint12_linear" x1="3647.68" y1="4276.58" x2="4175.74" y2="8736.22" gradientUnits="userSpaceOnUse">
<stop offset="0.27" stop-color="#70367A"/>
<stop offset="1" stop-color="#FCEEB4"/>
</linearGradient>
<linearGradient id="paint13_linear" x1="1583.15" y1="6467.94" x2="1378.98" y2="6481.7" gradientUnits="userSpaceOnUse">
<stop offset="0.27" stop-color="#70367A"/>
<stop offset="1" stop-color="#FCEEB4"/>
</linearGradient>
<linearGradient id="paint14_linear" x1="1537.16" y1="4266.19" x2="1656.27" y2="4266.19" gradientUnits="userSpaceOnUse">
<stop stop-color="#70367A"/>
<stop offset="1" stop-color="#FCEEB4"/>
</linearGradient>
<linearGradient id="paint15_linear" x1="189.068" y1="212.329" x2="239.926" y2="212.329" gradientUnits="userSpaceOnUse">
<stop stop-color="#CC9C23"/>
<stop offset="0.81" stop-color="#EBBF3C"/>
</linearGradient>
<linearGradient id="paint16_linear" x1="7218.71" y1="2073.55" x2="7705.58" y2="2073.55" gradientUnits="userSpaceOnUse">
<stop stop-color="#CC9C23"/>
<stop offset="0.81" stop-color="#EBBF3C"/>
</linearGradient>
<linearGradient id="paint17_linear" x1="26872.3" y1="3210.82" x2="34110.2" y2="3210.82" gradientUnits="userSpaceOnUse">
<stop stop-color="#CC9C23"/>
<stop offset="0.81" stop-color="#EBBF3C"/>
</linearGradient>
<linearGradient id="paint18_linear" x1="15166.4" y1="2679.77" x2="17425" y2="2679.77" gradientUnits="userSpaceOnUse">
<stop stop-color="#CC9C23"/>
<stop offset="0.81" stop-color="#EBBF3C"/>
</linearGradient>
<linearGradient id="paint19_linear" x1="10900.7" y1="5180.46" x2="12057.1" y2="5180.46" gradientUnits="userSpaceOnUse">
<stop stop-color="#CC9C23"/>
<stop offset="0.81" stop-color="#EBBF3C"/>
</linearGradient>
<linearGradient id="paint20_linear" x1="7202.04" y1="3983.29" x2="7841.97" y2="3983.29" gradientUnits="userSpaceOnUse">
<stop stop-color="#CC9C23"/>
<stop offset="0.81" stop-color="#EBBF3C"/>
</linearGradient>
<linearGradient id="paint21_linear" x1="7459.06" y1="1648.37" x2="8093.79" y2="1648.37" gradientUnits="userSpaceOnUse">
<stop stop-color="#CC9C23"/>
<stop offset="0.81" stop-color="#EBBF3C"/>
</linearGradient>
<linearGradient id="paint22_linear" x1="14324.7" y1="4981.61" x2="17327.1" y2="4981.61" gradientUnits="userSpaceOnUse">
<stop stop-color="#CC9C23"/>
<stop offset="0.81" stop-color="#EBBF3C"/>
</linearGradient>
<linearGradient id="paint23_linear" x1="283.752" y1="182.545" x2="290.439" y2="182.545" gradientUnits="userSpaceOnUse">
<stop stop-color="#A93400"/>
<stop offset="1" stop-color="#540025"/>
</linearGradient>
<linearGradient id="paint24_linear" x1="291.02" y1="226.342" x2="300.345" y2="226.342" gradientUnits="userSpaceOnUse">
<stop stop-color="#D15611"/>
<stop offset="1" stop-color="#8656A5"/>
</linearGradient>
<linearGradient id="paint25_linear" x1="2832.25" y1="2496.07" x2="2784.98" y2="2517.33" gradientUnits="userSpaceOnUse">
<stop offset="0.27" stop-color="#70367A"/>
<stop offset="1" stop-color="#FCEEB4"/>
</linearGradient>
<linearGradient id="paint26_linear" x1="239.867" y1="222.753" x2="254.601" y2="222.753" gradientUnits="userSpaceOnUse">
<stop stop-color="#278F91"/>
<stop offset="1" stop-color="#6EDDE0"/>
</linearGradient>
<linearGradient id="paint27_linear" x1="243.034" y1="198.11" x2="251.331" y2="198.11" gradientUnits="userSpaceOnUse">
<stop stop-color="#D89C23"/>
<stop offset="1" stop-color="#96582A"/>
</linearGradient>
<linearGradient id="paint28_linear" x1="2357.08" y1="2034.99" x2="2302.65" y2="2064.39" gradientUnits="userSpaceOnUse">
<stop offset="0.27" stop-color="#70367A"/>
<stop offset="1" stop-color="#FCEEB4"/>
</linearGradient>
<linearGradient id="paint29_linear" x1="199.231" y1="196.823" x2="234.532" y2="196.823" gradientUnits="userSpaceOnUse">
<stop offset="0.01" stop-color="#703E67"/>
<stop offset="1" stop-color="#CC9562"/>
</linearGradient>
<linearGradient id="paint30_linear" x1="5565.51" y1="8454.81" x2="6136.22" y2="8317.48" gradientUnits="userSpaceOnUse">
<stop offset="0.27" stop-color="#70367A"/>
<stop offset="1" stop-color="#FCEEB4"/>
</linearGradient>
<linearGradient id="paint31_linear" x1="327.24" y1="181.479" x2="347" y2="181.479" gradientUnits="userSpaceOnUse">
<stop stop-color="#82ABD8"/>
<stop offset="1" stop-color="#6FC0C6"/>
</linearGradient>
<linearGradient id="paint32_linear" x1="7179.71" y1="4200.32" x2="6824.02" y2="4332.01" gradientUnits="userSpaceOnUse">
<stop offset="0.27" stop-color="#70367A"/>
<stop offset="1" stop-color="#FCEEB4"/>
</linearGradient>
<linearGradient id="paint33_linear" x1="213.565" y1="164.76" x2="231.562" y2="165.265" gradientUnits="userSpaceOnUse">
<stop stop-color="#5D84AF"/>
<stop offset="1" stop-color="#457CAF"/>
</linearGradient>
<linearGradient id="paint34_linear" x1="3164.92" y1="3625.87" x2="3004.21" y2="3625.87" gradientUnits="userSpaceOnUse">
<stop offset="0.27" stop-color="#70367A"/>
<stop offset="1" stop-color="#FCEEB4"/>
</linearGradient>
<linearGradient id="paint35_linear" x1="6488.08" y1="8206.79" x2="7712.56" y2="8206.79" gradientUnits="userSpaceOnUse">
<stop stop-color="#70367A"/>
<stop offset="1" stop-color="#FCEEB4"/>
</linearGradient>
<linearGradient id="paint36_linear" x1="3572.83" y1="3601.58" x2="3870.03" y2="3601.58" gradientUnits="userSpaceOnUse">
<stop stop-color="#70367A"/>
<stop offset="1" stop-color="#FCEEB4"/>
</linearGradient>
<linearGradient id="paint37_linear" x1="2137.7" y1="1012.17" x2="2170.89" y2="1004.31" gradientUnits="userSpaceOnUse">
<stop stop-color="#70367A"/>
<stop offset="1" stop-color="#FCEEB4"/>
</linearGradient>
<linearGradient id="paint38_linear" x1="2828.76" y1="1733.63" x2="2886.47" y2="1719.95" gradientUnits="userSpaceOnUse">
<stop stop-color="#70367A"/>
<stop offset="1" stop-color="#FCEEB4"/>
</linearGradient>
<linearGradient id="paint39_linear" x1="2223.51" y1="1320.52" x2="2271.43" y2="1309.18" gradientUnits="userSpaceOnUse">
<stop stop-color="#70367A"/>
<stop offset="1" stop-color="#FCEEB4"/>
</linearGradient>
<linearGradient id="paint40_linear" x1="5618.03" y1="3909.65" x2="5929.6" y2="3909.65" gradientUnits="userSpaceOnUse">
<stop stop-color="#70367A"/>
<stop offset="1" stop-color="#FCEEB4"/>
</linearGradient>
<linearGradient id="paint41_linear" x1="4264.97" y1="4022.99" x2="3986.19" y2="4113.1" gradientUnits="userSpaceOnUse">
<stop offset="0.27" stop-color="#70367A"/>
<stop offset="1" stop-color="#FCEEB4"/>
</linearGradient>
<linearGradient id="paint42_linear" x1="4001.71" y1="2668.92" x2="4169.84" y2="2629.09" gradientUnits="userSpaceOnUse">
<stop stop-color="#70367A"/>
<stop offset="1" stop-color="#FCEEB4"/>
</linearGradient>
<linearGradient id="paint43_linear" x1="283.319" y1="198.051" x2="310.802" y2="198.051" gradientUnits="userSpaceOnUse">
<stop stop-color="#7E8C53"/>
<stop offset="1" stop-color="#BC9C42"/>
</linearGradient>
<linearGradient id="paint44_linear" x1="7546.54" y1="6377.84" x2="7119.37" y2="6514.57" gradientUnits="userSpaceOnUse">
<stop offset="0.27" stop-color="#70367A"/>
<stop offset="1" stop-color="#FCEEB4"/>
</linearGradient>
<linearGradient id="paint45_linear" x1="7593.26" y1="6474.67" x2="8336.9" y2="6474.67" gradientUnits="userSpaceOnUse">
<stop stop-color="#70367A"/>
<stop offset="1" stop-color="#FCEEB4"/>
</linearGradient>
<linearGradient id="paint46_linear" x1="5536.29" y1="2901.43" x2="5859.74" y2="2901.43" gradientUnits="userSpaceOnUse">
<stop stop-color="#70367A"/>
<stop offset="1" stop-color="#FCEEB4"/>
</linearGradient>
<linearGradient id="paint47_linear" x1="3666.09" y1="5093.62" x2="3776.18" y2="5093.62" gradientUnits="userSpaceOnUse">
<stop stop-color="#70367A"/>
<stop offset="1" stop-color="#FCEEB4"/>
</linearGradient>
<linearGradient id="paint48_linear" x1="241.572" y1="243.401" x2="292.188" y2="243.401" gradientUnits="userSpaceOnUse">
<stop stop-color="#B07FC9"/>
<stop offset="1" stop-color="#E5C06E"/>
</linearGradient>
<linearGradient id="paint49_linear" x1="9850.75" y1="4829.89" x2="10955.1" y2="4168.3" gradientUnits="userSpaceOnUse">
<stop stop-color="#70367A"/>
<stop offset="1" stop-color="#FCEEB4"/>
</linearGradient>
<linearGradient id="paint50_linear" x1="15590.6" y1="6566.62" x2="13704.1" y2="8007.58" gradientUnits="userSpaceOnUse">
<stop offset="0.27" stop-color="#70367A"/>
<stop offset="1" stop-color="#FCEEB4"/>
</linearGradient>
<linearGradient id="paint51_linear" x1="2335.29" y1="17337.3" x2="2380" y2="17337.3" gradientUnits="userSpaceOnUse">
<stop stop-color="#CC9C23"/>
<stop offset="0.81" stop-color="#EBBF3C"/>
</linearGradient>
<linearGradient id="paint52_linear" x1="251.187" y1="168.987" x2="284.586" y2="167.335" gradientUnits="userSpaceOnUse">
<stop stop-color="#D16615"/>
<stop offset="1" stop-color="#EBBF3C"/>
</linearGradient>
<linearGradient id="paint53_linear" x1="9180.69" y1="6626.5" x2="7724.47" y2="6769.24" gradientUnits="userSpaceOnUse">
<stop offset="0.27" stop-color="#70367A"/>
<stop offset="1" stop-color="#FCEEB4"/>
</linearGradient>
<linearGradient id="paint54_linear" x1="9430.22" y1="4119.53" x2="10406.9" y2="3888.18" gradientUnits="userSpaceOnUse">
<stop stop-color="#70367A"/>
<stop offset="1" stop-color="#FCEEB4"/>
</linearGradient>
<linearGradient id="paint55_linear" x1="2161.63" y1="2305.47" x2="2195.94" y2="2290.98" gradientUnits="userSpaceOnUse">
<stop stop-color="#70367A"/>
<stop offset="1" stop-color="#FCEEB4"/>
</linearGradient>
<linearGradient id="paint56_linear" x1="259.37" y1="286.985" x2="292.135" y2="277.308" gradientUnits="userSpaceOnUse">
<stop stop-color="#632E7F"/>
<stop offset="1" stop-color="#9EEFEF"/>
</linearGradient>
<linearGradient id="paint57_linear" x1="8250.43" y1="11496.4" x2="9080.39" y2="10682.1" gradientUnits="userSpaceOnUse">
<stop stop-color="#70367A"/>
<stop offset="1" stop-color="#FCEEB4"/>
</linearGradient>
<linearGradient id="paint58_linear" x1="10429.7" y1="15097.7" x2="12097.5" y2="13417.2" gradientUnits="userSpaceOnUse">
<stop stop-color="#70367A"/>
<stop offset="1" stop-color="#FCEEB4"/>
</linearGradient>
<linearGradient id="paint59_linear" x1="4447.31" y1="2263.37" x2="4308.63" y2="2362.19" gradientUnits="userSpaceOnUse">
<stop offset="0.27" stop-color="#70367A"/>
<stop offset="1" stop-color="#FCEEB4"/>
</linearGradient>
<linearGradient id="paint60_linear" x1="3039.12" y1="2947.42" x2="3439.89" y2="2947.42" gradientUnits="userSpaceOnUse">
<stop stop-color="#70367A"/>
<stop offset="1" stop-color="#FCEEB4"/>
</linearGradient>
<linearGradient id="paint61_linear" x1="6774.99" y1="11516.5" x2="8765.61" y2="11516.5" gradientUnits="userSpaceOnUse">
<stop stop-color="#278F91"/>
<stop offset="1" stop-color="#6EDDE0"/>
</linearGradient>
<linearGradient id="paint62_linear" x1="5116.54" y1="9867.26" x2="4024.83" y2="10545.1" gradientUnits="userSpaceOnUse">
<stop offset="0.27" stop-color="#70367A"/>
<stop offset="1" stop-color="#FCEEB4"/>
</linearGradient>
<linearGradient id="paint63_linear" x1="4648.67" y1="9396.88" x2="5962.75" y2="9304.99" gradientUnits="userSpaceOnUse">
<stop stop-color="#70367A"/>
<stop offset="1" stop-color="#FCEEB4"/>
</linearGradient>
<linearGradient id="paint64_linear" x1="502.291" y1="2632.35" x2="480.579" y2="2634.73" gradientUnits="userSpaceOnUse">
<stop stop-color="#70367A"/>
<stop offset="1" stop-color="#FCEEB4"/>
</linearGradient>
<linearGradient id="paint65_linear" x1="1070.61" y1="1367.56" x2="1103.61" y2="1367.56" gradientUnits="userSpaceOnUse">
<stop stop-color="#70367A"/>
<stop offset="1" stop-color="#FCEEB4"/>
</linearGradient>
<linearGradient id="paint66_linear" x1="1139.31" y1="2682.47" x2="1171.91" y2="2682.47" gradientUnits="userSpaceOnUse">
<stop stop-color="#70367A"/>
<stop offset="1" stop-color="#FCEEB4"/>
</linearGradient>
<linearGradient id="paint67_linear" x1="12682.9" y1="24637.5" x2="23464.6" y2="21195.7" gradientUnits="userSpaceOnUse">
<stop stop-color="#70367A"/>
<stop offset="1" stop-color="#FCEEB4"/>
</linearGradient>
<linearGradient id="paint68_linear" x1="1409.2" y1="4809.37" x2="1662.77" y2="4809.37" gradientUnits="userSpaceOnUse">
<stop offset="0.27" stop-color="#70367A"/>
<stop offset="1" stop-color="#FCEEB4"/>
</linearGradient>
<linearGradient id="paint69_linear" x1="1141.58" y1="9408.26" x2="1751.51" y2="9408.26" gradientUnits="userSpaceOnUse">
<stop offset="0.27" stop-color="#70367A"/>
<stop offset="1" stop-color="#FCEEB4"/>
</linearGradient>
<linearGradient id="paint70_linear" x1="64.6515" y1="270.625" x2="29.2688" y2="282.593" gradientUnits="userSpaceOnUse">
<stop stop-color="#3D367A"/>
<stop offset="1" stop-color="#FCEEB4"/>
</linearGradient>
<linearGradient id="paint71_linear" x1="1153.28" y1="23881.1" x2="5932.52" y2="21514.2" gradientUnits="userSpaceOnUse">
<stop stop-color="#70367A"/>
<stop offset="1" stop-color="#FCEEB4"/>
</linearGradient>
<linearGradient id="paint72_linear" x1="290.307" y1="271.559" x2="321.089" y2="271.559" gradientUnits="userSpaceOnUse">
<stop stop-color="#BCA6B6"/>
<stop offset="1" stop-color="#FCEEB4"/>
</linearGradient>
<linearGradient id="paint73_linear" x1="10155.4" y1="3911.8" x2="11008.8" y2="3911.8" gradientUnits="userSpaceOnUse">
<stop stop-color="#70367A"/>
<stop offset="1" stop-color="#FCEEB4"/>
</linearGradient>
<linearGradient id="paint74_linear" x1="9720.41" y1="1454.92" x2="10483.3" y2="1454.92" gradientUnits="userSpaceOnUse">
<stop stop-color="#70367A"/>
<stop offset="1" stop-color="#FCEEB4"/>
</linearGradient>
<linearGradient id="paint75_linear" x1="2326.18" y1="18002.4" x2="3902.86" y2="18009.2" gradientUnits="userSpaceOnUse">
<stop offset="0.27" stop-color="#70367A"/>
<stop offset="1" stop-color="#FCEEB4"/>
</linearGradient>
<linearGradient id="paint76_linear" x1="1237.76" y1="14685" x2="2303.01" y2="14685" gradientUnits="userSpaceOnUse">
<stop stop-color="#70367A"/>
<stop offset="1" stop-color="#FCEEB4"/>
</linearGradient>
<linearGradient id="paint77_linear" x1="286.383" y1="275.061" x2="276.299" y2="278.673" gradientUnits="userSpaceOnUse">
<stop stop-color="#2C4991"/>
<stop offset="1" stop-color="#FCEEB4"/>
</linearGradient>
<linearGradient id="paint78_linear" x1="4747.74" y1="3985.41" x2="5204.15" y2="3979.91" gradientUnits="userSpaceOnUse">
<stop stop-color="#70367A"/>
<stop offset="1" stop-color="#FCEEB4"/>
</linearGradient>
<linearGradient id="paint79_linear" x1="3882.87" y1="1755.4" x2="2850.33" y2="1972.65" gradientUnits="userSpaceOnUse">
<stop stop-color="#70367A"/>
<stop offset="1" stop-color="#FCEEB4"/>
</linearGradient>
<clipPath id="clip0">
<rect width="347" height="324" fill="white"/>
</clipPath>
</defs>
</svg>
