<svg width="199" height="146" viewBox="0 0 199 146" fill="none" xmlns="http://www.w3.org/2000/svg">
<path d="M182.307 122.593C179.278 125.108 155.943 141.087 122.646 138.515C120.854 123.388 114.022 61.2418 121.792 51.4952C121.792 51.4952 140.645 42.5213 158.012 46.2891C175.379 50.0569 182.138 53.6668 183.375 56.7916C184.313 59.1549 182.974 103.161 182.307 122.593Z" fill="#263238"/>
<path d="M157.436 52.9223C147.433 61.569 134.548 59.7415 134.831 53.1028C134.876 52.0649 135.989 50.7789 135.989 50.7789L135.599 50.181L133.904 47.6259C132.666 45.7138 131.118 43.311 130.038 41.5625C129.134 40.0734 151.677 26.2319 151.677 34.1905C151.677 45.4036 157.193 47.5131 157.193 47.5131C159.273 48.3535 161.234 49.6734 157.436 52.9223Z" fill="white" stroke="#263238" stroke-linecap="round" stroke-linejoin="round"/>
<path d="M163.76 70.0518C163.76 70.0518 161.742 76.95 162.703 78.9297" stroke="white" stroke-linecap="round" stroke-linejoin="round"/>
<path d="M161.402 50.0002C161.402 56.6672 141.492 63.1875 135.66 56.5093" stroke="white" stroke-linecap="round" stroke-linejoin="round"/>
<path d="M145.025 42.3181C145.025 42.3181 143.714 47.3324 137.497 51.2581C137.201 50.7501 136.722 50.3732 136.158 50.2034C135.971 50.173 135.78 50.173 135.593 50.2034L133.897 47.6483C137.09 45.3357 145.025 42.3181 145.025 42.3181Z" fill="#263238"/>
<path d="M147.817 36.1478C147.817 36.1478 147.749 41.1001 146.687 42.1097C138.775 49.6566 131.094 50.2544 129.817 48.2577C121.261 34.8618 123.284 31.3365 122.408 29.0465C120.865 25.0193 118.972 18.4425 119.809 14.4604C121.674 5.55985 138.458 -1.33273 147.297 7.60732C151.535 11.894 152.875 21.1838 151.982 28.9224" fill="white"/>
<path d="M147.817 36.1478C147.817 36.1478 147.749 41.1001 146.687 42.1097C138.775 49.6566 131.094 50.2544 129.817 48.2577C121.261 34.8618 123.284 31.3365 122.408 29.0465C120.865 25.0193 118.972 18.4425 119.809 14.4604C121.674 5.55985 138.458 -1.33273 147.297 7.60732C151.535 11.894 152.875 21.1838 151.982 28.9224" stroke="#263238" stroke-linecap="round" stroke-linejoin="round"/>
<path d="M123.494 24.9061C123.494 24.9061 121.143 23.8514 120.629 25.1092" stroke="#263238" stroke-linecap="round" stroke-linejoin="round"/>
<path d="M129.207 24.9569C129.207 24.9569 134.112 22.9095 136.311 25.3969" stroke="#263238" stroke-linecap="round" stroke-linejoin="round"/>
<path d="M134.632 28.4482C134.711 29.1871 134.35 29.8244 133.83 29.8808C133.31 29.9372 132.813 29.3901 132.734 28.6569C132.654 27.9236 133.016 27.2806 133.536 27.2242C134.056 27.1678 134.548 27.7149 134.632 28.4482Z" fill="#263238"/>
<path d="M125.065 28.6686C125.144 29.4018 124.782 30.0448 124.263 30.1012C123.743 30.1576 123.245 29.6105 123.166 28.8716C123.087 28.1328 123.449 27.501 123.969 27.439C124.489 27.377 124.952 27.941 125.065 28.6686Z" fill="#263238"/>
<path d="M125.279 26.7454C125.963 27.8452 125.59 29.7235 124.686 32.2955C123.782 34.8675 124.578 35.8095 128.048 36.0689" fill="white"/>
<path d="M125.279 26.7454C125.963 27.8452 125.59 29.7235 124.686 32.2955C123.782 34.8675 124.578 35.8095 128.048 36.0689" stroke="#263238" stroke-linecap="round" stroke-linejoin="round"/>
<path d="M128.049 40.5133C128.049 40.5133 132.57 40.1015 134.638 38.9678" stroke="#263238" stroke-linecap="round" stroke-linejoin="round"/>
<path d="M156.713 14.9566C156.713 11.6006 153.401 4.73054 147.586 3.95781C144.252 0.472034 139.487 -0.81398 133.712 0.511516C120.369 3.57426 116.306 16.7277 115.718 18.9049C115.661 19.1079 115.639 19.2207 115.639 19.2207L119.21 18.3126L117.639 21.3359L119.51 22.5712L119.086 23.0449L121.25 25.1319L120.572 21.319C120.991 18.8541 123.828 15.4191 123.828 15.4191C122.792 16.7581 122.149 18.357 121.968 20.0386C123.098 17.1112 129.88 14.3982 129.88 14.3982C127.676 16.1749 126.489 19.6663 126.489 19.6663C128.586 17.0943 133.486 15.4304 136.617 14.5449C137.679 17.0887 139.352 19.7453 141.754 21.2174C144.014 22.605 143.929 25.4647 143.929 25.4647C146.365 27.1515 148.157 29.6103 149.016 32.4419L151.751 36.1758C151.751 36.1758 156.713 30.1067 156.713 14.9566Z" fill="#263238"/>
<path d="M145.177 26.4125C144.267 24.4496 147.59 19.1533 149.941 19.8076C151.264 20.1798 152.993 22.5883 153.332 25.1152C153.671 27.6421 151.88 32.4477 149.97 33.4912C148.755 34.1624 147.76 32.3236 147.76 32.3236" fill="white"/>
<path d="M145.177 26.4125C144.267 24.4496 147.59 19.1533 149.941 19.8076C151.264 20.1798 152.993 22.5883 153.332 25.1152C153.671 27.6421 151.88 32.4477 149.97 33.4912C148.755 34.1624 147.76 32.3236 147.76 32.3236" stroke="#263238" stroke-linecap="round" stroke-linejoin="round"/>
<path d="M1 122.141L64.8549 107.239L198.047 122.592L163.76 146L1 122.141Z" fill="white"/>
<path d="M1 122.141L64.8549 107.239L198.047 122.592" fill="white"/>
<path d="M1 122.141L64.8549 107.239L198.047 122.592" stroke="#263238" stroke-linecap="round" stroke-linejoin="round"/>
<path d="M56.2588 125.131L82.1082 113.726L114.79 115.412L100.255 127.816L56.2588 125.131Z" fill="white" stroke="#263238" stroke-linecap="round" stroke-linejoin="round"/>
<path d="M123.058 50.9363C114.762 54.3205 112.976 61.9294 98.8932 91.9984C98.8932 91.9984 92.6315 93.2788 89.2858 100.865C85.9402 108.451 91.5181 114.442 98.0003 114.239C98.0003 114.239 100.594 116.495 105.912 116.263C111.23 116.032 134.734 80.1366 134.734 80.1366L123.058 50.9363Z" fill="#263238"/>
<path d="M101.357 93.7532C105.065 97.0528 107.195 101.887 106.065 107.239" stroke="white" stroke-linecap="round" stroke-linejoin="round"/>
<path d="M104.935 95.3379C104.935 95.3379 109.495 96.3306 110.196 102.157" stroke="white" stroke-linecap="round" stroke-linejoin="round"/>
<path d="M118.283 78.3039C116.131 73.0044 115.387 67.2397 116.124 61.5688" stroke="white" stroke-linecap="round" stroke-linejoin="round"/>
<path d="M117.622 70.6384C117.272 73.0074 119.724 85.6194 119.713 98.88" stroke="white" stroke-linecap="round" stroke-linejoin="round"/>
<path d="M179.589 53.4187C189.959 58.6248 191.197 74.6266 181.409 93.7532C174.497 107.262 164.957 127.201 158.922 128.538C152.886 129.874 146.997 126.124 146.997 126.124C146.997 126.124 141.911 125.887 140.374 122.277C136.169 112.389 146.862 99.9464 151.066 102.925C151.066 102.925 164.488 73.7862 166.935 71.9474" fill="#263238"/>
<path d="M139.413 116.275C138.023 109.473 148.755 101.441 151.066 102.925C151.066 102.925 159.04 103.376 160.232 108.875" stroke="white" stroke-linecap="round" stroke-linejoin="round"/>
<path d="M168.624 117.731C173.292 109.512 181.407 93.7532 181.407 93.7532" stroke="white" stroke-linecap="round" stroke-linejoin="round"/>
<path d="M151.061 102.925C151.061 102.925 156.65 99.5912 160.82 102.75" stroke="white" stroke-linecap="round" stroke-linejoin="round"/>
<path d="M152.949 98.8801C152.949 98.8801 156.035 92.1116 159.166 85.9071C162.297 79.7027 169.457 70.5144 172.435 70.0688" stroke="white" stroke-linecap="round" stroke-linejoin="round"/>
<path d="M94.0493 111.018C93.3781 110.986 92.7223 110.807 92.1278 110.494C82.5205 105.491 75.0494 97.2219 70.5509 91.2882C68.8 89.0205 67.1883 86.6491 65.7246 84.1869L68.036 74.3557C68.036 74.3557 70.2062 79.9961 78.9262 85.5406C87.6463 91.0851 98.0053 92.9126 101.357 98.5136C104.324 103.404 99.096 111.295 94.0493 111.018Z" fill="white"/>
<path opacity="0.4" d="M94.0493 111.018C93.9421 110.305 93.7525 109.607 93.4842 108.937C91.4666 103.895 79.2597 93.8715 79.2597 93.8715C76.3548 93.7813 73.1618 92.5742 70.5622 91.2882C68.8074 89.0208 67.1919 86.6494 65.7246 84.1869L68.036 74.3557C68.036 74.3557 70.2062 79.9961 78.9262 85.5406C87.6463 91.0851 98.0053 92.9126 101.357 98.5136C104.324 103.404 99.096 111.295 94.0493 111.018Z" fill="#0D7377"/>
<path d="M94.0493 111.018C93.3781 110.986 92.7223 110.807 92.1278 110.494C82.5205 105.491 75.0494 97.2219 70.5509 91.2882C68.8 89.0205 67.1883 86.6491 65.7246 84.1869L68.036 74.3557C68.036 74.3557 70.2062 79.9961 78.9262 85.5406C87.6463 91.0851 98.0053 92.9126 101.357 98.5136C104.324 103.404 99.096 111.295 94.0493 111.018Z" stroke="#263238" stroke-linecap="round" stroke-linejoin="round"/>
<path d="M72.2914 83.6057C72.2914 83.6057 71.099 88.8682 67.9568 87.6894C66.2614 87.052 62.9949 81.9982 62.3789 79.4487L72.2914 83.6057Z" fill="white" stroke="#263238" stroke-linecap="round" stroke-linejoin="round"/>
<path d="M58.4395 51.23L61.0052 49.9045C61.0052 49.9045 68.2615 49.9722 72.76 53.6216C76.846 56.9325 78.9144 62.1329 78.9144 62.1329C78.9144 62.1329 94.7891 53.379 111.003 58.4046L117.621 95.2252L87.1993 97.1993L68.222 79.1951L58.4395 51.23Z" fill="white" stroke="#263238" stroke-linecap="round" stroke-linejoin="round"/>
<path d="M119.708 96.6693C119.708 96.6693 116.142 96.5621 111.372 96.72C104.161 96.9457 94.1977 97.7579 89.6427 100.403L89.428 100.33L85.2573 98.8803L85.1725 98.7562C84.4039 97.6282 78.2043 88.7445 69.3486 85.129L56.8252 50.2036C56.8252 50.2036 69.8234 50.7677 76.9271 62.4884L80.4932 63.7744C80.4932 63.7744 101.714 57.5023 113.593 59.7585L119.708 96.6693Z" fill="#0D7377"/>
<path opacity="0.3" d="M85.1725 98.7562C84.4039 97.6281 78.2044 88.7445 69.3487 85.129L56.8252 50.2036C56.8252 50.2036 69.8234 50.7677 76.9272 62.4884L85.1725 98.7562Z" fill="black" fill-opacity="0.7"/>
<path opacity="0.3" d="M111.371 96.7203C104.16 96.9459 94.1966 97.7581 89.6416 100.403L89.4268 100.33L81.0967 65.0438C81.0967 65.0438 87.9122 63.5152 90.0089 64.288C90.0259 64.288 103.86 74.4915 111.371 96.7203Z" fill="black" fill-opacity="0.7"/>
<path d="M119.708 96.6693C119.708 96.6693 116.142 96.5621 111.372 96.72C104.161 96.9457 94.1977 97.7579 89.6427 100.403L89.428 100.33L85.2573 98.8803L85.1725 98.7562C84.4039 97.6282 78.2043 88.7445 69.3486 85.129L56.8252 50.2036C56.8252 50.2036 69.8234 50.7677 76.9271 62.4884L80.4932 63.7744C80.4932 63.7744 101.714 57.5023 113.593 59.7585L119.708 96.6693Z" stroke="#263238" stroke-linecap="round" stroke-linejoin="round"/>
<path d="M80.5049 63.7744L88.6824 97.6337" stroke="#263238" stroke-linecap="round" stroke-linejoin="round"/>
<path d="M85.2556 98.8803L77.3154 65.0435" stroke="#263238" stroke-linecap="round" stroke-linejoin="round"/>
<path d="M65.0684 84.2381C63.2544 83.7361 59.5979 72.8501 61.2764 68.1686C61.2764 68.1686 63.2657 64.7223 64.1021 64.4854C65.368 64.1187 70.4768 64.2259 70.2338 65.0832C69.6687 67.0687 65.7127 67.0348 65.7127 67.0348L64.4411 69.3587L64.4977 70.6391C64.4977 70.6391 66.34 69.2966 67.0182 69.3305C68.262 69.7921 69.4644 70.3582 70.6124 71.0226C71.8388 71.6712 72.5904 72.021 72.3079 72.6132C71.398 74.5648 67.5211 73.1772 67.5211 73.1772L66.0631 75.3657C66.0631 75.3657 67.4703 75.6139 68.0919 75.6816C68.7136 75.7493 73.8168 79.1448 73.6642 79.5735C73.0595 81.2317 68.2106 79.4381 68.2106 79.4381L67.3516 80.1488C67.3516 80.1488 70.9289 81.0738 71.3076 81.2092C71.8727 81.4179 74.0541 83.0874 74.0202 83.2792C73.7546 84.7457 70.7537 83.6684 70.7537 83.6684L68.1315 83.5612C67.7285 83.913 67.2454 84.1608 66.7243 84.2832" fill="white"/>
<path d="M65.0684 84.2381C63.2544 83.7361 59.5979 72.8501 61.2764 68.1686C61.2764 68.1686 63.2657 64.7223 64.1021 64.4854C65.368 64.1187 70.4768 64.2259 70.2338 65.0832C69.6687 67.0687 65.7127 67.0348 65.7127 67.0348L64.4411 69.3587L64.4977 70.6391C64.4977 70.6391 66.34 69.2966 67.0182 69.3305C68.262 69.7921 69.4644 70.3582 70.6124 71.0226C71.8388 71.6712 72.5904 72.021 72.3079 72.6132C71.398 74.5648 67.5211 73.1772 67.5211 73.1772L66.0631 75.3657C66.0631 75.3657 67.4703 75.6139 68.0919 75.6816C68.7136 75.7493 73.8168 79.1448 73.6642 79.5735C73.0595 81.2317 68.2106 79.4381 68.2106 79.4381L67.3516 80.1488C67.3516 80.1488 70.9289 81.0738 71.3076 81.2092C71.8727 81.4179 74.0541 83.0874 74.0202 83.2792C73.7546 84.7457 70.7537 83.6684 70.7537 83.6684L68.1315 83.5612C67.7285 83.913 67.2454 84.1608 66.7243 84.2832" stroke="#263238" stroke-linecap="round" stroke-linejoin="round"/>
<path d="M64.4994 70.6384C64.4994 70.6384 62.804 72.0598 62.3632 72.4716C61.9224 72.8833 62.0354 74.1637 62.0354 74.1637" stroke="#263238" stroke-linecap="round" stroke-linejoin="round"/>
<path d="M63.2676 77.0742C63.2676 78.5125 64.2283 79.3811 64.6748 79.8437C65.1212 80.3062 63.9627 81.5358 65.2399 82.4664" stroke="#263238" stroke-linecap="round" stroke-linejoin="round"/>
<path d="M146.974 122.491C143.385 123.467 139.486 117.172 134.727 110.302C131.585 105.79 128.07 100.978 124.029 97.8932C123.707 97.6506 123.38 97.4137 123.052 97.1881L125.414 85.3433C130.319 87.9096 133.36 92.0215 138.452 96.2462C146.646 103.054 153.908 107.234 155.92 110.246C157.932 113.258 153.123 120.816 146.974 122.491Z" fill="white"/>
<path opacity="0.4" d="M134.728 110.296C131.586 105.784 128.071 100.973 124.03 97.8873C124.563 97.9144 125.095 97.8338 125.596 97.6504C125.596 97.6504 131.982 102.823 134.728 110.296Z" fill="#0D7377"/>
<path d="M146.974 122.491C143.385 123.467 139.486 117.172 134.727 110.302C131.585 105.79 128.07 100.978 124.029 97.8932C123.707 97.6506 123.38 97.4137 123.052 97.1881L125.414 85.3433C130.319 87.9096 133.36 92.0215 138.452 96.2462C146.646 103.054 153.908 107.234 155.92 110.246C157.932 113.258 153.123 120.816 146.974 122.491Z" stroke="#263238" stroke-linecap="round" stroke-linejoin="round"/>
<path d="M126.759 96.7199C126.514 97.1579 126.109 97.485 125.629 97.6337C125.502 97.6836 125.371 97.7269 125.239 97.7634H125.132C121.34 98.7505 112.806 96.6974 112.806 96.6974C112.806 96.6974 107.217 94.0464 106.878 93.4203C106.642 92.9242 106.432 92.4159 106.251 91.8974L106.098 91.4518C106.098 91.4518 104.086 90.3237 103.837 89.4438C103.589 88.5639 103.165 88.3157 104.403 88.1578C105.64 87.9999 112.315 88.1578 112.315 88.1578L105.053 85.2022C105.053 85.2022 100.243 82.7825 99.7967 81.9308C99.3503 81.0791 98.7908 80.5151 101.249 80.8535C103.707 81.1919 109.076 82.7487 109.076 82.7487L113.281 83.6398L109.076 81.8518C109.076 81.8518 100.803 80.8535 102.368 78.2871H107.064C109.725 78.4043 112.371 78.7401 114.976 79.2911C116.344 79.7085 125.386 85.315 125.386 85.315" fill="white"/>
<path opacity="0.4" d="M125.098 97.7862C121.306 98.7733 112.772 96.7202 112.772 96.7202C112.772 96.7202 107.183 94.0692 106.844 93.4431C106.608 92.947 106.398 92.4386 106.217 91.9202L113.078 92.6873C112.838 93.1186 112.712 93.6039 112.712 94.0974C112.712 94.5908 112.838 95.0761 113.078 95.5075C113.841 96.8612 122.532 98.2487 125.098 97.7862Z" fill="#0D7377"/>
<path d="M126.759 96.7199C126.514 97.1579 126.109 97.485 125.629 97.6337C125.502 97.6836 125.371 97.7269 125.239 97.7634H125.132C121.34 98.7505 112.806 96.6974 112.806 96.6974C112.806 96.6974 107.217 94.0464 106.878 93.4203C106.642 92.9242 106.432 92.4159 106.251 91.8974L106.098 91.4518C106.098 91.4518 104.086 90.3237 103.837 89.4438C103.589 88.5639 103.165 88.3157 104.403 88.1578C105.64 87.9999 112.315 88.1578 112.315 88.1578L105.053 85.2022C105.053 85.2022 100.243 82.7825 99.7967 81.9308C99.3503 81.0791 98.7908 80.5151 101.249 80.8535C103.707 81.1919 109.076 82.7487 109.076 82.7487L113.281 83.6398L109.076 81.8518C109.076 81.8518 100.803 80.8535 102.368 78.2871H107.064C109.725 78.4043 112.371 78.7401 114.976 79.2911C116.344 79.7085 125.386 85.315 125.386 85.315" stroke="#263238" stroke-linecap="round" stroke-linejoin="round"/>
<path d="M106.064 91.4744L114.327 92.6871" stroke="#263238" stroke-linecap="round" stroke-linejoin="round"/>
<path d="M23.7637 116.71L44.4534 122.914L82.3176 114.29C82.3176 114.29 59.1865 107.719 58.9717 107.877C58.757 108.035 23.7637 116.71 23.7637 116.71Z" fill="#0D7377"/>
<path opacity="0.3" d="M23.7637 116.71L44.4534 122.914L82.3176 114.29C82.3176 114.29 59.1865 107.719 58.9717 107.877C58.757 108.035 23.7637 116.71 23.7637 116.71Z" fill="black" fill-opacity="0.7"/>
<path d="M23.7637 116.71L44.4534 122.914L82.3176 114.29C82.3176 114.29 59.1865 107.719 58.9717 107.877C58.757 108.035 23.7637 116.71 23.7637 116.71Z" stroke="#263238" stroke-linecap="round" stroke-linejoin="round"/>
<path d="M24.0574 109.433C22.6107 109.535 22.2433 114.758 23.7635 116.709L57.1914 109.783L59.8702 103.454L24.0574 109.433Z" fill="#0D7377"/>
<path opacity="0.3" d="M24.0574 109.433C22.6107 109.535 22.2433 114.758 23.7635 116.709L57.1914 109.783L59.8702 103.454L24.0574 109.433Z" fill="black" fill-opacity="0.7"/>
<path d="M24.0574 109.433C22.6107 109.535 22.2433 114.758 23.7635 116.709L57.1914 109.783L59.8702 103.454L24.0574 109.433Z" stroke="#263238" stroke-linecap="round" stroke-linejoin="round"/>
<path d="M80.6962 109.36C80.6962 109.36 80.1988 112.107 80.521 113.793L44.4143 121.955L25.3805 116.371C25.3805 116.371 23.4025 112.88 25.1262 110.167L59.9047 104.278L80.6962 109.36Z" fill="white" stroke="#263238" stroke-linecap="round" stroke-linejoin="round"/>
<path d="M24.0586 109.433L59.8714 103.454L82.1095 109.078L44.7087 116.518L24.0586 109.433Z" fill="#0D7377" stroke="#263238" stroke-linecap="round" stroke-linejoin="round"/>
<path d="M25.3291 112.772L44.2669 118.396L75.2647 112.175" stroke="#263238" stroke-linecap="round" stroke-linejoin="round"/>
<path d="M80.4197 112.75L47.0879 119.845" stroke="#263238" stroke-linecap="round" stroke-linejoin="round"/>
<path d="M25.7822 114.967C26.0648 115.001 40.0576 119.299 40.0576 119.299" stroke="#263238" stroke-linecap="round" stroke-linejoin="round"/>
<path d="M77.6953 111.447L80.3458 111.018" stroke="#263238" stroke-linecap="round" stroke-linejoin="round"/>
<path d="M43.6506 120.359L42.249 120.043" stroke="#263238" stroke-linecap="round" stroke-linejoin="round"/>
<path d="M25.1242 110.172C25.8643 111.025 26.2926 112.103 26.3388 113.23C26.385 114.357 26.0464 115.467 25.3785 116.377C24.7599 115.469 24.4083 114.407 24.3633 113.311C24.3184 112.214 24.5819 111.127 25.1242 110.172V110.172Z" fill="#263238"/>
<path opacity="0.3" d="M25.1242 110.172C25.8643 111.025 26.2926 112.103 26.3388 113.23C26.385 114.357 26.0464 115.467 25.3785 116.377C24.7599 115.469 24.4083 114.407 24.3633 113.311C24.3184 112.214 24.5819 111.127 25.1242 110.172V110.172Z" fill="white" fill-opacity="0.7"/>
<path d="M25.1242 110.172C25.8643 111.025 26.2926 112.103 26.3388 113.23C26.385 114.357 26.0464 115.467 25.3785 116.377C24.7599 115.469 24.4083 114.407 24.3633 113.311C24.3184 112.214 24.5819 111.127 25.1242 110.172V110.172Z" stroke="#263238" stroke-linecap="round" stroke-linejoin="round"/>
<path d="M102.475 118.396L138.615 119.879L135.094 132.294L90.6406 130.602L102.475 118.396Z" fill="white"/>
<path opacity="0.4" d="M102.475 118.396L138.615 119.879L135.094 132.294L90.6406 130.602L102.475 118.396Z" fill="#0D7377"/>
<path d="M102.475 118.396L138.615 119.879L135.094 132.294L90.6406 130.602L102.475 118.396Z" stroke="#263238" stroke-linecap="round" stroke-linejoin="round"/>
</svg>
