<svg width="158" height="139" viewBox="0 0 158 139" fill="none" xmlns="http://www.w3.org/2000/svg">
<path d="M93.4196 130.801L9.00935 132.303C7.26749 132.334 5.58453 131.666 4.32944 130.446C3.07434 129.225 2.34952 127.552 2.31387 125.792L0.00142571 12.2072C-0.0344715 10.4643 0.608732 8.77704 1.79246 7.50873C2.9762 6.24042 4.60572 5.49262 6.32998 5.42642L96.9402 1.91746C97.8439 1.88254 98.745 2.03613 99.5873 2.36864C100.43 2.70115 101.195 3.20544 101.836 3.85006C102.477 4.49469 102.979 5.2658 103.312 6.11531C103.645 6.96482 103.801 7.8745 103.77 8.78758L99.885 124.38C99.8278 126.083 99.1249 127.7 97.9217 128.895C96.7185 130.09 95.1068 130.773 93.4196 130.801V130.801Z" fill="#0D7377"/>
<path d="M89.7304 125.186L12.7637 126.553C11.1753 126.582 9.6406 125.972 8.49611 124.859C7.35161 123.746 6.69065 122.22 6.6581 120.615L5.89948 13.6373C5.89468 12.9406 6.15848 12.2693 6.63502 11.7657C7.11156 11.262 7.76344 10.9655 8.45261 10.9388L93.9896 7.62655C94.6794 7.59976 95.3673 7.71692 96.0103 7.97071C96.6533 8.22451 97.2375 8.60948 97.7267 9.10161C98.2158 9.59373 98.5993 10.1824 98.8531 10.831C99.107 11.4795 99.2257 12.1739 99.202 12.8709L95.6248 119.331C95.5724 120.884 94.9316 122.357 93.8347 123.447C92.7378 124.537 91.2686 125.159 89.7304 125.186Z" fill="#DAEBE8"/>
<path d="M30.8986 13.5051L70.0686 12.244C70.5067 12.2301 70.9372 12.125 71.3332 11.9353C71.7293 11.7456 72.0823 11.4754 72.3702 11.1416C72.6581 10.8077 72.8748 10.4175 73.0066 9.99519C73.1384 9.57291 73.1825 9.12769 73.1362 8.68739L72.8259 5.68618C72.6625 4.09882 71.9127 2.63203 70.7261 1.57845C69.5396 0.524865 68.0034 -0.0380518 66.4242 0.00199939L35.166 0.806534C33.5703 0.847757 32.043 1.46943 30.8647 2.55729C29.6864 3.64515 28.9364 5.12609 28.7525 6.72791L28.303 10.654C28.2611 11.0192 28.2976 11.3892 28.41 11.7388C28.5224 12.0884 28.7081 12.4095 28.9545 12.6801C29.2008 12.9506 29.502 13.1644 29.8375 13.3067C30.173 13.4491 30.5349 13.5168 30.8986 13.5051V13.5051Z" fill="#55A6A9"/>
<path d="M33.8966 51.0037C33.7786 51.0037 33.6701 51.0037 33.5556 50.9918L21.0177 50.1193C19.8419 50.0342 18.7415 49.5031 17.9371 48.6326C17.1327 47.762 16.6839 46.6165 16.6807 45.4256V35.0322C16.6777 33.8831 17.1189 32.7782 17.9102 31.9528C18.7015 31.1273 19.7804 30.6465 20.9174 30.6126L34.7213 30.1669C35.2997 30.1476 35.8759 30.2485 36.4141 30.4634C36.9524 30.6782 37.4412 31.0023 37.8504 31.4157C38.2597 31.8291 38.5805 32.323 38.7932 32.8668C39.0058 33.4105 39.1057 33.9926 39.0866 34.5769L38.7197 46.2814C38.679 47.5468 38.1532 48.7466 37.2533 49.6277C36.3534 50.5088 35.1498 51.0022 33.8966 51.0037V51.0037ZM33.7857 47.6259C33.9857 47.6396 34.1863 47.6124 34.3757 47.5461C34.5651 47.4798 34.7393 47.3756 34.8879 47.2398C35.0366 47.104 35.1566 46.9393 35.2409 46.7556C35.3252 46.5719 35.372 46.3729 35.3785 46.1705L35.7489 34.4649C35.7525 34.3423 35.7313 34.2203 35.6865 34.1064C35.6416 33.9924 35.5742 33.889 35.4884 33.8023C35.4025 33.7157 35.3 33.6477 35.1871 33.6026C35.0743 33.5575 34.9535 33.5362 34.8322 33.54L21.0283 33.9857C20.7588 33.9932 20.503 34.1068 20.3153 34.3024C20.1277 34.4979 20.0233 34.7599 20.0243 35.0322V45.4256C20.0252 45.7625 20.1522 46.0866 20.3798 46.3328C20.6073 46.5791 20.9187 46.7293 21.2513 46.7534L33.7857 47.6259Z" fill="#B8D5DC"/>
<path d="M22.6944 35.7842C22.5921 35.6928 22.461 35.641 22.3244 35.6381C22.1879 35.6352 22.0547 35.6814 21.9487 35.7683C21.8426 35.8553 21.7706 35.9774 21.7453 36.113C21.72 36.2486 21.7432 36.3889 21.8107 36.5088L26.5017 44.6138C27.3677 46.4016 29.181 45.7044 30.2488 44.0333L38.9936 30.3431C39.0628 30.2514 39.0962 30.1371 39.0873 30.0221C39.0785 29.9071 39.0281 29.7994 38.9457 29.7196C38.8633 29.6397 38.7547 29.5933 38.6406 29.5892C38.5265 29.585 38.4149 29.6234 38.327 29.6971L30.414 38.1286C26.7235 41.7246 26.3884 39.8176 24.2883 37.5661C23.7149 36.951 22.6944 35.7842 22.6944 35.7842Z" fill="#55A6A9"/>
<path d="M33.8966 80.5141C33.7787 80.5141 33.6701 80.5141 33.5557 80.5021L21.0177 79.6309C19.842 79.5455 18.7418 79.0143 17.9374 78.1438C17.1331 77.2734 16.6842 76.1279 16.6807 74.9371V64.5437C16.6759 63.3941 17.1165 62.2882 17.9082 61.4623C18.6999 60.6365 19.7799 60.1562 20.9174 60.1242L34.7213 59.6784C35.2998 59.659 35.876 59.7598 36.4144 59.9745C36.9527 60.1893 37.4416 60.5134 37.8509 60.9269C38.2601 61.3403 38.581 61.8342 38.7936 62.3781C39.0061 62.9219 39.1059 63.504 39.0867 64.0884L38.7198 75.7941C38.6785 77.059 38.1531 78.2584 37.2542 79.1398C36.3553 80.0213 35.1529 80.5161 33.9002 80.52L33.8966 80.5141ZM33.7857 77.1362C33.9857 77.1501 34.1865 77.1231 34.3759 77.0568C34.5653 76.9905 34.7396 76.8864 34.8883 76.7505C35.037 76.6147 35.157 76.4499 35.2412 76.2661C35.3255 76.0824 35.3722 75.8833 35.3785 75.6809L35.7454 63.9764C35.7487 63.854 35.7272 63.7323 35.6822 63.6186C35.6373 63.505 35.5698 63.4018 35.484 63.3154C35.3981 63.229 35.2958 63.1613 35.1831 63.1163C35.0704 63.0713 34.9498 63.0501 34.8287 63.0539L21.0248 63.4996C20.7552 63.5074 20.4993 63.6213 20.3117 63.8171C20.1242 64.0128 20.0197 64.2749 20.0208 64.5473V74.9407C20.0217 75.2775 20.1488 75.6014 20.3764 75.8475C20.604 76.0936 20.9153 76.2435 21.2478 76.2673L33.7857 77.1362Z" fill="#B8D5DC"/>
<path d="M22.694 65.2956C22.5917 65.2048 22.4609 65.1535 22.3247 65.1508C22.1886 65.148 22.0558 65.194 21.95 65.2807C21.8442 65.3673 21.7721 65.4889 21.7466 65.6241C21.721 65.7592 21.7436 65.8992 21.8103 66.0191L26.5013 74.124C27.3673 75.9119 29.1807 75.2134 30.2484 73.5436L38.9932 59.8534C39.0624 59.7616 39.0958 59.6474 39.087 59.5324C39.0781 59.4174 39.0277 59.3097 38.9453 59.2298C38.8629 59.15 38.7543 59.1036 38.6402 59.0994C38.5261 59.0953 38.4145 59.1337 38.3266 59.2074L30.4136 67.6389C26.7231 71.2361 26.388 69.3278 24.288 67.0763C23.7146 66.4661 22.694 65.2956 22.694 65.2956Z" fill="#55A6A9"/>
<path d="M85.6287 68.7165L49.8376 67.8404C49.4366 67.8317 49.0549 67.6646 48.7744 67.375C48.4939 67.0853 48.3368 66.6962 48.3369 66.2909V66.2909C48.3369 65.88 48.4985 65.4859 48.7861 65.1953C49.0738 64.9047 49.4639 64.7415 49.8707 64.7415H85.552C85.9271 64.7404 86.2895 64.8781 86.5708 65.1287C86.8522 65.3793 87.0328 65.7254 87.0787 66.1014L87.1872 66.9775C87.2143 67.1984 87.1938 67.4226 87.1274 67.6349C87.0609 67.8471 86.9499 68.0424 86.802 68.2074C86.6541 68.3724 86.4728 68.5033 86.2703 68.5912C86.0678 68.679 85.849 68.7218 85.6287 68.7165V68.7165Z" fill="#B8D5DC"/>
<path d="M85.6287 75.4567L49.8376 74.5806C49.4366 74.5719 49.0549 74.4048 48.7744 74.1152C48.4939 73.8255 48.3368 73.4364 48.3369 73.0312V73.0312C48.3369 72.6202 48.4985 72.2261 48.7861 71.9355C49.0738 71.6449 49.4639 71.4817 49.8707 71.4817H85.552C85.9271 71.4806 86.2895 71.6184 86.5708 71.869C86.8522 72.1196 87.0328 72.4656 87.0787 72.8417L87.1872 73.7177C87.2143 73.9386 87.1938 74.1629 87.1274 74.3751C87.0609 74.5873 86.9499 74.7826 86.802 74.9476C86.6541 75.1126 86.4728 75.2435 86.2703 75.3314C86.0678 75.4192 85.849 75.462 85.6287 75.4567V75.4567Z" fill="#B8D5DC"/>
<path d="M33.8966 109.29C33.7787 109.29 33.6701 109.29 33.5557 109.278L21.0177 108.405C19.842 108.32 18.7418 107.789 17.9374 106.918C17.1331 106.048 16.6842 104.903 16.6807 103.712V93.3184C16.6759 92.1687 17.1165 91.0628 17.9082 90.237C18.6999 89.4111 19.7799 88.9309 20.9174 88.8988L34.7213 88.453C35.2993 88.4337 35.875 88.5343 36.4129 88.7487C36.9508 88.9631 37.4395 89.2867 37.8486 89.6995C38.2578 90.1123 38.5788 90.6055 38.7917 91.1486C39.0047 91.6917 39.1051 92.2732 39.0867 92.8571L38.7197 104.563C38.6803 105.828 38.1555 107.029 37.2562 107.911C36.3569 108.793 35.1536 109.287 33.9002 109.29H33.8966ZM33.7857 105.911C33.9857 105.925 34.1865 105.898 34.3759 105.831C34.5653 105.765 34.7396 105.661 34.8883 105.525C35.037 105.389 35.157 105.225 35.2412 105.041C35.3255 104.857 35.3721 104.658 35.3785 104.456L35.7454 92.751C35.7488 92.6285 35.7275 92.5065 35.6826 92.3926C35.6378 92.2787 35.5703 92.1752 35.4845 92.0885C35.3987 92.0018 35.2963 91.9337 35.1835 91.8884C35.0708 91.8431 34.95 91.8215 34.8287 91.8249L21.0248 92.2719C20.7553 92.2794 20.4994 92.393 20.3118 92.5886C20.1242 92.7841 20.0197 93.0461 20.0208 93.3184V103.712C20.0217 104.049 20.1487 104.373 20.3763 104.619C20.6038 104.865 20.9152 105.016 21.2478 105.04L33.7857 105.911Z" fill="#B8D5DC"/>
<path d="M22.694 94.0704C22.5917 93.9796 22.4609 93.9283 22.3247 93.9256C22.1886 93.9229 22.0558 93.9689 21.95 94.0555C21.8442 94.1421 21.7721 94.2638 21.7466 94.3989C21.721 94.5341 21.7436 94.674 21.8103 94.7939L26.5013 102.899C27.3673 104.687 29.1807 103.989 30.2484 102.318L38.9933 88.6294C39.0637 88.5378 39.098 88.4231 39.0897 88.3074C39.0814 88.1917 39.031 88.0832 38.9482 88.0028C38.8654 87.9225 38.7561 87.8759 38.6413 87.8721C38.5266 87.8683 38.4145 87.9075 38.3267 87.9822L30.4136 96.4149C26.7231 100.011 26.3881 98.1027 24.288 95.8523C23.7146 95.2409 22.694 94.0704 22.694 94.0704Z" fill="#55A6A9"/>
<path d="M85.6287 97.4916L49.8376 96.6168C49.4366 96.608 49.0549 96.4409 48.7744 96.1513C48.4939 95.8617 48.3368 95.4725 48.3369 95.0673V95.0673C48.3369 94.6564 48.4985 94.2622 48.7861 93.9717C49.0738 93.6811 49.4639 93.5178 49.8707 93.5178H85.552C85.927 93.5167 86.2895 93.6545 86.5708 93.9051C86.8521 94.1557 87.0328 94.5017 87.0787 94.8778L87.1872 95.7538C87.214 95.9747 87.1935 96.1988 87.1269 96.4108C87.0604 96.6229 86.9494 96.8181 86.8015 96.9829C86.6536 97.1478 86.4723 97.2786 86.2699 97.3664C86.0676 97.4542 85.8488 97.4969 85.6287 97.4916V97.4916Z" fill="#B8D5DC"/>
<path d="M85.6287 104.232L49.8376 103.357C49.4366 103.348 49.0549 103.181 48.7744 102.891C48.4939 102.602 48.3368 102.213 48.3369 101.807V101.807C48.3369 101.396 48.4985 101.002 48.7861 100.712C49.0738 100.421 49.4639 100.258 49.8707 100.258H85.552C85.927 100.257 86.2895 100.394 86.5708 100.645C86.8521 100.896 87.0328 101.242 87.0787 101.618L87.1872 102.494C87.214 102.715 87.1935 102.939 87.1269 103.151C87.0604 103.363 86.9494 103.558 86.8015 103.723C86.6536 103.888 86.4723 104.019 86.2699 104.106C86.0676 104.194 85.8488 104.237 85.6287 104.232V104.232Z" fill="#B8D5DC"/>
<path d="M99.3666 56.5125C99.3666 56.5125 89.6 56.7438 87.8209 47.5375L80.9944 46.0989C80.9944 46.0989 78.5569 60.3028 96.9822 63.8117L99.3666 56.5125Z" fill="white"/>
<path d="M147.015 46.8913L144.661 62.4505L135.79 61.2585L62.5059 51.3729C62.5059 51.3729 63.6857 49.7042 64.4738 47.0225C64.7419 46.1131 64.9356 45.1831 65.0531 44.2417C65.1227 43.6726 65.162 43.1 65.1711 42.5266C65.2061 40.8689 65.1517 39.2105 65.0083 37.5587C64.9007 36.3217 64.729 35.0911 64.4939 33.8722C64.1316 32.0319 63.7647 31.0784 63.7647 31.0784L139.509 45.4646L147.015 46.8913Z" fill="#55A6A9"/>
<path d="M137.324 51.1275L136.691 55.3063L65.0536 44.243C65.1232 43.6739 65.1626 43.1013 65.1716 42.5279C65.2067 40.8698 65.1523 39.211 65.0088 37.5588L137.324 51.1275Z" fill="#0D7377"/>
<path d="M139.383 47.4555L64.4928 33.8678C64.1306 32.0275 63.7637 31.074 63.7637 31.074L139.508 45.4602L139.383 47.4555Z" fill="#0D7377"/>
<path d="M136.269 58.111L135.797 61.2552L62.5059 51.3732C62.5059 51.3732 63.6857 49.7045 64.4738 47.0227L136.269 58.111Z" fill="#0D7377"/>
<path d="M62.5065 51.3734C62.5065 51.3734 54.3327 45.719 49.8022 41.887C48.0784 40.4269 46.8809 39.2314 46.8644 38.7118C46.8467 38.1564 48.3121 37.2636 50.385 36.2803C55.3402 33.9358 63.763 31.0776 63.763 31.0776C69.4238 43.8835 62.5065 51.3734 62.5065 51.3734Z" fill="white"/>
<path d="M49.8021 41.888C48.0784 40.4279 46.8809 39.2324 46.8644 38.7127C46.8467 38.1573 48.312 37.2646 50.385 36.2812C50.7908 37.7354 51.0327 39.9094 49.8021 41.888Z" fill="#263238"/>
<path d="M137.56 45.0955L147.015 46.8917L144.661 62.4508L134.282 61.0515L137.56 45.0955Z" fill="#263238"/>
<path d="M147.016 46.8916C147.016 46.8916 157.363 48.2313 157.41 50.7879C157.457 53.3446 156.584 62.5186 155.134 62.9596C153.684 63.4006 144.662 62.4507 144.662 62.4507L147.016 46.8916Z" fill="#ACC9C5"/>
<path d="M107.704 51.2694C107.704 51.2694 107.363 50.0131 108.824 49.5876C110.285 49.1621 109.283 52.5459 112.913 52.1812C116.544 51.8165 115.319 53.3624 116.487 54.4863C117.655 55.6103 122.774 53.0251 124.61 57.4661C126.446 61.9071 123.219 65.1658 116.876 65.3911C110.534 65.6163 113.04 69.1527 107.674 67.1873C102.308 65.2218 104.682 56.5793 106.192 55.2253C107.702 53.8713 107.704 51.2694 107.704 51.2694Z" fill="#263238"/>
<path d="M102.736 133.733C102.736 133.733 102.687 135.706 101.366 136.263C100.045 136.819 96.216 137.321 97.6459 138.589C98.4718 139.317 102.336 138.847 103.427 138.847C104.518 138.847 105.545 139.323 106.357 138.589C107.25 137.776 106.357 133.733 106.357 133.733C106.357 133.733 105.413 134.229 104.567 134.21C103.346 134.178 102.736 133.733 102.736 133.733Z" fill="#263238"/>
<path d="M117.911 133.733C117.911 133.733 117.862 135.707 116.541 136.264C115.22 136.82 111.39 137.322 112.821 138.59C113.647 139.319 117.511 138.848 118.602 138.848C119.694 138.848 120.726 139.325 121.532 138.59C122.425 137.778 121.532 133.733 121.532 133.733C121.532 133.733 120.588 134.23 119.741 134.21C118.521 134.178 117.911 133.733 117.911 133.733Z" fill="#263238"/>
<path d="M92.9141 79.6533C92.9141 79.6533 93.0084 88.7451 93.7328 104.789C94.3003 117.368 94.1835 129.023 95.2737 134.549C95.6642 136.525 110.1 135.518 109.946 133.343L106.524 94.4865L105.872 82.1837L92.9141 79.6533Z" fill="#55A6A9"/>
<path d="M116.781 86.9204C116.663 87.9252 111.035 87.8036 104.146 86.9204C97.2572 86.0372 91.8973 84.5366 92.0176 83.5271C92.138 82.5175 97.6949 82.3995 104.583 83.2803C111.47 84.1612 116.901 85.9156 116.781 86.9204Z" fill="#263238"/>
<path d="M100.823 85.5507L113.643 134.538C114.259 136.535 126.422 136.267 126.04 134.146L116.096 87.8141C116.041 87.5546 115.917 87.315 115.738 87.1205C115.559 86.926 115.332 86.7839 115.08 86.7092C112.32 85.9058 100.552 83.5769 100.823 85.5507Z" fill="#55A6A9"/>
<path d="M114.139 58.5888C114.139 58.5888 112.831 54.1454 105.862 54.3981C102.038 54.5363 98.0136 53.4446 96.2215 59.5042C94.4871 65.366 92.6053 74.552 92.0166 83.5294C92.0166 83.5294 103.43 81.0013 116.8 86.8989C116.802 86.8989 117.201 66.6949 114.139 58.5888Z" fill="#0D4547"/>
<path d="M119.105 57.9343L114.74 61.56C114.74 61.56 97.3694 66.7413 94.9649 64.2776C93.3131 62.5875 93.6234 56.9104 94.185 55.6601C94.185 55.6601 99.3762 53.6446 105.557 54.1357C106.472 54.2131 107.392 54.2203 108.307 54.1571C114.139 53.8258 119.105 57.9343 119.105 57.9343Z" fill="#0D4547"/>
<path d="M108.142 114.015L104.229 97.1636C103.53 95.0002 102.064 93.1744 100.112 92.0385L100.23 91.8215C102.238 92.9896 103.745 94.8678 104.461 97.0933V97.104L108.376 113.961L108.142 114.015Z" fill="#263238"/>
<path d="M108.652 54.178C108.276 54.1396 107.917 54.0005 107.611 53.775C107.306 53.5496 107.066 53.2459 106.916 52.8955L105.962 50.6583L105.686 50.0087L104.061 46.1851L104.344 50.1458L104.514 52.5224L104.562 53.1994C104.58 53.4662 104.5 53.7303 104.337 53.9408C104.174 54.1514 103.939 54.2936 103.679 54.3401H103.669C103.379 54.8168 102.979 55.7834 104.176 56.1684C105.581 56.6202 107.853 55.5022 108.669 54.178H108.652Z" fill="white"/>
<path d="M105.761 50.4949C105.667 51.7715 104.516 52.5295 104.516 52.5295L104.509 52.5224L104.339 50.1457C104.752 49.992 105.763 50.4735 105.761 50.4949Z" fill="#263238"/>
<path d="M107.812 47.8255C108.647 45.4352 107.77 42.9429 105.852 42.2588C103.935 41.5747 101.703 42.9579 100.867 45.3482C100.032 47.7385 100.909 50.2308 102.827 50.9149C104.744 51.599 106.976 50.2159 107.812 47.8255Z" fill="white"/>
<path d="M103.998 46.5175C103.984 46.5073 103.973 46.4928 103.968 46.4761C103.962 46.4594 103.961 46.4413 103.966 46.4244C103.971 46.4074 103.981 46.3924 103.995 46.3815C104.009 46.3707 104.026 46.3644 104.043 46.3637C104.244 46.3428 104.446 46.3901 104.616 46.498C104.787 46.606 104.918 46.7684 104.987 46.9597C104.996 46.9802 104.996 47.0035 104.989 47.0244C104.981 47.0454 104.965 47.0623 104.945 47.0717C104.924 47.0789 104.902 47.0786 104.881 47.0707C104.861 47.0629 104.844 47.048 104.834 47.0288C104.635 46.7813 104.36 46.6074 104.053 46.5342C104.033 46.5354 104.014 46.5294 103.998 46.5175V46.5175Z" fill="#263238"/>
<path d="M104.317 47.6173C104.257 47.8104 104.095 47.9296 103.957 47.8855C103.819 47.8414 103.757 47.6471 103.817 47.4564C103.877 47.2657 104.039 47.1441 104.171 47.1882C104.303 47.2323 104.378 47.4254 104.317 47.6173Z" fill="#263238"/>
<path d="M101.035 45.9273C101.018 45.924 101.002 45.9152 100.99 45.9021C100.978 45.889 100.97 45.8724 100.968 45.8546C100.966 45.8369 100.97 45.819 100.979 45.8035C100.988 45.7881 101.001 45.7759 101.017 45.7688C101.195 45.6726 101.398 45.6388 101.597 45.6727C101.795 45.7066 101.976 45.8062 102.112 45.9559C102.128 45.9719 102.136 45.9932 102.136 46.0155C102.136 46.0377 102.128 46.0591 102.112 46.0751C102.096 46.0886 102.075 46.096 102.053 46.096C102.032 46.096 102.011 46.0886 101.994 46.0751C101.716 45.9231 101.397 45.8682 101.085 45.9189C101.07 45.9271 101.052 45.93 101.035 45.9273V45.9273Z" fill="#263238"/>
<path d="M101.743 46.8225C101.76 47.0239 101.656 47.1967 101.507 47.2086C101.358 47.2205 101.232 47.068 101.216 46.8666C101.199 46.6651 101.303 46.4923 101.452 46.4804C101.6 46.4685 101.727 46.621 101.743 46.8225Z" fill="#263238"/>
<path d="M111.243 85.8311C111.243 85.8311 97.4954 83.178 93.0381 84.4295L95.1759 87.6297L103.117 88.0838L111.243 85.8311Z" fill="#55A6A9"/>
<path d="M106.714 44.3315C106.315 45.0705 104.452 45.0311 103.161 44.6462C101.551 44.1694 100.962 46.2397 100.655 45.2779C100.349 44.316 100.462 41.5961 102.307 40.5698C104.152 39.5436 108.395 40.6986 108.662 42.1646C109.05 44.3243 107.055 43.6998 106.714 44.3315Z" fill="#263238"/>
<path d="M108.438 43.0107C108.438 43.0107 107.295 42.8999 107.176 43.3909C107.057 43.882 106.003 44.5137 106.595 45.0596C107.188 45.6055 107.288 45.8463 107.103 46.3707C106.973 46.7354 107.323 47.77 107.294 48.5853C107.281 48.9428 106.856 49.5495 106.856 49.5495C106.856 49.5495 109.825 49.5912 110.42 46.3624C110.807 44.2634 109.197 42.9774 108.438 43.0107Z" fill="#263238"/>
<path d="M107.527 48.4648C107.001 48.7032 106.438 48.5459 106.269 48.1073C106.099 47.6686 106.386 47.1287 106.915 46.8903C107.444 46.652 108.004 46.8081 108.174 47.2408C108.344 47.6734 108.054 48.2253 107.527 48.4648Z" fill="white"/>
<path d="M116.013 61.2683C118.057 59.9604 119.442 58.4642 119.105 57.9264C118.767 57.3886 116.837 58.0128 114.792 59.3207C112.747 60.6285 111.363 62.1247 111.7 62.6625C112.037 63.2003 113.968 62.5761 116.013 61.2683Z" fill="#263238"/>
<path d="M117.481 78.0883C117.481 78.0883 115.173 75.9536 113.352 76.1419C111.532 76.3302 109.341 77.9631 110.497 78.0883C111.653 78.2134 113.169 77.9691 113.169 77.9691C113.169 77.9691 109.951 78.6592 110.437 79.3505C110.923 80.0418 113.717 79.4125 113.717 79.4125C113.717 79.4125 109.951 80.5436 110.618 81.0454C111.286 81.5472 114.141 80.6687 114.141 80.6687C114.141 80.6687 110.68 81.8606 111.469 82.4268C112.258 82.993 114.324 81.422 114.809 82.1121C115.294 82.8023 116.207 85.5031 118.272 84.3768L117.481 78.0883Z" fill="white"/>
<path d="M113.168 78.0311C113.154 78.0312 113.141 78.027 113.129 78.0191C113.118 78.0112 113.11 78 113.105 77.987C113.102 77.9786 113.1 77.9697 113.101 77.9607C113.101 77.9517 113.103 77.9429 113.106 77.9347C113.11 77.9265 113.115 77.9191 113.122 77.9129C113.128 77.9068 113.136 77.902 113.144 77.8988C113.182 77.8845 114.069 77.5555 114.56 77.9071C114.574 77.9177 114.584 77.9336 114.587 77.9514C114.591 77.9692 114.587 77.9876 114.576 78.0025C114.571 78.0098 114.565 78.016 114.557 78.0208C114.55 78.0255 114.541 78.0287 114.532 78.0302C114.524 78.0316 114.515 78.0313 114.506 78.0292C114.497 78.0271 114.489 78.0233 114.482 78.018C114.049 77.7081 113.2 78.024 113.19 78.0263C113.183 78.0296 113.175 78.0312 113.168 78.0311V78.0311Z" fill="#263238"/>
<path d="M113.715 79.4756C113.699 79.4765 113.683 79.4713 113.67 79.4612C113.657 79.451 113.649 79.4365 113.646 79.4204C113.643 79.4042 113.646 79.3875 113.654 79.3733C113.662 79.3591 113.675 79.3485 113.691 79.3433C113.726 79.329 114.58 78.994 115.359 79.3433C115.375 79.3508 115.388 79.3646 115.394 79.3815C115.401 79.3985 115.4 79.4173 115.393 79.4339C115.386 79.4503 115.372 79.4631 115.356 79.4696C115.339 79.4761 115.321 79.4757 115.305 79.4684C114.578 79.1418 113.748 79.4684 113.74 79.4684C113.732 79.472 113.724 79.4744 113.715 79.4756Z" fill="#263238"/>
<path d="M114.139 80.7309C114.126 80.7308 114.112 80.7266 114.101 80.7188C114.089 80.7109 114.081 80.6997 114.076 80.6868C114.073 80.6783 114.071 80.6693 114.071 80.6603C114.072 80.6512 114.074 80.6424 114.077 80.6341C114.081 80.6259 114.086 80.6185 114.093 80.6124C114.1 80.6063 114.107 80.6016 114.116 80.5986C114.161 80.5819 115.21 80.1909 115.702 80.6105C115.715 80.6222 115.724 80.6389 115.725 80.657C115.727 80.6751 115.721 80.6931 115.71 80.707C115.698 80.7209 115.682 80.7296 115.664 80.7312C115.646 80.7328 115.628 80.7271 115.614 80.7154C115.182 80.3459 114.174 80.7225 114.163 80.7261C114.156 80.7295 114.148 80.7311 114.139 80.7309Z" fill="#263238"/>
<path d="M118.27 84.3672C121.416 83.1491 126.069 80.1241 126.955 75.428C127.637 71.8105 126.344 67.6889 123.114 63.1764C121.782 61.3259 120.175 59.6945 118.35 58.3396C118.35 58.3396 117.406 58.1168 115.334 59.379C112.841 60.9022 112.465 62.323 112.465 62.323C114.853 64.5483 120.588 69.1442 120.383 72.6758C120.265 74.7402 118.914 76.6616 116.621 77.5483L118.27 84.3672Z" fill="white"/>
<path d="M101.628 48.6853C102.38 48.9439 103.168 49.0787 103.963 49.0846C103.963 49.0846 103.681 50.2181 102.459 49.876C101.748 49.6782 101.628 48.6853 101.628 48.6853Z" fill="#0D7377"/>
<path d="M101.628 48.6853C101.628 48.6853 101.819 49.0024 102.444 49.2157C103.07 49.4291 103.963 49.0846 103.963 49.0846C103.963 49.0846 102.506 48.9892 101.628 48.6853Z" fill="white"/>
<path d="M87.4254 34.241C87.4254 34.241 88.866 33.8989 88.899 35.4329C88.9403 37.384 87.5646 40.297 86.9358 39.2362C86.7942 38.9978 86.9039 37.2815 86.9039 37.2815C86.9039 37.2815 86.1689 40.3483 85.3513 39.8941C84.5337 39.44 85.2132 36.6844 85.2132 36.6844C85.2132 36.6844 84.2364 39.4412 83.6158 38.7761C82.9952 38.1111 83.4978 36.2732 83.4978 36.2732C83.4978 36.2732 82.6896 38.7904 81.9876 38.0026C81.2856 37.2148 82.2543 35.3554 82.4725 34.4829C82.679 33.6581 83.2902 33.6617 84.1243 33.8953C84.3409 33.7681 84.5911 33.7113 84.8407 33.7327C85.0904 33.754 85.3276 33.8524 85.52 34.0145C85.6911 34.154 86.1099 33.8417 86.2633 33.8572C86.6728 33.9023 87.0686 34.033 87.4254 34.241V34.241Z" fill="white"/>
</svg>
