<svg width="404" height="231" viewBox="0 0 404 231" fill="none" xmlns="http://www.w3.org/2000/svg">
<g clip-path="url(#clip0)">
<path d="M346.526 14.5803C300.906 -9.22194 241.52 -3.43236 201.32 28.7293C183.184 43.2427 167.524 63.1812 144.793 68.0838C124.69 72.4033 104.423 63.6429 84.3205 59.3175C65.0613 55.1682 43.7445 55.4233 27.0892 65.9576C5.97268 79.3228 -2.98014 107.457 2.39155 131.873C7.76325 156.288 25.4565 176.731 46.6458 189.926C67.8352 203.121 92.4539 209.828 117.012 214.451C163.791 223.194 212.1 224.816 259.043 216.882C291.249 211.444 323.346 201.202 349.433 181.524C375.521 161.847 394.956 131.708 396.316 99.0305C397.676 66.3524 378.629 31.3294 346.526 14.5803Z" fill="#C2F2C2"/>
<path d="M184.804 71.6621V44.3605L160.428 30.7098L136.052 44.3605V71.6621L160.428 85.3129L184.804 71.6621Z" stroke="#80C965" stroke-linecap="round" stroke-linejoin="round"/>
<path d="M244.227 74.6511V41.3716L214.51 24.738L184.804 44.0447V71.6014L214.51 91.2847L244.227 74.6511Z" stroke="#80C965" stroke-linecap="round" stroke-linejoin="round"/>
<path d="M214.473 24.829V8.92438" stroke="#80C965" stroke-linecap="round" stroke-linejoin="round"/>
<path d="M142.826 49.6642L162.341 38.5103" stroke="#80C965" stroke-linecap="round" stroke-linejoin="round"/>
<path d="M243.839 74.5841L256.464 84.2436" stroke="#80C965" stroke-linecap="round" stroke-linejoin="round"/>
<path d="M55.1494 47.6532V68.5515L73.8016 78.9947L92.4599 68.5515V47.6532L73.8016 37.2101L55.1494 47.6532Z" stroke="#80C965" stroke-linecap="round" stroke-linejoin="round"/>
<path d="M9.67505 45.369V70.8358L32.4061 83.5632L55.1493 68.7946V47.7079L32.4061 32.6416L9.67505 45.369Z" stroke="#80C965" stroke-linecap="round" stroke-linejoin="round"/>
<path d="M32.4426 83.4963V95.6709" stroke="#80C965" stroke-linecap="round" stroke-linejoin="round"/>
<path d="M87.2704 64.4873L72.3389 73.0289" stroke="#80C965" stroke-linecap="round" stroke-linejoin="round"/>
<path d="M9.96645 45.4237L0.303467 38.0242" stroke="#80C965" stroke-linecap="round" stroke-linejoin="round"/>
<path d="M317.938 95.7014L317.367 69.5055L293.422 56.9118L270.029 70.5079L270.594 96.6977L294.557 109.291L317.938 95.7014Z" stroke="#80C965" stroke-linecap="round" stroke-linejoin="round"/>
<path d="M375.697 97.3415L375.011 65.4229L345.81 50.0711L317.361 69.2016L317.931 95.6344L347.187 113.914L375.697 97.3415Z" stroke="#80C965" stroke-linecap="round" stroke-linejoin="round"/>
<path d="M345.773 50.1622L345.446 34.9076" stroke="#80C965" stroke-linecap="round" stroke-linejoin="round"/>
<path d="M276.718 75.459L295.437 64.3597" stroke="#80C965" stroke-linecap="round" stroke-linejoin="round"/>
<path d="M375.321 97.2929L387.782 106.296" stroke="#80C965" stroke-linecap="round" stroke-linejoin="round"/>
<path d="M288.233 230.788C283.031 206.372 287.668 179.957 300.803 159.174C313.938 138.391 335.4 123.507 358.993 118.829C360.365 142.316 354.358 165.643 341.816 185.54C329.379 205.023 310.697 220.114 288.233 230.788Z" fill="#9BD376"/>
<path d="M356.073 121.666C352.34 125.311 348.723 129.072 345.209 132.942C345.209 132.905 345.166 132.857 345.142 132.796C344.997 132.414 344.874 132.025 344.772 131.63L343.187 126.605C343.023 126.077 342.253 126.405 342.423 126.933C342.969 128.647 343.515 130.354 344.055 132.067C344.158 132.603 344.344 133.12 344.608 133.598C338.315 140.576 332.387 147.876 326.848 155.468C325.189 150.254 322.446 145.451 318.799 141.374C318.441 140.985 317.798 141.483 318.156 141.878C321.947 145.988 324.715 150.936 326.235 156.319C325.731 157.011 325.227 157.704 324.735 158.403C319.168 166.243 314.01 174.366 309.282 182.739C307.141 177.122 304.01 171.934 300.038 167.424C299.668 167.005 298.988 167.533 299.364 167.959C303.444 172.577 306.619 177.923 308.724 183.718C305.725 189.076 302.893 194.543 300.226 200.12C299.182 202.315 298.17 204.521 297.191 206.736C295.091 203.102 292.593 199.714 289.744 196.633C289.355 196.214 288.651 196.761 289.046 197.186C292.045 200.382 294.638 203.936 296.766 207.769C294.205 213.613 291.842 219.545 289.677 225.563C289.489 226.079 290.253 226.426 290.442 225.909C292.554 220.069 294.86 214.314 297.361 208.644C297.433 208.68 297.514 208.695 297.594 208.689C297.674 208.682 297.751 208.654 297.816 208.607C300.764 206.631 303.974 205.076 307.352 203.99C309.04 203.452 310.767 203.046 312.517 202.775C314.271 202.508 316.019 202.496 317.78 202.35C318.235 202.313 318.253 201.53 317.78 201.499C315.978 201.441 314.175 201.576 312.402 201.9C310.622 202.183 308.863 202.589 307.139 203.115C303.863 204.103 300.745 205.558 297.883 207.435C301.314 199.74 305.074 192.2 309.161 184.817C309.222 184.871 309.296 184.908 309.376 184.923C309.457 184.938 309.539 184.931 309.616 184.902C317.433 181.464 325.904 179.772 334.441 179.945C334.902 179.945 334.908 179.119 334.441 179.1C325.94 178.793 317.481 180.421 309.701 183.863C310.083 183.183 310.453 182.496 310.842 181.816C315.809 173.127 321.241 164.713 327.115 156.61C330.04 155.167 333.249 154.389 336.51 154.331C339.771 154.273 343.005 154.937 345.979 156.276C346.459 156.489 346.769 155.736 346.295 155.511C343.469 154.206 340.405 153.499 337.293 153.434C334.182 153.369 331.091 153.948 328.213 155.134C331.451 150.748 334.797 146.461 338.253 142.273C340.608 139.438 343.021 136.66 345.494 133.938C345.899 133.844 346.293 133.71 346.671 133.537C349.61 132.595 352.798 132.812 355.582 134.145C356.067 134.357 356.353 133.622 355.897 133.379C353.432 132.129 350.614 131.758 347.91 132.328C347.485 132.418 347.066 132.53 346.653 132.662C349.89 129.139 353.204 125.696 356.595 122.335C356.96 121.976 356.462 121.29 356.073 121.666Z" fill="#5CB24D"/>
<path d="M291.079 228.37C294.885 217.483 300.97 207.536 308.926 199.192C316.882 190.848 326.526 184.301 337.214 179.988C347.901 175.674 359.386 173.695 370.899 174.181C382.412 174.667 393.689 177.608 403.976 182.806C377.311 214.452 333.185 230.247 291.079 228.37Z" fill="#6CBC5C"/>
<path d="M398.895 182.916C394.404 183.055 389.924 183.438 385.475 184.021C386.514 182.488 387.406 180.861 388.14 179.161C388.165 179.071 388.157 178.976 388.117 178.892C388.077 178.807 388.008 178.741 387.922 178.704C387.836 178.668 387.74 178.664 387.652 178.693C387.563 178.722 387.489 178.783 387.442 178.863C386.636 180.744 385.618 182.525 384.407 184.173C378.184 185.046 372.023 186.314 365.961 187.97C367.564 184.304 368.497 180.38 368.717 176.385C368.717 175.893 367.982 175.777 367.958 176.275C367.752 180.336 366.78 184.32 365.093 188.019C365.075 188.084 365.075 188.154 365.093 188.219C361.451 189.236 357.848 190.378 354.283 191.645C350.301 193.067 346.378 194.638 342.514 196.36C343.155 190.98 343.044 185.537 342.186 180.188C342.107 179.702 341.348 179.793 341.427 180.285C342.314 185.736 342.379 191.29 341.622 196.761C335.096 199.707 328.745 203.026 322.599 206.7C322.599 206.651 322.551 206.615 322.532 206.566C322.383 205.931 322.304 205.281 322.296 204.628C322.156 203.364 321.962 202.101 321.689 200.849C321.136 198.131 320.323 195.472 319.261 192.909C319.216 192.827 319.144 192.765 319.056 192.734C318.968 192.703 318.872 192.705 318.786 192.74C318.701 192.776 318.631 192.842 318.591 192.926C318.55 193.01 318.543 193.105 318.569 193.195C319.544 195.565 320.3 198.019 320.827 200.527C321.088 201.773 321.288 203.036 321.434 204.3C321.531 205.193 321.434 206.28 321.846 207.137C318.988 208.856 316.159 210.642 313.391 212.495C311.783 213.571 310.187 214.676 308.608 215.794C308.278 215.072 307.988 214.332 307.74 213.577C306.897 211.462 306.071 209.324 305.24 207.222C305.202 207.131 305.129 207.059 305.038 207.021C304.947 206.984 304.845 206.984 304.754 207.022C304.663 207.059 304.591 207.132 304.553 207.223C304.516 207.314 304.516 207.417 304.554 207.508C305.385 209.628 306.229 211.76 307.049 213.868C307.312 214.679 307.616 215.476 307.959 216.256C302.658 220.034 297.533 224.042 292.584 228.278C292.111 228.685 292.7 229.463 293.191 229.056C298.116 224.824 303.212 220.81 308.481 217.015C309.033 217.498 309.645 217.906 310.302 218.23C311.923 219.233 313.444 220.391 314.842 221.687C316.24 223.052 317.54 224.513 318.733 226.061C318.804 226.115 318.891 226.144 318.98 226.143C319.07 226.142 319.156 226.111 319.226 226.055C319.296 225.999 319.345 225.922 319.365 225.835C319.386 225.748 319.377 225.656 319.34 225.575C317.212 222.549 314.505 219.976 311.376 218.005C310.591 217.586 309.842 217.102 309.136 216.56C313.426 213.498 317.826 210.602 322.338 207.872C322.942 208.396 323.607 208.847 324.317 209.215C325.252 209.822 326.138 210.43 327.03 211.104C328.787 212.446 330.412 213.951 331.886 215.6C333.528 217.469 334.991 219.489 336.256 221.632C336.481 222.003 337.13 221.632 336.918 221.249C334.846 217.55 332.121 214.256 328.875 211.529C327.214 210.161 325.464 208.905 323.637 207.769C323.452 207.65 323.276 207.518 323.109 207.374C325.731 205.811 328.388 204.31 331.078 202.872C334.611 200.989 338.206 199.221 341.864 197.569C348.492 201.318 353.757 207.079 356.899 214.02C357.111 214.488 357.852 214.19 357.64 213.71C354.531 206.782 349.344 200.993 342.799 197.15C350.292 193.8 358.024 191.016 365.931 188.821C368.724 190.131 371.134 192.138 372.93 194.648C374.726 197.159 375.848 200.089 376.189 203.158C376.212 203.25 376.268 203.33 376.347 203.383C376.425 203.436 376.52 203.459 376.614 203.447C376.708 203.435 376.794 203.389 376.857 203.318C376.919 203.247 376.953 203.155 376.953 203.061C376.598 200.018 375.514 197.107 373.794 194.574C372.073 192.041 369.767 189.961 367.072 188.511C369.233 187.932 371.408 187.401 373.597 186.919C377.129 186.15 380.684 185.512 384.261 185.005C384.317 185.055 384.383 185.09 384.455 185.109C385.898 185.488 387.244 186.171 388.401 187.113C389.51 188.076 390.562 189.102 391.551 190.187C391.873 190.509 392.389 189.981 392.109 189.635C391.105 188.396 389.96 187.279 388.698 186.305C387.898 185.675 387.016 185.155 386.076 184.762C390.361 184.216 394.677 183.863 398.998 183.724C399.508 183.687 399.387 182.897 398.895 182.916Z" fill="#3D9B4E"/>
<path d="M284.19 228.613C275.824 222.102 268.837 213.989 263.636 204.747C258.436 195.506 255.125 185.321 253.898 174.785C252.671 164.25 253.552 153.575 256.489 143.384C259.426 133.193 264.361 123.689 271.007 115.427C282.97 132.061 293.756 150.116 297.944 170.176C302.132 190.236 298.836 212.726 284.19 228.613Z" fill="#6CBC5C"/>
<path d="M296.481 190.473C289.143 191.931 282.339 196.153 277.24 201.584C276.342 196.676 275.583 191.737 274.891 186.798C274.571 184.501 274.27 182.199 273.987 179.89C274.044 179.856 274.095 179.813 274.138 179.763C275.356 178.298 276.737 176.977 278.254 175.826C279.7 174.659 281.232 173.603 282.836 172.667C286.126 170.746 289.696 169.353 293.416 168.536C293.968 168.414 293.865 167.533 293.307 167.655C287.641 168.892 282.336 171.42 277.805 175.042C276.384 176.178 275.14 177.472 273.841 178.724C272.85 170.494 272.119 162.238 271.65 153.956C271.72 153.959 271.791 153.947 271.856 153.92C271.921 153.893 271.979 153.851 272.026 153.798C274.02 151.581 276.244 149.584 278.66 147.838C281.117 146.161 283.736 144.736 286.478 143.585C286.586 143.534 286.67 143.442 286.712 143.331C286.755 143.219 286.753 143.095 286.707 142.984C286.661 142.874 286.575 142.785 286.466 142.737C286.356 142.688 286.233 142.683 286.12 142.723C283.277 143.857 280.588 145.342 278.114 147.145C275.73 148.825 273.545 150.772 271.601 152.947C271.443 150.068 271.31 147.188 271.219 144.308C271.098 140.554 271.037 136.797 271.037 133.039C271.522 132.826 271.935 132.195 272.293 131.824C272.839 131.295 273.412 130.796 274.011 130.329C275.249 129.382 276.584 128.567 277.993 127.899C278.49 127.656 278.175 126.873 277.665 127.104C276.393 127.678 275.183 128.38 274.053 129.2C273.447 129.619 272.906 130.068 272.366 130.542C272.069 130.809 271.759 131.077 271.492 131.362C271.34 131.508 271.189 131.721 271.031 131.885C271.031 127.912 271.093 123.94 271.219 119.971C271.219 119.485 270.478 119.364 270.466 119.862C270.337 123.847 270.272 127.831 270.272 131.812C270.022 131.606 269.758 131.417 269.483 131.247C268.958 130.923 268.4 130.654 267.82 130.445C266.556 130.017 265.256 129.706 263.935 129.515C263.822 129.499 263.706 129.527 263.614 129.596C263.522 129.664 263.461 129.766 263.444 129.88C263.427 129.994 263.456 130.109 263.524 130.201C263.592 130.294 263.694 130.355 263.808 130.372C265.199 130.568 266.565 130.916 267.881 131.411C268.539 131.685 269.152 132.056 269.701 132.51C269.892 132.685 270.095 132.845 270.308 132.99C270.308 139.527 270.472 146.06 270.8 152.589C266.885 150.663 262.525 149.824 258.175 150.159C257.641 150.201 257.744 151.027 258.278 150.985C262.632 150.612 267.001 151.511 270.855 153.573C271.017 156.695 271.219 159.816 271.462 162.935C271.866 168.074 272.36 173.208 272.943 178.335C268.383 175.589 263.067 174.371 257.768 174.86C257.161 174.927 257.289 175.82 257.884 175.796C260.604 175.647 263.331 175.895 265.981 176.531C268.492 177.216 270.893 178.255 273.113 179.617C274.019 187.182 275.158 194.709 276.53 202.198C272.967 200.84 269.135 200.34 265.343 200.74C265.231 200.766 265.132 200.833 265.066 200.928C264.999 201.023 264.971 201.139 264.985 201.254C264.999 201.369 265.056 201.474 265.143 201.55C265.231 201.625 265.343 201.666 265.459 201.663C269.264 201.258 273.11 201.796 276.657 203.231H276.724C276.87 204.021 277.009 204.81 277.161 205.6C277.884 209.447 278.8 213.255 279.905 217.009C279.261 216.626 278.582 216.305 277.877 216.049C276.462 215.502 274.95 215.25 273.434 215.308C272.827 215.351 272.827 216.335 273.434 216.371C275.057 216.39 276.663 216.7 278.175 217.289C278.796 217.657 279.441 217.983 280.105 218.267L280.317 218.303C281.31 221.436 282.528 224.494 283.959 227.452C284.22 227.987 285.082 227.635 284.815 227.1C283.362 224.135 282.144 221.059 281.173 217.902C281.282 217.781 281.386 217.653 281.495 217.519C283.48 215.089 286.879 213.953 289.707 212.896C290.235 212.696 289.901 211.882 289.367 212.082C286.618 213.103 283.741 214.184 281.556 216.213C281.319 216.432 281.094 216.669 280.864 216.9C279.953 213.862 279.201 210.77 278.551 207.684C278.203 206.04 277.875 204.387 277.568 202.727C280.056 199.972 282.946 197.608 286.138 195.716C289.49 193.793 293.094 192.347 296.845 191.421C297.264 191.275 297.027 190.364 296.481 190.473Z" fill="#3D9B4E"/>
<g opacity="0.72">
<path opacity="0.72" d="M232.525 208.178C234.387 200.368 229.571 192.526 221.768 190.663C213.965 188.799 206.13 193.62 204.269 201.429C202.407 209.239 207.223 217.081 215.026 218.944C222.829 220.808 230.663 215.987 232.525 208.178Z" fill="#FEFFFE"/>
<path opacity="0.72" d="M222.03 165.468H214.764V204.81H222.03V165.468Z" fill="#FEFFFE"/>
<path opacity="0.72" d="M211.347 165.851V163.421C211.347 163.289 211.4 163.162 211.493 163.068C211.587 162.975 211.713 162.922 211.845 162.922H224.944C225.076 162.922 225.202 162.975 225.296 163.068C225.389 163.162 225.441 163.289 225.441 163.421V165.851C225.441 165.983 225.389 166.11 225.296 166.203C225.202 166.296 225.076 166.349 224.944 166.349H211.833C211.768 166.348 211.705 166.335 211.645 166.309C211.586 166.284 211.532 166.247 211.487 166.2C211.442 166.154 211.407 166.099 211.383 166.039C211.359 165.979 211.347 165.915 211.347 165.851Z" fill="#FEFFFE"/>
<path opacity="0.72" d="M228.652 204.81C228.652 207.532 227.572 210.142 225.65 212.066C223.727 213.99 221.119 215.071 218.4 215.071C215.682 215.071 213.074 213.99 211.151 212.066C209.229 210.142 208.149 207.532 208.149 204.81C208.143 202.835 208.72 200.901 209.806 199.252H227.007C228.089 200.903 228.661 202.836 228.652 204.81Z" fill="#36D6C1"/>
<path opacity="0.72" d="M185.745 219.348C193.767 219.348 200.27 212.839 200.27 204.81C200.27 196.781 193.767 190.273 185.745 190.273C177.723 190.273 171.22 196.781 171.22 204.81C171.22 212.839 177.723 219.348 185.745 219.348Z" fill="#FEFFFE"/>
<path opacity="0.72" d="M189.381 165.468H182.115V204.81H189.381V165.468Z" fill="#FEFFFE"/>
<path opacity="0.72" d="M178.698 165.851V163.421C178.698 163.289 178.751 163.162 178.844 163.068C178.937 162.975 179.064 162.922 179.196 162.922H192.294C192.426 162.922 192.553 162.975 192.646 163.068C192.74 163.162 192.792 163.289 192.792 163.421V165.851C192.792 165.983 192.74 166.11 192.646 166.203C192.553 166.296 192.426 166.349 192.294 166.349H179.196C179.13 166.35 179.065 166.337 179.005 166.313C178.944 166.288 178.889 166.251 178.842 166.205C178.796 166.158 178.759 166.103 178.735 166.042C178.71 165.981 178.697 165.916 178.698 165.851Z" fill="#FEFFFE"/>
<path opacity="0.72" d="M196.003 204.81C196.003 207.532 194.923 210.142 193.001 212.066C191.078 213.99 188.47 215.071 185.751 215.071C183.033 215.071 180.425 213.99 178.502 212.066C176.58 210.142 175.5 207.532 175.5 204.81C175.5 204.47 175.5 204.142 175.548 203.82H195.955C195.985 204.124 196.003 204.47 196.003 204.81Z" fill="#F59E42"/>
<path opacity="0.72" d="M252.19 219.348C260.212 219.348 266.715 212.839 266.715 204.81C266.715 196.781 260.212 190.273 252.19 190.273C244.169 190.273 237.666 196.781 237.666 204.81C237.666 212.839 244.169 219.348 252.19 219.348Z" fill="#FEFFFE"/>
<path opacity="0.72" d="M255.82 165.468H248.555V204.81H255.82V165.468Z" fill="#FEFFFE"/>
<path opacity="0.72" d="M245.137 165.851V163.421C245.137 163.289 245.19 163.162 245.283 163.068C245.377 162.975 245.503 162.922 245.635 162.922H258.734C258.866 162.922 258.992 162.975 259.086 163.068C259.179 163.162 259.231 163.289 259.231 163.421V165.851C259.231 165.983 259.179 166.11 259.086 166.203C258.992 166.296 258.866 166.349 258.734 166.349H245.635C245.57 166.35 245.505 166.337 245.444 166.313C245.383 166.288 245.328 166.251 245.281 166.205C245.235 166.158 245.198 166.103 245.174 166.042C245.149 165.981 245.137 165.916 245.137 165.851Z" fill="#FEFFFE"/>
<path opacity="0.72" d="M261.86 208.2C261.16 210.21 259.852 211.953 258.119 213.186C256.385 214.418 254.311 215.081 252.184 215.081C250.058 215.081 247.984 214.418 246.25 213.186C244.516 211.953 243.209 210.21 242.509 208.2H261.86Z" fill="#ED644C"/>
</g>
<path d="M272.682 198.413H165.248V201.53H272.682V198.413Z" fill="#012C34"/>
<path d="M203.014 200.491H200.938V225.757H203.014V200.491Z" fill="#012C34"/>
<path d="M236.227 201.53H234.151V226.796H236.227V201.53Z" fill="#012C34"/>
<path d="M271 201.53H268.925V226.796H271V201.53Z" fill="#012C34"/>
<path d="M168.756 201.53H166.68V226.796H168.756V201.53Z" fill="#012C34"/>
<path d="M109.947 224.542C113.681 213.212 114.893 201.202 113.499 189.353C112.104 177.505 108.136 166.105 101.874 155.954C95.4707 145.893 86.9454 137.355 76.8962 130.941C66.847 124.526 55.5173 120.391 43.7019 118.823C41.8791 140.036 46.5922 161.299 57.207 179.75C67.7865 198.049 84.114 212.945 109.947 224.542Z" fill="#9BD376"/>
<path d="M109.297 223.26C107.424 218.554 105.502 213.866 103.531 209.197C103.531 209.197 103.531 209.197 103.561 209.154C105.17 206.173 107.676 203.775 110.724 202.301C110.772 202.279 110.816 202.246 110.852 202.207C110.889 202.167 110.917 202.121 110.935 202.07C110.953 202.02 110.961 201.966 110.959 201.913C110.957 201.859 110.944 201.806 110.921 201.758C110.898 201.709 110.866 201.665 110.827 201.629C110.787 201.593 110.741 201.565 110.69 201.546C110.64 201.528 110.586 201.52 110.533 201.522C110.479 201.524 110.426 201.537 110.378 201.56C107.377 203.055 104.861 205.373 103.124 208.243C100.508 202.077 97.7831 195.959 94.8879 189.926C97.8074 182.533 102.129 175.346 107.907 169.848C108.29 169.484 107.737 168.852 107.385 169.241C104.56 172.196 101.991 175.387 99.7072 178.778C97.6071 181.981 95.8282 185.383 94.3962 188.936C92.7574 185.552 91.0761 182.193 89.322 178.864C87.4403 175.295 85.4818 171.772 83.4465 168.293C85.2593 161.835 88.5891 155.905 93.158 150.997C93.5101 150.614 92.9881 149.989 92.636 150.39C88.1613 155.228 84.8318 161.013 82.8941 167.315C78.7072 160.179 74.1256 153.284 69.1705 146.659C69.2301 146.595 69.2701 146.515 69.2858 146.429C70.2948 141.422 72.221 136.645 74.9671 132.34C75.2342 131.915 74.615 131.466 74.3601 131.885C71.5432 136.137 69.5995 140.907 68.6424 145.918C67.2646 144.096 65.8625 142.316 64.3936 140.554C61.7392 137.314 58.9714 134.171 56.0903 131.125C56.1596 129.875 56.3487 128.634 56.6548 127.42C56.9805 126.229 57.3861 125.062 57.8687 123.926C58.0569 123.452 57.371 123.234 57.1525 123.659C56.1156 125.761 55.4971 128.045 55.3316 130.384C52.6245 127.549 49.8162 124.829 46.9068 122.225C46.5608 121.915 46.1481 122.505 46.488 122.833C49.2396 125.299 51.8921 127.863 54.4454 130.524C52.0273 130.128 49.5562 130.191 47.1617 130.712C47.0709 130.74 46.9936 130.801 46.9444 130.882C46.8952 130.964 46.8776 131.06 46.8948 131.154C46.912 131.248 46.9628 131.332 47.0378 131.39C47.1127 131.449 47.2065 131.478 47.3013 131.472C49.9406 130.892 52.6741 130.892 55.3134 131.472C59.7017 136.105 63.8371 140.972 67.7016 146.052C61.1524 146.398 55.2951 149.831 49.796 153.166C49.3893 153.415 49.7049 154.095 50.1177 153.846C55.6593 150.487 61.6501 146.933 68.2843 146.811C70.8053 150.144 73.219 153.557 75.5255 157.048C77.9534 160.741 80.3024 164.508 82.536 168.329C82.5333 168.345 82.5333 168.362 82.536 168.378C73.6742 167.041 65.1402 171.804 57.9901 176.47C57.5106 176.78 58.0872 177.46 58.5607 177.15C65.7472 172.46 73.9231 167.983 82.8031 169.253C82.8944 169.263 82.9864 169.241 83.0641 169.192C86.8698 175.777 90.3477 182.557 93.6739 189.398C86.0326 189.308 78.4777 191.023 71.6227 194.404C71.5364 194.449 71.4709 194.525 71.4399 194.618C71.409 194.71 71.4149 194.811 71.4565 194.899C71.4981 194.987 71.5722 195.055 71.6631 195.09C71.7541 195.124 71.8549 195.122 71.9444 195.084C78.837 191.69 86.4501 190.022 94.1292 190.224C95.4402 192.978 96.723 195.742 97.9774 198.517C99.426 201.769 100.848 205.055 102.244 208.376C100.211 207.945 98.1278 207.794 96.0533 207.927C93.5622 208.03 91.1125 208.599 88.8303 209.604C88.3387 209.841 88.6907 210.527 89.1823 210.357C91.3623 209.534 93.6425 209.007 95.9622 208.79C98.2157 208.653 100.477 208.858 102.669 209.397C104.672 214.14 106.623 218.909 108.52 223.704C108.715 224.172 109.51 223.783 109.297 223.26Z" fill="#5CB24D"/>
<path d="M108.551 224.336C84.7089 187.393 40.6185 171.185 0.86792 184.756C25.1528 221.055 66.8518 239.402 108.551 224.336Z" fill="#6CBC5C"/>
<path d="M106.402 222.744C101.303 220.602 96.1887 218.498 91.0578 216.432C90.4075 213.922 89.9409 211.368 89.6618 208.789C89.4139 206.049 89.3389 203.296 89.4372 200.546C89.4372 200.047 88.6967 199.968 88.6603 200.479C88.3346 205.722 88.8427 210.984 90.1655 216.067C85.1641 214.042 80.1566 212.044 75.143 210.071V210.029C73.8707 204.895 73.5681 199.569 74.2508 194.325C74.2506 194.231 74.2154 194.14 74.1519 194.071C74.0885 194.001 74.0015 193.958 73.908 193.95C73.8144 193.942 73.7211 193.969 73.6464 194.026C73.5717 194.083 73.521 194.165 73.5042 194.258C73.1877 196.878 73.0943 199.52 73.225 202.155C73.3913 204.686 73.7259 207.203 74.2265 209.689L67.0703 206.852L56.7154 202.751C56.7392 202.694 56.7515 202.633 56.7515 202.572C56.7515 202.51 56.7392 202.449 56.7154 202.392C54.6313 196.609 53.9327 190.416 54.6759 184.313C54.7488 183.796 53.9051 183.705 53.8626 184.24C53.5561 187.355 53.5561 190.493 53.8626 193.608C54.2187 196.606 54.8963 199.557 55.8838 202.411C48.6002 199.549 41.3165 196.73 33.9782 194.088C33.9418 193.954 33.9054 193.814 33.8568 193.662C32.8475 190.205 32.5117 186.585 32.8675 183.001C32.8671 182.904 32.8304 182.81 32.7647 182.739C32.6991 182.667 32.6091 182.623 32.5125 182.615C32.4159 182.607 32.3197 182.635 32.2428 182.694C32.1658 182.753 32.1137 182.838 32.0966 182.934C31.7676 186.242 32.012 189.581 32.8189 192.806C32.8978 193.122 33.0192 193.456 33.1224 193.784C31.3784 193.164 29.6323 192.557 27.8842 191.961C24.4913 190.801 21.0801 189.695 17.6446 188.669C17.1655 187.644 16.7599 186.586 16.4307 185.504C16.0847 184.374 15.8965 183.225 15.6477 182.077C15.6197 181.989 15.5604 181.913 15.4809 181.865C15.4014 181.817 15.3072 181.799 15.2157 181.816C15.1243 181.832 15.0419 181.881 14.984 181.954C14.9261 182.027 14.8967 182.118 14.9011 182.211C15.1455 184.346 15.7381 186.427 16.6553 188.371C12.9285 187.278 9.17131 186.275 5.38381 185.394C4.89216 185.279 4.61295 186.002 5.1046 186.135C8.87996 187.004 12.625 188.007 16.3336 189.094C14.1606 190.146 12.2551 191.679 10.7616 193.577C10.4459 193.978 11.0893 194.428 11.405 194.033C13.0034 192.007 15.0928 190.424 17.4747 189.434C22.7857 191.02 28.042 192.8 33.2559 194.683C33.177 195.169 32.6489 195.436 32.2848 195.752C30.6415 197.108 29.0903 198.571 27.6414 200.132C26.1755 201.621 24.8582 203.248 23.7083 204.993C23.6492 205.085 23.6279 205.196 23.6486 205.303C23.6694 205.41 23.7306 205.506 23.8197 205.569C23.9087 205.632 24.0187 205.659 24.1268 205.643C24.2349 205.627 24.3328 205.571 24.4002 205.485C25.8387 203.735 27.1498 201.925 28.7158 200.278C30.2818 198.632 31.9327 197.314 33.5715 195.831C33.8373 195.617 34.0146 195.312 34.0693 194.975C37.5776 196.244 41.0676 197.563 44.5517 198.899C48.0357 200.236 51.5986 201.621 55.119 203C50.1215 206.824 46.0576 211.735 43.2345 217.361C43.016 217.799 43.7262 218.054 43.9447 217.629C46.7977 211.996 50.9179 207.103 55.9809 203.334C61.8483 205.63 67.7157 207.951 73.5831 210.296C68.7273 213.449 65.128 218.613 62.0081 223.376C61.9573 223.464 61.9411 223.568 61.9628 223.667C61.9845 223.766 62.0426 223.854 62.1255 223.912C62.2084 223.971 62.3102 223.996 62.4109 223.984C62.5116 223.971 62.6039 223.921 62.6697 223.844C64.4178 221.371 66.0809 218.85 68.0475 216.553C69.9343 214.301 72.136 212.332 74.5846 210.709C77.6923 211.955 80.806 213.194 83.9137 214.452C85.9592 215.278 87.9926 216.116 90.032 216.954C87.0859 219.644 84.4863 222.691 82.2931 226.025C82.0261 226.438 82.6452 226.875 82.9001 226.468C85.1371 223.08 87.7991 219.993 90.8211 217.283C95.9196 219.372 101.018 221.458 106.117 223.54C106.614 223.746 106.906 222.957 106.402 222.744Z" fill="#3D9B4E"/>
<path d="M232.749 67.373L256.907 85.4586" stroke="#40A0C6" stroke-width="4" stroke-miterlimit="10"/>
<path d="M265.453 18.8147L295.322 42.9268" stroke="#40A0C6" stroke-width="4" stroke-miterlimit="10"/>
<path d="M260.943 30.0111L285.276 49.6519" stroke="#40A0C6" stroke-width="4" stroke-miterlimit="10"/>
<path d="M248.591 45.5755L271.607 64.1532" stroke="#40A0C6" stroke-width="4" stroke-miterlimit="10"/>
<path d="M237.49 53.4429L267.365 77.555" stroke="#40A0C6" stroke-width="4" stroke-miterlimit="10"/>
<path d="M218.941 84.9301L239.845 102.821" stroke="#40A0C6" stroke-width="4" stroke-miterlimit="10"/>
<path d="M298.399 38.8807C298.399 38.8807 287.474 55.891 269.307 48.7345C251.14 41.5781 242.552 47.3859 237.326 53.8316C227.305 66.2795 235.754 80.3919 237.751 86.2058C241.738 97.791 241.647 110.421 230.764 122.869" stroke="#71C9B8" stroke-width="8" stroke-linecap="round" stroke-linejoin="round"/>
<path d="M268.73 14.9571C268.73 14.9571 254.436 29.2943 265.301 45.5149C276.166 61.7354 272.336 71.3888 267.122 77.8588C257.101 90.3006 241.532 85.0395 235.426 84.3227C223.286 82.8829 210.959 85.6592 201.12 98.9455" stroke="#2A8FA0" stroke-width="8" stroke-linecap="round" stroke-linejoin="round"/>
<path d="M272.979 190.558C283.334 189.368 293.756 188.863 304.177 189.045C301.49 183.367 300.091 177.164 300.08 170.881C300.08 170.073 300.032 169.119 299.352 168.676C299.055 168.541 298.734 168.467 298.407 168.458C298.081 168.449 297.757 168.504 297.452 168.621C289.593 170.513 281.422 170.72 273.477 169.228C275.807 175.692 276.506 182.764 272.979 190.558Z" fill="#6F788C"/>
<path d="M275.875 226.529L276.014 217.744L282.806 217.775L281.811 225.441L275.875 226.529Z" fill="#FEA483"/>
<path d="M267.777 230.484C268.075 231.371 282.515 230.988 283.182 230.259C283.264 230.142 283.322 230.01 283.352 229.87C283.382 229.73 283.384 229.586 283.358 229.445C283.237 227.993 282.175 225.46 282.144 225.296C278.964 225.551 278.047 225.478 275.134 225.563C274.193 226.043 268.779 227.659 267.85 229.67C267.782 229.793 267.74 229.929 267.728 230.069C267.715 230.209 267.732 230.351 267.777 230.484Z" fill="#1A132E"/>
<path d="M267.778 230.484C268.075 231.371 282.515 230.988 283.183 230.259C283.265 230.142 283.322 230.01 283.353 229.87C283.383 229.73 283.385 229.586 283.359 229.445C280.697 229.869 278.01 230.113 275.316 230.174C272.82 230.142 270.328 229.973 267.85 229.67C267.781 229.792 267.738 229.928 267.726 230.069C267.713 230.209 267.731 230.351 267.778 230.484Z" fill="#5C6491"/>
<path d="M296.341 226.085L295.049 218.133L301.47 216.632L302.265 224.937L296.341 226.085Z" fill="#FEA483"/>
<path d="M288.275 230.113C288.584 230.994 303.018 230.484 303.674 229.749C303.754 229.631 303.811 229.498 303.84 229.359C303.87 229.219 303.871 229.075 303.844 228.935C303.71 227.483 302.63 224.961 302.581 224.797C299.407 225.083 298.484 225.016 295.571 225.125C294.636 225.618 289.24 227.282 288.335 229.299C288.269 229.423 288.23 229.559 288.219 229.7C288.209 229.84 288.228 229.981 288.275 230.113Z" fill="#1A132E"/>
<path d="M288.275 230.113C288.584 230.994 303.018 230.484 303.674 229.749C303.754 229.631 303.811 229.498 303.84 229.359C303.87 229.219 303.871 229.075 303.844 228.935C301.186 229.38 298.501 229.648 295.807 229.736C293.31 229.731 290.816 229.585 288.335 229.299C288.269 229.423 288.23 229.559 288.219 229.7C288.209 229.84 288.228 229.981 288.275 230.113Z" fill="#5C6491"/>
<path d="M276.026 151.817L274.284 224.39L283.498 224.172L287.322 178.238L294.375 223.813H303.856L298.126 150.748L276.026 151.817Z" fill="#1A132E"/>
<path d="M250.066 122.602L253.149 126.539L250.23 131.429L247.675 127.541L250.066 122.602Z" fill="#E8AA80"/>
<path d="M278.466 127.541L277.446 123.416C275.657 124.123 274.068 125.26 272.821 126.727C271.152 128.707 262.114 135.426 262.114 135.426L253.155 124.601L247.881 132.322C247.881 132.322 256.142 148.233 260.451 148.233C264.761 148.233 276.123 142.51 276.123 142.51L278.466 127.541Z" fill="#EDE6E7"/>
<path d="M249.483 136.471L256.33 127.438L253.301 124.382L246.825 131.739L249.483 136.471Z" fill="#A3B3E3"/>
<path d="M227.335 107.08L258.964 135.026" stroke="#40A0C6" stroke-width="4" stroke-miterlimit="10"/>
<path d="M249.465 121.423C247.766 119.899 245.878 119.826 243.037 119.941C242.679 119.941 241.72 120.093 241.823 120.707C241.878 121.126 242.552 121.448 242.922 121.563C243.908 121.839 244.936 121.94 245.957 121.861C246.489 122.875 247.378 123.656 248.452 124.054C249.058 125.311 249.963 125.816 251.675 125.816C252.445 124.388 251.183 122.942 249.465 121.423Z" fill="#E8AA80"/>
<path d="M240.47 124.443C240.418 124.685 240.459 124.939 240.585 125.152C240.711 125.366 240.912 125.525 241.15 125.597C242.412 126.034 244.652 123.999 244.883 123.039C245.144 121.946 243.96 122.085 243.001 122.432C242.6 122.565 240.67 123.398 240.47 124.443Z" fill="#E8AA80"/>
<path d="M242.345 125.427C242.294 125.669 242.335 125.923 242.461 126.136C242.586 126.35 242.788 126.509 243.025 126.581C244.288 127.018 246.527 124.983 246.758 124.023C247.019 122.93 245.835 123.07 244.876 123.416C244.476 123.543 242.546 124.382 242.345 125.427Z" fill="#E8AA80"/>
<path d="M244.003 126.757C243.951 127 243.992 127.253 244.118 127.467C244.244 127.681 244.445 127.839 244.682 127.912C245.945 128.349 248.185 126.314 248.415 125.354C248.676 124.26 247.493 124.4 246.534 124.746C246.133 124.874 244.203 125.706 244.003 126.757Z" fill="#E8AA80"/>
<path d="M245.162 128.246C245.109 128.486 245.148 128.737 245.27 128.951C245.392 129.164 245.589 129.324 245.823 129.4C247.086 129.837 249.325 127.802 249.556 126.842C249.817 125.749 248.634 125.889 247.675 126.235C247.292 126.362 245.362 127.201 245.162 128.246Z" fill="#E8AA80"/>
<path d="M242.54 125.445C243.257 124.921 243.921 124.329 244.524 123.677" stroke="#CF5953" stroke-width="0.5" stroke-linecap="round" stroke-linejoin="round"/>
<path d="M244.27 126.46C244.989 126.021 245.658 125.506 246.266 124.923" stroke="#CF5953" stroke-width="0.5" stroke-linecap="round" stroke-linejoin="round"/>
<path d="M245.52 127.942C246.352 127.507 247.115 126.95 247.784 126.289" stroke="#CF5953" stroke-width="0.5" stroke-linecap="round" stroke-linejoin="round"/>
<path d="M279.571 122.778C279.571 122.778 286.381 129.509 287.146 129.546C288.317 129.607 298.229 124.297 298.229 124.297C296.834 123.494 295.484 122.613 294.187 121.66C293.549 121.114 293.137 118.119 292.942 116.436C292.797 115.142 292.724 114.127 292.724 114.127L285.713 113.222C285.713 113.222 285.106 119.583 285.021 120.348C284.981 120.702 284.91 121.052 284.809 121.393C284.421 122.377 279.571 122.778 279.571 122.778Z" fill="#E8AA80"/>
<path d="M285.016 120.354C289.295 121.15 291.887 118.07 292.937 116.442C292.791 115.148 292.718 114.133 292.718 114.133L285.708 113.228C285.708 113.228 285.55 115.385 285.349 117.481C285.277 118.55 285.131 119.595 285.016 120.354Z" fill="#D68163"/>
<path d="M277.793 108.502C278.236 107.548 279.613 107.25 280.894 107.845C282.175 108.441 282.836 109.668 282.393 110.646C281.95 111.624 280.572 111.892 279.292 111.302C278.011 110.713 277.349 109.461 277.793 108.502Z" fill="#D68163"/>
<path d="M295.413 109.844C296.536 104.431 294.806 99.2553 290.472 98.3622C286.138 97.4692 282.339 98.3622 280.639 106.539C279.559 111.758 279.923 116.946 284.773 118.289C290.023 119.376 294.29 115.257 295.413 109.844Z" fill="#E8AA80"/>
<path d="M293.282 110.361C293.021 109.607 292.779 108.453 292.493 107.76C291.861 107.485 291.328 107.023 290.965 106.435C290.603 105.848 290.429 105.163 290.466 104.474C289.504 105.188 288.38 105.653 287.195 105.829C286.787 105.925 286.358 105.878 285.981 105.695C285.756 105.556 285.593 105.336 285.528 105.08C285.462 104.823 285.498 104.552 285.629 104.322C284.325 104.723 282.955 104.859 281.598 104.723C280.803 106.229 280.328 107.884 280.202 109.583C280.181 107.539 280.406 105.499 280.87 103.508C284.471 102.34 288.14 101.395 291.856 100.677C293.338 102.003 294.678 103.479 295.856 105.081C295.122 106.899 294.262 108.663 293.282 110.361Z" fill="#D68163"/>
<path d="M296.02 112.08C295.109 112.481 294.49 112.608 293.483 112.985C293.125 111.199 292.997 109.431 292.76 107.633C291.777 106.916 290.63 104.304 291.14 103.095C289.058 105.142 287.31 105.525 286.563 105.112C285.707 104.613 286.848 103.423 287.024 103.247C285.235 104.042 283.301 104.455 281.343 104.462C280.642 106.351 280.245 108.34 280.166 110.354C279.559 108.641 279.753 105.859 280.135 104.176C279.78 104.096 279.453 103.92 279.192 103.666C278.93 103.411 278.744 103.09 278.654 102.736C278.607 102.536 278.607 102.328 278.654 102.129C278.829 101.646 279.148 101.229 279.569 100.935C279.989 100.642 280.49 100.485 281.003 100.488C279.534 99.2734 279.553 98.2042 280.846 97.0925C283.176 95.0877 288.336 95.2699 291.364 97.5785C291.334 97.2625 290.691 96.3027 291.364 96.248C291.931 96.2624 292.487 96.4108 292.986 96.6811C293.485 96.9514 293.913 97.3359 294.235 97.8032C294.729 98.4905 295.01 99.3082 295.043 100.154C295.932 100.308 296.745 100.753 297.353 101.419C297.962 102.086 298.332 102.936 298.405 103.836C298.527 106.029 298.09 107.621 296.02 112.08Z" fill="#1D0100"/>
<path d="M294.241 97.8094L294.187 97.7669C293.982 97.5633 293.725 97.4213 293.444 97.3568C293.163 97.2924 292.869 97.3082 292.597 97.4024C292.45 97.4905 292.326 97.6127 292.236 97.7586C292.147 97.9045 292.093 98.0698 292.081 98.2407C292.065 98.6084 292.121 98.9757 292.245 99.3221C290.987 98.3295 289.536 97.61 287.986 97.2094C286.435 96.8088 284.818 96.7359 283.237 96.9953C282.315 97.1533 281.283 97.5421 280.979 98.4291C280.676 99.316 281.343 100.367 282.278 101.132C281.58 100.973 280.849 101.042 280.194 101.329C279.538 101.617 278.992 102.108 278.636 102.73C278.589 102.53 278.589 102.322 278.636 102.123C278.811 101.64 279.13 101.223 279.551 100.929C279.971 100.636 280.472 100.48 280.985 100.482C279.516 99.2674 279.535 98.1982 280.827 97.0865C283.158 95.0817 288.317 95.2639 291.346 97.5725C291.346 97.2566 290.673 96.2967 291.346 96.242C291.919 96.254 292.48 96.4025 292.983 96.675C293.487 96.9476 293.918 97.3365 294.241 97.8094Z" fill="#42170D"/>
<path d="M294.654 110.531C296.08 110.391 297.319 111.169 297.428 112.274C297.537 113.38 296.463 114.382 295.043 114.516C293.622 114.65 292.372 113.878 292.269 112.772C292.165 111.667 293.228 110.664 294.654 110.531Z" fill="#E8AA80"/>
<path d="M290.83 107.529C290.477 107.051 289.976 106.704 289.405 106.542C288.833 106.381 288.224 106.414 287.674 106.636" stroke="#1D0100" stroke-width="0.5" stroke-miterlimit="10" stroke-linecap="round"/>
<path d="M281.355 106.138C281.537 105.98 281.749 105.86 281.979 105.788C282.209 105.716 282.452 105.692 282.691 105.718C282.931 105.744 283.163 105.82 283.371 105.941C283.58 106.061 283.762 106.223 283.905 106.418" stroke="#1D0100" stroke-width="0.5" stroke-miterlimit="10" stroke-linecap="round"/>
<path d="M286.606 110.506C286.678 110.166 286.945 109.935 287.213 109.99C287.351 110.041 287.464 110.143 287.528 110.276C287.593 110.408 287.604 110.56 287.558 110.701C287.486 111.041 287.219 111.272 286.952 111.217C286.813 111.166 286.7 111.064 286.636 110.931C286.571 110.799 286.56 110.647 286.606 110.506Z" fill="#262E4A"/>
<path d="M280.894 109.352C280.936 109.269 281 109.199 281.08 109.15C281.159 109.102 281.251 109.077 281.344 109.078C281.437 109.079 281.528 109.106 281.606 109.156C281.685 109.206 281.748 109.277 281.788 109.361C281.828 109.445 281.844 109.538 281.833 109.631C281.823 109.724 281.787 109.811 281.729 109.884C281.672 109.958 281.595 110.013 281.507 110.045C281.42 110.076 281.325 110.082 281.234 110.063C281.096 110.012 280.983 109.909 280.92 109.776C280.856 109.644 280.847 109.491 280.894 109.352Z" fill="#262E4A"/>
<path d="M284.463 110.373C284.412 110.687 284.287 110.984 284.096 111.239C283.906 111.494 283.657 111.699 283.371 111.837C283.437 112.246 283.604 112.632 283.856 112.961" stroke="#CF5953" stroke-width="0.5" stroke-linecap="round" stroke-linejoin="round"/>
<path d="M284.281 114.467C284.281 114.467 285.616 114.941 287.674 113.86" stroke="#CF5953" stroke-width="0.5" stroke-linecap="round" stroke-linejoin="round"/>
<path d="M288.457 107.76C288.926 107.76 289.385 107.9 289.776 108.161C290.166 108.422 290.47 108.793 290.65 109.227C290.829 109.661 290.876 110.138 290.785 110.599C290.693 111.06 290.467 111.483 290.135 111.815C289.803 112.148 289.38 112.374 288.92 112.465C288.46 112.557 287.982 112.51 287.549 112.33C287.115 112.15 286.744 111.846 286.484 111.455C286.223 111.065 286.084 110.606 286.084 110.136C286.084 109.506 286.334 108.902 286.779 108.456C287.224 108.011 287.828 107.76 288.457 107.76Z" stroke="#332C4A" stroke-width="0.5" stroke-miterlimit="10"/>
<path d="M279.589 109.383C279.661 108.963 279.854 108.573 280.144 108.262C280.433 107.95 280.807 107.729 281.22 107.627C281.633 107.524 282.067 107.544 282.469 107.684C282.87 107.824 283.223 108.078 283.483 108.415C283.743 108.752 283.899 109.157 283.933 109.582C283.966 110.006 283.876 110.431 283.672 110.805C283.468 111.179 283.16 111.485 282.785 111.687C282.411 111.888 281.986 111.976 281.562 111.94C281.264 111.902 280.977 111.805 280.717 111.656C280.457 111.507 280.229 111.308 280.046 111.07C279.863 110.833 279.728 110.562 279.65 110.272C279.571 109.982 279.551 109.68 279.589 109.383V109.383Z" stroke="#332C4A" stroke-width="0.5" stroke-miterlimit="10"/>
<path d="M286.339 109.103C285.99 108.88 285.594 108.74 285.183 108.694C284.772 108.647 284.355 108.696 283.965 108.836" stroke="#332C4A" stroke-width="0.5" stroke-miterlimit="10"/>
<path d="M290.818 109.723C291.672 109.934 292.49 110.269 293.246 110.719" stroke="#332C4A" stroke-width="0.5" stroke-miterlimit="10" stroke-linecap="round"/>
<path d="M297.883 123.689L295.036 121.745L287.395 129.236C286.381 127.839 284.414 125.53 284.038 121.909L279.619 123.124L278.205 155.887L297.628 155.316L297.883 123.689Z" fill="#53AEDB"/>
<path d="M287.383 129.236C289.968 126.648 293.04 123.039 293.999 121.265L295.37 121.739L294.193 129.254C292.56 128.276 290.132 128.063 287.383 129.236Z" fill="#78C8E3"/>
<path d="M287.383 129.242C286.147 126.803 285.168 124.242 284.463 121.6L282.199 122.377L282.005 128.89C282.843 128.489 283.775 128.323 284.7 128.41C285.616 128.611 286.513 128.89 287.383 129.242Z" fill="#78C8E3"/>
<path d="M287.322 129.552C285.628 138.276 284.566 145.068 284.566 155.292" stroke="#4484B8" stroke-miterlimit="10" stroke-linecap="round"/>
<path d="M273.034 146.447L278.94 148.063" stroke="#BFD2FF" stroke-width="0.5" stroke-miterlimit="10" stroke-linecap="round"/>
<path d="M284.178 121.399C284.178 121.399 282.509 127.906 281.434 133.397C279.892 141.177 278.815 149.042 278.211 156.951C277.372 168.137 277.372 179.371 278.211 190.558H271.419C271.419 190.558 272.415 128.799 275.304 124.868C276.779 122.869 284.178 121.399 284.178 121.399Z" fill="#FEFFFE"/>
<path d="M284.445 121.271C284.445 121.271 282.266 130.894 281.586 134.412C280.906 137.929 279.941 142.267 279.941 142.267C279.941 142.267 276.014 137.377 276.415 136.575C276.815 135.773 279.353 133.987 279.353 133.987C279.353 133.987 275.711 131.35 276.202 130.627C276.694 129.904 279.686 122.875 280.973 121.988C281.708 121.502 284.445 121.271 284.445 121.271Z" fill="#BFD2FF"/>
<path d="M271.273 181.585L274.915 180.182V178.414L271.413 179.289L271.273 181.585Z" fill="#BFD2FF"/>
<path d="M264.13 135.694C263.857 134.356 263.393 133.065 262.752 131.86C262.427 131.26 261.975 130.737 261.428 130.329C260.881 129.921 260.251 129.637 259.583 129.497C258.959 129.404 258.322 129.488 257.744 129.742C257.166 129.996 256.672 130.408 256.318 130.931C256.682 131.289 257.04 131.648 257.429 132.097C256.122 132.121 254.822 132.298 253.556 132.626C253.004 132.766 252.379 133.027 252.245 133.58C252.213 133.773 252.234 133.97 252.306 134.152C252.378 134.334 252.497 134.493 252.652 134.612C252.941 134.829 253.275 134.979 253.629 135.05C253.558 135.3 253.549 135.564 253.601 135.819C253.654 136.074 253.768 136.312 253.933 136.514C254.31 136.919 254.825 137.169 255.377 137.213C255.336 137.488 255.371 137.769 255.478 138.026C255.585 138.283 255.76 138.506 255.984 138.671C256.211 138.825 256.472 138.923 256.745 138.955C257.017 138.986 257.294 138.951 257.55 138.853C257.665 139.264 257.917 139.623 258.263 139.871C258.61 140.12 259.03 140.243 259.456 140.22C260.306 140.22 261.416 139.509 262.23 139.205C263.072 138.161 263.716 136.97 264.13 135.694Z" fill="#E8AA80"/>
<path d="M261.143 138.658L264.876 141.398L265.932 135.214L263.334 133.987L261.143 138.658Z" fill="#E8AA80"/>
<path d="M302.751 127.492C301.701 123.78 294.424 121.265 294.424 121.265C294.424 121.265 288.961 126.532 288.044 135.955C286.8 148.919 291.832 190.558 291.832 190.558L306.326 189.543C306.326 189.543 305.307 136.569 302.751 127.492Z" fill="#FEFFFE"/>
<path d="M294.257 177.839L294.042 179.563L303.071 180.687L303.286 178.963L294.257 177.839Z" fill="#BFD2FF"/>
<path d="M287.583 140.943C287.583 140.943 287.219 133.805 289.732 128.094C290.901 125.598 292.28 123.206 293.853 120.943L297.707 122.578C297.707 122.578 294.326 130.257 294.15 132.298C294.096 132.966 290.715 134.12 290.715 134.12L293.495 137.905L287.583 140.943Z" fill="#BFD2FF"/>
<path d="M301.95 126.545C301.155 125.16 298.915 122.9 297.094 123.969C294.108 125.67 283.874 138.549 283.874 138.549L265.665 135.281L264.269 143.506C264.269 143.506 282.108 149.903 285.974 148.816C289.841 147.729 300.092 139.163 301.628 135.165C303.164 131.168 303.018 128.422 301.95 126.545Z" fill="#FEFFFE"/>
<path d="M288.366 147.625C292.615 145.068 297.373 142.534 300.384 139.12" stroke="#BFD2FF" stroke-width="0.5" stroke-miterlimit="10" stroke-linecap="round"/>
<path d="M294.636 143.98C296.518 143.98 299.219 143.257 300.384 142.419" stroke="#BFD2FF" stroke-width="0.5" stroke-miterlimit="10" stroke-linecap="round"/>
<path d="M267.48 135.068V146.526L263.007 144.764L264.129 134.126L267.48 135.068Z" fill="#BFD2FF"/>
<path d="M95.2095 37.0946L96.7997 31.8214C96.7997 31.8214 100.442 33.5589 101.564 35.3268C102.687 37.0946 109.024 42.5744 110.117 42.2342C111.209 41.894 111.622 31.299 111.622 31.299L117.449 34.3912C117.449 34.3912 117.449 49.579 113.904 50.4295C110.359 51.28 95.9621 45.9764 95.9621 45.9764L95.2095 37.0946Z" fill="#BFD2FF"/>
<path d="M188.213 179.058L174.451 187.155L178.496 194.042L192.258 185.945L188.213 179.058Z" fill="#242323"/>
<path d="M179.184 181.032L166.535 160.176L174.559 155.474L186.905 176.488L179.184 181.032Z" fill="#242323"/>
<path d="M219.303 119.975L158.762 155.596L163.472 163.614L224.012 127.993L219.303 119.975Z" fill="#126D97"/>
<path d="M186.589 193.419C171.876 202.617 115.246 198.018 106.305 152.716C101.704 129.388 118.481 109.425 120.532 100.75C122.183 93.7876 114.39 81.1574 114.39 81.1574L120.587 76.8502L139.482 109.176C139.482 109.176 111.81 137.565 136.192 160.134C150.274 173.165 162.741 168.827 168.501 163.366L186.589 193.419Z" fill="#9AB2A8"/>
<path d="M181.065 123.249L167.394 132.094L173.46 141.487L187.131 132.642L181.065 123.249Z" fill="#F2F2F2"/>
<path d="M192.25 116.011L184.548 120.995L189.052 127.969L196.754 122.986L192.25 116.011Z" fill="#F2F2F2"/>
<path d="M164.13 134.476L158.231 138.272L162.711 145.247L168.61 141.452L164.13 134.476Z" fill="#F2F2F2"/>
<path d="M115.945 30.3608L103.615 38.3388L124.064 70.0014L136.395 62.0234L115.945 30.3608Z" fill="#126D97"/>
<path d="M109.679 34.3675L103.511 38.3582L120.445 64.577L126.613 60.5864L109.679 34.3675Z" fill="#0F5985"/>
<path d="M132.792 52.5118L116.709 62.9172L118.963 66.407L135.046 56.0016L132.792 52.5118Z" fill="#33A8B5"/>
<path d="M115.324 26.1649L99.7766 36.224L102.03 39.7138L117.578 29.6547L115.324 26.1649Z" fill="#33A8B5"/>
<path d="M135.638 55.1191L117.303 66.916L157.635 129.71L175.969 117.913L135.638 55.1191Z" fill="#F2F2F2"/>
<path d="M126.599 60.5876L117.434 66.5175L157.981 129.297L167.146 123.367L126.599 60.5876Z" fill="#CFCFCF"/>
<path d="M128.553 69.7952L118.765 76.1257L149.257 123.355L159.045 117.024L128.553 69.7952Z" fill="#126D97"/>
<path d="M193.281 106.456L152.802 132.646L158.006 140.702L198.484 114.512L193.281 106.456Z" fill="#414046"/>
<path d="M134.044 103.249C138.122 101.574 140.071 96.9076 138.398 92.8258C136.725 88.744 132.062 86.7928 127.984 88.4677C123.906 90.1426 121.956 94.8093 123.63 98.8912C125.303 102.973 129.966 104.924 134.044 103.249Z" fill="#212126"/>
<path d="M133.424 101.712C136.658 100.381 138.201 96.6788 136.872 93.4422C135.542 90.2057 131.843 88.6606 128.609 89.9914C125.376 91.3221 123.832 95.0246 125.161 98.2612C126.491 101.498 130.19 103.043 133.424 101.712Z" fill="#414046"/>
<path d="M137.667 167.248L109.091 223.26H172.295L160.24 170.103C157.733 159.04 142.814 157.169 137.667 167.248Z" fill="#F2F2F2"/>
<path d="M209.29 227.015V230.338H96.9272V227.015C96.9457 225.767 97.245 224.539 97.8031 223.423C98.3611 222.307 99.1634 221.332 100.15 220.569C102.116 219.012 104.556 218.175 107.064 218.2H199.153C204.75 218.194 209.29 222.143 209.29 227.015Z" fill="white"/>
<path d="M205.575 228.929V230.332H96.9272V227.009C96.9457 225.761 97.245 224.533 97.8031 223.418C98.3611 222.302 99.1634 221.326 100.15 220.563C101.188 220.262 102.263 220.108 103.343 220.108H195.445C201.041 220.114 205.575 224.062 205.575 228.929Z" fill="#CFD2D1"/>
<path d="M156.357 179.349C157.439 174.71 154.557 170.071 149.922 168.989C145.286 167.906 140.651 170.79 139.57 175.43C138.489 180.07 141.37 184.709 146.006 185.791C150.641 186.873 155.276 183.989 156.357 179.349Z" fill="#212126"/>
<path d="M154.626 178.955C155.483 175.276 153.197 171.598 149.521 170.74C145.845 169.883 142.17 172.17 141.314 175.85C140.457 179.529 142.742 183.207 146.418 184.064C150.094 184.922 153.769 182.634 154.626 178.955Z" fill="#414046"/>
<path d="M28.2424 227.592L88.9881 107.195C89.1079 106.954 89.2744 106.739 89.4779 106.562C89.6815 106.386 89.918 106.252 90.1738 106.167C90.4296 106.083 90.6996 106.051 90.9681 106.072C91.2365 106.093 91.4981 106.167 91.7377 106.29L91.8712 106.363C92.356 106.616 92.7216 107.05 92.8886 107.571C93.0557 108.092 93.0107 108.657 92.7635 109.145L32.0178 229.542C31.898 229.783 31.7315 229.999 31.5279 230.175C31.3244 230.351 31.0879 230.486 30.8321 230.57C30.5763 230.654 30.3063 230.687 30.0378 230.666C29.7694 230.644 29.5078 230.57 29.2682 230.447L29.1347 230.374C28.6487 230.123 28.2821 229.689 28.1149 229.167C27.9477 228.646 27.9935 228.08 28.2424 227.592Z" fill="#8E3A23"/>
<path d="M37.5352 212.629V212.52C37.5541 212.099 37.7383 211.704 38.0477 211.419C38.357 211.135 38.7663 210.984 39.1861 211.001H67.1736C67.5934 210.984 68.0027 211.135 68.312 211.419C68.6214 211.704 68.8056 212.099 68.8245 212.52V212.629C68.8056 213.049 68.6214 213.445 68.312 213.729C68.0027 214.014 67.5934 214.164 67.1736 214.148H39.1861C38.7663 214.164 38.357 214.014 38.0477 213.729C37.7383 213.445 37.5541 213.049 37.5352 212.629Z" fill="#682211"/>
<path d="M50.1782 187.648V187.539C50.1845 187.333 50.2313 187.13 50.3158 186.942C50.4004 186.755 50.5211 186.585 50.671 186.444C50.821 186.303 50.9972 186.193 51.1897 186.12C51.3822 186.048 51.5871 186.013 51.7928 186.02H80.9638C81.1695 186.013 81.3744 186.048 81.5669 186.12C81.7594 186.193 81.9356 186.303 82.0856 186.444C82.2355 186.585 82.3562 186.755 82.4408 186.942C82.5253 187.13 82.5721 187.333 82.5783 187.539V187.648C82.5721 187.854 82.5253 188.057 82.4408 188.244C82.3562 188.432 82.2355 188.601 82.0856 188.742C81.9356 188.883 81.7594 188.993 81.5669 189.066C81.3744 189.139 81.1695 189.173 80.9638 189.167H51.7928C51.5871 189.173 51.3822 189.139 51.1897 189.066C50.9972 188.993 50.821 188.883 50.671 188.742C50.5211 188.601 50.4004 188.432 50.3158 188.244C50.2313 188.057 50.1845 187.854 50.1782 187.648Z" fill="#682211"/>
<path d="M61.3345 163.67V163.56C61.3345 163.157 61.4943 162.771 61.7789 162.486C62.0635 162.201 62.4495 162.041 62.8519 162.041H90.2566C90.6591 162.041 91.0451 162.201 91.3296 162.486C91.6142 162.771 91.7741 163.157 91.7741 163.56V163.67C91.7741 164.072 91.6142 164.459 91.3296 164.744C91.0451 165.028 90.6591 165.188 90.2566 165.188H62.8519C62.4495 165.188 62.0635 165.028 61.7789 164.744C61.4943 164.459 61.3345 164.072 61.3345 163.67Z" fill="#682211"/>
<path d="M71.8594 142.704V142.595C71.8594 142.192 72.0192 141.806 72.3038 141.521C72.5884 141.236 72.9744 141.076 73.3768 141.076H100.757C101.16 141.076 101.546 141.236 101.83 141.521C102.115 141.806 102.275 142.192 102.275 142.595V142.704C102.275 143.107 102.115 143.494 101.83 143.778C101.546 144.063 101.16 144.223 100.757 144.223H73.3768C72.9744 144.223 72.5884 144.063 72.3038 143.778C72.0192 143.494 71.8594 143.107 71.8594 142.704Z" fill="#682211"/>
<path d="M82.9971 122.79V122.681C82.9971 122.278 83.1569 121.892 83.4415 121.607C83.7261 121.322 84.1121 121.162 84.5145 121.162H111.919C112.322 121.162 112.708 121.322 112.992 121.607C113.277 121.892 113.437 122.278 113.437 122.681V122.79C113.437 123.193 113.277 123.579 112.992 123.864C112.708 124.149 112.322 124.309 111.919 124.309H84.5145C84.315 124.31 84.1173 124.271 83.9329 124.195C83.7484 124.119 83.5808 124.007 83.4397 123.866C83.2987 123.725 83.1869 123.557 83.111 123.372C83.035 123.188 82.9963 122.99 82.9971 122.79Z" fill="#682211"/>
<path d="M59.3739 227.695L117.273 108.24C117.382 108.004 117.537 107.793 117.73 107.618C117.923 107.444 118.149 107.311 118.395 107.227C118.64 107.143 118.901 107.11 119.159 107.129C119.418 107.149 119.671 107.221 119.901 107.341L120.022 107.414C120.489 107.679 120.838 108.113 120.997 108.627C121.156 109.14 121.113 109.695 120.878 110.178L62.9732 229.639C62.8652 229.875 62.7103 230.086 62.5181 230.261C62.3258 230.435 62.1002 230.568 61.8549 230.652C61.6097 230.736 61.3499 230.769 61.0914 230.75C60.8328 230.73 60.581 230.658 60.3511 230.538L60.2237 230.465C59.755 230.2 59.4058 229.765 59.2478 229.25C59.0897 228.734 59.1349 228.178 59.3739 227.695Z" fill="#8D3B26"/>
<path d="M69.1946 97.8093C69.1946 97.8093 87.4948 91.0841 104.399 94.9479C106.493 95.4278 108.484 83.0771 108.484 83.0771L87.0274 68.8128L72.1566 75.0884L69.1946 97.8093Z" fill="#6F788C"/>
<path d="M102.08 118.143L104.405 112.183L98.141 109.923L96.1865 116.855L102.08 118.143Z" fill="#FEA483"/>
<path d="M110.044 122.371C109.716 123.24 95.3005 122.371 94.6571 121.624C94.5766 121.505 94.5215 121.371 94.4954 121.23C94.4693 121.089 94.4727 120.944 94.5054 120.804C94.6753 119.358 95.8225 116.867 95.871 116.703C99.0394 117.068 99.956 117.025 102.869 117.201C103.792 117.712 109.146 119.51 110.001 121.551C110.065 121.677 110.101 121.815 110.109 121.957C110.116 122.098 110.094 122.239 110.044 122.371Z" fill="#3D3C73"/>
<path d="M110.044 122.371C109.716 123.24 95.3005 122.371 94.6571 121.624C94.5766 121.505 94.5215 121.371 94.4954 121.23C94.4693 121.089 94.4727 120.943 94.5054 120.804C97.1506 121.317 99.8273 121.652 102.517 121.806C105.015 121.857 107.513 121.772 110.001 121.551C110.065 121.677 110.101 121.815 110.109 121.957C110.116 122.098 110.094 122.239 110.044 122.371Z" fill="#9992AD"/>
<path d="M76.2536 136.581L77.8682 129.26L71.7499 127.444L70.3296 135.439L76.2536 136.581Z" fill="#FEA483"/>
<path d="M84.3142 140.609C84.0046 141.489 69.5709 140.979 68.9153 140.244C68.8344 140.126 68.7777 139.994 68.7485 139.854C68.7194 139.714 68.7183 139.57 68.7454 139.43C68.8789 137.978 69.9593 135.457 70.0079 135.293C73.1823 135.578 74.1049 135.512 77.0184 135.621C77.9531 136.113 83.3491 137.778 84.2535 139.794C84.3197 139.918 84.3594 140.055 84.3698 140.195C84.3803 140.335 84.3613 140.476 84.3142 140.609Z" fill="#3D3C73"/>
<path d="M84.3142 140.609C84.0046 141.489 69.5709 140.979 68.9153 140.244C68.8344 140.126 68.7777 139.994 68.7485 139.854C68.7194 139.714 68.7183 139.57 68.7454 139.43C71.4034 139.876 74.0881 140.143 76.7817 140.232C79.2785 140.226 81.773 140.08 84.2535 139.794C84.3197 139.918 84.3594 140.055 84.3698 140.195C84.3803 140.335 84.3613 140.476 84.3142 140.609Z" fill="#9992AD"/>
<path d="M96.6601 60.0343C96.6601 60.0343 97.0911 63.9467 97.6313 65.4412C98.6813 68.339 115.233 79.8392 115.476 81.9412C115.828 85.3007 104.314 115.488 104.314 115.488C103.495 115.227 97.3946 113.356 96.3688 111.904C96.3688 111.904 102.602 89.8631 101.68 87.4756C100.897 85.4404 89.2854 80.793 89.2854 80.793C89.2854 80.793 87.1853 96.728 85.1337 107.912C83.3978 117.377 78.1779 133.081 78.1779 133.081C76.2659 132.972 71.9807 132.304 69.2129 130.876C69.2129 130.876 72.6423 115.658 73.9533 101.782C75.1248 89.3771 75.5497 60.7512 75.5497 60.7512L96.6601 60.0343Z" fill="#1A132E"/>
<path d="M91.8773 33.1519C91.2703 33.8505 88.1383 39.956 85.3523 39.1055C82.8759 38.3522 79.6407 33.4739 78.5664 30.1326C82.888 28.6442 83.2219 23.2859 83.2947 21.8461C83.7135 21.9494 84.7696 22.2349 85.1156 22.3321C86.9365 22.7938 88.3265 23.1705 90.2506 23.7112L90.9608 23.9117C90.9581 23.9359 90.9581 23.9603 90.9608 23.9846C90.5216 25.1002 90.2001 26.2587 90.0017 27.4413C89.9591 27.7597 89.9328 28.0801 89.9228 28.4012C89.9056 29.0473 89.9854 29.6924 90.1596 30.3148C90.2324 30.5578 90.3174 30.8008 90.4145 31.0378C90.7397 31.8422 91.2394 32.5642 91.8773 33.1519Z" fill="#FEA483"/>
<path d="M90.1596 30.321C85.5223 27.4293 86.1718 22.0832 86.1596 21.2084C86.1596 21.1355 85.1338 22.2168 85.1399 22.1925C87.5678 22.8 88.1748 23.0916 90.2749 23.7174L90.9851 23.9239C90.9824 23.9482 90.9824 23.9726 90.9851 23.9968C90.5723 25.1693 90.026 26.2932 90.026 27.4536C89.9834 27.772 89.9571 28.0924 89.9471 28.4134C89.9226 29.0563 89.9942 29.6993 90.1596 30.321Z" fill="#EB8173"/>
<path d="M100.515 16.5304C100.494 16.5636 100.47 16.5942 100.442 16.6215C100.252 16.8701 99.9741 17.036 99.6655 17.0846C99.3569 17.1333 99.0414 17.061 98.7847 16.8827C98.7847 17.0224 99.0881 18.7599 98.3537 19.0029C97.6193 19.2459 89.5344 14.7504 89.5344 14.7504L90.19 9.98139V9.37388C90.6457 8.87472 91.2137 8.49152 91.847 8.25606C92.8504 7.88563 93.9461 7.8473 94.9729 8.14671C97.6375 8.86357 100.83 12.2656 100.861 13.426C100.891 14.2643 99.4584 13.9424 99.4584 13.9424C99.4584 13.9424 101.243 15.4672 100.515 16.5304Z" fill="#27334F"/>
<path d="M100.514 16.5304C100.494 16.5636 100.469 16.5942 100.442 16.6215C99.9499 15.1088 97.9409 13.0797 97.9409 13.0797C97.9409 13.0797 98.9606 13.1465 99.604 13.1587C100.247 13.1708 97.9227 10.3763 95.5251 9.15518C94.3808 8.62059 93.1444 8.31122 91.8833 8.24391C92.8867 7.87348 93.9824 7.83515 95.0092 8.13456C97.6738 8.85142 100.866 12.2535 100.897 13.4138C100.927 14.2522 99.4947 13.9302 99.4947 13.9302C99.4947 13.9302 101.243 15.4672 100.514 16.5304Z" fill="#3A5B70"/>
<path d="M97.9832 23.1889C97.8983 23.687 97.3216 24.0455 97.1335 24.4039C96.9453 24.7623 94.4628 29.5252 92.4173 29.185C90.1412 28.8205 87.2884 25.9713 86.1473 23.0127C83.1489 22.0285 80.9941 20.5827 81.5222 16.8404C82.2202 11.8345 86.3476 8.3656 90.7299 9.08854C92.1229 9.34253 93.4278 9.94935 94.52 10.8512C95.6123 11.753 96.4556 12.9197 96.9696 14.2402C97.3687 15.2071 97.6046 16.2336 97.6676 17.2778C97.7105 17.945 97.684 18.6148 97.5887 19.2765C97.4271 20.1422 97.1895 20.992 96.8786 21.8159C96.8576 21.8693 96.8539 21.928 96.868 21.9836C96.8822 22.0392 96.9135 22.0889 96.9575 22.1257C97.3409 22.4375 97.6853 22.7945 97.9832 23.1889Z" fill="#FEA483"/>
<path d="M96.3749 16.3362C96.5448 18.3652 94.2141 16.6217 94.2141 16.6217C93.2733 18.6325 89.2976 20.3214 89.2976 20.3214L89.7164 17.4661L94.7907 12.8065L96.9697 14.222C97.3688 15.1889 97.6047 16.2154 97.6677 17.2596C97.1977 17.0106 96.7629 16.7001 96.3749 16.3362Z" fill="#EB8173"/>
<path d="M98.2018 16.5364C97.7102 17.0346 95.7314 14.8111 95.7314 14.8111C95.7314 14.8111 96.0106 16.0565 95.4886 16.342C95.1427 16.5364 94.6328 16.2084 93.9166 15.6009C92.1382 19.0212 87.598 22.1377 87.598 22.1377L82.9426 24.9079C82.9053 24.9326 82.8619 24.9464 82.8173 24.948C82.7726 24.9495 82.7284 24.9387 82.6895 24.9167C82.6506 24.8948 82.6185 24.8625 82.5967 24.8234C82.575 24.7843 82.5644 24.74 82.5662 24.6953L82.6937 22.7331L81.8621 23.5836C81.8621 23.5836 81.6861 22.8667 81.2552 18.3286C80.8242 13.7905 83.2036 10.4735 85.7346 9.28276C87.4584 8.47478 90.1898 8.11027 92.2049 9.23416L92.8119 9.00331L96.6965 11.0142C96.6965 11.0142 98.6995 16.0383 98.2018 16.5364Z" fill="#27334F"/>
<path d="M88.3447 18.9362C89.5586 19.7503 90.0442 21.1354 89.3947 22.0284C88.7453 22.9215 87.2278 22.9883 85.9957 22.1742C84.7635 21.3602 84.2962 19.9811 84.9456 19.082C85.5951 18.1829 87.1125 18.1221 88.3447 18.9362Z" fill="#FEA483"/>
<path d="M95.4402 20.5643C95.6345 20.6311 95.683 20.9652 95.5555 21.3176C95.4281 21.67 95.161 21.9251 94.9486 21.834C94.7361 21.7429 94.7058 21.4391 94.8333 21.0867C94.9607 20.7344 95.2521 20.5035 95.4402 20.5643Z" fill="#2E3252"/>
<path d="M96.7998 19.1791C96.477 18.9044 96.0706 18.7476 95.6471 18.7344C95.2237 18.7211 94.8083 18.8522 94.469 19.1062" stroke="#27334F" stroke-width="0.5" stroke-miterlimit="10" stroke-linecap="round"/>
<path d="M95.962 25.8556C95.5566 25.7992 95.1666 25.6627 94.8144 25.4542C94.4622 25.2456 94.1549 24.969 93.9104 24.6406" stroke="#27334F" stroke-width="0.5" stroke-miterlimit="10" stroke-linecap="round"/>
<path d="M82.378 29.276C82.378 29.276 86.8089 35.2904 88.0047 35.0231C90.7785 34.4155 91.7315 30.1994 91.7315 30.1994L97.3702 33L99.9863 60.8423C95.0395 62.9139 85.6496 63.4181 79.3796 61.1764C81.6254 53.5521 79.847 44.8769 77.1824 33.9781L82.378 29.276Z" fill="#748BE9"/>
<path d="M88.1382 35.3268C89.4189 43.8866 90.1837 53.2423 89.4553 62.3914" stroke="#323B99" stroke-width="0.5" stroke-miterlimit="10" stroke-linecap="round"/>
<path d="M82.1353 28.4621C82.1353 28.4621 86.3173 33.4862 86.991 34.0755C87.4827 34.525 88.1079 35.011 88.1079 35.011L88.7937 33.9297C88.8666 33.8082 91.5312 30.1509 91.5312 30.1509L92.818 30.5641L92.8787 35.1265C92.8787 35.1265 91.4765 34.3731 90.6389 34.5189C89.8163 34.7319 89.0058 34.9894 88.211 35.2905C87.2778 34.9743 86.3222 34.7285 85.3522 34.5554C84.5753 34.5007 83.2824 35.2783 83.2824 35.2783L81.5222 30.1266L82.1353 28.4621Z" fill="#92C4F7"/>
<path d="M87.7741 52.5255C87.7741 56.0734 85.7226 63.321 85.0063 71.5892C84.5815 76.4979 81.3281 100.95 80.9275 102.202C80.3205 104.164 70.2205 102.05 68.7881 99.0122C68.0415 97.4145 73.5467 67.4217 72.7637 56.207C72.3813 50.7394 71.398 40.2052 73.3707 35.5516C75.2705 31.05 80.3569 28.4559 80.3569 28.4559C80.8304 28.5106 87.7741 39.4883 87.7741 52.5255Z" fill="#FEFFFE"/>
<path d="M88.6178 49.0748C88.6178 41.7239 86.1899 33.3949 82.1111 26.6577C81.237 27.332 80.0109 28.4802 79.4768 28.9905C80.7393 31.542 80.5511 38.3036 80.7636 38.6135C80.976 38.9233 83.3857 39.707 85.0124 40.2173C84.2355 42.0398 83.4828 43.6011 83.5435 44.6035C83.5435 45.4297 87.3249 48.1089 88.6178 49.0748Z" fill="#BFD2FF"/>
<path d="M71.9078 92.2142C75.6346 91.874 78.7484 90.738 80.9456 88.4781C80.9456 88.4781 81.4858 89.7964 81.1399 90.2277C79.8045 91.9044 73.9533 94.1036 72.2356 93.4536C71.7743 93.2774 71.9078 92.2142 71.9078 92.2142Z" fill="#BFD2FF"/>
<path d="M112.611 78.9765C112.532 79.2135 101.85 70.4714 97.9651 66.553C93.17 61.7536 91.5859 51.9727 91.5191 50.8306C91.0699 43.5404 90.4751 29.7621 90.4751 29.7621C90.4751 29.7621 95.6101 30.8738 98.2383 32.6599C99.3672 33.7838 99.8103 42.0217 99.9742 47.1308C99.9742 48.0664 100.496 59.4451 101.443 63.3149C102.463 67.4338 113.315 76.8867 112.611 78.9765Z" fill="#FEFFFE"/>
<path d="M90.0017 29.033C90.4084 35.7156 90.8272 43.7408 91.3917 50.4113C92.8059 48.8074 95.1974 46.0311 95.2763 45.6788C95.4827 44.7553 94.0199 42.5136 92.7513 41.2439L92.7027 41.1467C94.8029 40.1079 97.4493 39.1298 97.3643 38.7714C96.8787 36.7119 93.3097 30.6915 92.1868 29.8835C91.5664 29.3762 90.8015 29.0784 90.0017 29.033Z" fill="#BFD2FF"/>
<path d="M120.642 43.2002C120.642 43.8077 118.578 43.4128 118.214 43.5161C117.458 43.8017 116.72 44.1324 116.004 44.5063C115.547 45.8227 114.599 46.911 113.358 47.5439L112.933 47.7747C110.954 48.8622 109.097 50.2048 109.097 50.2048L107.434 45.2292L110.997 43.5586C110.997 43.5586 111.106 43.2488 111.282 42.7871C111.786 41.4445 112.824 38.8018 113.297 38.413C114.093 37.9589 114.947 37.6136 115.834 37.3863C116.551 37.1858 119.161 37.2952 119.318 37.8115C119.513 38.419 116.89 38.3704 116.435 38.5405C115.893 38.776 115.37 39.0522 114.869 39.3668C115.655 39.1672 116.454 39.0231 117.261 38.9354C117.868 38.9354 119.901 39.0995 120.016 39.6401C120.174 40.3692 117.698 40.0897 117.455 40.1808L115.525 40.8916C115.525 40.8916 116.824 40.7215 117.874 40.6122C118.924 40.5028 120.69 41.2197 120.629 41.6753C120.563 42.2828 118.766 41.815 118.074 41.9183C117.324 42.1047 116.588 42.3422 115.871 42.6291C116.077 42.5866 117.764 42.2464 118.214 42.2403C118.663 42.2342 120.654 42.6838 120.642 43.2002Z" fill="#FEA483"/>
<path d="M112.897 47.8052C110.918 48.8926 109.061 50.2352 109.061 50.2352L107.434 45.2293L110.997 43.5587C110.997 43.5587 111.106 43.2488 111.282 42.7871L112.897 47.8052Z" fill="#EB8173"/>
<path d="M79.9927 30.5154C82.7059 34.3609 92.7391 49.0262 94.2748 48.5949C96.0957 48.1028 110.202 43.3278 110.202 43.3278L111.622 52.3554C111.622 52.3554 94.2748 59.3539 90.985 59.4694C87.6952 59.5848 79.5618 51.0614 76.5755 47.8416C73.5892 44.6218 73.8077 39.786 74.876 35.8433C75.75 32.6295 79.6164 29.9808 79.9927 30.5154Z" fill="#FEFFFE"/>
<path d="M75.1855 47.2949C78.7999 51.0591 82.7337 54.5024 86.9426 57.5861" stroke="#BFD2FF" stroke-width="0.5" stroke-miterlimit="10" stroke-linecap="round"/>
<path d="M93.686 58.8921L100.442 56.6383" stroke="#BFD2FF" stroke-width="0.5" stroke-miterlimit="10" stroke-linecap="round"/>
<path d="M93.5828 48.2365C93.8433 48.4458 94.1717 48.5517 94.5054 48.5341C94.9727 48.5341 99.78 46.821 99.78 46.821" stroke="#BFD2FF" stroke-width="0.5" stroke-miterlimit="10" stroke-linecap="round"/>
</g>
<defs>
<clipPath id="clip0">
<rect width="404" height="231" fill="white"/>
</clipPath>
</defs>
</svg>
