<svg xmlns="http://www.w3.org/2000/svg" viewBox="0 0 475.93 446.36"><defs><style>.cls-1{fill:#f5f5f5;}.cls-2{fill:#e6e6e6;}.cls-3{fill:#27debf;}.cls-4,.cls-7{fill:#fff;}.cls-5{opacity:0.1;}.cls-6{fill:#455a64;}.cls-7{opacity:0.5;}.cls-8{fill:#263238;}.cls-9{fill:#fafafa;}.cls-10{fill:#f0f0f0;}.cls-11{fill:#e0e0e0;}.cls-12{fill:#37474f;}.cls-13{opacity:0.35;}.cls-14{fill:#f28f8f;}.cls-15{fill:#ffa8a7;}.cls-16{fill:#b16668;}.cls-17{opacity:0.6;}.cls-18{opacity:0.15;}.cls-19{opacity:0.3;}</style></defs><title>401</title><g id="Layer_2" data-name="Layer 2"><g id="Floor"><ellipse id="Floor-2" data-name="Floor" class="cls-1" cx="237.96" cy="310.83" rx="237.96" ry="135.52"/></g><g id="Shadows"><ellipse id="Shadow" class="cls-2" cx="379.42" cy="336.43" rx="64.02" ry="36.96"/><path id="Shadow-2" data-name="Shadow" class="cls-2" d="M355.83,365.92l-75.22-43.43a1,1,0,0,1,0-1.84l5.81-3.35a3.5,3.5,0,0,1,3.18,0l75.22,43.43a1,1,0,0,1,0,1.84l-5.8,3.35A3.52,3.52,0,0,1,355.83,365.92Z"/><path id="Shadow-3" data-name="Shadow" class="cls-2" d="M42.75,377.37l27.86,16.08a17,17,0,0,0,15.36,0l161.1-93c4.24-2.45,4.24-6.42,0-8.87l-27.86-16.08a17,17,0,0,0-15.35,0l-161.11,93C38.51,371,38.51,374.92,42.75,377.37Z"/></g><g id="Plant"><g id="Plants"><path class="cls-3" d="M58.52,366.39c.43-11.46.74-22.81-4.68-39.26-4.54-13.81-17.71-27.79-26.2-28.1-11.24-.41-12.57,7.57-6.78,15.86C25.13,321,39.19,329.08,45.68,344a67.18,67.18,0,0,1,5.23,26.76Z"/><path class="cls-4" d="M55.09,363.4a.47.47,0,0,1-.38-.48c.6-25.91-14-48.66-27.2-56.48a.5.5,0,0,1,.51-.87c13.08,7.14,27.77,30.11,27.7,57.33a.52.52,0,0,1-.5.52A.3.3,0,0,1,55.09,363.4Z"/><path class="cls-3" d="M51.6,370.39a3.44,3.44,0,0,1-5-1.81,41.48,41.48,0,0,0-9.46-14.5c-7.31-7.33-17.42-12-19-16.91-1.93-6,3.36-9,11.94-6.92C40.4,332.72,52,345.12,53.3,369.41Z"/><g class="cls-5"><path d="M51.6,370.39a3.44,3.44,0,0,1-5-1.81,41.48,41.48,0,0,0-9.46-14.5c-7.31-7.33-17.42-12-19-16.91-1.93-6,3.36-9,11.94-6.92C40.4,332.72,52,345.12,53.3,369.41Z"/></g><path class="cls-4" d="M51.52,368.77a.54.54,0,0,1-.37-.41c-3.44-21.28-18.79-31.63-25.67-33.86a.5.5,0,0,1-.32-.64.49.49,0,0,1,.63-.32C33.4,336,48.64,346.48,52.15,368.2a.51.51,0,0,1-.42.58A.74.74,0,0,1,51.52,368.77Z"/></g></g><g id="Card_Reader" data-name="Card Reader"><g id="Card_Reader-2" data-name="Card Reader"><path class="cls-6" d="M87.39,384.94c-4.17,2.41-9.94,2.07-16.3-1.61l-14.17-8.18a8.48,8.48,0,0,1-3.84-6.65V186.07a2.69,2.69,0,0,1,1.11-2.48L205.45,96.26a2.69,2.69,0,0,1,2.72.26l14.17,8.18c12.72,7.35,23,25.21,23,39.9V282.71c0,7.35-2.58,12.52-6.76,14.92Z"/><path class="cls-3" d="M244.65,137.56c-2.55-13-11.57-26.65-22.31-32.86l-14.17-8.18a2.69,2.69,0,0,0-2.72-.26L54.19,183.59a2.69,2.69,0,0,0-1.11,2.48v20.51l36,20.79Z"/><path class="cls-7" d="M239.67,123.8l-165,95.26L53.08,206.58V186.07a2.72,2.72,0,0,1,1.11-2.48L205.45,96.26a2.67,2.67,0,0,1,2.72.27l14.16,8.17C229.25,108.7,235.45,115.79,239.67,123.8Z"/><path class="cls-3" d="M245.37,282.71v-4.16L89.09,368.78l-36-20.8V368.5a8.48,8.48,0,0,0,3.84,6.65l14.17,8.18c6.36,3.68,12.13,4,16.3,1.61l151.22-87.31C242.79,295.23,245.37,290.06,245.37,282.71Z"/><path class="cls-8" d="M105.42,228.93,162.8,195.8c1.06-.62,1.92-.12,1.92,1.1v45.47a4.26,4.26,0,0,1-1.92,3.33l-57.38,33.13c-1.06.61-1.92.11-1.92-1.11V232.25A4.24,4.24,0,0,1,105.42,228.93Z"/><path class="cls-3" d="M161,239.91V196.83l-55.59,32.1a4.24,4.24,0,0,0-1.92,3.32v43.08l55.59-32.1A4.24,4.24,0,0,0,161,239.91Z"/><path class="cls-9" d="M109,259.79a1.23,1.23,0,0,1-.15-.75V240.67a2.38,2.38,0,0,1,.15-.93,1.16,1.16,0,0,1,.5-.53l5.57-3.22c.17-.1.3-.07.38.09a2.51,2.51,0,0,1,.11.89v.76a3.9,3.9,0,0,1-.11,1,.91.91,0,0,1-.38.53l-3.68,2.12v5.11l3.28-1.89c.17-.1.3-.07.38.09a2.45,2.45,0,0,1,.11.88v.77a3.9,3.9,0,0,1-.11,1,.94.94,0,0,1-.38.53l-3.28,1.89v5.58l3.69-2.14c.17-.09.29-.07.37.09a2.46,2.46,0,0,1,.11.9V255a3.91,3.91,0,0,1-.11,1,.89.89,0,0,1-.37.5l-5.58,3.22C109.29,259.89,109.12,259.9,109,259.79Z"/><path class="cls-9" d="M117.55,254.33V235.66a2.23,2.23,0,0,1,.16-.92,1.11,1.11,0,0,1,.5-.55l3.07-1.77c2.56-1.48,3.83-.36,3.83,3.36a10,10,0,0,1-1.79,6v.11c.51.14.94,1,1.3,2.45l1.14,5c0,.05,0,.11,0,.17a1.1,1.1,0,0,1,0,.18c0,.45-.34.87-1,1.27l-.55.31c-.6.35-.93.32-1-.1l-1-5a2,2,0,0,0-.53-1.07c-.19-.14-.5-.1-.9.14l-.71.4v7.25a1.67,1.67,0,0,1-1,1.44l-.51.3C117.87,255,117.55,254.89,117.55,254.33Zm3.87-13.07a2.37,2.37,0,0,0,.87-1.3,6.81,6.81,0,0,0,.36-2.32,3.33,3.33,0,0,0-.35-1.87c-.23-.3-.55-.33-1-.1l-1.3.75v5.63Z"/><path class="cls-9" d="M127.33,248.68V230a2.18,2.18,0,0,1,.16-.91,1.18,1.18,0,0,1,.5-.56l3.07-1.77c2.56-1.48,3.83-.35,3.83,3.36a10,10,0,0,1-1.79,6v.12c.51.13.94.95,1.3,2.45l1.14,5c0,.05,0,.11,0,.17a1.1,1.1,0,0,1,0,.18c0,.45-.34.87-1,1.27l-.55.32c-.6.34-.93.31-1-.1l-1.05-5a2,2,0,0,0-.53-1.08c-.19-.14-.5-.09-.9.14l-.71.41v7.25a1.69,1.69,0,0,1-1,1.43l-.51.3C127.66,249.34,127.33,249.25,127.33,248.68Zm3.86-13.07a2.3,2.3,0,0,0,.88-1.29,6.91,6.91,0,0,0,.36-2.33,3.26,3.26,0,0,0-.35-1.86c-.23-.31-.55-.34-1-.11l-1.3.75v5.64Z"/><path class="cls-9" d="M136.72,233.74q0-10.44,4.92-13.29t4.9,7.63q0,10.5-4.9,13.33T136.72,233.74Zm6.68,1.71a22.8,22.8,0,0,0,.57-5.89,15.72,15.72,0,0,0-.56-5.21c-.38-.87-1-1.07-1.75-.62a4.26,4.26,0,0,0-1.77,2.65,22.52,22.52,0,0,0-.57,5.87,15.59,15.59,0,0,0,.57,5.23c.38.88,1,1.1,1.77.63A4.19,4.19,0,0,0,143.4,235.45Z"/><path class="cls-9" d="M148.53,236.44V217.77a2.18,2.18,0,0,1,.16-.91,1.18,1.18,0,0,1,.5-.56l3.07-1.77c2.56-1.48,3.83-.35,3.83,3.36a10,10,0,0,1-1.79,6V224c.51.13.94,1,1.3,2.45l1.14,5s0,.11,0,.17a1.1,1.1,0,0,1,0,.18c0,.45-.34.87-1,1.27l-.55.32c-.6.34-.93.31-1-.1l-1-5a2,2,0,0,0-.53-1.08c-.19-.14-.5-.1-.9.14l-.71.41V235a1.66,1.66,0,0,1-1,1.43l-.51.3C148.86,237.1,148.53,237,148.53,236.44Zm3.87-13.07a2.34,2.34,0,0,0,.87-1.29,6.9,6.9,0,0,0,.37-2.33,3.25,3.25,0,0,0-.36-1.86c-.23-.31-.55-.34-1-.11l-1.3.75v5.64Z"/><path class="cls-10" d="M115.52,282.72a.8.8,0,0,0-.78.08L105,288.45a2.41,2.41,0,0,0-1.1,1.89v7.35a.76.76,0,0,0,.32.71l1.9,1.09a.73.73,0,0,0,.77-.07l9.79-5.65a2.43,2.43,0,0,0,1.09-1.89v-7.35a.76.76,0,0,0-.32-.71Z"/><path class="cls-11" d="M104.18,298.4l1.9,1.09a.73.73,0,0,0,.77-.07l7.46-4.31-10.13-5.84a2.2,2.2,0,0,0-.32,1.07v7.35A.76.76,0,0,0,104.18,298.4Z"/><path class="cls-9" d="M105.76,291.44v7.35c0,.7.49,1,1.09.63l9.79-5.65a2.43,2.43,0,0,0,1.09-1.89v-7.35c0-.7-.49-1-1.09-.63l-9.79,5.64A2.43,2.43,0,0,0,105.76,291.44Z"/><path class="cls-6" d="M110.49,291a.2.2,0,0,1,0-.16.64.64,0,0,1,.06-.18l1.18-2.07.1-.18a.36.36,0,0,1,.15-.15l.66-.39s.08,0,.11,0a.18.18,0,0,1,0,.14v5.44a.39.39,0,0,1,0,.18.24.24,0,0,1-.11.13l-.71.41a.08.08,0,0,1-.11,0,.2.2,0,0,1,0-.13V290.4l-.65,1.13a.19.19,0,0,1-.11.11.07.07,0,0,1-.1,0Z"/><path class="cls-10" d="M131.72,273.37a.76.76,0,0,0-.77.07l-9.79,5.65a2.43,2.43,0,0,0-1.09,1.9v7.35a.74.74,0,0,0,.32.7l1.89,1.1a.76.76,0,0,0,.78-.08l9.79-5.64a2.43,2.43,0,0,0,1.09-1.9v-7.35a.77.77,0,0,0-.32-.71Z"/><path class="cls-11" d="M120.39,289l1.89,1.1a.76.76,0,0,0,.78-.08l7.46-4.3-10.13-5.85a2.21,2.21,0,0,0-.32,1.08v7.35A.74.74,0,0,0,120.39,289Z"/><path class="cls-9" d="M122,282.08v7.35c0,.7.49,1,1.09.63l9.79-5.64a2.43,2.43,0,0,0,1.09-1.9v-7.35c0-.7-.49-1-1.09-.63l-9.79,5.65A2.43,2.43,0,0,0,122,282.08Z"/><path class="cls-6" d="M129.45,280.09a2.7,2.7,0,0,1,0,.49,2.46,2.46,0,0,1-.11.51,3.72,3.72,0,0,1-.21.54c-.08.19-.19.39-.31.61l-.77,1.33,1.38-.79a.08.08,0,0,1,.1,0s0,.07,0,.13v.89a.43.43,0,0,1,0,.19.34.34,0,0,1-.1.13l-2.89,1.66a.09.09,0,0,1-.11,0,.26.26,0,0,1,0-.14v-.72a1,1,0,0,1,0-.29.79.79,0,0,1,.12-.3l1.63-2.75a2.42,2.42,0,0,0,.25-.54,1.76,1.76,0,0,0,0-.38.86.86,0,0,0,0-.15.48.48,0,0,0-.06-.18.24.24,0,0,0-.14-.1.37.37,0,0,0-.24.07.67.67,0,0,0-.25.22.91.91,0,0,0-.15.27,1.21,1.21,0,0,0-.08.25c0,.08,0,.14,0,.18a.53.53,0,0,1-.09.2.45.45,0,0,1-.13.11l-.68.39a.06.06,0,0,1-.08,0,.18.18,0,0,1,0-.11,4.29,4.29,0,0,1,.1-.76,4.14,4.14,0,0,1,.75-1.54A2.6,2.6,0,0,1,128,279a1.38,1.38,0,0,1,.64-.2.67.67,0,0,1,.46.17,1,1,0,0,1,.28.47A2.39,2.39,0,0,1,129.45,280.09Z"/><path class="cls-10" d="M147.93,264a.78.78,0,0,0-.78.08l-9.78,5.65a2.4,2.4,0,0,0-1.1,1.89V279a.79.79,0,0,0,.32.71l1.9,1.09a.77.77,0,0,0,.78-.07l9.78-5.65a2.42,2.42,0,0,0,1.1-1.9v-7.35a.78.78,0,0,0-.32-.7Z"/><path class="cls-11" d="M136.59,279.69l1.9,1.09a.77.77,0,0,0,.78-.07l7.46-4.31-10.14-5.85a2.35,2.35,0,0,0-.32,1.08V279A.79.79,0,0,0,136.59,279.69Z"/><path class="cls-9" d="M138.17,272.73v7.35c0,.69.49,1,1.1.63l9.78-5.65a2.42,2.42,0,0,0,1.1-1.9v-7.35c0-.69-.49-1-1.1-.63l-9.78,5.65A2.42,2.42,0,0,0,138.17,272.73Z"/><path class="cls-6" d="M145.43,269a.07.07,0,0,1,.1,0,.16.16,0,0,1,.05.13V270a.65.65,0,0,1,0,.19l-.07.17-.67,1.41a.79.79,0,0,1,.7.17,1.18,1.18,0,0,1,.27.9,3.17,3.17,0,0,1-1.62,2.85,1.84,1.84,0,0,1-.7.26.84.84,0,0,1-.51-.09.69.69,0,0,1-.32-.35,1.26,1.26,0,0,1-.12-.54.28.28,0,0,1,0-.15.17.17,0,0,1,.08-.1l.69-.4c.08-.05.14-.05.18,0l.13.09a.29.29,0,0,0,.19.06.65.65,0,0,0,.34-.11,1.34,1.34,0,0,0,.43-.39.82.82,0,0,0,.18-.52c0-.2-.06-.31-.18-.34a.67.67,0,0,0-.43.12l-.46.26a.08.08,0,0,1-.1,0,.2.2,0,0,1,0-.14v-.72a.63.63,0,0,1,0-.19l.08-.18.58-1.24-1.43.82s-.07,0-.1,0a.18.18,0,0,1,0-.14v-.89a.39.39,0,0,1,0-.18.24.24,0,0,1,.1-.13Z"/><path class="cls-10" d="M164.13,254.65a.79.79,0,0,0-.77.08l-9.79,5.65a2.43,2.43,0,0,0-1.09,1.9v7.34a.76.76,0,0,0,.32.71l1.89,1.1a.78.78,0,0,0,.78-.08l9.79-5.65a2.41,2.41,0,0,0,1.09-1.89v-7.35a.76.76,0,0,0-.32-.71Z"/><path class="cls-11" d="M152.8,270.33l1.89,1.09a.75.75,0,0,0,.78-.07l7.46-4.3L152.8,261.2a2.21,2.21,0,0,0-.32,1.08v7.34A.76.76,0,0,0,152.8,270.33Z"/><path class="cls-9" d="M154.38,263.37v7.35c0,.7.49,1,1.09.63l9.79-5.65a2.41,2.41,0,0,0,1.09-1.89v-7.35c0-.7-.49-1-1.09-.63l-9.79,5.65A2.4,2.4,0,0,0,154.38,263.37Z"/><path class="cls-6" d="M160.33,260.36a.09.09,0,0,1,.11,0,.18.18,0,0,1,0,.14v.89a.39.39,0,0,1,0,.18.25.25,0,0,1-.11.13l-1.63,1v1.15l1.52-.88a.08.08,0,0,1,.11,0s0,.07,0,.13V264a.43.43,0,0,1,0,.19.36.36,0,0,1-.11.13l-1.52.88V267a.41.41,0,0,1,0,.18.28.28,0,0,1-.1.13l-.72.41a.08.08,0,0,1-.1,0,.2.2,0,0,1,0-.14v-5.44a.49.49,0,0,1,0-.19.25.25,0,0,1,.1-.12Z"/><path class="cls-6" d="M160.79,262a.28.28,0,0,1,0-.15.6.6,0,0,1,.06-.19l1.18-2.06.11-.18a.41.41,0,0,1,.14-.15l.67-.39a.08.08,0,0,1,.1,0,.17.17,0,0,1,0,.13v5.44a.45.45,0,0,1,0,.19.34.34,0,0,1-.1.13l-.72.41a.08.08,0,0,1-.1,0,.17.17,0,0,1,0-.13v-3.68l-.65,1.13a.23.23,0,0,1-.11.11.08.08,0,0,1-.09,0Z"/><path class="cls-10" d="M115.52,299a.77.77,0,0,0-.78.07L105,304.76a2.42,2.42,0,0,0-1.1,1.9V314a.77.77,0,0,0,.32.71l1.9,1.09a.74.74,0,0,0,.77-.08l9.79-5.64a2.43,2.43,0,0,0,1.09-1.9v-7.35a.77.77,0,0,0-.32-.71Z"/><path class="cls-11" d="M104.18,314.72l1.9,1.09a.74.74,0,0,0,.77-.08l7.46-4.3-10.13-5.85a2.21,2.21,0,0,0-.32,1.08V314A.77.77,0,0,0,104.18,314.72Z"/><path class="cls-9" d="M105.76,307.75v7.35c0,.7.49,1,1.09.63l9.79-5.64a2.43,2.43,0,0,0,1.09-1.9v-7.35c0-.7-.49-1-1.09-.63l-9.79,5.65A2.43,2.43,0,0,0,105.76,307.75Z"/><path class="cls-6" d="M112,310.47a.08.08,0,0,1-.1,0,.17.17,0,0,1,0-.13v-.86l-1.73,1a.08.08,0,0,1-.1,0,.2.2,0,0,1-.05-.14v-.89a1,1,0,0,1,.08-.4l1.63-4.12a.59.59,0,0,1,.09-.18l.11-.09.83-.48a.08.08,0,0,1,.1,0,.17.17,0,0,1,0,.13v3.24l.47-.27s.07,0,.1,0a.2.2,0,0,1,0,.14v.89a.41.41,0,0,1,0,.18.24.24,0,0,1-.1.13l-.47.27v.86a.41.41,0,0,1,0,.19.34.34,0,0,1-.1.13Zm-.12-2.36v-1.55l-.8,2Z"/><path class="cls-10" d="M131.72,289.68a.76.76,0,0,0-.77.08l-9.79,5.65a2.41,2.41,0,0,0-1.09,1.89v7.35a.77.77,0,0,0,.32.71l1.89,1.09a.77.77,0,0,0,.78-.07l9.79-5.65a2.43,2.43,0,0,0,1.09-1.9v-7.35a.75.75,0,0,0-.32-.7Z"/><path class="cls-11" d="M120.39,305.36l1.89,1.09a.77.77,0,0,0,.78-.07l7.46-4.31-10.13-5.85a2.24,2.24,0,0,0-.32,1.08v7.35A.77.77,0,0,0,120.39,305.36Z"/><path class="cls-9" d="M122,298.4v7.35c0,.69.49,1,1.09.63l9.79-5.65a2.43,2.43,0,0,0,1.09-1.9v-7.35c0-.69-.49-1-1.09-.63l-9.79,5.65A2.43,2.43,0,0,0,122,298.4Z"/><path class="cls-6" d="M127.37,299.85a.44.44,0,0,0,.08.11.31.31,0,0,0,.11.09.29.29,0,0,0,.16,0,.54.54,0,0,0,.22-.08.87.87,0,0,0,.22-.17,1.64,1.64,0,0,0,.19-.25,2.08,2.08,0,0,0,.13-.3,1.29,1.29,0,0,0,0-.35.44.44,0,0,0-.14-.38c-.1-.07-.23-.05-.4.05a.49.49,0,0,0-.14.11l-.13.15-.11.13a.29.29,0,0,1-.08.08l-.85.49s-.08,0-.11,0a.18.18,0,0,1,0-.14l.16-3.1a.77.77,0,0,1,0-.19.25.25,0,0,1,.1-.12l2.34-1.35a.09.09,0,0,1,.11,0,.2.2,0,0,1,0,.14v.89a.43.43,0,0,1,0,.19.26.26,0,0,1-.11.12l-1.59.92,0,.78a1.49,1.49,0,0,1,.23-.27,1.42,1.42,0,0,1,.28-.22,1.56,1.56,0,0,1,.59-.21.74.74,0,0,1,.47.12.88.88,0,0,1,.31.44,2.25,2.25,0,0,1,.11.79,3.77,3.77,0,0,1-.12,1,3.36,3.36,0,0,1-.34.85,3,3,0,0,1-1.13,1.19,1.58,1.58,0,0,1-.66.23.75.75,0,0,1-.5-.11.78.78,0,0,1-.31-.39,1.57,1.57,0,0,1-.11-.6.4.4,0,0,1,0-.15.2.2,0,0,1,.09-.11l.69-.4c.06,0,.1,0,.13,0A.14.14,0,0,1,127.37,299.85Z"/><path class="cls-10" d="M147.93,280.32a.81.81,0,0,0-.78.08l-9.78,5.65a2.42,2.42,0,0,0-1.1,1.9v7.35a.78.78,0,0,0,.32.7l1.9,1.1a.78.78,0,0,0,.78-.08l9.78-5.65a2.4,2.4,0,0,0,1.1-1.89v-7.35a.78.78,0,0,0-.32-.71Z"/><path class="cls-11" d="M136.59,296l1.9,1.1a.78.78,0,0,0,.78-.08l7.46-4.3-10.14-5.85a2.32,2.32,0,0,0-.32,1.08v7.35A.78.78,0,0,0,136.59,296Z"/><path class="cls-9" d="M138.17,289v7.35c0,.7.49,1,1.1.63l9.78-5.65a2.4,2.4,0,0,0,1.1-1.89v-7.35c0-.7-.49-1-1.1-.63l-9.78,5.65A2.38,2.38,0,0,0,138.17,289Z"/><path class="cls-6" d="M145.81,288.93a3.83,3.83,0,0,1-.13,1,4.19,4.19,0,0,1-.36.87,3.78,3.78,0,0,1-.52.72,2.39,2.39,0,0,1-.62.5,1.55,1.55,0,0,1-.62.22.85.85,0,0,1-.89-.57,2.31,2.31,0,0,1-.13-.82,4,4,0,0,1,0-.5c0-.15.07-.31.11-.45s.08-.29.13-.43.09-.26.13-.38l1.05-2.77.06-.14a.24.24,0,0,1,.11-.13l.87-.5a.05.05,0,0,1,.08,0,.16.16,0,0,1,0,.11s0,.05,0,.07,0,0,0,.05l-.71,1.9a1.2,1.2,0,0,1,.54-.1.8.8,0,0,1,.45.17,1,1,0,0,1,.3.46A2.28,2.28,0,0,1,145.81,288.93Zm-2.25,1.3a.67.67,0,0,0,.05.3.34.34,0,0,0,.14.15.28.28,0,0,0,.2,0,.7.7,0,0,0,.23-.08,1.28,1.28,0,0,0,.23-.19,1.54,1.54,0,0,0,.33-.58,1,1,0,0,0,.06-.36.6.6,0,0,0-.06-.29.28.28,0,0,0-.14-.16.3.3,0,0,0-.19,0,.7.7,0,0,0-.23.08,1.81,1.81,0,0,0-.23.18,1.89,1.89,0,0,0-.2.27,1.55,1.55,0,0,0-.14.32A1.12,1.12,0,0,0,143.56,290.23Z"/><path class="cls-10" d="M115.52,315.32a.77.77,0,0,0-.78.07L105,321a2.42,2.42,0,0,0-1.1,1.9v7.35a.75.75,0,0,0,.32.7l1.9,1.1a.76.76,0,0,0,.77-.08l9.79-5.65a2.41,2.41,0,0,0,1.09-1.89v-7.35a.76.76,0,0,0-.32-.71Z"/><path class="cls-11" d="M104.18,331l1.9,1.1a.76.76,0,0,0,.77-.08l7.46-4.3-10.13-5.85a2.21,2.21,0,0,0-.32,1.08v7.35A.75.75,0,0,0,104.18,331Z"/><path class="cls-9" d="M105.76,324v7.35c0,.7.49,1,1.09.63l9.79-5.65a2.41,2.41,0,0,0,1.09-1.89v-7.35c0-.7-.49-1-1.09-.63l-9.79,5.65A2.4,2.4,0,0,0,105.76,324Z"/><path class="cls-6" d="M110.87,327.2a.89.89,0,0,1,0-.11l1.18-4.93-1.63.95a.08.08,0,0,1-.1,0,.18.18,0,0,1,0-.14v-.89a.41.41,0,0,1,0-.18.24.24,0,0,1,.1-.13l2.62-1.51a.08.08,0,0,1,.1,0s0,.07,0,.13v.78a2.08,2.08,0,0,1-.08.48l-1.19,4.94a.49.49,0,0,1-.06.17.22.22,0,0,1-.1.13l-.76.44a.08.08,0,0,1-.1,0A.17.17,0,0,1,110.87,327.2Z"/><path class="cls-10" d="M131.72,306a.74.74,0,0,0-.77.08l-9.79,5.64a2.43,2.43,0,0,0-1.09,1.9v7.35a.77.77,0,0,0,.32.71c.19.11,1.7,1,1.89,1.09a.77.77,0,0,0,.78-.07l9.79-5.65a2.43,2.43,0,0,0,1.09-1.9v-7.35a.77.77,0,0,0-.32-.71Z"/><path class="cls-11" d="M120.39,321.64c.19.11,1.7,1,1.89,1.09a.77.77,0,0,0,.78-.07l7.46-4.31-10.13-5.85a2.21,2.21,0,0,0-.32,1.08v7.35A.77.77,0,0,0,120.39,321.64Z"/><path class="cls-9" d="M122,314.67V322c0,.7.49,1,1.09.64l9.79-5.65a2.43,2.43,0,0,0,1.09-1.9v-7.35c0-.7-.49-1-1.09-.63l-9.79,5.65A2.43,2.43,0,0,0,122,314.67Z"/><path class="cls-6" d="M126.42,314.3a2.91,2.91,0,0,1,.12-.82,3.58,3.58,0,0,1,.33-.78,4,4,0,0,1,.49-.66,2.59,2.59,0,0,1,.59-.48,1.53,1.53,0,0,1,.59-.2.79.79,0,0,1,.49.09.9.9,0,0,1,.34.4,1.66,1.66,0,0,1,.12.68,2.91,2.91,0,0,1-.08.66,3.69,3.69,0,0,1-.21.64,1,1,0,0,1,.27.38,1.67,1.67,0,0,1,.1.63,3,3,0,0,1-.12.83,3.88,3.88,0,0,1-.35.78,3.36,3.36,0,0,1-.51.68,3,3,0,0,1-.64.5,1.57,1.57,0,0,1-.63.23.88.88,0,0,1-.52-.08.82.82,0,0,1-.34-.39,1.68,1.68,0,0,1-.13-.68,3.07,3.07,0,0,1,.1-.74,3.3,3.3,0,0,1,.28-.7.93.93,0,0,1-.22-.39A2,2,0,0,1,126.42,314.3Zm.93,1.84a.34.34,0,0,0,.15.33c.1,0,.25,0,.45-.11a1.18,1.18,0,0,0,.46-.42,1,1,0,0,0,.15-.5.33.33,0,0,0-.15-.32c-.1-.05-.25,0-.46.1a1.24,1.24,0,0,0-.45.43A1,1,0,0,0,127.35,316.14Zm.08-2.44c0,.17,0,.28.14.33s.22,0,.38-.06a1,1,0,0,0,.39-.38,1,1,0,0,0,.14-.49.36.36,0,0,0-.14-.33q-.14-.09-.39.06a1,1,0,0,0-.38.38A.94.94,0,0,0,127.43,313.7Z"/><path class="cls-10" d="M147.93,296.6a.78.78,0,0,0-.78.08l-9.78,5.65a2.41,2.41,0,0,0-1.1,1.89v7.35a.79.79,0,0,0,.32.71l1.9,1.09a.75.75,0,0,0,.78-.07l9.78-5.65a2.41,2.41,0,0,0,1.1-1.89v-7.35a.78.78,0,0,0-.32-.71Z"/><path class="cls-11" d="M136.59,312.28l1.9,1.09a.75.75,0,0,0,.78-.07l7.46-4.31-10.14-5.85a2.35,2.35,0,0,0-.32,1.08v7.35A.79.79,0,0,0,136.59,312.28Z"/><path class="cls-9" d="M138.17,305.32v7.35c0,.7.49,1,1.1.63l9.78-5.65a2.41,2.41,0,0,0,1.1-1.89v-7.35c0-.7-.49-1-1.1-.64l-9.78,5.65A2.42,2.42,0,0,0,138.17,305.32Z"/><path class="cls-6" d="M142.55,305.24a3.42,3.42,0,0,1,.13-1,4.19,4.19,0,0,1,.36-.87,3.42,3.42,0,0,1,.52-.71,2.6,2.6,0,0,1,.59-.49,1.47,1.47,0,0,1,.6-.2.81.81,0,0,1,.51.12.93.93,0,0,1,.36.45,2.06,2.06,0,0,1,.13.8,3.48,3.48,0,0,1,0,.47l-.09.45c0,.14-.08.28-.13.42l-.14.39-1,2.82a1,1,0,0,0-.06.14.35.35,0,0,1-.11.13l-.87.5a.06.06,0,0,1-.08,0,.18.18,0,0,1,0-.11v-.08s0,0,0-.05l.7-1.92a1.13,1.13,0,0,1-.51.07.72.72,0,0,1-.43-.18,1,1,0,0,1-.29-.45A2.16,2.16,0,0,1,142.55,305.24Zm2.19-1.27a.59.59,0,0,0-.05-.28.3.3,0,0,0-.32-.2.51.51,0,0,0-.22.07.73.73,0,0,0-.22.18,2.48,2.48,0,0,0-.19.26,1.53,1.53,0,0,0-.13.32,1.26,1.26,0,0,0-.05.33.74.74,0,0,0,.05.28.35.35,0,0,0,.13.16.31.31,0,0,0,.19,0,.51.51,0,0,0,.22-.07.92.92,0,0,0,.22-.18,1.57,1.57,0,0,0,.19-.26,1.13,1.13,0,0,0,.13-.32A1,1,0,0,0,144.74,304Z"/><path class="cls-10" d="M164.13,271a.74.74,0,0,0-.77.08l-9.79,5.64a2.43,2.43,0,0,0-1.09,1.9v7.35a.77.77,0,0,0,.32.71c.2.11,1.7,1,1.89,1.09a.77.77,0,0,0,.78-.07l9.79-5.65a2.43,2.43,0,0,0,1.09-1.9v-7.35a.77.77,0,0,0-.32-.71Z"/><path class="cls-11" d="M152.8,286.65c.2.11,1.7,1,1.89,1.09a.77.77,0,0,0,.78-.07l7.46-4.31-10.13-5.85a2.21,2.21,0,0,0-.32,1.08v7.35A.77.77,0,0,0,152.8,286.65Z"/><path class="cls-9" d="M154.38,279.68V287c0,.7.49,1,1.09.64l9.79-5.65a2.43,2.43,0,0,0,1.09-1.9v-7.35c0-.7-.49-1-1.09-.63l-9.79,5.65A2.43,2.43,0,0,0,154.38,279.68Z"/><path class="cls-6" d="M159.89,276.93a.08.08,0,0,1,.1,0,.2.2,0,0,1,0,.14V278a.39.39,0,0,1,0,.18.24.24,0,0,1-.1.13l-1.64,1v1.15l1.53-.88a.08.08,0,0,1,.1,0,.17.17,0,0,1,0,.13v.89a.41.41,0,0,1,0,.19.34.34,0,0,1-.1.13l-1.53.88v1.82a.39.39,0,0,1,0,.18.29.29,0,0,1-.11.13l-.71.41a.09.09,0,0,1-.11,0,.2.2,0,0,1,0-.14v-5.44a.39.39,0,0,1,0-.18.25.25,0,0,1,.11-.13Z"/><path class="cls-6" d="M163.55,276.72a4.22,4.22,0,0,1,0,.49,3.22,3.22,0,0,1-.11.5,3.42,3.42,0,0,1-.21.55,5.76,5.76,0,0,1-.31.6l-.77,1.34,1.38-.79s.07,0,.1,0a.2.2,0,0,1,0,.14v.89a.46.46,0,0,1,0,.19.25.25,0,0,1-.1.12l-2.89,1.67a.09.09,0,0,1-.11,0,.17.17,0,0,1,0-.13v-.73a1.06,1.06,0,0,1,0-.29.94.94,0,0,1,.12-.3l1.63-2.74a2,2,0,0,0,.24-.54,1.37,1.37,0,0,0,.05-.38.86.86,0,0,0,0-.15.48.48,0,0,0-.06-.18.28.28,0,0,0-.14-.1.39.39,0,0,0-.25.06.76.76,0,0,0-.24.23,1,1,0,0,0-.15.26,1.77,1.77,0,0,0-.08.25l0,.18a.4.4,0,0,1-.08.21.69.69,0,0,1-.13.11l-.68.39a.05.05,0,0,1-.08,0,.16.16,0,0,1,0-.11,4.42,4.42,0,0,1,.1-.76,4.15,4.15,0,0,1,.28-.79,4,4,0,0,1,.47-.74,2.41,2.41,0,0,1,.67-.56,1.18,1.18,0,0,1,.64-.2.69.69,0,0,1,.46.17,1,1,0,0,1,.28.47A2.39,2.39,0,0,1,163.55,276.72Z"/><path class="cls-10" d="M164.13,287.27a.76.76,0,0,0-.77.07L153.57,293a2.43,2.43,0,0,0-1.09,1.9v7.35a.75.75,0,0,0,.32.7l1.89,1.1a.78.78,0,0,0,.78-.08l9.79-5.65a2.4,2.4,0,0,0,1.09-1.89v-7.35a.77.77,0,0,0-.32-.71Z"/><path class="cls-11" d="M152.8,302.94l1.89,1.1a.78.78,0,0,0,.78-.08l7.46-4.3-10.13-5.85a2.21,2.21,0,0,0-.32,1.08v7.35A.75.75,0,0,0,152.8,302.94Z"/><path class="cls-9" d="M154.38,296v7.35c0,.7.49,1,1.09.63l9.79-5.65a2.4,2.4,0,0,0,1.09-1.89v-7.35c0-.7-.49-1-1.09-.63l-9.79,5.65A2.41,2.41,0,0,0,154.38,296Z"/><path class="cls-6" d="M159.86,293.25a.07.07,0,0,1,.1,0,.16.16,0,0,1,0,.13v.89a.45.45,0,0,1,0,.19.25.25,0,0,1-.1.12l-1.64,1v1.15l1.53-.88a.08.08,0,0,1,.1,0,.17.17,0,0,1,.05.13v.9a.41.41,0,0,1-.05.18.28.28,0,0,1-.1.13l-1.53.88v1.82a.46.46,0,0,1,0,.19.25.25,0,0,1-.1.12l-.72.42s-.08,0-.1,0a.17.17,0,0,1,0-.13V295a.41.41,0,0,1,0-.18.23.23,0,0,1,.1-.13Z"/><path class="cls-6" d="M163.32,291.25a.09.09,0,0,1,.11,0,.2.2,0,0,1,0,.13v.89a.41.41,0,0,1,0,.19l-.07.17-.66,1.41a.78.78,0,0,1,.69.17,1.18,1.18,0,0,1,.27.9,3.21,3.21,0,0,1-.43,1.68A3.26,3.26,0,0,1,162,298a1.78,1.78,0,0,1-.7.26.84.84,0,0,1-.51-.09.73.73,0,0,1-.32-.35,1.27,1.27,0,0,1-.11-.54.4.4,0,0,1,0-.15.18.18,0,0,1,.09-.1l.68-.4c.08-.05.14-.05.18,0l.13.09a.31.31,0,0,0,.19.06.63.63,0,0,0,.34-.11,1.38,1.38,0,0,0,.44-.39.87.87,0,0,0,.17-.52c0-.2-.06-.31-.17-.33a.62.62,0,0,0-.44.11l-.45.26a.08.08,0,0,1-.11,0,.2.2,0,0,1,0-.14v-.72a.43.43,0,0,1,0-.19,1.71,1.71,0,0,1,.07-.18l.58-1.24-1.42.83a.09.09,0,0,1-.11,0,.18.18,0,0,1,0-.14v-.89a.39.39,0,0,1,0-.18.25.25,0,0,1,.11-.13Z"/><path class="cls-10" d="M115.52,331.65a.78.78,0,0,0-.78.08L105,337.38a2.38,2.38,0,0,0-1.1,1.89v7.35a.77.77,0,0,0,.32.71l1.9,1.09a.76.76,0,0,0,.77-.07l9.79-5.65a2.43,2.43,0,0,0,1.09-1.9v-7.35a.77.77,0,0,0-.32-.71Z"/><path class="cls-11" d="M104.18,347.33l1.9,1.09a.76.76,0,0,0,.77-.07l7.46-4.31-10.13-5.85a2.21,2.21,0,0,0-.32,1.08v7.35A.77.77,0,0,0,104.18,347.33Z"/><path class="cls-9" d="M105.76,340.37v7.34c0,.7.49,1,1.09.64l9.79-5.65a2.43,2.43,0,0,0,1.09-1.9v-7.35c0-.69-.49-1-1.09-.63l-9.79,5.65A2.43,2.43,0,0,0,105.76,340.37Z"/><path class="cls-6" d="M112,340.09l.38-.61h0s0,0,0,0h0s.06-.05.09,0,0,0,.06.07l.17.7a.23.23,0,0,1,0,.14.31.31,0,0,1-.07.14h0l0,0-.46.31.36.23,0,0h0a.24.24,0,0,1,0,.13.25.25,0,0,1,0,.15l-.44.75a.16.16,0,0,1-.09.08.08.08,0,0,1-.08,0l0-.05-.16-.56-.17.75,0,.07a.28.28,0,0,1-.08.11.09.09,0,0,1-.09,0l-.44-.24s0-.05,0-.1a.4.4,0,0,1,0-.15h0v-.06l.37-.64-.46.22h0s0,0-.07-.06a.19.19,0,0,1,0-.13l.16-.9a.61.61,0,0,1,.07-.14c0-.05.06-.07.09-.07h0l.38.16-.12-.6s0-.05,0-.07a.43.43,0,0,1,0-.14.2.2,0,0,1,.08-.11l.55-.32a.08.08,0,0,1,.09,0,.18.18,0,0,1,0,.11v.07Z"/><path class="cls-10" d="M131.72,322.29a.79.79,0,0,0-.77.08L121.16,328a2.43,2.43,0,0,0-1.09,1.89v7.35a.76.76,0,0,0,.32.71c.19.12,1.7,1,1.89,1.09a.75.75,0,0,0,.78-.07l9.79-5.65a2.43,2.43,0,0,0,1.09-1.89V324.1a.76.76,0,0,0-.32-.71Z"/><path class="cls-11" d="M120.39,338c.19.12,1.7,1,1.89,1.09a.75.75,0,0,0,.78-.07l7.46-4.31-10.13-5.84a2.17,2.17,0,0,0-.32,1.07v7.35A.76.76,0,0,0,120.39,338Z"/><path class="cls-9" d="M122,331v7.35c0,.7.49,1,1.09.63l9.79-5.65a2.43,2.43,0,0,0,1.09-1.89V324.1c0-.7-.49-1-1.09-.64l-9.79,5.65A2.43,2.43,0,0,0,122,331Z"/><path class="cls-6" d="M128,327.9a1.33,1.33,0,0,1,.71-.22.71.71,0,0,1,.49.21,1.29,1.29,0,0,1,.29.56,3.87,3.87,0,0,1,.11.81c0,.24,0,.49,0,.75s0,.51,0,.75a5.9,5.9,0,0,1-.11.93,4.31,4.31,0,0,1-.29.9,3.53,3.53,0,0,1-.49.78,2.54,2.54,0,0,1-.71.59,1.3,1.3,0,0,1-.7.22.71.71,0,0,1-.49-.21,1.19,1.19,0,0,1-.29-.56,3.3,3.3,0,0,1-.11-.81c0-.22,0-.47,0-.73s0-.52,0-.77a4.92,4.92,0,0,1,.11-.93,3.79,3.79,0,0,1,.29-.9,3.53,3.53,0,0,1,.49-.78A2.5,2.5,0,0,1,128,327.9Zm.59,3.4c0-.49,0-1,0-1.42a3.6,3.6,0,0,0,0-.36.52.52,0,0,0-.1-.25.25.25,0,0,0-.17-.11.5.5,0,0,0-.28.09.87.87,0,0,0-.27.23,1.33,1.33,0,0,0-.18.31,1.9,1.9,0,0,0-.09.36,1.84,1.84,0,0,0,0,.41c0,.48,0,.95,0,1.42a1.94,1.94,0,0,0,0,.36.65.65,0,0,0,.1.25.29.29,0,0,0,.18.11.43.43,0,0,0,.27-.09,1,1,0,0,0,.28-.23,1,1,0,0,0,.17-.31,1.36,1.36,0,0,0,.1-.36C128.52,331.58,128.53,331.44,128.54,331.3Z"/><path class="cls-10" d="M147.93,312.94a.77.77,0,0,0-.78.07l-9.78,5.65a2.42,2.42,0,0,0-1.1,1.9v7.35a.78.78,0,0,0,.32.7l1.9,1.1a.78.78,0,0,0,.78-.08l9.78-5.65a2.38,2.38,0,0,0,1.1-1.89v-7.35a.79.79,0,0,0-.32-.71Z"/><path class="cls-11" d="M136.59,328.61l1.9,1.1a.78.78,0,0,0,.78-.08l7.46-4.3-10.14-5.85a2.32,2.32,0,0,0-.32,1.08v7.35A.78.78,0,0,0,136.59,328.61Z"/><path class="cls-9" d="M138.17,321.65V329c0,.7.49,1,1.1.63l9.78-5.65a2.38,2.38,0,0,0,1.1-1.89v-7.35c0-.7-.49-1-1.1-.63l-9.78,5.65A2.4,2.4,0,0,0,138.17,321.65Z"/><path class="cls-6" d="M145.36,319.2l.28-.16a.09.09,0,0,1,.11,0,.17.17,0,0,1,0,.13V320a.46.46,0,0,1,0,.19.26.26,0,0,1-.11.12l-.4.24-.09.92.35-.2a.09.09,0,0,1,.11,0,.17.17,0,0,1,0,.13v.81a.43.43,0,0,1,0,.19.26.26,0,0,1-.11.12l-.47.28-.07.75a.43.43,0,0,1-.05.16.22.22,0,0,1-.09.1l-.57.33a.06.06,0,0,1-.09,0,.14.14,0,0,1,0-.11h0l.07-.73-.41.23-.07.76a.33.33,0,0,1-.05.15.2.2,0,0,1-.09.11l-.57.33s-.06,0-.09,0a.16.16,0,0,1,0-.11h0L143,324l-.28.16a.08.08,0,0,1-.1,0,.17.17,0,0,1,0-.13v-.81a.43.43,0,0,1,0-.19.34.34,0,0,1,.1-.13l.41-.23.08-.92-.34.2a.09.09,0,0,1-.11,0,.18.18,0,0,1,0-.14V321a.41.41,0,0,1,0-.19.36.36,0,0,1,.11-.13l.47-.27.07-.76a.74.74,0,0,1,0-.14.2.2,0,0,1,.09-.11l.58-.33a.06.06,0,0,1,.08,0,.14.14,0,0,1,0,.11v0l-.07.72.41-.24.07-.75a.83.83,0,0,1,0-.15.22.22,0,0,1,.09-.1l.58-.34a.06.06,0,0,1,.09,0,.16.16,0,0,1,0,.11v0Zm-1.45,3,.41-.24.08-.92-.4.23Z"/><path class="cls-10" d="M164.13,303.58a.76.76,0,0,0-.77.08l-9.79,5.65a2.4,2.4,0,0,0-1.09,1.89v7.35a.77.77,0,0,0,.32.71c.2.11,1.7,1,1.89,1.09a.77.77,0,0,0,.78-.07l9.79-5.65a2.43,2.43,0,0,0,1.09-1.9v-7.35a.74.74,0,0,0-.32-.7Z"/><path class="cls-11" d="M152.8,319.26c.2.11,1.7,1,1.89,1.09a.77.77,0,0,0,.78-.07l7.46-4.31-10.13-5.85a2.24,2.24,0,0,0-.32,1.08v7.35A.77.77,0,0,0,152.8,319.26Z"/><path class="cls-9" d="M154.38,312.3v7.35c0,.69.49,1,1.09.63l9.79-5.65a2.43,2.43,0,0,0,1.09-1.9v-7.35c0-.69-.49-1-1.09-.63l-9.79,5.65A2.43,2.43,0,0,0,154.38,312.3Z"/><path class="cls-6" d="M159.79,309.6a.08.08,0,0,1,.1,0,.18.18,0,0,1,0,.14v.89a.39.39,0,0,1,0,.18.24.24,0,0,1-.1.13l-1.64.95v1.15l1.53-.88a.08.08,0,0,1,.1,0s0,.07,0,.13v.89a.41.41,0,0,1,0,.19.34.34,0,0,1-.1.13l-1.53.88v1.82a.39.39,0,0,1,0,.18.29.29,0,0,1-.11.13l-.71.41a.09.09,0,0,1-.11,0,.2.2,0,0,1,0-.14v-5.44a.39.39,0,0,1,0-.18.25.25,0,0,1,.11-.13Z"/><path class="cls-6" d="M162.32,314a.09.09,0,0,1-.11,0,.17.17,0,0,1,0-.13V313l-1.72,1a.09.09,0,0,1-.11,0s0-.07,0-.13V313a1.1,1.1,0,0,1,.07-.41l1.64-4.12a.65.65,0,0,1,.09-.17.2.2,0,0,1,.11-.09l.82-.48a.09.09,0,0,1,.11,0s0,.07,0,.13v3.24l.47-.28a.09.09,0,0,1,.11,0,.18.18,0,0,1,0,.14v.89a.39.39,0,0,1,0,.18.25.25,0,0,1-.11.13l-.47.27v.86a.43.43,0,0,1,0,.19.26.26,0,0,1-.11.12Zm-.12-2.37v-1.55l-.8,2Z"/><path class="cls-12" d="M94.12,231.92V370c0,14.69-10.31,20.64-23,13.3l-14.17-8.18a8.48,8.48,0,0,1-3.84-6.65V186.07c0-2.45,1.72-3.44,3.84-2.22L71.09,192C83.81,199.37,94.12,217.23,94.12,231.92Z"/><path class="cls-8" d="M81.37,376.72a12.1,12.1,0,0,1-5.85-2l-12.18-7A2.81,2.81,0,0,1,62,365.31V203.61a2.79,2.79,0,0,1,4.19-2.43c10.54,6.09,19.12,19.17,19.12,31.34V369.14c0,2.92-.59,5.33-1.61,6.6A2.57,2.57,0,0,1,81.37,376.72ZM65.49,364.88l11.8,6.81a10.36,10.36,0,0,0,3.79,1.47,10.27,10.27,0,0,0,.63-4V232.52c0-10.42-7.32-21.74-16.22-27.57Z"/><path class="cls-3" d="M56.63,187.78l12.68,7.32c11.73,6.77,21.26,23.29,21.26,36.82V370c0,8.08-3.44,12.9-9.2,12.9a17.58,17.58,0,0,1-8.51-2.67l-14.17-8.18a5,5,0,0,1-2.06-3.58V187.78m-1.42-4.46c-1.26,0-2.13,1-2.13,2.75V368.5a8.48,8.48,0,0,0,3.84,6.65l14.17,8.18a20.92,20.92,0,0,0,10.28,3.15c7.56,0,12.75-6,12.75-16.45V231.92c0-14.69-10.31-32.55-23-39.89l-14.17-8.18a3.46,3.46,0,0,0-1.71-.53Z"/><path class="cls-13" d="M56.63,187.78l12.68,7.32c11.73,6.77,21.26,23.29,21.26,36.82V370c0,8.08-3.44,12.9-9.2,12.9a17.58,17.58,0,0,1-8.51-2.67l-14.17-8.18a5,5,0,0,1-2.06-3.58V187.78m-1.42-4.46c-1.26,0-2.13,1-2.13,2.75V368.5a8.48,8.48,0,0,0,3.84,6.65l14.17,8.18a20.92,20.92,0,0,0,10.28,3.15c7.56,0,12.75-6,12.75-16.45V231.92c0-14.69-10.31-32.55-23-39.89l-14.17-8.18a3.46,3.46,0,0,0-1.71-.53Z"/><path class="cls-12" d="M182.61,301.79a6.84,6.84,0,0,1-3.44-.89c-2.47-1.42-3.82-4.35-3.82-8.23V202.84c0-7.62,5.36-16.91,12-20.72l34.58-20c3.37-1.94,6.57-2.22,9-.8s3.81,4.34,3.81,8.22v89.84c0,7.61-5.36,16.91-12,20.71l-34.58,20A11.36,11.36,0,0,1,182.61,301.79Zm44.87-139.56a9.61,9.61,0,0,0-4.7,1.46l-34.58,20c-6.11,3.52-11.08,12.13-11.08,19.18v89.83c0,3.22,1,5.6,2.93,6.69s4.47.8,7.26-.81l34.59-20C228,275.06,233,266.46,233,259.41V169.57c0-3.22-1-5.6-2.93-6.69A5.13,5.13,0,0,0,227.48,162.23Z"/><path class="cls-10" d="M205.68,207c-3.08,1.78-5.5,6.22-6.85,10.9-.27,1-.1,1.72.36,2h0c.58.36,1.52.17,2-1,1.2-3.26,2.55-6.93,4.56-8.41,2.21-1.63,4.07-1.36,5.14,1.3.32.82,1.19,1,1.77,0h0a2.72,2.72,0,0,0,.16-2.34C211.43,206.34,208.75,205.23,205.68,207Z"/><path class="cls-10" d="M204.74,199.67c-4.58,2.65-8.6,8.66-10.91,15.53-.33,1-.24,2,.26,2.35h0c.56.36,1.58,0,2-1.09,1.87-5.62,4.94-10.93,8.68-13.1s7-1.05,8.91,2.41c.38.7,1.19.47,1.75-.54h0a3,3,0,0,0,.25-2.63C213.36,198.38,209.32,197,204.74,199.67Z"/><path class="cls-10" d="M219.49,197.1a4,4,0,0,1-.44,1c-.59.95-1.39,1.18-1.79.49a8.68,8.68,0,0,0-5.81-4.46c-6.62-1.23-15.22,6.36-19.46,18.1l-.2.58c-.4,1.14-.95,1.83-1.94,1.49s-.94-1.58-.54-2.72c.07-.22.15-.45.24-.67,5-13.75,15.3-22.45,23-21a10.1,10.1,0,0,1,6.8,5.23A2.7,2.7,0,0,1,219.49,197.1Z"/><path class="cls-9" d="M198,231.81c0,.1,0,.22,0,.38v1c0,.16,0,.28,0,.36a2.49,2.49,0,0,0,.06.42.57.57,0,0,0,.15.29.39.39,0,0,0,.25.12.86.86,0,0,0,.38-.12,1.42,1.42,0,0,0,.37-.3,1.51,1.51,0,0,0,.24-.34,1.63,1.63,0,0,0,.14-.34,2.86,2.86,0,0,0,.08-.31,1,1,0,0,1,.08-.27.32.32,0,0,1,.15-.16l.87-.5a.08.08,0,0,1,.1,0,.16.16,0,0,1,.05.13,4.18,4.18,0,0,1-.17,1.08,4.86,4.86,0,0,1-.44,1,5.45,5.45,0,0,1-.65.92,3.55,3.55,0,0,1-.82.66,1.7,1.7,0,0,1-.85.28,1,1,0,0,1-.65-.23,1.44,1.44,0,0,1-.4-.65,3.5,3.5,0,0,1-.17-1c0-.28,0-.58,0-.9s0-.63,0-.93a5.3,5.3,0,0,1,.16-1.16,6,6,0,0,1,.41-1.12,4.94,4.94,0,0,1,.64-1,3.39,3.39,0,0,1,.86-.71,1.91,1.91,0,0,1,.82-.28,1.07,1.07,0,0,1,1.09.71,2.31,2.31,0,0,1,.17.89.41.41,0,0,1-.05.18.25.25,0,0,1-.1.12l-.87.51c-.08,0-.13.05-.15,0a.38.38,0,0,1-.08-.19,1.19,1.19,0,0,0-.08-.22.37.37,0,0,0-.14-.18.43.43,0,0,0-.24-.06.91.91,0,0,0-.37.13,1.5,1.5,0,0,0-.38.32,1.87,1.87,0,0,0-.25.41,1.77,1.77,0,0,0-.15.46A3.93,3.93,0,0,0,198,231.81Z"/><path class="cls-9" d="M204,225.64c.09,0,.16,0,.2,0a.34.34,0,0,1,.1.16l1.45,5.62a.39.39,0,0,1,0,.14.41.41,0,0,1-.05.18.25.25,0,0,1-.1.12l-.84.49c-.09.05-.15.06-.19,0a.21.21,0,0,1-.07-.13l-.18-.74-1.77,1-.19,1a.74.74,0,0,1-.07.21.44.44,0,0,1-.19.19l-.84.49a.08.08,0,0,1-.1,0,.17.17,0,0,1,0-.13.75.75,0,0,1,0-.17l1.44-7.29a1.37,1.37,0,0,1,.1-.28.5.5,0,0,1,.2-.23Zm-1.08,5.1,1.08-.63-.54-2.14Z"/><path class="cls-9" d="M208.26,223.16a2.38,2.38,0,0,1,.78-.31.82.82,0,0,1,.59.09,1,1,0,0,1,.37.52,2.85,2.85,0,0,1,.13,1,4.42,4.42,0,0,1-.21,1.4,3.67,3.67,0,0,1-.58,1.11l.82,2a.16.16,0,0,1,0,.1.39.39,0,0,1,0,.18.34.34,0,0,1-.1.13l-.91.52c-.09.05-.15.06-.19,0l-.09-.14-.73-1.76-.62.35v2.19a.48.48,0,0,1-.05.23.32.32,0,0,1-.12.15l-.88.51a.1.1,0,0,1-.12,0,.22.22,0,0,1-.06-.17v-6.61a.53.53,0,0,1,.06-.23.31.31,0,0,1,.12-.15Zm-.76,3.54.76-.44a1.45,1.45,0,0,0,.46-.43,1.23,1.23,0,0,0,.18-.7c0-.29-.06-.45-.18-.49a.62.62,0,0,0-.46.11l-.76.43Z"/><path class="cls-9" d="M212.84,220.52a1.78,1.78,0,0,1,.83-.28,1,1,0,0,1,.66.21,1.46,1.46,0,0,1,.43.66,3.19,3.19,0,0,1,.18,1v1.45a5.32,5.32,0,0,1-.18,1.26,5.15,5.15,0,0,1-.42,1.14,4.34,4.34,0,0,1-.64,1,3,3,0,0,1-.83.69l-1.8,1a.09.09,0,0,1-.12,0,.19.19,0,0,1,0-.16v-6.62a.44.44,0,0,1,0-.22.35.35,0,0,1,.12-.16Zm.87,2.31c0-.77-.33-1-.91-.66l-.67.39v3.89l.71-.41a1.83,1.83,0,0,0,.87-1.68v-1.53Z"/><path class="cls-14" d="M225.25,168.77a7.4,7.4,0,0,0-3.35,5.79c0,2.13,1.5,3,3.35,1.93a7.4,7.4,0,0,0,3.34-5.79C228.59,168.57,227.1,167.7,225.25,168.77Z"/></g></g><g id="Character"><g id="Character-2" data-name="Character"><g id="Character-3" data-name="Character"><g id="Arm"><path class="cls-15" d="M352.89,128.63c-4.54,10.15-8.35,20.94-11.69,25.33-6.84,4.18-24.11,12.76-30.64,14.38a4.93,4.93,0,0,1-3.42-.41c-2.8-1.41-4.85-1.45-7.71-2.09-2.24-.5-3.27-1.42-3.63-1s-.81,1.8.67,3.13a22.39,22.39,0,0,0,3.65,2.42,20.45,20.45,0,0,1-9,1.18c-5.91-.86-8.31,2.21-3.71,8,1.64,2.07,7.53,5,18.51,2.79a101.09,101.09,0,0,0,11.63-2.74c10.38-3.49,22-7,29-10a16.68,16.68,0,0,0,6.51-5.7c7.68-12.86,13.56-22.36,17.89-32l-.66-20.61C359.44,110.84,356.68,120.13,352.89,128.63Z"/><path class="cls-12" d="M340.93,153.69s10.73-27.47,16.09-36.53c3.73-6.32,8.21-6.81,15.92-6.86,5,8.2-1.41,22.21-1.41,22.21s-9,18.44-15.49,29.31c-4.23,7.1-5.55,7.58-11.57,10s-18.76,7.25-18.76,7.25c.59-4.87-1.4-11.92-4.73-14.95Z"/></g><path class="cls-8" d="M388.52,354.19c.15,1.31.33,5,7,5.91s10.87-1.29,12.64-4.5,1.37-5.82,1.66-8.79,2.74-4.55,3.44-6.08c1-2.26-.48-5.76-.48-5.76Z"/><path class="cls-8" d="M339.88,332.72a4,4,0,0,0,.43,3.22A14,14,0,0,0,351,338.8a25.77,25.77,0,0,0,11.31-4.43,15,15,0,0,1,8.73-2.52c3.21-.11,5.55-.82,5.79-1.66.43-1.48.43-2.42-.27-2.37Z"/><path class="cls-15" d="M411.22,329.81c-.83,6.08-12.62,5.59-11.66.73l-2.1-14.76,13.34.42Z"/><path class="cls-12" d="M389,351.16a39.14,39.14,0,0,1,3.07-3.66A33,33,0,0,0,399,329.82c0-.36.07-1.05.43-1.27s.72.09,1.1.26l0,0v0a7.48,7.48,0,0,0,2.07.54c2.36.26,5-.31,5.56-.23s.6,1.49.56,3c.84-.53,1.12-1.58,1.87-2.19.41-.34.59-.35.58-.89,0-.36,0-.68,0-1,.61-.17,1.11,2.15,1.61,3.92.58,2.06,1.3,4.38.49,6.46a17.93,17.93,0,0,1-1.88,3.22,13.23,13.23,0,0,0-2.42,5.9c-.09.93,0,1.88-.15,2.81a8.27,8.27,0,0,1-5.82,6.78c-4.06,1.27-10.17,1.07-13.75-1.78C388,354.35,388.41,352.26,389,351.16Z"/><path class="cls-15" d="M373.83,317.76c-3.23,2.51-7.13,4-11.1,2.18l-.93-24.84,13.38,2.4Z"/><path class="cls-12" d="M342.57,328.43c.89-.28,1.76-.6,2.63-.94a48.89,48.89,0,0,0,7-3.49c1-.59,1.95-1.21,2.9-1.87s1.9-1.46,2.84-2.22a9.89,9.89,0,0,0,1.36-1.46,14.81,14.81,0,0,0,2-3.24,1.25,1.25,0,0,1,.5-.66,1,1,0,0,1,.94.19,4.58,4.58,0,0,0,.74.5l.78.32a8.9,8.9,0,0,0,2.63.65c3.38.3,3.49-.38,3.64.71a7.47,7.47,0,0,1,0,1.23c1.78-.3,3.19-.88,3.27-1.56l.22-2.16c1.78-.16,1.9,3,2.48,6.6.47,2.9,1.17,5,.37,7.13-2.69,2.35-7.44,1.78-10.15,2.23-3.82.63-5.61,3.46-10.94,5.3-8.57,3-14-.45-15.6-1.95C339.13,331.84,338.92,329.59,342.57,328.43Z"/><path class="cls-8" d="M407.46,172.73c.67,10.53,1.91,26,2.34,38.14.81,22.88.49,54.47.49,54.47A78.68,78.68,0,0,1,412.76,280c.55,14.61.44,51.1.44,51.1s-6.05,6.1-15.12,1.31c0,0-8-49.68-10.28-64.1-2.14-13.73-6.33-46.73-6.33-46.73l-1.89,32.57s2.22,12.54,1.43,23.32c-.5,6.69-4.32,39.75-4.32,39.75-3.48,3.27-13.64,1.49-15.86-1.11,0,0-3.55-53.45-3.95-60.5-.85-15.27-3.12-65.73-2-74.56S407.46,172.73,407.46,172.73Z"/><path d="M381.47,221.58,378.82,204s-7.32-1.39-12.66-5.35c0,0,2.08,4.71,10.16,8.06L379,223.08l.63,31.07Z"/><path class="cls-6" d="M353.06,184.25c.74-23,.7-29.21,2.78-45.93s5.35-21.27,9.18-24.11c2.48-1.83,14.32-6.59,14.32-6.59l0,4.2c8.06-.84,17-5.89,17-5.89l3.67.75c8.28,4.23,19.86,8.15,21.29,10.31,0,0-3.65,17.69-6.52,25.86-3,8.55-5.64,28.91-5.64,28.91,3.95,17.86,4.08,24.18,5,37.9.74,11,.55,27.71.55,27.71s-12.37,5.74-33.21,5-29.15-4.72-29.15-4.72S352.35,206.39,353.06,184.25Z"/><path class="cls-12" d="M366.73,139.3s-3.53,9.89-4.87,35.35c-1.08,20.6-.76,53.72-.59,65.62.87.18,1.8.35,2.81.52C363.4,221.88,361.62,159.77,366.73,139.3Z"/><circle class="cls-12" cx="368.45" cy="160.67" r="1.85"/><circle class="cls-12" cx="378.68" cy="161.13" r="1.85"/><circle class="cls-12" cx="368.02" cy="173.21" r="1.85"/><path class="cls-12" d="M380.1,173.67a1.86,1.86,0,1,1-1.86-1.85A1.85,1.85,0,0,1,380.1,173.67Z"/><circle class="cls-12" cx="367.59" cy="185.75" r="1.85"/><path class="cls-12" d="M379.67,186.21a1.86,1.86,0,1,1-1.86-1.85A1.85,1.85,0,0,1,379.67,186.21Z"/><path class="cls-8" d="M370.29,126.76c1.58-3.79-1.61-13.94-5.61-20.83a70,70,0,0,1-6.92-16.22s9.54-1.44,19.83-3.85,32.38-6.14,30.74,0-11,16.83-18.88,22S370.29,126.76,370.29,126.76Z"/><path class="cls-8" d="M398.73,65.05s.24,0,.62.13A2.88,2.88,0,0,1,400.88,62a3.08,3.08,0,0,1,4,1.63l-4.33,2a6.06,6.06,0,0,1,3.3,2.81c1.19,2.45-.38,7.65-2,14.08a91.49,91.49,0,0,1-3.5,11.91c-.73,1.87-2,1.93-2,1.93V89.89L394,82.82a48.61,48.61,0,0,1-1.14-6.73c-.48-4.91.55-6.92.55-6.92Z"/><path class="cls-8" d="M375.15,59.54A10.82,10.82,0,1,1,364.3,70.32,10.82,10.82,0,0,1,375.15,59.54Z"/><path class="cls-15" d="M395.59,83.5c1.28,1.11,2.53-2,3.77-2.9,1.44-1.07,4.76-1.6,5.83,1.7,1.21,3.73-1.59,7.08-3.71,8.13a4.27,4.27,0,0,1-5.15-.54v16c-3.92,2.85-16.38,8.42-20.52,9.44a37.52,37.52,0,0,1,3.53-7.22l0-6.55a19.49,19.49,0,0,1-5.29.28c-3.5-.55-5.38-3.44-6.43-7.23-1.69-6.09-2-16.33.31-28.16,3.92-3,17.19-2.54,25.41,2.68C392.77,79.66,394.31,82.39,395.59,83.5Z"/><path class="cls-14" d="M379.37,101.6s7.83-1.55,10.56-3a9,9,0,0,0,3.8-3.72,12.22,12.22,0,0,1-2.17,4.4c-2,2.55-12.19,4.4-12.19,4.4Z"/><path class="cls-8" d="M362.6,77.39a3.06,3.06,0,0,0,.72,1.68,1.67,1.67,0,0,1,.28.6,31,31,0,0,0,1,4.52,5,5,0,0,0,4.79,3.3,6.51,6.51,0,0,0,1.64-.1.42.42,0,0,0,.13,0,4.74,4.74,0,0,0,1.36-.49.18.18,0,0,1,.08-.05l.12-.07.14-.11a.6.6,0,0,0,.13-.09.88.88,0,0,0,.15-.12.53.53,0,0,0,.14-.12,2.2,2.2,0,0,0,.27-.26,6,6,0,0,0,1.11-1.69c.73-1.56.59-3.77,1.74-4l.15,0h.15c1.56.06,1.34,2.45,2.18,4.18a5.85,5.85,0,0,0,5.65,3.55h.44l.35,0a6.4,6.4,0,0,0,.81-.1,1.67,1.67,0,0,0,.26-.06,1.14,1.14,0,0,0,.25-.06l.15,0a5.77,5.77,0,0,0,.93-.41c.11-.08.21-.13.32-.2s.36-.3.53-.46a5,5,0,0,0,1.06-1.58,27.74,27.74,0,0,0,1-4.44,1.83,1.83,0,0,1,.27-.65,3,3,0,0,0,.79-1.59,1.38,1.38,0,0,0-.92-1.44l-.82-.13c-2.67-.37-6.16-.58-8.26-.05-2.63.66-3.56,1.48-5,1.43s-2.23-1-4.7-1.81a22.49,22.49,0,0,0-7.73-.54c-.27,0-.52,0-.77.06C363,76,362.56,76.67,362.6,77.39Zm17.19,2a2.3,2.3,0,0,1,.75-.59.51.51,0,0,1,.15-.07.12.12,0,0,1,.07,0l.37-.17.34-.13a11.78,11.78,0,0,1,1.14-.32,3.13,3.13,0,0,1,.44-.1,11.16,11.16,0,0,1,1.16-.16l.27,0c2.52-.15,4.08.48,4.64,1s.27,2.87,0,4c0,0,0,.06,0,.08a.32.32,0,0,1,0,.09,3.25,3.25,0,0,1-.12.47,1.67,1.67,0,0,1-.08.3h0c-.06.17-.12.33-.19.49a.51.51,0,0,1-.07.17.76.76,0,0,1,0,.11l-.05.1-.07.14c0,.06-.06.11-.1.16a.7.7,0,0,1-.1.16c0,.06-.07.12-.11.17a4,4,0,0,1-3.55,1.6,4.92,4.92,0,0,1-3.7-1.5A5.16,5.16,0,0,1,379.72,83C379.44,81.63,379.28,80.07,379.79,79.37ZM365,77.85a2,2,0,0,1,.62-.38l.05,0,.27-.11.17,0,.14,0s.07,0,.09,0h0l.14,0a3.26,3.26,0,0,1,.57-.08l.32,0h1c.36,0,.75.06,1.16.13,1.79.3,3.65,1.17,4.12,1.92s.35,2.27.09,3.59a6.73,6.73,0,0,1-.25.88.14.14,0,0,0,0,.07.25.25,0,0,0,0,.09s0,0,0,.06a1.17,1.17,0,0,0-.05.11l-.11.21a1.54,1.54,0,0,1-.09.19l0,0a.46.46,0,0,1-.08.13.38.38,0,0,1-.07.11h0a4,4,0,0,1-3.78,1.64,4.44,4.44,0,0,1-1.88-.5c-1.77-.94-2.18-3-2.38-3.88C364.74,80.7,364.45,78.34,365,77.85Z"/><path class="cls-8" d="M390.58,77.07l11.58,2.72a4.29,4.29,0,0,0-3.42,1.44l-8.17-1.55Z"/><path class="cls-12" d="M365,81.9c.2.93.61,2.94,2.38,3.88a4.44,4.44,0,0,0,1.88.5A4,4,0,0,0,373,84.64h0a.38.38,0,0,0,.07-.11.46.46,0,0,0,.08-.13l0,0a1.54,1.54,0,0,0,.09-.19l.11-.21a1.17,1.17,0,0,1,.05-.11s0,0,0-.06a.25.25,0,0,1,0-.09.14.14,0,0,1,0-.07,6.73,6.73,0,0,0,.25-.88c.26-1.32.4-2.85-.09-3.59s-2.33-1.62-4.12-1.92c-.41-.07-.8-.1-1.16-.13h-1l-.32,0a3.26,3.26,0,0,0-.57.08l-.14,0h0s-.06,0-.09,0l-.14,0-.17,0-.27.11-.05,0a2,2,0,0,0-.62.38C364.45,78.34,364.74,80.7,365,81.9Z"/><path class="cls-12" d="M379.72,83a5.16,5.16,0,0,0,1.18,2.41,4.92,4.92,0,0,0,3.7,1.5,4,4,0,0,0,3.55-1.6s.07-.11.11-.17a.7.7,0,0,0,.1-.16s.06-.1.1-.16l.07-.14.05-.1a.76.76,0,0,0,0-.11.51.51,0,0,0,.07-.17c.07-.16.13-.32.19-.49h0a1.67,1.67,0,0,0,.08-.3,3.25,3.25,0,0,0,.12-.47.32.32,0,0,0,0-.09s0-.06,0-.08c.26-1.18.58-3.51,0-4s-2.12-1.16-4.64-1l-.27,0a11.16,11.16,0,0,0-1.16.16,3.13,3.13,0,0,0-.44.1,11.78,11.78,0,0,0-1.14.32l-.34.13-.37.17a.12.12,0,0,0-.07,0,.51.51,0,0,0-.15.07,2.3,2.3,0,0,0-.75.59C379.28,80.07,379.44,81.63,379.72,83Z"/><path class="cls-8" d="M365.3,58.13c0-.14,0-.27.05-.4a1.18,1.18,0,0,1,.25-.68c.53-.55,1.58.83,2,1.15a13.54,13.54,0,0,0,1.12.88,6.33,6.33,0,0,1,1.05.63,11.15,11.15,0,0,1,0-4c.15-.86.4-2.86,1.46-3.07.64-.13,1.19.4,1.67.84,4.28,4,9.87,2.16,15,2.32,4.32.14,9.52,1.89,11.47,6.09.89,1.92,1,3.94-.72,5.26-1.14.86-2.25.82-2.88,2.19-.16.34-1.14,4.42-.56,4.38a4.5,4.5,0,0,1-4.81-3.29c-.1-.44-.34-1.26-.44-1.71a1,1,0,0,0-1.23-.75c-1.31.28-2.17.82-3.4,1.16a25,25,0,0,1-10.86.64,12.81,12.81,0,0,1-6.82-3.67A10.17,10.17,0,0,1,365.3,58.13Z"/><path class="cls-8" d="M382.13,75l3.78.59a2,2,0,0,0-1.65-2.24A1.86,1.86,0,0,0,382.13,75Z"/><path class="cls-8" d="M367.78,75.17l3.83-.42A1.86,1.86,0,0,0,369.56,73,2,2,0,0,0,367.78,75.17Z"/><path class="cls-14" d="M377.11,80.44l-.52,8.94-5-1.3,5-7.74A1.28,1.28,0,0,1,377.11,80.44Z"/><circle class="cls-16" cx="379.46" cy="92.71" r="1.49"/><path class="cls-12" d="M366.73,139.3c1.42-10,8.6-24.53,12.26-28.52,4.44-4.85,8.7-12.76,9-16.59,0,0,14.78,1.14,20.37-8.33A39.46,39.46,0,0,1,400,106.68s-14.61,5.33-20,10.37C372.62,124,366.73,139.3,366.73,139.3Z"/><path class="cls-15" d="M432,159.86c-5.68-31.21-3.85-38.71-11.44-43.74a41,41,0,0,0-7.55-3.53c-2.75,3.33-6.43,11-2.28,22.29,0,0,4,17.62,6,26.58-2.44,7.81-6.32,17.17-10,22.21a4.73,4.73,0,0,1-3.13,1.87l-3.91,7a16.86,16.86,0,0,1-1.65,1.54,13.43,13.43,0,0,0,7.93,10.3c1.9-1.44,4.47-3,6.74-5.78a91,91,0,0,0,6.86-10.87c3.84-6.84,8.1-14,10.59-19.75C432,163.7,432.33,161.88,432,159.86Z"/><path class="cls-12" d="M397.76,183c0,7,3,18.09,13.52,20.92v3.76s-8-.77-12.32-6.63-5.37-11.4-5.37-18.05Z"/><path class="cls-15" d="M396.23,188.91c2.84-1.25,4-2.84,7.38-3.37l-3.91,7a14.57,14.57,0,0,1-4,.38,3.27,3.27,0,0,1-3.16-2.61C392.44,189.73,394,189.89,396.23,188.91Z"/><path class="cls-12" d="M410.71,111.54c6.57,1.57,11.34,3.7,13.36,5.33s4.06,10.54,5,16.22,4.06,27,4.16,29.44-12.82,26.73-12.82,26.73-4.87-6.57-12.23-8.78l7.3-19.35-7.7-27.83S403.43,124.26,410.71,111.54Z"/></g><g id="Exclamation_Marks" data-name="Exclamation Marks"><path class="cls-3" d="M351.48,51.45a.94.94,0,0,1,.07-.75,1,1,0,0,1,.58-.47l4.36-1.32a.92.92,0,0,1,.74.08,1,1,0,0,1,.48.57l1.05,3.5a1,1,0,0,1-.65,1.22l-4.36,1.31a.92.92,0,0,1-.74-.07,1,1,0,0,1-.48-.58Zm-5.7-18.87a.92.92,0,0,1,.08-.74.94.94,0,0,1,.57-.48L350.79,30a1,1,0,0,1,.74.08.93.93,0,0,1,.48.57l4.51,14.93a1,1,0,0,1-.08.74.91.91,0,0,1-.58.47l-4.36,1.32a.92.92,0,0,1-.74-.08,1,1,0,0,1-.48-.57Z"/><path class="cls-3" d="M345.59,67.13a.94.94,0,0,1-.31-.67,1,1,0,0,1,.25-.71l3.06-3.37a.93.93,0,0,1,.68-.31.89.89,0,0,1,.7.24l2.71,2.46a1,1,0,0,1,.06,1.38l-3.06,3.37a.93.93,0,0,1-.68.31.89.89,0,0,1-.7-.24ZM331,53.88a.92.92,0,0,1-.32-.68,1,1,0,0,1,.25-.7L334,49.13a1,1,0,0,1,.68-.32.93.93,0,0,1,.7.25l11.54,10.48a.91.91,0,0,1,.31.68.94.94,0,0,1-.24.7l-3.07,3.37a1,1,0,0,1-1.38.07Z"/><g class="cls-17"><path class="cls-4" d="M345.59,67.13a.94.94,0,0,1-.31-.67,1,1,0,0,1,.25-.71l3.06-3.37a.93.93,0,0,1,.68-.31.89.89,0,0,1,.7.24l2.71,2.46a1,1,0,0,1,.06,1.38l-3.06,3.37a.93.93,0,0,1-.68.31.89.89,0,0,1-.7-.24ZM331,53.88a.92.92,0,0,1-.32-.68,1,1,0,0,1,.25-.7L334,49.13a1,1,0,0,1,.68-.32.93.93,0,0,1,.7.25l11.54,10.48a.91.91,0,0,1,.31.68.94.94,0,0,1-.24.7l-3.07,3.37a1,1,0,0,1-1.38.07Z"/></g></g></g></g><g id="ID_Card" data-name="ID Card"><g id="ID_Card-2" data-name="ID Card"><path class="cls-3" d="M357.65,203.58l-65.5-37.78a2.69,2.69,0,0,0-2.74-.29c-.68.36-3,1.67-4.18,2.4-.08,0-.11.07-.18.1a1.34,1.34,0,0,0-.48.4,2.3,2.3,0,0,0-.35.47c0,.07,0,.11-.08.18s-.1.33-.14.51a3.6,3.6,0,0,0-.11,1V313.88a8.51,8.51,0,0,0,3.9,6.74l65.49,37.83a3.45,3.45,0,0,0,1.34.46,1.61,1.61,0,0,0,.87,0,1.87,1.87,0,0,0,.4-.13c.06,0,.1,0,.18-.08l4.33-2.5a2.7,2.7,0,0,0,1.15-2.53V210.37A8.66,8.66,0,0,0,357.65,203.58ZM328.78,210l-16.63-9.6a9.87,9.87,0,0,1-4.59-7.61c0-2.74,2.06-3.8,4.59-2.31l1.94,1.11,14.69,8.48a9.83,9.83,0,0,1,4.15,5.35,6.38,6.38,0,0,1,.43,2.27C333.36,210.47,331.31,211.48,328.78,210Z"/><path class="cls-18" d="M357.65,203.58l-65.5-37.78a2.69,2.69,0,0,0-2.74-.29c-.68.36-3,1.67-4.18,2.4-.08,0-.11.07-.18.1a1.34,1.34,0,0,0-.48.4,2.3,2.3,0,0,0-.35.47c0,.07,0,.11-.08.18s-.1.33-.14.51a3.6,3.6,0,0,0-.11,1V313.88a8.51,8.51,0,0,0,3.9,6.74l65.49,37.83a3.45,3.45,0,0,0,1.34.46,1.61,1.61,0,0,0,.87,0,1.87,1.87,0,0,0,.4-.13c.06,0,.1,0,.18-.08l4.33-2.5a2.7,2.7,0,0,0,1.15-2.53V210.37A8.66,8.66,0,0,0,357.65,203.58ZM328.78,210l-16.63-9.6a9.87,9.87,0,0,1-4.59-7.61c0-2.74,2.06-3.8,4.59-2.31l1.94,1.11,14.69,8.48a9.83,9.83,0,0,1,4.15,5.35,6.38,6.38,0,0,1,.43,2.27C333.36,210.47,331.31,211.48,328.78,210Z"/><path class="cls-3" d="M355.88,358.77c.07,0,.11,0,.18-.07l4.33-2.5a2.68,2.68,0,0,0,1.16-2.53V210.37a7.72,7.72,0,0,0-1.16-3.86L356,209a7.86,7.86,0,0,1,1.15,3.86v143.3A2.62,2.62,0,0,1,355.88,358.77Z"/><path class="cls-19" d="M355.88,358.77c.07,0,.11,0,.18-.07l4.33-2.5a2.68,2.68,0,0,0,1.16-2.53V210.37a7.72,7.72,0,0,0-1.16-3.86L356,209a7.86,7.86,0,0,1,1.15,3.86v143.3A2.62,2.62,0,0,1,355.88,358.77Z"/><path class="cls-3" d="M353.28,206.08l-18.44-10.6-16.6-9.6-30.45-17.57a2.87,2.87,0,0,0-2.56-.4c-.08,0-.11.07-.18.1a1.34,1.34,0,0,0-.48.4,2.3,2.3,0,0,0-.35.47c0,.07,0,.11-.08.18s-.1.33-.14.51a3.6,3.6,0,0,0-.11,1V313.88a8.51,8.51,0,0,0,3.9,6.74l65.49,37.83a3.45,3.45,0,0,0,1.34.46,1.61,1.61,0,0,0,.87,0,1.87,1.87,0,0,0,.4-.13,2.67,2.67,0,0,0,1.29-2.61V212.87A8.76,8.76,0,0,0,353.28,206.08Zm-24.5,4-16.63-9.6a9.87,9.87,0,0,1-4.59-7.61c0-2.74,2.06-3.8,4.59-2.31l1.94,1.11,14.69,8.48a9.83,9.83,0,0,1,4.15,5.35,6.38,6.38,0,0,1,.43,2.27C333.36,210.47,331.31,211.48,328.78,210Z"/><path class="cls-9" d="M343.84,225.88,297.23,199c-.83-.48-1.51-.09-1.51.87v71.85a3.34,3.34,0,0,0,1.51,2.62l46.61,26.86c.83.48,1.51.09,1.51-.88v-71.8A3.34,3.34,0,0,0,343.84,225.88Z"/><path class="cls-6" d="M330.28,235.78,310.8,224.53c.67-2.3,2-7.87,3.85-9.54s3.69,3.59,5.89,4.85,4.21-1.51,5.88,1.94C328.23,225.54,329.61,232.71,330.28,235.78Z"/><path class="cls-6" d="M332.57,242.25l-24.07-13.9a2.58,2.58,0,0,1-1.09-2.07v-.93c0-.8.49-1.16,1.09-.82l24.07,13.9a2.62,2.62,0,0,1,1.09,2.08v.92C333.66,242.23,333.17,242.6,332.57,242.25Z"/><path class="cls-6" d="M330.4,242.87l-9.33-5.39-.53-.31-9.87-5.69c-.6-.35-1.09,0-1.09.82v1.39a3.89,3.89,0,0,0,1.07,2.24c.58.75,2.68,3.65,4.41,4.81a4.06,4.06,0,0,0,2.07.68l2.42-.09a2,2,0,0,1,1,.32h0a3.63,3.63,0,0,1,1,.82l2.42,2.88a7.17,7.17,0,0,0,2.07,1.7,7.41,7.41,0,0,0,4.41.29c.58-.08,1.07-.2,1.07-1V245A2.62,2.62,0,0,0,330.4,242.87Z"/><path class="cls-3" d="M327,242.45c.07,1.48-.69,2.33-1.78,1.92a4.63,4.63,0,0,1-2.33-3.48Z"/><path class="cls-3" d="M314.06,235a5.11,5.11,0,0,0,1.77,4c1.08.84,2.1.49,2.33-.79Z"/><path class="cls-6" d="M331.8,264.43l8.36-2.44c-1.89-3.41-9.58-13.74-9.58-13.74-1.28,10.24-6.09,10.07-10,7.78s-8.77-7.66-10.05-19.37c0,0-7.69,1.44-9.58,2.67l8.36,12.08s-4.3-.86-5.16,1-2.36,24.46-2.36,24.46l18.79,10.85,18.78,10.84s-1.49-24.33-2.36-27.18S331.8,264.43,331.8,264.43Z"/><path class="cls-6" d="M335.89,302.89l-30.71-17.73c-1.12-.64-2-.12-2,1.17v.81a4.48,4.48,0,0,0,2,3.5l30.71,17.73c1.12.64,2,.12,2-1.17v-.81A4.48,4.48,0,0,0,335.89,302.89Z"/><path class="cls-6" d="M343.39,322.52l-10.95-6.35c-.47-.27-.85-.08-.85.43a1.81,1.81,0,0,0,.85,1.4l10.95,6.34c.46.27.84.08.84-.42A1.8,1.8,0,0,0,343.39,322.52Z"/><path class="cls-6" d="M324.43,311.57l-26.75-15.44c-.46-.27-.84-.08-.84.42a1.81,1.81,0,0,0,.84,1.4l26.75,15.45c.47.27.84.07.85-.43A1.81,1.81,0,0,0,324.43,311.57Z"/><path class="cls-6" d="M343.39,326.16l-10.95-6.34c-.47-.27-.85-.08-.85.43a1.81,1.81,0,0,0,.85,1.4L343.39,328c.46.27.84.08.84-.43A1.83,1.83,0,0,0,343.39,326.16Z"/><path class="cls-6" d="M324.43,315.22l-26.75-15.44c-.46-.27-.84-.08-.84.42a1.81,1.81,0,0,0,.84,1.4L324.43,317c.47.27.84.08.85-.42A1.81,1.81,0,0,0,324.43,315.22Z"/><polygon class="cls-6" points="339.49 331.64 339.49 343.06 336.2 341.16 336.2 329.74 339.49 331.64"/><polygon class="cls-6" points="329.6 325.93 329.6 337.35 326.31 335.45 326.31 324.03 329.6 325.93"/><polygon class="cls-6" points="316.41 318.31 316.41 329.74 313.11 327.83 313.11 316.41 316.41 318.31"/><polygon class="cls-6" points="304.88 311.65 304.88 323.08 301.58 321.17 301.58 309.75 304.88 311.65"/><polygon class="cls-6" points="334.55 328.79 334.55 340.21 332.9 339.26 332.9 327.83 334.55 328.79"/><polygon class="cls-6" points="311.47 315.46 311.47 326.88 309.82 325.93 309.82 314.51 311.47 315.46"/><polygon class="cls-6" points="321.36 321.17 321.36 332.59 319.71 331.64 319.71 320.22 321.36 321.17"/><polygon class="cls-6" points="331.25 326.88 331.25 338.3 330.43 337.83 330.43 326.41 331.25 326.88"/><polygon class="cls-6" points="318.59 319.57 318.59 330.99 317.76 330.52 317.76 319.1 318.59 319.57"/><polygon class="cls-6" points="323.83 322.6 323.83 334.02 323.01 333.55 323.01 322.13 323.83 322.6"/><polygon class="cls-6" points="307.35 313.08 307.35 324.5 306.52 324.03 306.52 312.61 307.35 313.08"/><polygon class="cls-6" points="325.48 323.54 325.48 334.96 324.66 334.49 324.66 323.07 325.48 323.54"/><polygon class="cls-6" points="309 314.04 309 325.46 308.17 324.99 308.17 313.56 309 314.04"/><path class="cls-19" d="M333.91,310.44,307.16,295c-.46-.27-.84-.08-.84.43a1.79,1.79,0,0,0,.84,1.39l26.75,15.45c.47.27.84.08.84-.43A1.8,1.8,0,0,0,333.91,310.44Z"/><path class="cls-3" d="M333.27,208.65c-.42,2-2.27,2.66-4.49,1.39l-16.63-9.6a9.87,9.87,0,0,1-4.59-7.61c0-2.33,1.47-3.45,3.48-2.81a4.45,4.45,0,0,0-.09.93,9.88,9.88,0,0,0,4.59,7.62l16.63,9.59A5.48,5.48,0,0,0,333.27,208.65Z"/><path class="cls-18" d="M333.27,208.65c-.42,2-2.27,2.66-4.49,1.39l-16.63-9.6a9.87,9.87,0,0,1-4.59-7.61c0-2.33,1.47-3.45,3.48-2.81a4.45,4.45,0,0,0-.09.93,9.88,9.88,0,0,0,4.59,7.62l16.63,9.59A5.48,5.48,0,0,0,333.27,208.65Z"/></g></g><g id="_401_Error" data-name="401 Error"><g id="Text"><path class="cls-3" d="M91,97.64a.76.76,0,0,1-1-.07,1.7,1.7,0,0,1-.42-1.28V88.18l-16.28,9.4a.75.75,0,0,1-1-.07,1.74,1.74,0,0,1-.41-1.28V87.8A10.45,10.45,0,0,1,72.56,84L88,45.08a7.54,7.54,0,0,1,.86-1.65,3.61,3.61,0,0,1,1-.89L97.73,38a.74.74,0,0,1,1,.07,1.71,1.71,0,0,1,.41,1.27V69.93l4.45-2.57a.75.75,0,0,1,1,.07,1.74,1.74,0,0,1,.41,1.28v8.43a4.14,4.14,0,0,1-.41,1.75,2.6,2.6,0,0,1-1,1.2l-4.45,2.57v8.11a4.11,4.11,0,0,1-.41,1.75,2.63,2.63,0,0,1-1,1.21ZM89.82,75.3V60.66l-7.54,19Z"/><path class="cls-3" d="M124.39,21.85a12.68,12.68,0,0,1,6.67-2.1,6.67,6.67,0,0,1,4.62,2,11.82,11.82,0,0,1,2.74,5.3,34.85,34.85,0,0,1,1.06,7.63c.07,2.24.1,4.6.1,7.1s0,4.84-.1,7.06a54,54,0,0,1-1.06,8.84,38.67,38.67,0,0,1-2.74,8.47,33,33,0,0,1-4.62,7.36,24.57,24.57,0,0,1-6.67,5.6,12.68,12.68,0,0,1-6.67,2.1,6.64,6.64,0,0,1-4.62-2,11.71,11.71,0,0,1-2.74-5.3,34.76,34.76,0,0,1-1.06-7.62c-.07-2.13-.1-4.45-.1-6.94s0-4.9.1-7.22a54.21,54.21,0,0,1,1.06-8.85,38.76,38.76,0,0,1,2.74-8.46,32.81,32.81,0,0,1,4.62-7.36A24.57,24.57,0,0,1,124.39,21.85ZM129.92,54q.21-6.88,0-13.37a26.27,26.27,0,0,0-.39-3.43,6,6,0,0,0-.9-2.38,2.28,2.28,0,0,0-1.66-1,4.4,4.4,0,0,0-2.58.78,8.92,8.92,0,0,0-2.58,2.2,11.62,11.62,0,0,0-1.66,2.91,17.86,17.86,0,0,0-.93,3.44,27.94,27.94,0,0,0-.36,3.87q-.26,6.75,0,13.36a21.34,21.34,0,0,0,.34,3.47,5.76,5.76,0,0,0,.93,2.37,2.38,2.38,0,0,0,1.68,1,4.47,4.47,0,0,0,2.58-.78A9,9,0,0,0,127,64.19a11.52,11.52,0,0,0,1.68-2.92,15.53,15.53,0,0,0,.93-3.44A31.14,31.14,0,0,0,129.92,54Z"/><path class="cls-3" d="M143.25,29.65a2,2,0,0,1-.26-1.44,4.61,4.61,0,0,1,.57-1.76L154.67,6.91c.28-.48.61-1,1-1.7a3.9,3.9,0,0,1,1.37-1.42l6.3-3.64a.74.74,0,0,1,1,.07,1.67,1.67,0,0,1,.42,1.27v51.4a4,4,0,0,1-.42,1.75,2.59,2.59,0,0,1-1,1.2l-6.77,3.91a.75.75,0,0,1-1-.07,1.7,1.7,0,0,1-.41-1.28V23.64L149,34.35a2.16,2.16,0,0,1-1,1,.74.74,0,0,1-.94-.3Z"/><path class="cls-6" d="M42,154.92a.24.24,0,0,1,.31,0,.55.55,0,0,1,.12.4v1.76a1.32,1.32,0,0,1-.12.54A.82.82,0,0,1,42,158l-7.08,4.09a.23.23,0,0,1-.3,0,.5.5,0,0,1-.13-.39v-16a1.19,1.19,0,0,1,.13-.54.75.75,0,0,1,.3-.38l7-4a.24.24,0,0,1,.31,0,.58.58,0,0,1,.13.4v1.76a1.38,1.38,0,0,1-.13.55.84.84,0,0,1-.31.37l-5.21,3v3.94l4.86-2.8a.23.23,0,0,1,.3,0,.5.5,0,0,1,.13.39v1.76a1.2,1.2,0,0,1-.13.55.86.86,0,0,1-.3.38l-4.86,2.8V158Z"/><path class="cls-6" d="M49,136.59q2-1.17,3.06-.33c.7.55,1.05,1.69,1.05,3.39a10.49,10.49,0,0,1-.54,3.4A8.51,8.51,0,0,1,51,145.87l2.23,4.84a.73.73,0,0,1,0,.25,1,1,0,0,1-.1.44.67.67,0,0,1-.25.31l-1.37.79c-.22.12-.37.14-.48,0a.85.85,0,0,1-.21-.31l-2.12-4.56L46.6,148.9v5.79a1.19,1.19,0,0,1-.13.54.82.82,0,0,1-.31.38l-1.3.75a.24.24,0,0,1-.31,0,.55.55,0,0,1-.13-.4v-16a1.42,1.42,0,0,1,.13-.55.84.84,0,0,1,.31-.37ZM46.6,145.8l2.34-1.35a4.29,4.29,0,0,0,1.46-1.34,3.85,3.85,0,0,0,.55-2.2c0-.93-.18-1.44-.55-1.55a2,2,0,0,0-1.46.38l-2.34,1.35Z"/><path class="cls-6" d="M59.82,130.35q2-1.15,3.06-.33t1,3.39a10.55,10.55,0,0,1-.54,3.41,8.37,8.37,0,0,1-1.59,2.81L64,144.48a.67.67,0,0,1,0,.24,1,1,0,0,1-.1.45.59.59,0,0,1-.25.3l-1.37.8c-.22.12-.37.13-.48,0a.85.85,0,0,1-.21-.31l-2.12-4.56-2.14,1.24v5.78a1.23,1.23,0,0,1-.13.55.77.77,0,0,1-.3.37l-1.31.76a.24.24,0,0,1-.31,0,.58.58,0,0,1-.13-.4v-16a1.34,1.34,0,0,1,.13-.54.87.87,0,0,1,.31-.38Zm-2.42,9.22,2.34-1.35a4.56,4.56,0,0,0,1.47-1.35,3.91,3.91,0,0,0,.54-2.2c0-.93-.18-1.44-.54-1.54a2,2,0,0,0-1.47.37l-2.34,1.35Z"/><path class="cls-6" d="M65.64,133.47a15.76,15.76,0,0,1,.35-2.82,12.2,12.2,0,0,1,.87-2.64,10.38,10.38,0,0,1,1.45-2.28A7.66,7.66,0,0,1,70.38,124a3.93,3.93,0,0,1,2.05-.66,2,2,0,0,1,1.45.6,3.8,3.8,0,0,1,.88,1.62,9.43,9.43,0,0,1,.36,2.43c0,.31,0,.65,0,1s0,.76,0,1.17,0,.8,0,1.18,0,.74,0,1.06a15.87,15.87,0,0,1-.35,2.82,12.22,12.22,0,0,1-.88,2.64,9.67,9.67,0,0,1-1.46,2.27,8.05,8.05,0,0,1-2.05,1.71,4.17,4.17,0,0,1-2.07.67,2,2,0,0,1-1.45-.59,3.56,3.56,0,0,1-.87-1.63,10.06,10.06,0,0,1-.35-2.42c0-.31,0-.65,0-1v-2.35C65.62,134.14,65.63,133.79,65.64,133.47Zm7.3-4.09a3.17,3.17,0,0,0-.75-2.34c-.45-.39-1.06-.37-1.81.07a4.58,4.58,0,0,0-1.81,2,7.62,7.62,0,0,0-.75,3.2c0,.64,0,1.34,0,2.11s0,1.47,0,2.08a3.1,3.1,0,0,0,.75,2.32c.45.39,1.06.36,1.81-.08a4.58,4.58,0,0,0,1.81-2,7.53,7.53,0,0,0,.75-3.19c0-.64,0-1.34,0-2.11S73,130,72.94,129.38Z"/><path class="cls-6" d="M81.84,117.64c1.34-.78,2.37-.89,3.06-.33s1,1.69,1,3.39a10.49,10.49,0,0,1-.54,3.4,8.51,8.51,0,0,1-1.59,2.82l2.23,4.84a.74.74,0,0,1,0,.25,1,1,0,0,1-.11.44.67.67,0,0,1-.25.31l-1.37.79c-.21.12-.37.14-.47,0a.77.77,0,0,1-.22-.31l-2.11-4.56L79.42,130v5.79a1.19,1.19,0,0,1-.13.54.75.75,0,0,1-.3.38l-1.31.75a.24.24,0,0,1-.31,0,.55.55,0,0,1-.12-.4V121a1.4,1.4,0,0,1,.12-.55.84.84,0,0,1,.31-.37Zm-2.42,9.21,2.34-1.35a4.42,4.42,0,0,0,1.47-1.34,3.94,3.94,0,0,0,.54-2.2c0-.93-.18-1.44-.54-1.55a2,2,0,0,0-1.47.38l-2.34,1.35Z"/><path class="cls-6" d="M87.82,128.75A2.66,2.66,0,0,1,88,128a1.25,1.25,0,0,1,.5-.6l1.4-.8a.2.2,0,0,1,.25,0,.45.45,0,0,1,.1.33,1.09,1.09,0,0,1,0,.18l-1.07,4.73a3.11,3.11,0,0,1-.22.65,1.15,1.15,0,0,1-.47.55l-.73.42a.2.2,0,0,1-.25,0,.42.42,0,0,1-.1-.32v-.05Z"/><path class="cls-6" d="M104.73,104.42a.24.24,0,0,1,.31,0,.58.58,0,0,1,.13.4V115a14.81,14.81,0,0,1-.29,2.94,12.39,12.39,0,0,1-.87,2.64,9.55,9.55,0,0,1-1.45,2.22,8.4,8.4,0,0,1-2,1.64,4.33,4.33,0,0,1-2,.69,1.94,1.94,0,0,1-1.45-.55,3.45,3.45,0,0,1-.86-1.63,10.4,10.4,0,0,1-.28-2.62V110.17a1.19,1.19,0,0,1,.13-.54.81.81,0,0,1,.31-.38l1.3-.75a.24.24,0,0,1,.31,0,.55.55,0,0,1,.13.4v10a6,6,0,0,0,.17,1.63,1.83,1.83,0,0,0,.5.89,1,1,0,0,0,.78.23,2.41,2.41,0,0,0,1-.36,4.25,4.25,0,0,0,1-.78,4.31,4.31,0,0,0,.78-1.12,6,6,0,0,0,.51-1.48,8.6,8.6,0,0,0,.19-1.84v-10a1.23,1.23,0,0,1,.13-.55.72.72,0,0,1,.3-.37Z"/><path class="cls-6" d="M114.92,115.91c-.18.11-.32.11-.42,0l-.21-.22L109.78,108v10.22a1.23,1.23,0,0,1-.13.55.79.79,0,0,1-.31.37l-1.3.76a.25.25,0,0,1-.31,0,.58.58,0,0,1-.13-.4v-16a1.34,1.34,0,0,1,.13-.54.87.87,0,0,1,.31-.38l1.13-.65c.18-.1.32-.11.42,0a1.69,1.69,0,0,1,.2.23l4.52,7.72V99.56a1.19,1.19,0,0,1,.13-.54.75.75,0,0,1,.3-.38l1.31-.75a.24.24,0,0,1,.31,0,.55.55,0,0,1,.12.4v16a1.4,1.4,0,0,1-.12.55.84.84,0,0,1-.31.37Z"/><path class="cls-6" d="M124.3,93.12c.17-.1.3-.1.39,0a1.23,1.23,0,0,1,.23.5L128.86,107a.39.39,0,0,1,0,.16,1.2,1.2,0,0,1-.13.55.77.77,0,0,1-.3.37l-1.17.67c-.21.13-.36.14-.45,0a.75.75,0,0,1-.17-.3l-.7-2.36-5.09,2.94-.69,3.16a4,4,0,0,1-.18.51,1.07,1.07,0,0,1-.45.47l-1.16.67a.24.24,0,0,1-.31,0,.51.51,0,0,1-.13-.4,1.1,1.1,0,0,1,0-.18l4-18a3.94,3.94,0,0,1,.22-.76,1,1,0,0,1,.39-.43Zm.89,10.39-1.77-6.05-1.78,8.09Z"/><path class="cls-6" d="M138.83,84.74a.23.23,0,0,1,.31,0,.54.54,0,0,1,.12.39V95.33a14.13,14.13,0,0,1-.29,3,11.36,11.36,0,0,1-.87,2.64,9.38,9.38,0,0,1-1.45,2.21,8,8,0,0,1-2,1.65,4.45,4.45,0,0,1-2,.68,2,2,0,0,1-1.44-.54,3.4,3.4,0,0,1-.86-1.64,10.4,10.4,0,0,1-.28-2.62V90.49a1.2,1.2,0,0,1,.13-.55.72.72,0,0,1,.3-.37l1.31-.76a.23.23,0,0,1,.3,0,.54.54,0,0,1,.13.4v10a6,6,0,0,0,.18,1.64,1.76,1.76,0,0,0,.5.89,1,1,0,0,0,.77.22,2.5,2.5,0,0,0,1-.36,4.47,4.47,0,0,0,1-.78,4.85,4.85,0,0,0,.78-1.12,6.5,6.5,0,0,0,.51-1.47,8.73,8.73,0,0,0,.18-1.85v-10a1.42,1.42,0,0,1,.13-.55.84.84,0,0,1,.31-.37Z"/><path class="cls-6" d="M149.21,78.74a.24.24,0,0,1,.31,0,.58.58,0,0,1,.13.4v1.76a1.38,1.38,0,0,1-.13.55.79.79,0,0,1-.31.37l-2.9,1.68v13.6a1.38,1.38,0,0,1-.13.55.84.84,0,0,1-.31.37l-1.3.76a.24.24,0,0,1-.31,0,.5.5,0,0,1-.13-.39V84.78l-2.9,1.67a.24.24,0,0,1-.31,0,.56.56,0,0,1-.13-.4V84.27a1.42,1.42,0,0,1,.13-.55.84.84,0,0,1,.31-.37Z"/><path class="cls-6" d="M160,72.49a.24.24,0,0,1,.31,0,.51.51,0,0,1,.13.4v16a1.26,1.26,0,0,1-.13.55.84.84,0,0,1-.31.37l-1.3.76a.24.24,0,0,1-.31,0,.54.54,0,0,1-.13-.39V83.64l-4.87,2.81V93a1.19,1.19,0,0,1-.13.54.75.75,0,0,1-.3.38l-1.31.75a.23.23,0,0,1-.3,0,.5.5,0,0,1-.13-.41v-16a1.26,1.26,0,0,1,.13-.55.77.77,0,0,1,.3-.37l1.31-.76a.23.23,0,0,1,.3,0,.5.5,0,0,1,.13.39v6.38l4.87-2.81V74.16a1.34,1.34,0,0,1,.13-.54.82.82,0,0,1,.31-.38Z"/><path class="cls-6" d="M162.61,77.48a15.74,15.74,0,0,1,.34-2.81,12.4,12.4,0,0,1,.88-2.64,10.38,10.38,0,0,1,1.45-2.28A7.7,7.7,0,0,1,167.35,68a4.09,4.09,0,0,1,2-.66,2,2,0,0,1,1.45.6,3.69,3.69,0,0,1,.89,1.63,9.88,9.88,0,0,1,.36,2.42c0,.31,0,.65,0,1s0,.77,0,1.17,0,.81,0,1.19,0,.74,0,1.06a16.73,16.73,0,0,1-.35,2.81,12.13,12.13,0,0,1-.88,2.65,9.94,9.94,0,0,1-1.46,2.26,7.66,7.66,0,0,1-2.05,1.71,4.07,4.07,0,0,1-2.07.67,2,2,0,0,1-1.45-.59,3.68,3.68,0,0,1-.88-1.62,10.16,10.16,0,0,1-.34-2.42c0-.31,0-.65,0-1s0-.77,0-1.18,0-.79,0-1.18S162.6,77.81,162.61,77.48Zm7.3-4.09a3.16,3.16,0,0,0-.75-2.33c-.46-.39-1.06-.37-1.81.06a4.71,4.71,0,0,0-1.82,2,8,8,0,0,0-.75,3.2c0,.64,0,1.35,0,2.12s0,1.46,0,2.08a3.2,3.2,0,0,0,.75,2.32c.46.38,1.06.35,1.82-.08a4.69,4.69,0,0,0,1.81-2,7.57,7.57,0,0,0,.75-3.19c0-.64,0-1.35,0-2.12S169.93,74,169.91,73.39Z"/><path class="cls-6" d="M178.81,61.65c1.34-.77,2.36-.88,3.06-.32s1,1.68,1,3.39a10.53,10.53,0,0,1-.54,3.4,8.37,8.37,0,0,1-1.59,2.81L183,75.78a.67.67,0,0,1,0,.24,1,1,0,0,1-.1.45.59.59,0,0,1-.25.3l-1.37.8c-.22.12-.37.13-.48,0a1,1,0,0,1-.21-.31l-2.12-4.57L176.39,74v5.78a1.2,1.2,0,0,1-.13.55.83.83,0,0,1-.3.37l-1.31.76a.24.24,0,0,1-.31,0,.58.58,0,0,1-.13-.4V65a1.34,1.34,0,0,1,.13-.55.79.79,0,0,1,.31-.37Zm-2.42,9.22,2.34-1.35a4.22,4.22,0,0,0,1.46-1.35,3.83,3.83,0,0,0,.55-2.2c0-.92-.18-1.44-.55-1.54a2,2,0,0,0-1.46.37l-2.34,1.35Z"/><path class="cls-6" d="M185.45,75.19a.24.24,0,0,1-.31,0,.55.55,0,0,1-.12-.4v-16a1.4,1.4,0,0,1,.12-.55.84.84,0,0,1,.31-.37l1.31-.76a.23.23,0,0,1,.3,0,.5.5,0,0,1,.13.39v16a1.19,1.19,0,0,1-.13.54.81.81,0,0,1-.3.38Z"/><path class="cls-6" d="M197.6,65.07a.23.23,0,0,1,.31,0,.5.5,0,0,1,.13.39v1.76a1.2,1.2,0,0,1-.13.55.73.73,0,0,1-.31.37l-8.07,4.67a.24.24,0,0,1-.31,0,.58.58,0,0,1-.13-.4V70.66a1.8,1.8,0,0,1,.09-.6c.06-.17.11-.3.16-.41l5.72-14.28-5.37,3.1a.24.24,0,0,1-.31,0,.54.54,0,0,1-.13-.39V56.29a1.34,1.34,0,0,1,.13-.54.82.82,0,0,1,.31-.38l7.75-4.48a.24.24,0,0,1,.31,0,.54.54,0,0,1,.13.4v1.77a2.19,2.19,0,0,1-.21.94l-5.74,14.33Z"/><path class="cls-6" d="M207.45,59.39a.24.24,0,0,1,.31,0,.5.5,0,0,1,.13.39v1.77a1.19,1.19,0,0,1-.13.54.82.82,0,0,1-.31.38l-7.07,4.08a.24.24,0,0,1-.31,0,.5.5,0,0,1-.13-.39v-16a1.26,1.26,0,0,1,.13-.55.84.84,0,0,1,.31-.37l7-4a.23.23,0,0,1,.3,0,.52.52,0,0,1,.13.4v1.76a1.26,1.26,0,0,1-.13.55.83.83,0,0,1-.3.37l-5.21,3v3.94l4.85-2.8a.24.24,0,0,1,.31,0,.58.58,0,0,1,.13.4v1.76a1.34,1.34,0,0,1-.13.55.87.87,0,0,1-.31.38l-4.85,2.8v4.12Z"/><path class="cls-6" d="M214.31,41.16a4.44,4.44,0,0,1,2.07-.71,1.94,1.94,0,0,1,1.46.53,3.48,3.48,0,0,1,.91,1.64,11.47,11.47,0,0,1,.38,2.61c0,1.2,0,2.42,0,3.67a18.43,18.43,0,0,1-.38,3.05,12.33,12.33,0,0,1-.9,2.67,9.25,9.25,0,0,1-1.44,2.21,8.11,8.11,0,0,1-2,1.66l-4.07,2.34a.23.23,0,0,1-.3,0,.52.52,0,0,1-.13-.4v-16a1.26,1.26,0,0,1,.13-.55.83.83,0,0,1,.3-.37ZM217,46.48a5.91,5.91,0,0,0-.2-1.36,2,2,0,0,0-.5-.9,1.16,1.16,0,0,0-.83-.32,2.59,2.59,0,0,0-1.19.41l-2.16,1.25V56.72l2.24-1.29a4.19,4.19,0,0,0,1.14-1,5.76,5.76,0,0,0,.81-1.24,7,7,0,0,0,.49-1.48,9.59,9.59,0,0,0,.2-1.6C217,48.91,217,47.68,217,46.48Z"/></g></g></g></svg>