<svg width="26" height="34" viewBox="0 0 26 34" fill="none" xmlns="http://www.w3.org/2000/svg">
<path d="M25 13.9938V28.6C25 29.5548 24.6207 30.4705 23.9456 31.1456C23.2705 31.8207 22.3548 32.2 21.4 32.2H4.6C3.64522 32.2 2.72955 31.8207 2.05442 31.1456C1.37928 30.4705 1 29.5548 1 28.6V4.6C1 3.64522 1.37928 2.72955 2.05442 2.05442C2.72955 1.37928 3.64522 1 4.6 1H12.0063C12.6425 1.0001 13.2528 1.25287 13.7028 1.70275L24.2973 12.2973C24.7471 12.7472 24.9999 13.3575 25 13.9938Z" stroke="white" stroke-width="2" stroke-linejoin="round"/>
<path d="M7 25H19M13 1.6V10.6C13 11.2365 13.2529 11.847 13.7029 12.2971C14.153 12.7471 14.7635 13 15.4 13H24.4L13 1.6ZM7 19H19H7Z" stroke="white" stroke-width="2" stroke-linecap="round" stroke-linejoin="round"/>
</svg>
