<svg width="26" height="35" viewBox="0 0 26 35" fill="none" xmlns="http://www.w3.org/2000/svg">
<path d="M9.72628 16.271V3.18157C9.72628 2.60298 9.95612 2.04809 10.3652 1.63897C10.7744 1.22984 11.3293 1 11.9079 1C12.4864 1 13.0413 1.22984 13.4505 1.63897C13.8596 2.04809 14.0894 2.60298 14.0894 3.18157V16.271M1 21.7249V9.72628C1 9.14769 1.22984 8.5928 1.63897 8.18368C2.04809 7.77455 2.60298 7.54471 3.18157 7.54471V7.54471C3.76016 7.54471 4.31505 7.77455 4.72417 8.18368C5.1333 8.5928 5.36314 9.14769 5.36314 9.72628V17.3618L1 21.7249ZM5.36314 17.3618V5.36314C5.36314 4.78455 5.59298 4.22966 6.00211 3.82054C6.41123 3.41141 6.96612 3.18157 7.54471 3.18157C8.1233 3.18157 8.67819 3.41141 9.08731 3.82054C9.49644 4.22966 9.72628 4.78455 9.72628 5.36314V16.271L5.36314 17.3618ZM14.0894 16.3392V6.45393C14.0894 5.87534 14.3193 5.32045 14.7284 4.91132C15.1375 4.5022 15.6924 4.27236 16.271 4.27236V4.27236C16.8496 4.27236 17.4045 4.5022 17.8136 4.91132C18.2227 5.32045 18.4526 5.87534 18.4526 6.45393V21.7249L14.0894 16.3392Z" stroke="white" stroke-width="2" stroke-linecap="round" stroke-linejoin="round"/>
<path d="M1 21.7249C1 29.7286 5.36314 33.7236 11.3625 33.7236C17.3618 33.7236 19.7963 31.0239 21.1795 27.7242L24.773 17.9072C25.227 16.6766 25.0211 15.5354 23.9638 14.9348C22.9057 14.3335 21.5156 14.643 20.943 15.7311L18.4526 21.7249" stroke="white" stroke-width="2" stroke-linecap="round" stroke-linejoin="round"/>
</svg>
