<svg width="26" height="24" viewBox="0 0 26 24" fill="none" xmlns="http://www.w3.org/2000/svg">
<path d="M22.2308 5.61446H3.76923C2.23983 5.61446 1 6.85428 1 8.38369V19.4606C1 20.99 2.23983 22.2298 3.76923 22.2298H22.2308C23.7602 22.2298 25 20.99 25 19.4606V8.38369C25 6.85428 23.7602 5.61446 22.2308 5.61446Z" stroke="white" stroke-width="2" stroke-linejoin="round"/>
<path d="M21.9631 5.61446V3.88369C21.9629 3.45919 21.8691 3.03996 21.6883 2.6559C21.5075 2.27184 21.2441 1.93242 20.917 1.66185C20.5899 1.39129 20.2072 1.19626 19.796 1.09067C19.3848 0.985075 18.9555 0.971529 18.5385 1.05099L3.34462 3.64426C2.6848 3.77 2.08955 4.12206 1.66153 4.63971C1.2335 5.15736 0.999545 5.80815 1 6.47984V9.30676" stroke="white" stroke-width="2" stroke-linejoin="round"/>
<path d="M19.4615 15.7683C19.0964 15.7683 18.7394 15.66 18.4358 15.4572C18.1322 15.2543 17.8956 14.966 17.7559 14.6286C17.6162 14.2913 17.5796 13.9201 17.6508 13.562C17.7221 13.2039 17.8979 12.8749 18.1561 12.6167C18.4143 12.3585 18.7432 12.1827 19.1013 12.1115C19.4595 12.0402 19.8307 12.0768 20.168 12.2165C20.5053 12.3563 20.7937 12.5929 20.9965 12.8965C21.1994 13.2001 21.3077 13.557 21.3077 13.9221C21.3077 14.4118 21.1132 14.8814 20.7669 15.2276C20.4207 15.5738 19.9511 15.7683 19.4615 15.7683Z" fill="white"/>
</svg>
