<svg width="69" height="54" viewBox="0 0 69 54" fill="none" xmlns="http://www.w3.org/2000/svg">
<path d="M48.8401 10.1561L44.7187 3.64422C43.8501 2.63168 42.6595 2 41.325 2H27.0813C25.7467 2 24.5561 2.63168 23.6876 3.64422L19.5662 10.1561C18.6976 11.1701 17.5783 11.9087 16.2437 11.9087H6.95433C5.64036 11.9087 4.38021 12.4306 3.45109 13.3597C2.52197 14.2889 2 15.549 2 16.863V46.5889C2 47.9029 2.52197 49.1631 3.45109 50.0922C4.38021 51.0213 5.64036 51.5433 6.95433 51.5433H61.4519C62.7659 51.5433 64.026 51.0213 64.9552 50.0922C65.8843 49.1631 66.4063 47.9029 66.4063 46.5889V16.863C66.4063 15.549 65.8843 14.2889 64.9552 13.3597C64.026 12.4306 62.7659 11.9087 61.4519 11.9087H52.3174C50.9782 11.9087 49.7086 11.1701 48.8401 10.1561Z" stroke="black" stroke-width="4" stroke-linecap="round" stroke-linejoin="round"/>
<path d="M34.2032 41.6347C41.0437 41.6347 46.589 36.0894 46.589 29.2489C46.589 22.4084 41.0437 16.863 34.2032 16.863C27.3627 16.863 21.8174 22.4084 21.8174 29.2489C21.8174 36.0894 27.3627 41.6347 34.2032 41.6347Z" stroke="black" stroke-width="4" stroke-miterlimit="10"/>
<path d="M13.7665 11.599V8.19287H10.0508V11.599" stroke="black" stroke-width="4" stroke-linecap="round" stroke-linejoin="round"/>
</svg>
