<svg width="26" height="25" viewBox="0 0 26 25" fill="none" xmlns="http://www.w3.org/2000/svg">
<path d="M23.008 13.0044C23.008 11.0258 22.4213 9.09173 21.3221 7.44664C20.2229 5.80155 18.6605 4.51936 16.8326 3.76221C15.0047 3.00506 12.9933 2.80695 11.0528 3.19294C9.11225 3.57894 7.32977 4.53169 5.93074 5.93073C4.5317 7.32976 3.57895 9.11224 3.19296 11.0528C2.80696 12.9933 3.00507 15.0047 3.76222 16.8326C4.51937 18.6605 5.80156 20.2229 7.44665 21.3221C9.09174 22.4213 11.0258 23.008 13.0044 23.008C15.6575 23.008 18.202 21.9541 20.078 20.078C21.9541 18.202 23.008 15.6575 23.008 13.0044ZM5.87991 1.70088C5.35496 1.25167 4.68764 1.00331 3.99673 1L3.82229 1.005C2.22483 1.10129 0.995635 2.50055 1.00001 4.18866C1.00001 5.01459 1.29137 5.39972 1.68026 5.89115C1.70442 5.92273 1.73493 5.94889 1.76982 5.96796C1.80471 5.98702 1.84321 5.99855 1.88283 6.00182H1.93785C1.96883 6.00126 1.99927 5.99359 2.02681 5.97939C2.05435 5.96518 2.07825 5.94483 2.09666 5.91991L5.89617 2.18793C5.92861 2.15512 5.95396 2.11599 5.97063 2.07296C5.9873 2.02994 5.99494 1.98394 5.99308 1.93784C5.9915 1.89269 5.98064 1.84834 5.96117 1.80758C5.9417 1.76681 5.91404 1.73049 5.87991 1.70088V1.70088ZM20.1201 1.70088C20.645 1.25167 21.3124 1.00331 22.0033 1L22.1777 1.005C23.7752 1.10129 25.0044 2.50055 25 4.18866C25 5.01459 24.7086 5.39972 24.3197 5.89115C24.2955 5.92262 24.265 5.94866 24.2301 5.96761C24.1952 5.98656 24.1567 5.998 24.1172 6.00119H24.0621C24.0312 6.00064 24.0007 5.99296 23.9732 5.97876C23.9457 5.96456 23.9218 5.94421 23.9033 5.91929L20.1038 2.18793C20.0714 2.15512 20.046 2.11599 20.0294 2.07296C20.0127 2.02994 20.0051 1.98394 20.0069 1.93784C20.0085 1.89269 20.0194 1.84834 20.0388 1.80758C20.0583 1.76681 20.086 1.73049 20.1201 1.70088V1.70088Z" stroke="white" stroke-width="2" stroke-miterlimit="10"/>
<path d="M3.00073 23.008L5.50164 20.5071M13.0044 6.00182V13.0044H8.00255L13.0044 6.00182ZM23.008 23.008L20.5071 20.5071L23.008 23.008Z" stroke="white" stroke-width="2" stroke-linecap="round" stroke-linejoin="round"/>
</svg>
