<svg width="25" height="25" viewBox="0 0 25 25" fill="none" xmlns="http://www.w3.org/2000/svg">
<path d="M15.6185 12.5L24.3475 3.77105C24.7618 3.35751 24.9948 2.79634 24.9953 2.21098C24.9958 1.62563 24.7638 1.06404 24.3502 0.649767C23.9367 0.235493 23.3755 0.00246647 22.7902 0.00194953C22.2048 0.00143258 21.6432 0.233468 21.2289 0.647011L12.5 9.37596L3.77105 0.647011C3.35678 0.232737 2.7949 0 2.20903 0C1.62316 0 1.06128 0.232737 0.647011 0.647011C0.232737 1.06128 0 1.62316 0 2.20903C0 2.7949 0.232737 3.35678 0.647011 3.77105L9.37596 12.5L0.647011 21.2289C0.232737 21.6432 0 22.2051 0 22.791C0 23.3768 0.232737 23.9387 0.647011 24.353C1.06128 24.7673 1.62316 25 2.20903 25C2.7949 25 3.35678 24.7673 3.77105 24.353L12.5 15.624L21.2289 24.353C21.6432 24.7673 22.2051 25 22.791 25C23.3768 25 23.9387 24.7673 24.353 24.353C24.7673 23.9387 25 23.3768 25 22.791C25 22.2051 24.7673 21.6432 24.353 21.2289L15.6185 12.5Z" fill="black"/>
</svg>
