<svg width="34" height="29" viewBox="0 0 34 29" fill="none" xmlns="http://www.w3.org/2000/svg">
<path d="M21.6791 12.8055L18.3392 18.1141C18.2026 18.3035 18.0364 18.4697 17.847 18.6063C17.3898 18.9253 16.8253 19.051 16.276 18.9563C15.7267 18.8616 15.2369 18.5541 14.9129 18.1005C14.5889 17.647 14.4569 17.0839 14.5455 16.5336C14.634 15.9832 14.9361 15.49 15.3861 15.161L20.6947 11.8211C20.8153 11.737 20.9589 11.6919 21.106 11.6919C21.2531 11.6919 21.3967 11.737 21.5173 11.8211C21.6689 11.9306 21.771 12.0955 21.8013 12.28C21.8316 12.4644 21.7876 12.6534 21.6791 12.8055Z" fill="black"/>
<path d="M16.7501 1C8.05239 1 1.00002 8.04535 1.00002 16.7431C0.99468 20.5912 2.40349 24.3071 4.95863 27.1845C5.03597 27.2689 5.10629 27.3533 5.18363 27.4306C5.35002 27.6107 5.552 27.7544 5.77678 27.8524C6.00157 27.9504 6.24426 28.0007 6.48948 28C6.7347 27.9993 6.97711 27.9478 7.20136 27.8485C7.42562 27.7493 7.62682 27.6046 7.79224 27.4236C8.93236 26.1846 10.3171 25.1955 11.859 24.519C13.4009 23.8425 15.0663 23.4932 16.7501 23.4932C18.4339 23.4932 20.0993 23.8425 21.6412 24.519C23.1831 25.1955 24.5678 26.1846 25.708 27.4236C25.8734 27.6046 26.0746 27.7493 26.2988 27.8485C26.5231 27.9478 26.7655 27.9993 27.0107 28C27.2559 28.0007 27.4986 27.9504 27.7234 27.8524C27.9482 27.7544 28.1502 27.6107 28.3166 27.4306L28.5416 27.1845C31.0967 24.3071 32.5055 20.5912 32.5002 16.7431C32.5002 8.04535 25.4478 1 16.7501 1Z" stroke="black" stroke-width="2" stroke-linecap="round" stroke-linejoin="round"/>
<path d="M23.1138 10.3861L24.705 8.79488M16.7498 5.50002V7.75003V5.50002ZM27.9999 16.7501H25.7499H27.9999ZM7.74977 16.7501H5.49976H7.74977ZM10.3858 10.3861L8.79462 8.79488L10.3858 10.3861Z" stroke="black" stroke-width="2" stroke-miterlimit="10" stroke-linecap="round"/>
</svg>
