<svg width="27" height="28" viewBox="0 0 27 28" fill="none" xmlns="http://www.w3.org/2000/svg">
<path d="M20.0772 23.107V2.44231C20.0761 2.06013 19.925 1.69391 19.6569 1.42367C19.3888 1.15342 19.0255 1.00111 18.6464 1H2.43079C2.05166 1.00111 1.68837 1.15342 1.42028 1.42367C1.1522 1.69391 1.0011 2.06013 1 2.44231V23.5962C1.00189 24.2331 1.25373 24.8434 1.70053 25.2938C2.14733 25.7442 2.75278 25.9981 3.38465 26H22.9388" stroke="white" stroke-width="2" stroke-linejoin="round"/>
<path d="M22.6837 26C21.9395 26 21.2257 25.6928 20.6995 25.1461C20.1732 24.5993 19.8776 23.8578 19.8776 23.0845V5.59184H24.0867C24.4589 5.59184 24.8157 5.74542 25.0789 6.01879C25.342 6.29217 25.4898 6.66295 25.4898 7.04956V23.0845C25.4898 23.8578 25.1942 24.5993 24.6679 25.1461C24.1417 25.6928 23.4279 26 22.6837 26Z" stroke="white" stroke-width="2.8" stroke-linejoin="round"/>
<path d="M5.0816 21.4082H16.3061M12.5646 5.59184H16.3061H12.5646ZM12.5646 9.54592H16.3061H12.5646ZM5.0816 13.5H16.3061H5.0816ZM5.0816 17.4541H16.3061H5.0816Z" stroke="white" stroke-width="2" stroke-linecap="round" stroke-linejoin="round"/>
<path d="M8.73809 10.6939H4.99659C4.74852 10.6939 4.5106 10.5953 4.33518 10.4199C4.15977 10.2445 4.06122 10.0066 4.06122 9.7585V6.01701C4.06122 5.76893 4.15977 5.53102 4.33518 5.3556C4.5106 5.18018 4.74852 5.08163 4.99659 5.08163H8.73809C8.98617 5.08163 9.22408 5.18018 9.3995 5.3556C9.57491 5.53102 9.67346 5.76893 9.67346 6.01701V9.7585C9.67346 10.0066 9.57491 10.2445 9.3995 10.4199C9.22408 10.5953 8.98617 10.6939 8.73809 10.6939Z" fill="white"/>
</svg>
