 <svg width="30" height="31" viewBox="0 0 30 31" fill="none" xmlns="http://www.w3.org/2000/svg">
<g clip-path="url(#clip0)">
<path fill-rule="evenodd" clip-rule="evenodd" d="M6.19554 15.1304C6.19554 14.1694 6.35514 13.2481 6.63999 12.384L1.654 8.57654C0.682255 10.5495 0.134766 12.7727 0.134766 15.1304C0.134766 17.486 0.681582 19.7078 1.65198 21.6795L6.63528 17.8646C6.35312 17.0045 6.19554 16.0866 6.19554 15.1304Z" fill="#FBBC05"/>
<path fill-rule="evenodd" clip-rule="evenodd" d="M14.95 6.38836C17.0376 6.38836 18.9232 7.12807 20.4047 8.3385L24.7146 4.03473C22.0883 1.74836 18.7212 0.336182 14.95 0.336182C9.09533 0.336182 4.06355 3.68438 1.65405 8.57655L6.64005 12.384C7.7889 8.89665 11.0637 6.38836 14.95 6.38836Z" fill="#EA4335"/>
<path fill-rule="evenodd" clip-rule="evenodd" d="M14.95 23.8724C11.0637 23.8724 7.7889 21.3641 6.64005 17.8767L1.65405 21.6835C4.06355 26.5764 9.09533 29.9246 14.95 29.9246C18.5636 29.9246 22.0135 28.6415 24.6028 26.2375L19.87 22.5786C18.5346 23.4198 16.8531 23.8724 14.95 23.8724Z" fill="#34A853"/>
<path fill-rule="evenodd" clip-rule="evenodd" d="M29.0917 15.1304C29.0917 14.2562 28.9571 13.3148 28.755 12.4406H14.95V18.1565H22.8963C22.499 20.1053 21.4175 21.6035 19.8699 22.5786L24.6027 26.2375C27.3227 23.7131 29.0917 19.9526 29.0917 15.1304Z" fill="#4285F4"/>
</g>
<defs>
<clipPath id="clip0">
<rect width="29.6304" height="30.2609" fill="white"/>
</clipPath>
</defs>
</svg>
