<svg width="26" height="26" viewBox="0 0 26 26" fill="none" xmlns="http://www.w3.org/2000/svg">
<path d="M3.35187 20H7.75M13 7.94688L8.24438 11.9363L9.5 17H16.5L17.7556 11.9363L13 7.94688ZM17.7556 11.9363L21.06 10.5363L22.6712 5.9575L17.7556 11.9363ZM24.9375 13.8731L21.06 10.5363L24.9375 13.8731ZM8.24438 11.9363L4.94 10.5363L3.32875 5.9575L8.24438 11.9363ZM1.0625 13.8731L4.94 10.5363L1.0625 13.8731ZM13 7.94688V4.34875L17 1.68375L13 7.94688ZM9 1.68313L13 4.34875L9 1.68313ZM16.5 17L18.25 20L16.5 24.4375V17ZM22.6712 20H18.375H22.6712ZM9.5 17L7.75 20L9.52312 24.4688L9.5 17Z" stroke="white" stroke-linecap="round" stroke-linejoin="round"/>
<path d="M13 25C19.6274 25 25 19.6274 25 13C25 6.37258 19.6274 1 13 1C6.37258 1 1 6.37258 1 13C1 19.6274 6.37258 25 13 25Z" stroke="white" stroke-width="2" stroke-miterlimit="10" stroke-linecap="round"/>
</svg>
