<svg width="36" height="36" viewBox="0 0 36 36" fill="none" xmlns="http://www.w3.org/2000/svg">
<path d="M5 17V33.8571C5 34.1602 5.12451 34.4509 5.34615 34.6653C5.56778 34.8796 5.86838 35 6.18182 35H13.2727V25.2857C13.2727 24.8311 13.4595 24.395 13.7919 24.0735C14.1244 23.752 14.5753 23.5714 15.0455 23.5714H20.9545C21.4247 23.5714 21.8756 23.752 22.2081 24.0735C22.5405 24.395 22.7273 24.8311 22.7273 25.2857V35H29.8182C30.1316 35 30.4322 34.8796 30.6539 34.6653C30.8755 34.4509 31 34.1602 31 33.8571V17" stroke="black" stroke-width="2" stroke-linecap="round" stroke-linejoin="round"/>
<path d="M28.9286 10.9406V2.21296H25.2857V7.44957M35 16.7844L18.8265 1.30225C18.447 0.901531 17.5598 0.896978 17.1735 1.30225L1 16.7844H35Z" stroke="black" stroke-width="2" stroke-linecap="round" stroke-linejoin="round"/>
</svg>
