<svg width="117" height="39" viewBox="0 0 117 39" fill="none" xmlns="http://www.w3.org/2000/svg">
<path d="M23.1521 34.0132C23.2776 34.2288 23.3476 34.472 23.3561 34.7211C23.3646 34.9701 23.3113 35.2174 23.2009 35.4411C23.0716 35.9047 22.784 36.3089 22.3875 36.5841C22.1956 36.7448 22.0189 36.8872 21.8605 36.9903C21.6978 37.1011 21.5204 37.1888 21.3335 37.2511C20.951 37.4474 20.5147 37.5145 20.0905 37.4421C19.9103 37.4435 19.7314 37.4106 19.5635 37.345C19.398 37.2791 19.238 37.2 19.0853 37.1086C18.9269 37.0115 18.7593 36.9115 18.5826 36.8054C18.41 36.6948 18.2432 36.5754 18.083 36.4476L17.556 36.0202C17.3958 35.8946 17.2515 35.75 17.1265 35.5897C16.9724 35.4401 16.828 35.2812 16.6939 35.1137C16.5659 34.956 16.438 34.8105 16.3131 34.6862L15.7373 34.0799L6.55266 24.4935L6.70193 34.0617V34.4891C6.70137 34.626 6.68502 34.7623 6.65319 34.8954C6.62272 35.0379 6.58921 35.1986 6.55875 35.3471C6.47624 35.7202 6.36419 36.0861 6.22365 36.4416C6.16827 36.6157 6.07928 36.7774 5.96167 36.9176C5.84895 37.0449 5.73015 37.1722 5.6022 37.2996C5.26142 37.6119 4.82192 37.7963 4.3593 37.821C3.93877 37.9742 3.48897 38.0312 3.04328 37.9878C2.62091 37.9339 2.20969 37.8142 1.82475 37.6331C1.45905 37.3953 1.16025 37.0687 0.956548 36.6841C0.917971 36.5992 0.869945 36.5189 0.81337 36.4446C0.790086 36.331 0.757483 36.2194 0.715888 36.1111C0.536544 35.8284 0.437582 35.5025 0.429533 35.1682C0.399069 34.9772 0.374699 34.8044 0.359467 34.6438C0.344235 34.4831 0.319865 34.3133 0.286355 34.1223C0.256147 33.9972 0.240811 33.869 0.24066 33.7403V33.3492C0.268316 33.2155 0.283612 33.0795 0.286355 32.9429V32.5397L0.24066 28.7773L0.191919 21.7801C0.191919 19.7589 0.144193 17.57 0.0487413 15.2133C0.0162471 14.0693 0 13.0537 0 12.1664C0 11.2791 0.0162471 10.2796 0.0487413 9.16801V8.97701C0.111052 8.63996 0.142659 8.29801 0.143178 7.95531C0.14203 7.62725 0.1583 7.29937 0.191919 6.97302C0.193749 6.31805 0.336035 5.67101 0.609266 5.07515C0.810997 4.59429 1.16936 4.19493 1.62674 3.94128C1.85346 3.79731 2.10413 3.69465 2.367 3.6381C2.60766 3.5896 2.86964 3.53502 3.156 3.47136C3.37223 3.47035 3.58819 3.48657 3.80182 3.51987L4.41109 3.61385C4.83459 3.68188 5.23156 3.86317 5.55955 4.13834C5.66045 4.23903 5.74937 4.35093 5.82458 4.47183C5.91378 4.62182 5.98534 4.78154 6.03783 4.94782C6.22367 5.28594 6.33773 5.65847 6.37292 6.04228C6.40339 6.23328 6.42776 6.42125 6.44604 6.61225C6.46431 6.80324 6.47041 7.0094 6.47041 7.21859V9.17104L6.5161 14.9768C7.02788 14.5342 7.52748 14.0673 8.02403 13.5974C8.52059 13.1275 9.00495 12.6151 9.48323 12.0815C10.3423 11.1922 11.1953 10.3271 12.0421 9.48634C12.889 8.64554 13.7379 7.80776 14.5889 6.97302L14.7321 6.83053C14.9849 6.57586 15.2499 6.33029 15.5211 6.09079L16.3101 5.40258C16.7822 4.86575 17.395 4.47005 18.08 4.25961C18.5526 3.97373 19.1108 3.86114 19.658 3.94128C19.9284 3.96937 20.1938 4.03361 20.447 4.13228C20.6919 4.23049 20.9241 4.35773 21.1385 4.51125C21.2905 4.65712 21.4545 4.78997 21.6289 4.9084C21.7845 5.01381 21.9154 5.15134 22.0128 5.31163C22.2886 5.57655 22.4585 5.93201 22.4911 6.3121C22.4935 6.64433 22.4239 6.97318 22.287 7.2762L22.0006 7.75218C21.9003 7.91848 21.7883 8.07754 21.6655 8.22816C21.5071 8.41916 21.3609 8.59197 21.236 8.75266C21.1111 8.91334 20.9648 9.05583 20.8064 9.22864C20.6856 9.37723 20.5532 9.51611 20.4104 9.64399C20.2632 9.77453 20.1276 9.91756 20.0053 10.0715L19.396 10.6778L10.452 19.773L11.9568 21.2889C12.4839 21.8104 12.9865 22.3197 13.4648 22.8048L14.8021 24.1842C15.1921 24.6147 15.5363 24.9695 15.8409 25.2575C16.6939 26.1448 17.5194 27.023 18.3176 27.8921C19.1157 28.7612 19.8966 29.6414 20.6602 30.5327L20.8064 30.6752C21.0593 30.9299 21.2999 31.1936 21.5223 31.4604C21.7447 31.7272 21.9519 31.994 22.1316 32.2456C22.5969 32.7539 22.9452 33.3571 23.1521 34.0132V34.0132Z" fill="white"/>
<path d="M33.5736 33.6342C33.5431 33.7918 33.5187 33.9374 33.5035 34.0859C33.4859 34.2358 33.4777 34.3867 33.4791 34.5376L33.1928 35.5381C33.1546 35.6229 33.1054 35.7024 33.0466 35.7746L32.9034 36.0596C32.7225 36.4339 32.4197 36.7362 32.0443 36.9176C31.2916 37.2971 30.4279 37.3982 29.6073 37.2025C29.1403 37.1678 28.6927 37.0028 28.3156 36.7266C28.0161 36.5293 27.7827 36.2474 27.6454 35.9171C27.5204 35.6093 27.4245 35.2906 27.3591 34.9651C27.2704 34.6884 27.2222 34.4005 27.2159 34.1102V7.45506C27.2159 7.23375 27.2159 7.03365 27.2403 6.84871C27.2541 6.6868 27.2775 6.52584 27.3103 6.36667C27.3307 6.17118 27.3663 5.97757 27.4169 5.7876C27.4626 5.62995 27.5205 5.45411 27.5845 5.26614C27.6696 4.96087 27.8538 4.69222 28.1085 4.50214C28.4242 4.24612 28.8047 4.08145 29.2082 4.02616C29.4073 3.96879 29.6112 3.92922 29.8174 3.90792C30.0063 3.89276 30.2287 3.88367 30.4846 3.88367C31.0133 3.90523 31.5319 4.03528 32.0078 4.26567C32.434 4.49956 32.7703 4.86736 32.9643 5.31162C33.2577 5.85436 33.4214 6.45713 33.4426 7.07306C33.473 7.3914 33.4974 7.86738 33.5126 8.50101C33.5279 9.13465 33.537 9.61366 33.537 9.92897V10.12C33.602 11.1305 33.6345 12.1068 33.6345 13.0486C33.6345 13.9824 33.6162 15.0071 33.5858 16.1168C33.5553 17.2264 33.5858 18.239 33.5614 19.2334C33.537 20.2278 33.537 21.2252 33.537 22.2106V32.2153C33.537 32.335 33.5452 32.4545 33.5614 32.5731C33.5776 32.6906 33.5858 32.8091 33.5858 32.9278C33.6023 33.1632 33.5982 33.3995 33.5736 33.6342Z" fill="white"/>
<path d="M58.7942 16.5927C58.9243 17.0083 58.9566 17.4482 58.8886 17.8782C58.8214 18.3711 58.7103 18.8571 58.5566 19.3304C58.3979 19.8156 58.2139 20.2923 58.0052 20.7583C57.7981 21.2192 57.6153 21.6224 57.4538 21.971C56.6252 23.6527 55.8443 25.3029 55.1112 26.9219C54.378 28.5408 53.5169 30.3023 52.5279 32.2062C52.339 32.5852 52.1227 33.0399 51.8821 33.5614C51.6456 34.08 51.3823 34.5859 51.0931 35.0773C50.8179 35.5522 50.5062 36.0053 50.1609 36.4325C49.8726 36.8093 49.5057 37.1196 49.0855 37.342C48.8015 37.5235 48.4656 37.6076 48.129 37.5815C47.9764 37.6059 47.8204 37.5972 47.6715 37.5558C47.5227 37.5145 47.3847 37.4415 47.2669 37.342C46.8467 37.1196 46.4799 36.8093 46.1915 36.4325C45.8462 36.0053 45.5345 35.5522 45.2593 35.0773C44.973 34.5831 44.708 34.0768 44.4703 33.5614C44.2327 33.046 44.0164 32.5852 43.8245 32.2062C43.4407 31.4756 43.0843 30.7934 42.7492 30.1598C42.4141 29.5262 42.0607 28.8349 41.6951 28.0891C41.3296 27.3433 40.9214 26.4853 40.4766 25.5182C40.0318 24.5511 39.5048 23.3687 38.8986 21.971C38.7371 21.5921 38.5635 21.1949 38.3716 20.7826C38.1724 20.3504 38.0044 19.9046 37.8689 19.4486C37.7265 18.9749 37.6306 18.4886 37.5826 17.9964C37.5342 17.4963 37.5589 16.9918 37.6557 16.4987C37.7386 16.0406 37.9948 15.6316 38.3716 15.3558C38.7533 15.071 39.1949 14.8761 39.6632 14.7858C40.1374 14.6897 40.6269 14.6969 41.098 14.807C41.5345 14.9042 41.9302 15.1329 42.2313 15.4619C42.556 15.8022 42.8299 16.1871 43.0447 16.6049C43.2975 17.0808 43.5473 17.5811 43.7849 18.1207C44.0225 18.6604 44.248 19.1667 44.4551 19.6912C44.6623 20.2157 44.8603 20.6674 45.0644 21.0464C45.5122 21.9559 46.0118 22.9685 46.5875 24.0448C47.1633 25.121 47.6477 26.1245 48.0924 27.0432C48.4123 26.3155 48.7017 25.7031 48.9545 25.2241C49.2074 24.7451 49.4572 24.2479 49.6948 23.7719C49.9324 23.2959 50.1883 22.7714 50.4594 22.2015C50.7306 21.6315 51.0687 20.9008 51.4891 20.0125C51.8729 19.1879 52.2639 18.3794 52.6619 17.5871C53.0297 16.8121 53.5112 16.0959 54.0907 15.4619C54.3852 15.1424 54.7694 14.9185 55.1934 14.8192C55.6584 14.7102 56.1418 14.7051 56.609 14.8042C57.0762 14.9032 57.5156 15.104 57.8955 15.3922C58.304 15.6989 58.6158 16.1155 58.7942 16.5927Z" fill="white"/>
<path d="M89.5317 30.9238C89.9167 30.828 90.3089 30.7641 90.7045 30.7328C91.0772 30.6982 91.4529 30.7469 91.8042 30.8753C92.1415 31.0065 92.432 31.2344 92.6389 31.5301C92.8825 31.9044 92.9998 32.3462 92.974 32.7913C92.9741 33.1745 92.8755 33.5513 92.6877 33.8858C92.4967 34.236 92.2555 34.5567 91.9718 34.8378C91.6848 35.1227 91.3635 35.3711 91.0152 35.5775C90.6934 35.7687 90.3574 35.9349 90.01 36.0747C88.9881 36.5124 87.9173 36.8269 86.8204 37.0115C85.5985 37.2371 84.354 37.3175 83.1131 37.251C81.4162 37.1935 79.7419 36.8469 78.1628 36.2263C76.6207 35.6386 75.3173 34.5599 74.4554 33.1582C73.6218 31.7336 73.1191 30.1414 72.984 28.4984C72.8182 26.8788 72.8983 25.2435 73.2216 23.6476C73.4801 22.0349 74.0928 20.4987 75.0159 19.1485C75.8279 18.0219 76.865 17.0744 78.0622 16.3654C79.5344 15.5294 81.1988 15.0866 82.8937 15.0799C84.6569 15.0421 86.406 15.3996 88.0116 16.1258C89.0874 16.5971 90.0737 17.2494 90.9269 18.054C91.7933 18.8714 92.4638 19.8724 92.8887 20.9827C93.0299 21.3187 93.1321 21.6696 93.1934 22.0287C93.2747 22.4616 93.3307 22.8989 93.3609 23.3384C93.3914 23.7896 93.3914 24.2423 93.3609 24.6936C93.336 25.0998 93.255 25.5007 93.1203 25.885C92.976 26.3729 92.7323 26.826 92.4044 27.216C92.1044 27.543 91.726 27.7892 91.3046 27.9315C90.786 28.1011 90.2473 28.203 89.7023 28.2346C89.093 28.2801 88.3375 28.3226 87.4785 28.3529C86.7148 28.3872 85.9969 28.4034 85.3247 28.4014C84.6575 28.4014 83.9691 28.4014 83.2684 28.3771L81.0933 28.3286C80.3439 28.3124 79.5072 28.2892 78.5832 28.2589C78.4738 28.8193 78.5666 29.4001 78.8452 29.8991C79.1211 30.3652 79.5069 30.7574 79.9692 31.042C80.4719 31.3556 81.0208 31.5888 81.596 31.7333C82.1747 31.8879 82.7677 31.9834 83.3659 32.0183C84.4089 32.0848 85.4561 31.997 86.4732 31.7575C87.4571 31.5301 88.4807 31.227 89.5317 30.9238ZM87.4754 21.6891C86.9505 21.057 86.2989 20.5407 85.5623 20.1732C85.0578 19.9539 84.5101 19.8502 83.9599 19.8701C83.4163 19.8833 82.8771 19.971 82.3576 20.1308C81.4433 20.3451 80.6222 20.8456 80.0149 21.5587C79.8917 21.7005 79.7797 21.8515 79.6798 22.0105C79.5184 22.25 79.3752 22.4955 79.2259 22.7472C79.0949 22.9722 78.9926 23.2125 78.9213 23.4627C78.8543 23.684 78.8878 23.7962 79.0157 23.7962H88.3893C88.3707 23.413 88.2904 23.0353 88.1517 22.6774C87.9829 22.3121 87.7543 21.9771 87.4754 21.6861V21.6891Z" fill="white"/>
<path d="M97.2784 20.5916V19.2819C97.2784 18.7908 97.2937 18.2845 97.3272 17.766C97.3576 17.2583 97.4135 16.7524 97.4947 16.2502C97.5614 15.8018 97.6821 15.3631 97.8542 14.9435C97.9618 14.6776 98.1234 14.4367 98.3289 14.2359C98.5344 14.0351 98.7793 13.8786 99.0484 13.7763C99.6132 13.5658 100.216 13.4769 100.818 13.5155C101.365 13.4865 101.909 13.6015 102.396 13.849C102.763 14.0535 103.062 14.3588 103.258 14.7282C103.455 15.1144 103.576 15.5341 103.615 15.9652C103.665 16.4477 103.689 16.9324 103.688 17.4174C103.97 16.915 104.373 16.49 104.861 16.1804C105.333 15.8727 105.838 15.6175 106.366 15.4195C106.815 15.2453 107.279 15.1094 107.752 15.0132C107.989 14.9619 108.229 14.9224 108.471 14.895C109.194 14.8333 109.92 14.8171 110.646 14.8465C111.387 14.8962 112.119 15.0409 112.824 15.277C113.375 15.4865 113.903 15.7495 114.402 16.0622C114.936 16.3765 115.42 16.7689 115.837 17.2264C116.687 18.2087 117.36 19.9004 116.787 21.3496C116.668 21.6527 116.379 22.3986 115.712 22.6108C114.798 22.9139 113.747 21.9832 113.625 21.871C113.241 21.5193 113.32 21.4011 112.863 21.01C112.464 20.6655 111.997 20.4074 111.493 20.2521C111.073 20.1291 110.635 20.0778 110.198 20.1005C109.388 20.1198 108.589 20.2862 107.84 20.5916C107.073 20.8572 106.353 21.2431 105.708 21.7346C105.012 22.2628 104.397 22.8877 103.88 23.59V30.4448C103.88 31.2998 103.88 32.1911 103.855 33.1097C103.852 33.9567 103.723 34.7985 103.472 35.6079C103.261 36.3175 102.846 36.95 102.277 37.4269C101.72 37.8877 100.913 38.0848 99.8617 38.0333C99.5633 38.0085 99.2734 37.9215 99.0109 37.7779C98.7485 37.6342 98.5194 37.4372 98.3386 37.1995C97.9353 36.7645 97.6547 36.2311 97.5252 35.6533C97.4622 35.1763 97.4145 34.6054 97.382 33.9404C97.3495 33.2754 97.3252 32.5771 97.3089 31.8455C97.2947 31.1158 97.2866 30.3781 97.2845 29.6323V20.5916H97.2784Z" fill="white"/>
<path d="M65.9043 5.28736L65.9683 5.2146V0.0727619L65.9074 0L65.8221 0.0454762L63.0804 7.03971V7.10035L64.5579 10.2139L64.6279 10.2594H67.7565L67.8266 10.2109L69.0451 7.09731V7.03971L66.3034 0.0454762L66.2059 0L66.1419 0.0757936V5.22976L66.2059 5.30252C66.422 5.34044 66.616 5.45758 66.7496 5.63085C66.8832 5.80411 66.9467 6.02092 66.9276 6.23849C66.9085 6.45606 66.8081 6.6586 66.6463 6.80615C66.4845 6.9537 66.2731 7.03555 66.0536 7.03555C65.8342 7.03555 65.6227 6.9537 65.4609 6.80615C65.2991 6.6586 65.1987 6.45606 65.1796 6.23849C65.1605 6.02092 65.224 5.80411 65.3576 5.63085C65.4912 5.45758 65.6852 5.34044 65.9013 5.30252L65.9043 5.28736Z" fill="#616E7D"/>
<path d="M66.0566 37.8968C67.8265 37.8968 69.2796 26.9461 69.4076 18.7028H62.7057C62.8306 26.9461 64.2837 37.8998 66.0566 37.8968Z" fill="#5EC1AC"/>
<path d="M66.0566 11.0143C64.5335 11.0143 63.2327 10.6354 62.8275 15.1921H69.2827C68.8775 10.6354 67.5859 11.0143 66.0566 11.0143Z" fill="#5EC1AC"/>
<path d="M62.8275 15.1921C62.7818 15.7044 62.7483 16.2805 62.727 16.9262H69.3832C69.3619 16.2805 69.3284 15.7135 69.2827 15.1921H62.8275Z" fill="#AAD3C7"/>
<path d="M69.4045 18.6998H62.7026C62.7026 18.1116 62.7026 17.5265 62.724 16.9384H69.3802C69.3893 17.5174 69.3985 18.1086 69.4045 18.6998Z" fill="#616E7D"/>
<path d="M114.959 37.5178C113.887 37.5178 113.016 36.769 113.016 35.8473V28.7288C113.016 27.8041 113.887 27.0583 114.959 27.0583C116.032 27.0583 116.9 27.8041 116.9 28.7288V35.8473C116.9 36.769 116.032 37.5178 114.959 37.5178Z" fill="white"/>
<path d="M33.5766 25.0119H27.2128V26.9825H33.5766V25.0119Z" fill="#171717"/>
<path d="M92.5749 26.9825H72.9048V26.8673C72.8994 26.2476 72.9299 25.6281 72.9962 25.0119H93.3304C93.2642 25.5487 93.0989 26.0688 92.843 26.546C92.7627 26.6968 92.6732 26.8426 92.5749 26.9825V26.9825Z" fill="#171717"/>
<path d="M103.88 26.9522H97.2724C97.2724 26.649 97.2724 26.3459 97.2724 26.0427C97.2724 25.7395 97.2724 25.3484 97.2724 25.0058H103.874C103.878 25.6465 103.88 26.2953 103.88 26.9522Z" fill="#171717"/>
</svg>
