<svg xmlns="http://www.w3.org/2000/svg" viewBox="0 0 384.06 125.42"><defs><style>.cls-1{fill:#171717;}.cls-2{fill:#616e7d;}.cls-3{fill:#5ec1ac;}.cls-4{fill:#aad3c7;}.cls-5{fill:#231f20;}.cls-6{fill:#f9f9fa;}</style></defs><title>logo.black</title><g id="Layer_2" data-name="Layer 2"><g id="Layer_1-2" data-name="Layer 1"><path class="cls-1" d="M76,112.19a5,5,0,0,1,.16,4.71,6.82,6.82,0,0,1-2.67,3.77c-.63.53-1.21,1-1.73,1.34a7,7,0,0,1-1.73.86,6.5,6.5,0,0,1-4.08.63,4.63,4.63,0,0,1-1.73-.32,10.9,10.9,0,0,1-1.57-.78c-.52-.32-1.07-.65-1.65-1a19.51,19.51,0,0,1-1.64-1.18l-1.73-1.41a8.24,8.24,0,0,1-1.41-1.42,16.93,16.93,0,0,1-1.42-1.57c-.42-.52-.84-1-1.25-1.41l-1.89-2L21.51,80.79,22,112.35v1.41a5.89,5.89,0,0,1-.16,1.34c-.1.47-.21,1-.31,1.49a23.88,23.88,0,0,1-1.1,3.61,4.63,4.63,0,0,1-.86,1.57c-.37.42-.76.84-1.18,1.26a6.54,6.54,0,0,1-4.08,1.72,9.79,9.79,0,0,1-4.32.55,13.31,13.31,0,0,1-4-1.17A8.44,8.44,0,0,1,3.14,121a4.11,4.11,0,0,0-.47-.79,7,7,0,0,0-.32-1.1A6.1,6.1,0,0,1,1.41,116c-.1-.63-.18-1.2-.23-1.73s-.13-1.09-.24-1.72a5.42,5.42,0,0,1-.15-1.26V110a7.38,7.38,0,0,0,.15-1.34v-1.33L.79,94.92.63,71.84q0-10-.47-21.66Q0,44.52,0,40.13t.16-9.89v-.63a18.78,18.78,0,0,0,.31-3.37A30.72,30.72,0,0,1,.63,23,15.18,15.18,0,0,1,2,16.74,7.66,7.66,0,0,1,5.34,13a7.44,7.44,0,0,1,2.43-1c.79-.16,1.65-.34,2.59-.55a13.3,13.3,0,0,1,2.12.16l2,.31a7.77,7.77,0,0,1,3.77,1.73,6.12,6.12,0,0,1,.87,1.1,7.49,7.49,0,0,1,.7,1.57,9.28,9.28,0,0,1,1.1,3.61c.1.63.18,1.25.24,1.88s.08,1.31.08,2v6.44l.15,19.15c1.68-1.46,3.32-3,4.95-4.55s3.22-3.24,4.79-5q4.23-4.4,8.4-8.56T47.89,23l.47-.47c.83-.84,1.7-1.65,2.59-2.44l2.59-2.27a12.7,12.7,0,0,1,5.81-3.77A7.79,7.79,0,0,1,64.53,13a9.93,9.93,0,0,1,2.59.63,10.79,10.79,0,0,1,2.27,1.25A12.33,12.33,0,0,0,71,16.19a4.3,4.3,0,0,1,1.26,1.33,5.2,5.2,0,0,1,1.57,3.3A7.62,7.62,0,0,1,73.16,24l-.94,1.57a13.61,13.61,0,0,1-1.1,1.57c-.52.63-1,1.2-1.41,1.73s-.89,1-1.41,1.57A12,12,0,0,1,67,31.81a11.17,11.17,0,0,0-1.33,1.41l-2,2-29.36,30,4.94,5c1.73,1.72,3.38,3.4,4.95,5l4.39,4.55C49.87,81.19,51,82.36,52,83.31Q56.2,87.7,60.13,92t7.69,8.71l.48.47c.83.84,1.62,1.71,2.35,2.59s1.41,1.76,2,2.59A15.59,15.59,0,0,1,76,112.19Z"/><path class="cls-1" d="M110.21,110.94c-.1.52-.18,1-.23,1.49a11.86,11.86,0,0,0-.08,1.49l-.94,3.3a3.52,3.52,0,0,1-.48.78l-.47.94a6.07,6.07,0,0,1-2.82,2.83,11.68,11.68,0,0,1-8,.94,8.18,8.18,0,0,1-4.24-1.57,5.91,5.91,0,0,1-2.2-2.67,17.59,17.59,0,0,1-.94-3.14,10,10,0,0,1-.47-2.82V24.59c0-.73,0-1.39.08-2A13.63,13.63,0,0,1,89.65,21,12.47,12.47,0,0,1,90,19.09c.15-.52.34-1.1.55-1.72a4.73,4.73,0,0,1,1.72-2.52,7.29,7.29,0,0,1,3.61-1.57,11.44,11.44,0,0,1,2-.39c.62-.05,1.35-.08,2.19-.08a12.61,12.61,0,0,1,5,1.26,7.23,7.23,0,0,1,3.14,3.45,13.22,13.22,0,0,1,1.57,5.81c.1,1.05.18,2.62.23,4.71s.08,3.67.08,4.71v.63q.32,5,.32,9.66c0,3.08-.06,6.46-.16,10.12s0,7-.08,10.28-.08,6.57-.08,9.82v33a8.76,8.76,0,0,0,.08,1.18,8.6,8.6,0,0,1,.08,1.17A13.4,13.4,0,0,1,110.21,110.94Z"/><path class="cls-1" d="M193,54.73a9.36,9.36,0,0,1,.31,4.24,27.67,27.67,0,0,1-1.09,4.79,48.28,48.28,0,0,1-1.81,4.71c-.68,1.52-1.28,2.85-1.81,4q-4.08,8.32-7.69,16.33t-8.48,17.43c-.62,1.25-1.33,2.75-2.12,4.47a54.22,54.22,0,0,1-2.59,5,35.11,35.11,0,0,1-3.06,4.47,10.83,10.83,0,0,1-3.53,3,5.08,5.08,0,0,1-3.14.79,3.51,3.51,0,0,1-2.83-.79,10.83,10.83,0,0,1-3.53-3,35.11,35.11,0,0,1-3.06-4.47c-.94-1.63-1.81-3.3-2.59-5s-1.49-3.22-2.12-4.47c-1.26-2.41-2.43-4.66-3.53-6.75s-2.26-4.37-3.46-6.83-2.54-5.29-4-8.48-3.19-7.09-5.18-11.7c-.53-1.25-1.1-2.56-1.73-3.92a33,33,0,0,1-1.65-4.4,25.21,25.21,0,0,1-.94-4.79,17.18,17.18,0,0,1,.24-4.94,6,6,0,0,1,2.35-3.77,10.35,10.35,0,0,1,4.24-1.88,11,11,0,0,1,4.71.07A7.14,7.14,0,0,1,138.63,51a16.17,16.17,0,0,1,2.67,3.77c.83,1.57,1.65,3.22,2.43,5s1.52,3.45,2.2,5.18,1.33,3.22,2,4.47c1.47,3,3.11,6.34,5,9.89s3.48,6.86,4.94,9.89c1.05-2.4,2-4.42,2.83-6s1.65-3.22,2.43-4.79,1.62-3.3,2.51-5.18,2-4.29,3.38-7.22q1.89-4.08,3.85-8A28.51,28.51,0,0,1,177.56,51a7.13,7.13,0,0,1,3.62-2.12,10.62,10.62,0,0,1,8.87,1.89A8.81,8.81,0,0,1,193,54.73Z"/><path class="cls-1" d="M293.9,102a23.6,23.6,0,0,1,3.85-.63,8.25,8.25,0,0,1,3.61.47A6,6,0,0,1,304.1,104a6.92,6.92,0,0,1,1.1,4.16,7.4,7.4,0,0,1-.94,3.61,13.56,13.56,0,0,1-2.35,3.14,16.13,16.13,0,0,1-3.14,2.44,24,24,0,0,1-3.3,1.64A45.8,45.8,0,0,1,285,122.08a51.56,51.56,0,0,1-12.17.79,48.76,48.76,0,0,1-16.25-3.38,24.57,24.57,0,0,1-12.17-10.12A36.45,36.45,0,0,1,239.58,94a53.5,53.5,0,0,1,.78-16,36.64,36.64,0,0,1,5.89-14.84,33.2,33.2,0,0,1,10-9.18,32.26,32.26,0,0,1,15.86-4.24,38.59,38.59,0,0,1,16.8,3.45,33.58,33.58,0,0,1,9.57,6.36,26.12,26.12,0,0,1,6.44,9.66,15.8,15.8,0,0,1,1,3.45,37.41,37.41,0,0,1,.55,4.32,33.34,33.34,0,0,1,0,4.47,14.63,14.63,0,0,1-.79,3.93,12.21,12.21,0,0,1-2.35,4.39,8.65,8.65,0,0,1-3.61,2.36,20.71,20.71,0,0,1-5.26,1c-2,.15-4.48.29-7.3.39q-3.76.17-7.07.16c-2.19,0-4.45,0-6.75-.08l-7.14-.16q-3.69-.08-8.24-.23a8,8,0,0,0,.86,5.41,11,11,0,0,0,3.69,3.77,18.64,18.64,0,0,0,5.34,2.28,28.91,28.91,0,0,0,5.81.94,34.67,34.67,0,0,0,10.2-.86C287.09,104,290.45,103,293.9,102Zm-6.75-30.46a19.46,19.46,0,0,0-6.28-5,12.05,12.05,0,0,0-5.26-1,19.43,19.43,0,0,0-5.26.86,14.41,14.41,0,0,0-7.69,4.71,12,12,0,0,0-1.1,1.49c-.53.79-1,1.6-1.49,2.43a10.33,10.33,0,0,0-1,2.36c-.22.73-.11,1.1.31,1.1h30.77a11.84,11.84,0,0,0-.78-3.69A12,12,0,0,0,287.15,71.53Z"/><path class="cls-1" d="M319.33,67.92V63.6c0-1.62.05-3.29.16-5a50.25,50.25,0,0,1,.55-5,18.61,18.61,0,0,1,1.18-4.31,6.87,6.87,0,0,1,3.92-3.85,14,14,0,0,1,5.81-.86,10.2,10.2,0,0,1,5.18,1.1,7.17,7.17,0,0,1,2.83,2.9,11.27,11.27,0,0,1,1.17,4.08,45.84,45.84,0,0,1,.24,4.79,11.49,11.49,0,0,1,3.85-4.08,25.27,25.27,0,0,1,4.94-2.51,28,28,0,0,1,4.55-1.34,23.89,23.89,0,0,1,2.36-.39,56.7,56.7,0,0,1,7.14-.16,28.37,28.37,0,0,1,7.15,1.42,29.43,29.43,0,0,1,5.18,2.59,20.32,20.32,0,0,1,4.71,3.84c2.79,3.24,5,8.82,3.12,13.6-.39,1-1.34,3.46-3.53,4.16-3,1-6.45-2.07-6.85-2.44-1.26-1.16-1-1.55-2.5-2.84a12.51,12.51,0,0,0-4.5-2.5,12.71,12.71,0,0,0-4.25-.5A21.8,21.8,0,0,0,354,67.92,25.05,25.05,0,0,0,347,71.69a30,30,0,0,0-6,6.12v22.61c0,2.82,0,5.76-.08,8.79a28.33,28.33,0,0,1-1.26,8.24,12.46,12.46,0,0,1-3.92,6c-1.83,1.52-4.48,2.17-7.93,2a7,7,0,0,1-5-2.75,11.08,11.08,0,0,1-2.67-5.1q-.31-2.36-.47-5.65t-.24-6.91q-.07-3.61-.08-7.3V67.92Z"/><path class="cls-2" d="M216.34,17.44l.21-.24V.24l-.2-.24-.28.15-9,23.07v.2l4.85,10.27.23.15h10.27l.23-.16,4-10.27v-.19l-9-23.07L217.33,0l-.21.25v17l.21.24a2.88,2.88,0,1,1-1,0Z"/><path class="cls-3" d="M216.84,125c5.81,0,10.58-36.12,11-63.31h-22c.41,27.19,5.18,63.32,11,63.31"/><path class="cls-3" d="M216.84,36.33c-5,0-9.27-1.25-10.6,13.78h21.19C226.1,35.08,221.86,36.33,216.84,36.33Z"/><path class="cls-4" d="M206.24,50.11c-.15,1.69-.26,3.59-.33,5.72h21.85c-.07-2.13-.18-4-.33-5.72Z"/><path class="cls-2" d="M227.83,61.68h-22c0-1.94,0-3.87.07-5.81l21.85,0C227.78,57.78,227.81,59.73,227.83,61.68Z"/><path class="cls-5" d="M377.37,123.75c-3.52,0-6.38-2.47-6.38-5.51V94.76c0-3.05,2.86-5.51,6.38-5.51s6.37,2.46,6.37,5.51v23.48C383.74,121.28,380.89,123.75,377.37,123.75Z"/><rect class="cls-6" x="89.33" y="82.5" width="20.89" height="6.5"/><path class="cls-6" d="M303.89,89H239.32v-.38a53.15,53.15,0,0,1,.3-6.12h66.75a14.5,14.5,0,0,1-1.6,5.06A13.71,13.71,0,0,1,303.89,89Z"/><path class="cls-6" d="M341,88.9H319.31c0-1,0-2,0-3s0-2.29,0-3.42l21.67,0Q341,85.65,341,88.9Z"/></g></g></svg>