<svg width="33" height="22" viewBox="0 0 33 22" fill="none" xmlns="http://www.w3.org/2000/svg">
<path d="M0 20.1665C0 21.1791 0.820876 22 1.83348 22H31.1665C32.1791 22 33 21.1791 33 20.1665V20.1665C33 19.1539 32.1791 18.333 31.1665 18.333H1.83348C0.820876 18.333 0 19.1539 0 20.1665V20.1665ZM0 11C0 12.0124 0.820683 12.833 1.83305 12.833H31.167C32.1793 12.833 33 12.0124 33 11V11C33 9.98764 32.1793 9.16695 31.167 9.16695H1.83305C0.820682 9.16695 0 9.98764 0 11V11ZM1.83348 0C0.820877 0 0 0.820875 0 1.83348V1.83348C0 2.84608 0.820876 3.66695 1.83348 3.66695H31.1665C32.1791 3.66695 33 2.84608 33 1.83348V1.83348C33 0.820875 32.1791 0 31.1665 0H1.83348Z" fill="black"/>
</svg>
