<svg width="33" height="37" viewBox="0 0 33 37" fill="none" xmlns="http://www.w3.org/2000/svg">
<path d="M21.4058 27.9825V29.199C21.4058 30.4895 20.8891 31.7272 19.9692 32.6397C19.0494 33.5523 17.8018 34.0649 16.5009 34.0649C15.2 34.0649 13.9525 33.5523 13.0326 32.6397C12.1128 31.7272 11.596 30.4895 11.596 29.199V27.9825M29.6584 25.5062C27.6903 23.1166 26.3008 21.9001 26.3008 15.3121C26.3008 9.27909 23.1954 7.12972 20.6395 6.08582C20.2999 5.94745 19.9804 5.62964 19.8769 5.2837C19.4285 3.76994 18.1717 2.43637 16.5009 2.43637C14.8302 2.43637 13.5725 3.7707 13.1288 5.28522C13.0253 5.63496 12.7057 5.94745 12.3662 6.08582C9.80722 7.13124 6.70485 9.27301 6.70485 15.3121C6.70102 21.9001 5.31154 23.1166 3.34344 25.5062C2.52799 26.4961 3.24227 27.9825 4.66853 27.9825H28.341C29.7596 27.9825 30.4692 26.4916 29.6584 25.5062Z" stroke="black" stroke-width="4" stroke-linecap="round" stroke-linejoin="round"/>
</svg>
