<svg width="106" height="106" viewBox="0 0 106 106" fill="none" xmlns="http://www.w3.org/2000/svg">
<path d="M14.0144 106H0V91.9856L79.026 12.7633L93.2367 26.9765L14.0144 106ZM96.2459 23.9519L82.0481 9.75406L90.1153 1.94166C91.3613 0.688003 93.2723 2.25331e-05 95.0432 2.25331e-05C95.915 -0.00225507 96.7786 0.168151 97.5842 0.501404C98.3898 0.834657 99.1214 1.32416 99.7368 1.94166L104.069 6.27339C104.683 6.88808 105.171 7.61834 105.502 8.42212C105.834 9.2259 106.003 10.0873 106 10.9568C106 12.7404 105.309 14.6387 104.058 15.8898L96.2459 23.9519Z" fill="black"/>
</svg>
