<svg width="23" height="23" viewBox="0 0 23 23" fill="none" xmlns="http://www.w3.org/2000/svg">
<path d="M22.6504 20.5227L17.4789 15.3512C18.7239 13.6937 19.3961 11.6762 19.3938 9.60315C19.3938 4.30801 15.0858 0 9.79065 0C4.49551 0 0.1875 4.30801 0.1875 9.60315C0.1875 14.8983 4.49551 19.2063 9.79065 19.2063C11.8637 19.2086 13.8812 18.5364 15.5387 17.2914L20.7102 22.4629C20.9719 22.6969 21.3134 22.8218 21.6644 22.812C22.0154 22.8021 22.3493 22.6583 22.5975 22.41C22.8458 22.1618 22.9896 21.8279 22.9995 21.4769C23.0093 21.1259 22.8844 20.7844 22.6504 20.5227ZM2.93126 9.60315C2.93126 8.24649 3.33355 6.9203 4.08727 5.79228C4.84099 4.66425 5.91228 3.78507 7.16567 3.2659C8.41906 2.74673 9.79826 2.61089 11.1289 2.87556C12.4594 3.14023 13.6817 3.79352 14.641 4.75283C15.6003 5.71213 16.2536 6.93436 16.5182 8.26495C16.7829 9.59554 16.6471 10.9747 16.1279 12.2281C15.6087 13.4815 14.7295 14.5528 13.6015 15.3065C12.4735 16.0602 11.1473 16.4625 9.79065 16.4625C7.9721 16.4604 6.22865 15.737 4.94274 14.4511C3.65682 13.1652 2.93344 11.4217 2.93126 9.60315Z" fill="#BCBCBC"/>
</svg>
