<svg width="48" height="49" viewBox="0 0 48 49" fill="none" xmlns="http://www.w3.org/2000/svg">
<path d="M24.6652 17.8036C23.2765 17.6673 21.8792 17.961 20.6649 18.6446C19.4505 19.3281 18.4783 20.3681 17.8815 21.6222C17.2846 22.8762 17.0923 24.283 17.3308 25.65C17.5693 27.0169 18.2269 28.2771 19.2137 29.2581C20.2005 30.2391 21.4682 30.8929 22.8432 31.13C24.2182 31.3671 25.6334 31.1759 26.8948 30.5825C28.1563 29.9892 29.2025 29.0228 29.8901 27.8155C30.5777 26.6083 30.8731 25.2193 30.736 23.8387C30.5796 22.291 29.8898 20.8446 28.7834 19.7447C27.677 18.6448 26.2221 17.9591 24.6652 17.8036V17.8036ZM40.9632 24.5C40.9588 25.2314 40.9048 25.9617 40.8013 26.6859L45.5829 30.4141C45.7911 30.5857 45.9313 30.8251 45.9788 31.0898C46.0262 31.3545 45.9778 31.6273 45.842 31.8598L41.3185 39.6402C41.1812 39.8705 40.9664 40.0451 40.7122 40.1334C40.458 40.2217 40.1805 40.2179 39.9288 40.1228L35.1801 38.2218C34.9182 38.1182 34.6346 38.0807 34.3546 38.1129C34.0746 38.145 33.8069 38.2456 33.5757 38.4058C32.851 38.902 32.0894 39.3427 31.2976 39.7243C31.0486 39.8446 30.8333 40.0239 30.6706 40.2466C30.5079 40.4692 30.4029 40.7282 30.3648 41.0007L29.653 46.0359C29.6062 46.3018 29.468 46.5433 29.262 46.7192C29.056 46.895 28.7949 46.9943 28.5234 47H19.4766C19.2096 46.9954 18.9521 46.9005 18.7466 46.731C18.5411 46.5615 18.3998 46.3274 18.346 46.0674L17.6352 41.0396C17.5953 40.7641 17.4876 40.5026 17.3215 40.2785C17.1554 40.0543 16.9362 39.8744 16.6834 39.7548C15.8925 39.3753 15.1335 38.9333 14.4137 38.4332C14.1833 38.2738 13.9165 38.1739 13.6376 38.1425C13.3586 38.1111 13.0761 38.1492 12.8157 38.2534L8.06801 40.1533C7.81641 40.2485 7.53908 40.2524 7.28485 40.1644C7.03063 40.0763 6.81583 39.9018 6.6783 39.6717L2.15486 31.8914C2.01886 31.6589 1.97026 31.386 2.01771 31.1213C2.06516 30.8565 2.20559 30.6171 2.41398 30.4457L6.45514 27.2915C6.67654 27.1168 6.85054 26.8898 6.96136 26.6313C7.07217 26.3728 7.11629 26.0909 7.08971 25.8111C7.05164 25.3727 7.02837 24.9353 7.02837 24.4968C7.02837 24.0584 7.05058 23.6273 7.08971 23.1984C7.11339 22.9203 7.06711 22.6407 6.95504 22.3849C6.84297 22.129 6.66863 21.9049 6.44774 21.7327L2.40869 18.5785C2.20368 18.4062 2.06622 18.1676 2.02039 17.9046C1.97456 17.6417 2.02329 17.371 2.15803 17.1402L6.68147 9.35981C6.81884 9.12954 7.03357 8.95487 7.2878 8.86659C7.54204 8.7783 7.81947 8.78207 8.07118 8.87722L12.8199 10.7782C13.0818 10.8818 13.3654 10.9193 13.6454 10.8871C13.9254 10.855 14.1931 10.7544 14.4243 10.5942C15.149 10.098 15.9106 9.65727 16.7024 9.2757C16.9514 9.15542 17.1667 8.97606 17.3294 8.75345C17.4921 8.53084 17.5971 8.27183 17.6352 7.9993L18.347 2.96414C18.3938 2.69822 18.532 2.45669 18.738 2.28084C18.944 2.10498 19.2051 2.00571 19.4766 2H28.5234C28.7904 2.00459 29.0479 2.09946 29.2534 2.26898C29.4589 2.4385 29.6002 2.67256 29.654 2.93259L30.3648 7.9604C30.4047 8.23593 30.5124 8.4974 30.6785 8.72155C30.8446 8.94569 31.0638 9.12558 31.3166 9.24521C32.1075 9.62472 32.8665 10.0667 33.5863 10.5668C33.8167 10.7262 34.0835 10.8261 34.3624 10.8575C34.6414 10.8889 34.9239 10.8508 35.1843 10.7466L39.932 8.84673C40.1836 8.75148 40.4609 8.74756 40.7151 8.83565C40.9694 8.92374 41.1842 9.09819 41.3217 9.32827L45.8451 17.1086C45.9811 17.3411 46.0297 17.614 45.9823 17.8787C45.9348 18.1435 45.7944 18.3829 45.586 18.5543L41.5449 21.7085C41.3225 21.8827 41.1475 22.1093 41.0357 22.3679C40.924 22.6264 40.879 22.9087 40.905 23.1889C40.9399 23.6242 40.9632 24.0616 40.9632 24.5Z" stroke="white" stroke-width="3" stroke-linecap="round" stroke-linejoin="round"/>
</svg>
